<?xml version="1.0" encoding="utf-8"?>
<!-- Generator: Adobe Illustrator 16.0.3, SVG Export Plug-In . SVG Version: 6.00 Build 0)  -->
<!DOCTYPE svg PUBLIC "-//W3C//DTD SVG 1.1//EN" "http://www.w3.org/Graphics/SVG/1.1/DTD/svg11.dtd">
<svg version="1.1" id="Capa_1" xmlns="http://www.w3.org/2000/svg" xmlns:xlink="http://www.w3.org/1999/xlink" x="0px" y="0px"
	 width="512px" height="512px" viewBox="0 0 512 512" enable-background="new 0 0 512 512" xml:space="preserve">
<g display="none">
	<path display="inline" fill="#52AEFF" d="M513,256c0,141.387-114.613,256-256,256c-37.742,0-73.582-8.172-105.836-22.832h-0.013
		c-9.75-4.441-19.176-9.465-28.223-15.047c-6.844-4.211-13.469-8.746-19.863-13.563C41.07,413.844,1,339.602,1,256
		C1,114.613,115.613,0,257,0C398.387,0,513,114.613,513,256z"/>
	<path display="inline" fill="#52AEFF" d="M511.577,256c0,141.387-114.612,256-255.999,256c-37.742,0-73.582-8.172-105.836-22.832
		h-0.013c-9.75-4.441-19.176-9.465-28.223-15.047c-6.844-4.211-13.469-8.746-19.863-13.563C39.648,413.844-0.422,339.602-0.422,256
		c0-141.387,114.612-256,256-256C396.965,0,511.577,114.613,511.577,256z"/>
	<path display="inline" fill="#3D4159" d="M383.12,450.574v29.25c-25.551,14.5-53.844,24.719-83.905,29.703
		c-6.449,1.064-12.969,1.9-19.563,2.477c-4.104,0.367-8.241,0.629-12.414,0.785c-3.396,0.145-6.813,0.207-10.237,0.207
		c-7.648,0-15.203-0.332-22.676-0.992c-18.953-1.66-37.313-5.391-54.855-10.961c-17.031-5.402-33.301-12.547-48.59-21.219v-29.25
		c0-44.008,29.887-81.039,70.479-91.898c1.484-0.395,2.978-0.762,4.492-1.086c4.035-0.879,8.172-1.484,12.383-1.828
		c2.57-0.211,5.16-0.313,7.785-0.313h61.954c6.926,0,13.676,0.73,20.176,2.141c0.375,0.074,0.75,0.156,1.116,0.242
		c1.099,0.25,2.195,0.52,3.271,0.813c0.031,0.012,0.056,0.012,0.086,0.023c10.711,2.863,20.677,7.555,29.539,13.707
		C366.913,389.555,383.12,418.172,383.12,450.574z"/>
	<path display="inline" fill="#D2D9F7" d="M312.852,357.59l-0.229,1.078l-32.97,153.336c-7.461,0.66-15.021,0.992-22.65,0.992
		c-7.648,0-15.203-0.332-22.676-0.992L201.36,358.676l-0.229-1.086H312.852L312.852,357.59z"/>
	<path display="inline" fill="#80A1FF" d="M282.535,378.773l-25.539,40.961l-25.539-40.961"/>
	<path display="inline" fill="#80A1FF" d="M280.574,511.914C272.809,512.633,264.941,513,257,513c-7.953,0-15.82-0.367-23.582-1.078
		L257,420.078L280.574,511.914z"/>
	<path display="inline" fill="#B5C4E8" d="M256.988,394.395l-42.827,23.801l-13.031-60.602l26.613-15.676"/>
	<path display="inline" fill="#B5C4E8" d="M256.988,394.395l42.832,23.801l13.026-60.602l-26.612-15.676"/>
	<path display="inline" fill="#2A2F4F" d="M342.159,367.152l-27.69,72.223h13.586l-28.84,70.152
		c-6.449,1.064-12.969,1.9-19.563,2.477c-4.104,0.367-8.241,0.629-12.414,0.785l45.612-160.422L342.159,367.152z"/>
	<path display="inline" fill="#2A2F4F" d="M171.508,367.152l27.688,72.223h-13.582l28.841,70.152
		c6.444,1.064,12.965,1.9,19.559,2.477c4.105,0.367,8.246,0.629,12.414,0.785L201.13,353.422L171.508,367.152z"/>
	<path fill="#EAB599" d="M290.938,318.801v41.656c0,15.25-10.055,28.141-23.904,32.422c-3.17,0.984-6.549,1.516-10.045,1.516
		c-18.744,0-33.938-15.189-33.938-33.938v-41.656H290.938z"/>
	<path fill="#F6CAAE" d="M290.938,357.82v2.637c0,15.25-10.055,28.141-23.904,32.422c-12.496-3.84-21.892-14.707-23.625-28
		c2.266,0.137,4.547,0.207,6.836,0.207c6.422,0,12.719-0.508,18.848-1.516C276.648,362.355,283.949,360.41,290.938,357.82z"/>
	<path fill="#F6CAAE" d="M163.887,250.535c0,15.711-11.479,28.742-26.512,31.16c-1.642,0.266-3.332,0.402-5.056,0.402
		c-17.438,0-31.565-14.125-31.565-31.563c0-17.438,14.129-31.566,31.565-31.566c1.724,0,3.414,0.141,5.056,0.406
		C152.406,221.793,163.887,234.82,163.887,250.535z"/>
	<path fill="#EAB599" d="M163.887,250.535c0,15.711-11.479,28.742-26.512,31.16c-2.73-9.93-4.188-20.379-4.188-31.16
		c0-10.785,1.457-21.234,4.188-31.16C152.406,221.793,163.887,234.82,163.887,250.535z"/>
	<path fill="#EAB599" d="M143.602,250.535c0,6.23-5.051,11.281-11.281,11.281c-6.229,0-11.28-5.051-11.28-11.281
		c0-6.23,5.051-11.281,11.28-11.281C138.551,239.254,143.602,244.305,143.602,250.535z"/>
	<path fill="#F6CAAE" d="M350.102,250.535c0,15.711,11.478,28.742,26.509,31.16c1.646,0.266,3.332,0.402,5.06,0.402
		c17.438,0,31.563-14.125,31.563-31.563c0-17.438-14.125-31.566-31.563-31.566c-1.728,0-3.414,0.141-5.06,0.406
		C361.577,221.793,350.102,234.82,350.102,250.535z"/>
	<g>
		<path display="inline" fill="#EAB599" d="M350.102,250.535c0,15.711,11.478,28.742,26.509,31.16
			c2.729-9.93,4.19-20.379,4.19-31.16c0-10.785-1.457-21.234-4.19-31.16C361.577,221.793,350.102,234.82,350.102,250.535z"/>
		<path display="inline" fill="#EAB599" d="M374.438,189.039v44.723c0,58.441-42.694,106.926-98.598,115.922
			c-0.188,0.03-0.387,0.063-0.574,0.094c-5.945,0.949-12.047,1.423-18.277,1.423c-64.854,0-117.433-52.582-117.433-117.438v-44.723
			c0-13.656,2.328-26.781,6.633-38.973c16.063-45.707,59.613-78.473,110.8-78.473H257c6.219,0,12.328,0.48,18.285,1.422
			C331.461,81.793,374.438,130.398,374.438,189.039z"/>
		<path display="inline" fill="#EAB599" d="M392.948,250.535c0,6.23-5.051,11.281-11.28,11.281c-6.23,0-11.281-5.051-11.281-11.281
			c0-6.23,5.051-11.281,11.281-11.281C387.898,239.254,392.948,244.305,392.948,250.535z"/>
	</g>
	<path fill="#F6CAAE" d="M374.438,189.039v44.723c0,58.441-42.694,106.926-98.598,115.922c-0.188,0.03-0.387,0.063-0.574,0.094
		c-56.176-8.776-99.141-57.387-99.141-116.016v-44.723c0-58.641,42.977-107.246,99.16-116.023
		C331.461,81.793,374.438,130.398,374.438,189.039z"/>
	<path fill="#3D4159" d="M231.984,226.922c0,7.359-5.965,13.32-13.323,13.32c-7.355,0-13.32-5.961-13.32-13.32
		c0-7.359,5.965-13.324,13.32-13.324C226.02,213.598,231.984,219.563,231.984,226.922z"/>
	<path fill="#3D4159" d="M308.652,226.922c0,7.359-5.965,13.32-13.323,13.32c-7.355,0-13.32-5.961-13.32-13.32
		c0-7.359,5.965-13.324,13.32-13.324C302.688,213.598,308.652,219.563,308.652,226.922z"/>
	<path fill="#FFFFFF" d="M229.266,224.57c0,3.152-2.555,5.707-5.707,5.707c-3.151,0-5.707-2.555-5.707-5.707
		c0-3.152,2.556-5.707,5.707-5.707C226.711,218.863,229.266,221.418,229.266,224.57z"/>
	<path fill="#FFFFFF" d="M306.59,224.57c0,3.152-2.56,5.707-5.711,5.707c-3.152,0-5.707-2.555-5.707-5.707
		c0-3.152,2.555-5.707,5.707-5.707C304.031,218.863,306.59,221.418,306.59,224.57z"/>
	<path fill="#EAB599" d="M270.316,255.242H243.67c-3.176,0-5.746-2.574-5.746-5.75c0-3.172,2.57-5.746,5.746-5.746h26.646
		c3.177,0,5.746,2.574,5.746,5.746C276.063,252.668,273.492,255.242,270.316,255.242z"/>
	<path fill="#EAB599" d="M256.996,291.602c-9.836,0-19.668-2.465-28.634-7.391c-2.53-1.391-3.452-4.566-2.063-7.098
		c1.391-2.527,4.566-3.449,7.094-2.063c14.777,8.125,32.422,8.125,47.199,0c2.527-1.387,5.703-0.465,7.095,2.063
		c1.392,2.531,0.469,5.707-2.063,7.098C276.664,289.137,266.828,291.602,256.996,291.602z"/>
	<path fill="#2A2F4F" d="M374.438,148.453v45.813h-21.858v-35.875l-157.78-29.32l-33.383-6.207v71.402h-21.859v-45.813
		c0-52.223,42.328-94.555,94.543-94.555h45.797c1.242,0,2.483,0.023,3.729,0.086C334.102,55.926,374.438,97.473,374.438,148.453z"/>
	<path fill="#3D4159" d="M374.438,148.453v45.813h-21.858v-35.875l-157.78-29.32c8.695-41.754,44.922-73.396,88.828-75.086
		C334.102,55.926,374.438,97.473,374.438,148.453z"/>
	<g display="inline">
		<g>
			<rect x="225.683" y="365.865" display="none" fill="#FDCC9B" width="59.792" height="66.968"/>
			<path display="none" fill="#FCBC85" d="M225.683,373.754c0,0,25.151,16.016,59.792,12.309v-20.195h-59.792V373.754
				L225.683,373.754z"/>
			<ellipse fill="#FCBC85" cx="139.467" cy="262.027" rx="29.175" ry="33.286"/>
			<ellipse fill="#FCBC85" cx="371.689" cy="262.027" rx="29.176" ry="33.286"/>
			<path fill="#FDCC9B" d="M371.573,198.45c0-49.029-35.875-84.902-115.993-84.902c-80.12,0-115.995,35.875-115.995,84.902
				c0,49.029-8.37,178.178,115.995,178.178C379.943,376.628,371.573,247.481,371.573,198.45z"/>
			<g>
				<g>
					<ellipse fill="#3B2519" cx="199.082" cy="254.057" rx="12.557" ry="13.752"/>
					<circle fill="#FFFFFF" cx="193.608" cy="247.985" r="3.755"/>
				</g>
				<path fill="#86461B" d="M178.996,219.975c5.937,2.97,15.471-10.089,37.294,1.271c3.979,2.071,6.353-17.712-17.039-17.712
					C178.996,203.533,175.407,218.183,178.996,219.975z"/>
				<g>
					<ellipse fill="#3B2519" cx="313.627" cy="254.057" rx="12.557" ry="13.752"/>
					<circle fill="#FFFFFF" cx="308.154" cy="247.985" r="3.755"/>
				</g>
				<path fill="#86461B" d="M332.163,219.975c-5.938,2.97-15.471-10.089-37.294,1.271c-3.979,2.071-6.353-17.712,17.04-17.712
					C332.163,203.533,335.75,218.183,332.163,219.975z"/>
			</g>
			<path fill="#FCBC85" d="M255.58,302.428c-12.408,0-19.881-9.27-19.881-4.785c0,4.483,3.588,13.004,19.881,13.004
				s19.881-8.521,19.881-13.004C275.461,293.16,267.984,302.428,255.58,302.428z"/>
			<path fill="#FCBC85" d="M255.58,343.66c-4.292,0-6.877-3.207-6.877-1.654s1.239,4.5,6.877,4.5c5.637,0,6.875-2.947,6.875-4.5
				C262.455,340.454,259.869,343.66,255.58,343.66z"/>
			<path fill="#F7945E" d="M255.58,332.234c-19.666,0-31.515-8.008-31.515-5.979c0,2.029,5.688,10.017,31.515,10.017
				c25.825,0,31.514-7.986,31.514-10.017C287.092,324.225,275.244,332.234,255.58,332.234z"/>
		</g>
		<path display="none" fill="#D58E64" d="M255.58,392.77v75.34H110.29C110.291,437.615,186.818,392.77,255.58,392.77z"/>
		<path display="none" fill="#D58E64" d="M255.58,392.77v75.34h145.286C400.866,437.615,324.336,392.77,255.58,392.77z"/>
		<path display="none" fill="#BF805A" d="M255.58,392.77c-14.625,0-29.601,2.045-44.117,5.535
			c0.098,0.129,16.104,20.773,44.117,20.773c25.94,0,43.188-17.68,45.688-20.401C286.262,394.952,270.73,392.77,255.58,392.77z"/>
		<path display="none" fill="#FDCC9B" d="M225.683,395.378c0,0,8.744,10.847,29.896,10.847c21.149,0,29.896-10.847,29.896-10.847
			S254.457,384.087,225.683,395.378z"/>
		<path fill="#86461B" d="M256.578,351.064v27.805c-62.481,0-83.106-33.314-89.217-42.6c-4.529-6.891,29.396,24.213,59.321,24.213
			C239.837,360.482,239.239,351.064,256.578,351.064z"/>
		<path fill="#86461B" d="M254.578,351.064v27.805c62.48,0,83.105-33.314,89.215-42.6c4.53-6.891-29.396,24.213-59.32,24.213
			C271.32,360.482,271.918,351.064,254.578,351.064z"/>
		<path fill="#86461B" d="M257.365,166.164V68.107c-102.431,0-121.563,38.267-126.348,110.014
			c-4.784,71.75,6.018,96.449,13.173,96.357c7.155-0.095,3.31-82.257,13.137-99.945
			C175.264,142.247,207.329,166.164,257.365,166.164z"/>
		<path fill="#86461B" d="M255.365,166.164V68.107c102.432,0,121.563,38.267,126.348,110.014
			c4.782,71.75-6.019,96.449-13.175,96.357c-7.153-0.095-3.309-82.257-13.135-99.945C337.467,142.247,305.4,166.164,255.365,166.164
			z"/>
		<path display="none" fill="#744A25" d="M191.889,403.949c-45.168,15.26-81.597,43.12-81.597,64.158h81.601v-64.158H191.889
			L191.889,403.949z"/>
		<path display="none" fill="#573514" d="M196.236,468.107v-68.762c0,0-11.658,4.483-15.693,6.574l-11.899,62.185h27.594
			L196.236,468.107L196.236,468.107z"/>
		<path display="none" fill="#744A25" d="M319.27,403.949c45.168,15.26,81.599,43.12,81.599,64.158h-81.603v-64.158H319.27
			L319.27,403.949z"/>
		<path display="none" fill="#573514" d="M314.922,468.107v-68.762c0,0,11.657,4.483,15.692,6.574l11.899,62.185H314.92
			L314.922,468.107L314.922,468.107z"/>
	</g>
	<path display="inline" fill="#EAB599" d="M155.352,403.605v31.543c0,5.391-3.328,10.008-8.047,11.896
		c-1.477,0.598-3.086,0.926-4.777,0.926c-7.077,0-12.819-5.746-12.819-12.822v-31.543c0-7.082,5.742-12.82,12.819-12.82
		c1.691,0,3.302,0.324,4.777,0.918c1.621,0.648,3.078,1.621,4.289,2.836C153.914,396.863,155.352,400.066,155.352,403.605z"/>
	<path display="inline" fill="#F6CAAE" d="M155.352,403.605v55.818c0,5.393-3.328-14.27-8.047-12.379
		c-4.715-1.891-8.043-6.508-8.043-11.896v-31.543c0-5.393,3.328-10.008,8.043-11.902c1.621,0.648,3.078,1.621,4.289,2.836
		C153.914,396.863,155.352,400.066,155.352,403.605z"/>
	<path display="inline" fill="#EAB599" d="M155.355,445.602v29.746c0,5.928-1.934,11.402-5.19,15.82
		c-17.129-7.785-33.238-17.406-48.099-28.609v-16.957c0-14.711,11.935-26.645,26.646-26.645c3.512,0,6.854,0.68,9.926,1.91
		c3.363,1.348,6.396,3.367,8.914,5.895C152.367,431.59,155.355,438.246,155.355,445.602z"/>
	<path display="inline" fill="#F6CAAE" d="M155.355,445.602v29.746c0,5.928-1.934,11.402-5.19,15.82h-0.013
		c-9.75-4.441-19.176-9.465-28.223-15.047c-0.012-0.262-0.012-0.512-0.012-0.773v-29.746c0-11.201,6.918-20.793,16.719-24.732
		c3.363,1.348,6.395,3.367,8.914,5.895C152.367,431.59,155.355,438.246,155.355,445.602z"/>
	<g display="inline">
		
			<linearGradient id="SVGID_1_" gradientUnits="userSpaceOnUse" x1="326.6995" y1="416.4355" x2="512.0198" y2="416.4355" gradientTransform="matrix(1 0 0 -1 -0.02 511.0947)">
			<stop  offset="0" style="stop-color:#3D4159"/>
			<stop  offset="1" style="stop-color:#2A2F4F"/>
		</linearGradient>
		<path fill="url(#SVGID_1_)" d="M512,94.66c0,51.176-41.484,92.66-92.66,92.66c-51.177,0-92.66-41.484-92.66-92.66
			C326.68,43.484,368.163,2,419.34,2C470.516,2,512,43.484,512,94.66z"/>
		<path fill="#FFFFFF" d="M399.866,45.09h38.945v99.141h-38.945V45.09z"/>
		<path fill="#FFFFFF" d="M369.77,75.188h99.142v38.945H369.77V75.188z"/>
	</g>
</g>
<g>
	<path fill="#52AEFF" d="M507.1,257.407c0,36.919-8.018,71.965-22.402,103.495c-24.592,53.902-67.799,97.513-121.396,122.637
		c-9.708,4.543-19.763,8.485-30.114,11.764c-11.642,3.722-23.655,6.581-35.982,8.547c-0.049,0.012-0.11,0.022-0.163,0.022
		c-6.048,0.968-12.153,1.71-18.334,2.232c-1.319,0.11-2.64,0.213-3.965,0.305c-1.866,0.121-3.74,0.231-5.625,0.315
		c-3.85,0.184-7.719,0.275-11.611,0.275c-3.996,0-7.956-0.092-11.897-0.285c-1.783-0.08-3.569-0.185-5.351-0.316
		c-1.333-0.092-2.658-0.183-3.984-0.293c-6.326-0.53-12.591-1.307-18.772-2.305c-2.955-0.479-5.899-0.997-8.813-1.58
		c-12.644-2.506-24.93-5.956-36.797-10.299c-6.878-2.506-13.611-5.309-20.192-8.394c-2.24-1.051-4.471-2.14-6.683-3.271
		c-5.682-2.872-11.235-5.96-16.654-9.251c-27.152-16.441-50.908-37.917-70-63.129c-11.461-15.138-21.229-31.623-29.032-49.187
		C15.566,327.742,7.914,293.47,7.914,257.407c0-137.848,111.744-249.593,249.593-249.593C395.355,7.814,507.1,119.559,507.1,257.407
		z"/>
	<g>
		<path fill="#808B91" d="M238.886,377.589V503c-14.1-2.794-68.536-18.738-71.002-20c-6.336-3.202-12.528-11.33-18.571-15
			c-30.277-18.334-56.768-15.367-78.057-43.481c-12.78-16.88-23.672-27.263-32.374-46.848v-0.081
			c0-34.896,23.698-64.262,55.879-72.865c1.182-0.317,2.362-0.614,3.567-0.861c3.19-0.704,6.472-1.185,9.815-1.457
			c2.034-0.156,4.089-0.249,6.166-0.249h49.132c5.487,0,10.838,0.581,15.998,1.706c0.293,0.056,0.59,0.123,0.883,0.191
			c0.867,0.196,1.742,0.409,2.59,0.638c0.025,0.013,0.047,0.013,0.069,0.022c8.498,2.271,16.393,5.987,23.426,10.871
			C226.034,329.204,238.886,351.891,238.886,377.589z"/>
		<path fill="#A3A6A8" d="M238.886,377.589V506c-38.136-3-49.136-7-89.573-23c-32.581-15-56.768-31.367-78.057-59.481V377.59
			c0-34.896,23.697-64.262,55.879-72.865c1.185-0.317,2.366-0.614,3.567-0.861c3.193-0.704,6.477-1.185,9.814-1.457
			c2.033-0.156,4.09-0.249,6.171-0.249h16.754c5.487,0,10.838,0.581,15.998,1.706c0.293,0.056,0.59,0.123,0.883,0.191
			c0.867,0.196,1.742,0.409,2.59,0.638c0.025,0.013,0.047,0.013,0.069,0.022c8.498,2.271,16.393,5.987,23.426,10.871
			C226.034,329.204,238.886,351.891,238.886,377.589z"/>
		<path fill="#F2F0EC" d="M183.167,303.859l-0.178,0.854l-22.568,104.96c-2.166,10.086-11.042,17.399-21.353,17.408
			c-0.064,0-0.124,0-0.183,0c-0.069,0-0.132,0-0.201,0c-10.315-0.009-19.187-7.32-21.354-17.408L94.763,304.721l-0.178-0.861
			H183.167z"/>
		<path fill="#D8D5D0" d="M138.876,333.039l-33.961,18.873l-10.328-48.053l21.102-12.428"/>
		<path fill="#D8D5D0" d="M138.876,333.039l33.961,18.873l10.329-48.053l-21.103-12.428"/>
		<path fill="#CC7A3B" d="M37.479,283.976V170.21c0-11.56,1.928-22.886,5.733-33.665c14.24-40.516,52.687-67.747,95.668-67.747
			c5.325,0,10.639,0.412,15.802,1.227c23.614,3.691,45.28,15.743,60.991,33.942c15.874,18.393,24.619,41.917,24.619,66.242v113.765"
			/>
		<path fill="#A35418" d="M79.192,174.652c0,40.239,23.565,86.793,36.505,109.323H37.474V170.21c0-11.556,1.933-22.882,5.732-33.665
			c14.156-40.282,52.25-67.431,94.934-67.738C106.966,69.585,79.192,119.604,79.192,174.652z"/>
		<path fill="#EAB599" d="M165.798,273.099v33.032c0,12.091-7.971,22.312-18.955,25.706c-2.514,0.782-5.193,1.202-7.963,1.202
			c-14.864,0-26.908-12.044-26.908-26.908v-33.032H165.798z"/>
		<path fill="#F6CAAE" d="M165.798,304.038v2.094c0,12.09-7.971,22.312-18.955,25.706c-9.908-3.045-17.357-11.662-18.732-22.202
			c1.796,0.111,3.604,0.166,5.418,0.166c5.093,0,10.086-0.404,14.945-1.202C154.467,307.635,160.259,306.093,165.798,304.038z"/>
		<path fill="#F6CAAE" d="M65.058,218.969c0,12.46-9.101,22.792-21.022,24.708c-1.3,0.212-2.643,0.323-4.01,0.323
			C26.204,244,15,232.796,15,218.969c0-13.824,11.204-25.028,25.027-25.028c1.368,0,2.709,0.111,4.01,0.323
			C55.957,196.18,65.058,206.508,65.058,218.969z"/>
		<path fill="#EAB599" d="M65.058,218.969c0,12.46-9.101,22.792-21.022,24.708c-2.162-7.87-3.322-16.155-3.322-24.708
			c0-8.549,1.159-16.834,3.322-24.705C55.957,196.18,65.058,206.508,65.058,218.969z"/>
		<path fill="#EAB599" d="M48.975,218.969c0,4.943-4.006,8.947-8.948,8.947c-4.939,0-8.944-4.006-8.944-8.947
			c0-4.939,4.005-8.945,8.944-8.945C44.969,210.025,48.975,214.03,48.975,218.969z"/>
		<path fill="#EAB599" d="M203.149,187.011v86.033c-13.296,12.693-30.348,21.485-49.318,24.543c-0.148,0.024-0.309,0.05-0.459,0.076
			c-4.714,0.751-9.551,1.125-14.49,1.125c-51.425,0-93.115-41.692-93.115-93.116V170.21c0-4.54,0.322-9.008,0.951-13.374
			c22.156,15.935,53.922,14.358,74.163-4.769c6.702-6.333,11.361-13.87,13.994-21.867c1.465,14.002,7.869,27.63,19.221,38.362
			C167.607,181.32,185.461,187.474,203.149,187.011z"/>
		<path fill="#F6CAAE" d="M203.149,187.011v86.033c-13.296,12.693-30.348,21.485-49.318,24.543c-0.148,0.024-0.309,0.05-0.459,0.076
			c-44.541-6.961-78.609-45.505-78.609-91.991V170.21c0-0.943,0.018-1.88,0.051-2.816c16.419,1.682,33.474-3.423,46.065-15.331
			c6.702-6.328,11.361-13.87,13.993-21.863c1.465,14.002,7.87,27.63,19.222,38.362C167.607,181.32,185.461,187.474,203.149,187.011z
			"/>
		<path fill="#EAB599" d="M188.896,197.807c0-8.544-6.926-15.467-15.468-15.467c-8.541,0-15.467,6.922-15.467,15.467"/>
		<path fill="#EAB599" d="M119.817,197.807c0-8.544-6.927-15.467-15.468-15.467s-15.463,6.922-15.463,15.467"/>
		<path fill="#3D4159" d="M114.915,204.389c0,5.835-4.731,10.566-10.565,10.566c-5.835,0-10.563-4.731-10.563-10.566
			c0-5.835,4.727-10.562,10.563-10.562C110.184,193.827,114.915,198.554,114.915,204.389z"/>
		<path fill="#3D4159" d="M183.991,204.389c0,5.835-4.727,10.566-10.562,10.566s-10.562-4.731-10.562-10.566
			c0-5.835,4.727-10.562,10.562-10.562S183.991,198.554,183.991,204.389z"/>
		<path fill="#EAB599" d="M149.456,230.987h-21.129c-2.518,0-4.556-2.042-4.556-4.557c0-2.513,2.038-4.556,4.556-4.556h21.129
			c2.514,0,4.553,2.042,4.553,4.556C154.009,228.945,151.969,230.987,149.456,230.987z"/>
		<path fill="#EAB599" d="M138.89,259.819c-7.798,0-15.596-1.954-22.705-5.865c-2.004-1.1-2.735-3.618-1.635-5.623
			c1.105-2.005,3.623-2.735,5.628-1.635c11.716,6.442,25.706,6.442,37.423,0c2.004-1.104,4.523-0.37,5.627,1.635
			c1.1,2.004,0.369,4.522-1.635,5.623C154.484,257.865,146.687,259.819,138.89,259.819z"/>
		<path fill="#FFFFFF" d="M112.763,202.524c0,2.501-2.03,4.528-4.527,4.528c-2.501,0-4.527-2.026-4.527-4.528
			c0-2.501,2.026-4.526,4.527-4.526C110.733,197.998,112.763,200.023,112.763,202.524z"/>
		<path fill="#FFFFFF" d="M182.356,202.524c0,2.501-2.026,4.528-4.523,4.528c-2.501,0-4.527-2.026-4.527-4.528
			c0-2.501,2.026-4.526,4.527-4.526C180.329,197.998,182.356,200.023,182.356,202.524z"/>
		<path fill="#EAB599" d="M202.27,230.121c0,6.404-5.194,11.598-11.603,11.598c-6.405,0-11.598-5.194-11.598-11.598
			c0-6.409,5.192-11.602,11.598-11.602C197.076,218.519,202.27,223.712,202.27,230.121z"/>
		<path fill="#EAB599" d="M98.701,230.121c0,6.404-5.189,11.598-11.598,11.598c-6.404,0-11.599-5.194-11.599-11.598
			c0-6.409,5.194-11.602,11.599-11.602C93.512,218.519,98.701,223.712,98.701,230.121z"/>
	</g>
	<g>
		<path fill="#BFD5DE" d="M460.103,366.498v33.089C434.059,456.673,364.5,486.25,331.538,496c-10.281,4.812-20.788,6-31.893,7
			c-12.329,3.941-24.902,3.409-38.107,4c-0.052,0.012-0.116-2-0.173-2V366.498c0-39.326,30.287-71.589,68.824-74.694
			c2.03-0.174,4.067-0.246,6.128-0.246h48.812c5.773,0,11.391,0.633,16.788,1.874C435.234,301.048,460.103,330.883,460.103,366.498z
			"/>
		<path fill="#DDE8ED" d="M460.103,366.498v33.089C434.059,456.673,378.25,479.25,331.538,496c-13.593,4.508-20.93,3.528-31.893,7
			V366.498c0-41.387,33.566-74.94,74.966-74.94h10.527C426.549,291.558,460.103,325.111,460.103,366.498z"/>
		<path fill="#D3A489" d="M287.368,208.889c0,12.382-9.042,22.646-20.884,24.552c-1.295,0.209-2.626,0.318-3.985,0.318
			c-13.737,0-24.87-11.132-24.87-24.87s11.133-24.87,24.87-24.87c1.359,0,2.69,0.109,3.985,0.318
			C278.327,186.246,287.368,196.51,287.368,208.889z"/>
		<path fill="#4C4C4C" d="M380.855,318.594l-20.123,32.275l-20.121-32.275"/>
		<path fill="#4C4C4C" d="M387.805,442.039l-27.073,34.163l-27.076-34.163l27.08-99.568L387.805,442.039z"/>
		<path fill="#BF8E75" d="M287.368,208.889c0,12.382-9.042,22.646-20.884,24.552c-2.15-7.821-3.3-16.053-3.3-24.552
			c0-8.495,1.149-16.727,3.3-24.552C278.327,186.246,287.368,196.51,287.368,208.889z"/>
		<path fill="#BF8E75" d="M271.39,208.889c0,4.909-3.981,8.889-8.89,8.889c-4.909,0-8.885-3.98-8.885-8.889
			c0-4.909,3.977-8.886,8.885-8.886C267.407,200.003,271.39,203.98,271.39,208.889z"/>
		<path fill="#BFD5DE" d="M360.725,322.235l-33.744,18.755l-10.265-47.751l20.967-12.35"/>
		<path fill="#BFD5DE" d="M360.725,322.235l33.748,18.755l10.264-47.751l-20.97-12.35"/>
		<path fill="#D3A489" d="M434.088,208.889c0,12.382,9.043,22.646,20.885,24.552c1.295,0.209,2.626,0.318,3.984,0.318
			c13.738,0,24.871-11.132,24.871-24.87s-11.133-24.87-24.871-24.87c-1.358,0-2.689,0.109-3.984,0.318
			C443.131,186.246,434.088,196.51,434.088,208.889z"/>
		<g>
			<path fill="#BF8E75" d="M434.088,208.889c0,12.382,9.043,22.646,20.885,24.552c2.154-7.821,3.3-16.053,3.3-24.552
				c0-8.495-1.146-16.727-3.3-24.552C443.131,186.246,434.088,196.51,434.088,208.889z"/>
			<path fill="#BF8E75" d="M467.847,208.889c0,4.909-3.98,8.889-8.89,8.889c-4.908,0-8.889-3.98-8.889-8.889
				c0-4.909,3.98-8.886,8.889-8.886C463.866,200.003,467.847,203.98,467.847,208.889z"/>
			<path fill="#BF8E75" d="M453.263,195.672c0,46.045-33.639,84.245-77.684,91.336c-4.828,0.794-9.788,1.193-14.852,1.193
				c-51.106,0-92.528-41.423-92.528-92.529c0-24.181,8.397-60.481,23.583-76.966c16.908-18.355,42.019-15.569,68.945-15.569
				c5.063,0,10.02,0.404,14.852,1.198C419.624,111.426,453.263,149.623,453.263,195.672z"/>
			<path fill="#BF8E75" d="M387.475,262.679v32.819c0,12.016-7.922,22.172-18.836,25.543c-2.497,0.775-5.159,1.194-7.913,1.194
				c-14.767,0-26.738-11.971-26.738-26.738v-32.818H387.475L387.475,262.679z"/>
		</g>
		<path fill="#D3A489" d="M387.475,293.417v2.081c0,12.016-7.922,22.172-18.836,25.543c-9.846-3.024-17.247-11.587-18.614-22.062
			c1.787,0.108,3.582,0.165,5.389,0.165c5.058,0,10.021-0.403,14.853-1.194C376.216,296.99,381.969,295.462,387.475,293.417z"/>
		<path fill="#D3A489" d="M453.263,195.672c0,46.045-33.639,84.245-77.684,91.336c-44.04-7.091-77.678-45.291-77.678-91.336
			c0-28.355,12.753-53.733,32.844-70.709c12.527-10.592,27.915-17.904,44.835-20.63c41.062,6.61,73.089,40.269,77.228,82.111
			C453.11,189.48,453.263,192.562,453.263,195.672z"/>
		<path fill="#BF8E75" d="M360.732,241.245c-7.751,0-15.496-1.94-22.559-5.825c-1.996-1.092-2.722-3.597-1.625-5.59
			c1.094-1.993,3.598-2.719,5.59-1.622c11.641,6.397,25.544,6.397,37.189,0c1.987-1.097,4.492-0.371,5.585,1.622
			c1.099,1.993,0.371,4.498-1.621,5.59C376.23,239.305,368.476,241.245,360.732,241.245z"/>
		<path fill="#3D4159" d="M341.026,190.287c0,5.796-4.699,10.495-10.5,10.495c-5.795,0-10.494-4.699-10.494-10.495
			c0-5.8,4.699-10.499,10.494-10.499C336.326,179.788,341.026,184.487,341.026,190.287z"/>
		<path fill="#3D4159" d="M401.429,190.287c0,5.796-4.698,10.495-10.494,10.495c-5.799,0-10.5-4.699-10.5-10.495
			c0-5.8,4.701-10.499,10.5-10.499C396.731,179.788,401.429,184.487,401.429,190.287z"/>
		<path fill="#FFFFFF" d="M338.885,188.432c0,2.485-2.013,4.5-4.498,4.5c-2.484,0-4.497-2.016-4.497-4.5
			c0-2.48,2.013-4.498,4.497-4.498C336.872,183.934,338.885,185.951,338.885,188.432z"/>
		<path fill="#FFFFFF" d="M399.805,188.432c0,2.485-2.013,4.5-4.498,4.5c-2.483,0-4.496-2.016-4.496-4.5
			c0-2.48,2.013-4.498,4.496-4.498C397.792,183.934,399.805,185.951,399.805,188.432z"/>
		<path fill="#BF8E75" d="M371.227,216.714h-20.993c-2.501,0-4.53-2.029-4.53-4.53c0-2.5,2.029-4.525,4.53-4.525h20.993
			c2.501,0,4.53,2.024,4.53,4.525C375.753,214.685,373.728,216.714,371.227,216.714z"/>
		<path fill="#BFD5DE" d="M391.197,364.042h40.338v12.346h-40.338V364.042z"/>
		<path fill="#2A2F4F" d="M355.316,76.707c28.032,2.001,50.538,24.644,51.962,53.148l0.266,5.353h16.126l8.685,57.751l21.034-6.511
			l-2.823-56.588c-1.492-29.944-26.259-53.411-56.227-53.297L355.316,76.707z"/>
		<path display="none" fill="#3D4159" d="M448.782,54.369c22.32,22.321,22.32,58.513,0,80.834c-22.321,22.32-58.513,22.32-80.834,0
			L448.782,54.369z"/>
		<path fill="#3D4159" d="M367.948,135.203h-70.148l-8.688,57.755l-21.034-6.511l2.817-56.593
			c1.493-29.935,26.259-53.411,56.23-53.296l101.314,0.383l13.395,24.108"/>
		<path fill="#2A2F4F" d="M366.145,76.707c-28.03,2.001-50.539,24.644-51.962,53.148l-0.267,5.353h-16.121l-8.688,57.751
			l-21.034-6.511l2.823-56.588c1.492-29.944,26.258-53.411,56.226-53.297L366.145,76.707z"/>
	</g>
	<g display="none">
		<path display="inline" fill="#020235" d="M363.303,464.825v18.714C331.181,498.587,295.333,507,257.507,507
			c-37.826,0-73.687-8.413-105.807-23.472v-18.703c0-36.932,25.071-67.993,59.127-77.1c1.245-0.335,2.499-0.644,3.77-0.918
			c3.383-0.734,6.855-1.24,10.382-1.525c2.16-0.177,4.33-0.267,6.532-0.267h51.974c5.815,0,11.473,0.613,16.933,1.794
			c0.316,0.062,0.631,0.134,0.937,0.206c0.917,0.213,1.832,0.438,2.738,0.681c0.035,0.009,0.042,0.009,0.073,0.021
			c8.987,2.402,17.351,6.337,24.777,11.501C349.713,413.624,363.303,437.632,363.303,464.825z"/>
		<path display="inline" fill="#D2D9F7" d="M304.359,386.808l-0.193,0.907L278.71,506.105c-1.319,0.111-2.64,0.214-3.965,0.305
			c-1.866,0.122-3.74,0.232-5.625,0.316c-3.852,0.182-7.721,0.273-11.613,0.273c-3.996,0-7.956-0.092-11.897-0.285
			c-1.783-0.08-3.569-0.185-5.351-0.316c-1.333-0.092-2.658-0.183-3.984-0.293l-25.448-118.38l-0.19-0.918H304.359z"/>
		<path display="inline" fill="#80A1FF" d="M278.926,413.814l-21.427,34.359l-21.423-34.359"/>
		<path display="inline" fill="#80A1FF" d="M274.744,506.41c-1.866,0.121-3.74,0.231-5.625,0.315
			c-3.851,0.183-7.72,0.274-11.612,0.274c-3.996,0-7.956-0.092-11.897-0.285c-1.783-0.08-3.569-0.185-5.351-0.316l17.249-67.167
			L274.744,506.41z"/>
		<path display="inline" fill="#B5C4E8" d="M257.494,417.688l-35.932,19.968l-10.931-50.84l22.325-13.15"/>
		<path display="inline" fill="#B5C4E8" d="M257.494,417.688l35.931,19.968l10.931-50.84l-22.326-13.15"/>
		<path display="inline" fill="#2A2F4F" d="M305.714,455.422h11.398l-19.907,48.429c-9.208,1.479-18.581,2.446-28.087,2.875
			l34.972-119.03l0.267-0.888l24.584,8.028L305.714,455.422z"/>
		<path display="inline" fill="#2A2F4F" d="M245.61,506.715c-9.518-0.438-18.898-1.425-28.107-2.914l-19.888-48.379h11.398
			l-23.235-60.586l24.591-8.028l0.267,0.888L245.61,506.715z"/>
		<path display="inline" fill="#EAB599" d="M285.976,354.272v34.942c0,12.797-8.437,23.61-20.056,27.2
			c-2.662,0.826-5.496,1.272-8.43,1.272c-15.725,0-28.467-12.747-28.467-28.473v-34.942H285.976z"/>
		<path display="inline" fill="#F6CAAE" d="M285.976,387.002v2.217c0,12.793-8.437,23.605-20.056,27.199
			c-10.485-3.226-18.369-12.339-19.823-23.494c1.904,0.118,3.816,0.175,5.735,0.175c5.389,0,10.672-0.428,15.813-1.269
			C273.986,390.811,280.111,389.177,285.976,387.002z"/>
		<path display="inline" fill="#F6CAAE" d="M179.387,297c0,13.182-9.632,24.11-22.243,26.142c-1.378,0.221-2.795,0.339-4.239,0.339
			c-14.628,0-26.484-11.851-26.484-26.48c0-14.628,11.852-26.484,26.484-26.484c1.442,0,2.86,0.118,4.239,0.344
			C169.756,272.889,179.387,283.819,179.387,297z"/>
		<path display="inline" fill="#EAB599" d="M179.387,297c0,13.182-9.632,24.11-22.243,26.142
			c-2.289-8.329-3.511-17.097-3.511-26.142c0-9.049,1.223-17.813,3.511-26.143C169.756,272.889,179.387,283.819,179.387,297z"/>
		<path display="inline" fill="#EAB599" d="M162.371,297c0,5.225-4.239,9.464-9.464,9.464c-5.229,0-9.464-4.239-9.464-9.464
			c0-5.229,4.235-9.464,9.464-9.464C158.132,287.536,162.371,291.771,162.371,297z"/>
		<path display="inline" fill="#F6CAAE" d="M335.607,297c0,13.182,9.632,24.11,22.242,26.142c1.374,0.221,2.795,0.339,4.239,0.339
			c14.628,0,26.484-11.851,26.484-26.48c0-14.628-11.853-26.484-26.484-26.484c-1.443,0-2.865,0.118-4.239,0.344
			C345.239,272.889,335.607,283.819,335.607,297z"/>
		<path display="inline" fill="#EAB599" d="M335.607,297c0,13.182,9.632,24.11,22.242,26.142c2.289-8.329,3.512-17.097,3.512-26.142
			c0-9.049-1.223-17.813-3.512-26.143C345.239,272.889,335.607,283.819,335.607,297z"/>
		<path display="inline" fill="#EAB599" d="M356.025,245.411v37.516c0,49.03-35.818,89.702-82.716,97.25
			c-0.156,0.026-0.324,0.054-0.48,0.08c-4.989,0.8-10.107,1.192-15.334,1.192c-54.412,0-98.518-44.109-98.518-98.518v-37.521
			c0-11.456,1.954-22.466,5.564-32.696c13.474-38.344,50.009-65.833,92.953-65.833h0.009c5.218,0,10.343,0.404,15.34,1.192
			C319.969,155.435,356.025,196.216,356.025,245.411z"/>
		<path display="inline" fill="#EAB599" d="M371.552,297c0,5.225-4.235,9.464-9.464,9.464c-5.226,0-9.464-4.239-9.464-9.464
			c0-5.229,4.238-9.464,9.464-9.464C367.317,287.536,371.552,291.771,371.552,297z"/>
		<path display="inline" fill="#F6CAAE" d="M356.021,245.411v37.516c0,49.026-35.814,89.702-82.712,97.25
			c-0.16,0.026-0.324,0.054-0.484,0.08c-47.122-7.366-83.17-48.144-83.17-97.33v-37.516c0-49.194,36.055-89.976,83.189-97.337
			C319.969,155.435,356.021,196.216,356.021,245.411z"/>
		<path display="inline" fill="#3D4159" d="M236.515,277.188c0,6.174-5.004,11.178-11.174,11.178
			c-6.173,0-11.178-5.004-11.178-11.178c0-6.17,5.004-11.174,11.178-11.174C231.51,266.015,236.515,271.019,236.515,277.188z"/>
		<path display="inline" fill="#3D4159" d="M300.835,277.188c0,6.174-5.004,11.178-11.178,11.178s-11.178-5.004-11.178-11.178
			c0-6.17,5.004-11.174,11.178-11.174S300.835,271.019,300.835,277.188z"/>
		<path display="inline" fill="#FFFFFF" d="M234.237,275.22c0,2.643-2.144,4.787-4.791,4.787c-2.643,0-4.787-2.145-4.787-4.787
			c0-2.647,2.144-4.791,4.787-4.791C232.093,270.429,234.237,272.572,234.237,275.22z"/>
		<path display="inline" fill="#FFFFFF" d="M299.103,275.22c0,2.643-2.144,4.787-4.787,4.787c-2.646,0-4.791-2.145-4.791-4.787
			c0-2.647,2.145-4.791,4.791-4.791C296.959,270.429,299.103,272.572,299.103,275.22z"/>
		<path display="inline" fill="#EAB599" d="M268.677,300.949h-22.356c-2.661,0-4.82-2.159-4.82-4.821
			c0-2.666,2.159-4.821,4.82-4.821h22.356c2.661,0,4.821,2.155,4.821,4.821C273.494,298.79,271.336,300.949,268.677,300.949z"/>
		<path display="inline" fill="#EAB599" d="M257.499,331.452c-8.25,0-16.503-2.068-24.021-6.204
			c-2.121-1.166-2.898-3.832-1.728-5.949c1.165-2.121,3.832-2.896,5.952-1.732c12.397,6.816,27.198,6.816,39.593,0
			c2.121-1.166,4.787-0.393,5.951,1.732c1.17,2.117,0.393,4.782-1.728,5.949C273.998,329.384,265.748,331.452,257.499,331.452z"/>
		<path display="inline" fill="#2A2F4F" d="M356.025,211.363v38.431h-18.339v-30.098L205.319,195.1l-28.008-5.207v59.901h-18.339
			v-38.435c0-43.813,35.51-79.322,79.316-79.322h38.419c1.044,0,2.088,0.02,3.131,0.071
			C322.187,133.738,356.025,168.593,356.025,211.363z"/>
		<path display="inline" fill="#3D4159" d="M356.025,211.363v38.431h-18.339v-30.098L205.319,195.1
			c7.293-35.031,37.685-61.571,74.521-62.992C322.187,133.738,356.025,168.593,356.025,211.363z"/>
	</g>
</g>
</svg>
