<?xml version="1.0"?>
<svg xmlns="http://www.w3.org/2000/svg" xmlns:xlink="http://www.w3.org/1999/xlink" xmlns:svgjs="http://svgjs.com/svgjs" version="1.1" width="512" height="512" x="0" y="0" viewBox="0 0 497 497" style="enable-background:new 0 0 512 512" xml:space="preserve" class=""><g><g xmlns="http://www.w3.org/2000/svg"><path d="m484.223 425.5h-473.361c-2.761 0-5-2.239-5-5l-1.639-318.989c0-2.761 2.239-5 5-5l7.777-5.511h475c2.761 0 5 2.239 5 5v318l-7.777 6.5c0 2.761-2.238 5-5 5z" fill="#62abe8" data-original="#c48958" style="" class=""/><path d="m497 414v12c0 2.761-2.239 5-5 5h-487c-2.761 0-5-2.239-5-5v-330c0-2.761 2.239-5 5-5h12v318c0 2.761 2.239 5 5 5z" fill="#569bd5" data-original="#b27a49" style="" class=""/><path d="m266 436h-35c-2.761 0-5-2.239-5-5v-30h45v30c0 2.761-2.239 5-5 5z" fill="#569bd5" data-original="#b27a49" style="" class=""/><path d="m453.074 395-204.574 1.266-16.021-127.766 18.133-169.489c0-11.91 4.829-30.21 14.886-35.055 3.934-1.894 8.344-2.956 13.002-2.956h183.5c2.761 0 5 2.239 5 5v318l-8.926 6c0 2.761-2.238 5-5 5z" fill="#faf8f8" data-original="#faf8f8" style="" class=""/><path d="m467 384v12c0 2.761-2.239 5-5 5h-213.5l-16.021-149.489 16.021-160.511c0-11.91 6.94-22.2 17-27.04v316.04c0 2.209 1.791 4 4 4z" fill="#f0e9e6" data-original="#f0e9e6" style="" class=""/><path d="m248.5 396.266-209.213 1.234c-2.761 0-5-2.239-5-5l-1.468-321.851c0-2.761 2.239-5 5-5l9.181-4.649h171.5c16.569 0 30 13.431 30 30z" fill="#faf8f8" data-original="#faf8f8" style="" class=""/><path d="m265.5 384v17h-230.5c-2.761 0-5-2.239-5-5v-330c0-2.761 2.239-5 5-5h12v319c0 2.209 1.791 4 4 4z" fill="#f0e9e6" data-original="#f0e9e6" style="" class=""/><g><path d="m287.702 304.242c-4.143 0-7.5-3.358-7.5-7.5v-52.971c0-4.142 3.357-7.5 7.5-7.5s7.5 3.358 7.5 7.5v52.971c0 4.142-3.357 7.5-7.5 7.5z" fill="#f0e9e6" data-original="#f0e9e6" style="" class=""/></g><g fill="#aad8de"><path d="m95.282 93.668c-.025-.069-.053-.138-.081-.207-1.357-3.296-4.536-5.425-8.1-5.425-.003 0-.005 0-.008 0-3.567.003-6.746 2.139-8.099 5.44-.023.058-.046.115-.068.173l-20.857 54.763c-1.475 3.871.469 8.204 4.339 9.678.879.334 1.781.493 2.669.493 3.021 0 5.87-1.84 7.01-4.833l3.355-8.808h23.159l3.316 8.787c1.462 3.876 5.79 5.833 9.665 4.369 3.875-1.463 5.831-5.79 4.368-9.665zm-14.127 36.275 5.92-15.542 5.866 15.542z" fill="#62abe8" data-original="#aad8de" style="" class=""/><path d="m302.969 236.214h-15.267c-1.991 0-3.901.792-5.309 2.202-1.406 1.41-2.195 3.321-2.191 5.313 0 0 .039 20.733.039 26.878 0 7.494.07 27.038.07 27.038.007 1.989.805 3.895 2.216 5.296 1.405 1.395 3.305 2.177 5.284 2.177h.028c.462-.002 11.353-.043 15.706-.12 16.624-.291 28.69-14.729 28.69-34.332.001-20.606-11.76-34.452-29.266-34.452zm.315 53.786c-1.853.033-5.013.059-7.998.079-.021-6.322-.045-15.024-.045-19.472 0-3.726-.015-12.808-.025-19.392h7.753c13.238 0 14.268 14.889 14.268 19.452-.001 9.501-4.315 19.164-13.953 19.333z" fill="#62abe8" data-original="#aad8de" style="" class=""/><path d="m103.457 266.257c1.898-3.086 3.013-6.702 3.013-10.583 0-11.183-9.098-20.281-20.281-20.281h-16.135c-4.143 0-7.5 3.358-7.5 7.5v25.577.042 29.927c0 1.995.795 3.908 2.209 5.315 1.405 1.4 3.308 2.185 5.291 2.185h.033c.002 0 14.832-.066 18.92-.066 12.38 0 22.451-10.072 22.451-22.451 0-6.88-3.113-13.044-8.001-17.165zm-17.269-15.864c2.912 0 5.281 2.369 5.281 5.281s-2.369 5.281-5.281 5.281c-1.189 0-3.431.007-5.873.015h-2.762v-10.577zm2.819 40.48c-2.12 0-7.117.018-11.453.035v-14.927c.928-.004 1.871-.007 2.786-.01h8.667c4.108 0 7.451 3.343 7.451 7.451s-3.343 7.451-7.451 7.451z" fill="#62abe8" data-original="#aad8de" style="" class=""/><path d="m333.678 137.499c-3.174-2.663-7.904-2.25-10.566.921-.47.559-.974 1.079-1.5 1.547-2.693 2.399-6.143 3.615-10.254 3.615-11.179 0-20.272-9.094-20.272-20.273s9.094-20.273 20.272-20.273c4.063 0 7.981 1.196 11.33 3.458 3.433 2.319 8.095 1.416 10.413-2.016 2.318-3.433 1.416-8.095-2.017-10.414-5.837-3.944-12.659-6.028-19.727-6.028-19.449 0-35.272 15.823-35.272 35.273s15.823 35.273 35.272 35.273c7.79 0 14.785-2.564 20.229-7.413 1.065-.948 2.078-1.992 3.013-3.104 2.663-3.172 2.251-7.903-.921-10.566z" fill="#62abe8" data-original="#aad8de" style="" class=""/></g><g><path d="m214 130.809h-70c-4.143 0-7.5-3.358-7.5-7.5s3.357-7.5 7.5-7.5h70c4.143 0 7.5 3.358 7.5 7.5s-3.357 7.5-7.5 7.5z" fill="#f0e9e6" data-original="#f0e9e6" style="" class=""/></g><g><path d="m174 160.809h-30c-4.143 0-7.5-3.358-7.5-7.5s3.357-7.5 7.5-7.5h30c4.143 0 7.5 3.358 7.5 7.5s-3.357 7.5-7.5 7.5z" fill="#f0e9e6" data-original="#f0e9e6" style="" class=""/></g><g><path d="m194 190.809h-50c-4.143 0-7.5-3.358-7.5-7.5s3.357-7.5 7.5-7.5h50c4.143 0 7.5 3.358 7.5 7.5s-3.357 7.5-7.5 7.5z" fill="#f0e9e6" data-original="#f0e9e6" style="" class=""/></g><g><path d="m214 220.809h-70c-4.143 0-7.5-3.358-7.5-7.5s3.357-7.5 7.5-7.5h70c4.143 0 7.5 3.358 7.5 7.5s-3.357 7.5-7.5 7.5z" fill="#f0e9e6" data-original="#f0e9e6" style="" class=""/></g><g><path d="m214 275.5h-70c-4.143 0-7.5-3.358-7.5-7.5s3.357-7.5 7.5-7.5h70c4.143 0 7.5 3.358 7.5 7.5s-3.357 7.5-7.5 7.5z" fill="#f0e9e6" data-original="#f0e9e6" style="" class=""/></g><g><path d="m194 305.5h-50c-4.143 0-7.5-3.358-7.5-7.5s3.357-7.5 7.5-7.5h50c4.143 0 7.5 3.358 7.5 7.5s-3.357 7.5-7.5 7.5z" fill="#f0e9e6" data-original="#f0e9e6" style="" class=""/></g><g><path d="m214 335.5h-70c-4.143 0-7.5-3.358-7.5-7.5s3.357-7.5 7.5-7.5h70c4.143 0 7.5 3.358 7.5 7.5s-3.357 7.5-7.5 7.5z" fill="#f0e9e6" data-original="#f0e9e6" style="" class=""/></g><g><path d="m174 365.5h-30c-4.143 0-7.5-3.358-7.5-7.5s3.357-7.5 7.5-7.5h30c4.143 0 7.5 3.358 7.5 7.5s-3.357 7.5-7.5 7.5z" fill="#f0e9e6" data-original="#f0e9e6" style="" class=""/></g><g><path d="m394 130.809h-30c-4.143 0-7.5-3.358-7.5-7.5s3.357-7.5 7.5-7.5h30c4.143 0 7.5 3.358 7.5 7.5s-3.357 7.5-7.5 7.5z" fill="#f0e9e6" data-original="#f0e9e6" style="" class=""/></g><g><path d="m434 160.809h-70c-4.143 0-7.5-3.358-7.5-7.5s3.357-7.5 7.5-7.5h70c4.143 0 7.5 3.358 7.5 7.5s-3.357 7.5-7.5 7.5z" fill="#f0e9e6" data-original="#f0e9e6" style="" class=""/></g><g><path d="m424 190.809h-60c-4.143 0-7.5-3.358-7.5-7.5s3.357-7.5 7.5-7.5h60c4.143 0 7.5 3.358 7.5 7.5s-3.357 7.5-7.5 7.5z" fill="#f0e9e6" data-original="#f0e9e6" style="" class=""/></g><g><path d="m404 220.809h-40c-4.143 0-7.5-3.358-7.5-7.5s3.357-7.5 7.5-7.5h40c4.143 0 7.5 3.358 7.5 7.5s-3.357 7.5-7.5 7.5z" fill="#f0e9e6" data-original="#f0e9e6" style="" class=""/></g><g><path d="m414 275.5h-50c-4.143 0-7.5-3.358-7.5-7.5s3.357-7.5 7.5-7.5h50c4.143 0 7.5 3.358 7.5 7.5s-3.357 7.5-7.5 7.5z" fill="#f0e9e6" data-original="#f0e9e6" style="" class=""/></g><g><path d="m434 305.5h-70c-4.143 0-7.5-3.358-7.5-7.5s3.357-7.5 7.5-7.5h70c4.143 0 7.5 3.358 7.5 7.5s-3.357 7.5-7.5 7.5z" fill="#f0e9e6" data-original="#f0e9e6" style="" class=""/></g><g><path d="m394 335.5h-30c-4.143 0-7.5-3.358-7.5-7.5s3.357-7.5 7.5-7.5h30c4.143 0 7.5 3.358 7.5 7.5s-3.357 7.5-7.5 7.5z" fill="#f0e9e6" data-original="#f0e9e6" style="" class=""/></g><g><path d="m424 365.5h-60c-4.143 0-7.5-3.358-7.5-7.5s3.357-7.5 7.5-7.5h60c4.143 0 7.5 3.358 7.5 7.5s-3.357 7.5-7.5 7.5z" fill="#f0e9e6" data-original="#f0e9e6" style="" class=""/></g></g></g></svg>
