<svg width="482" height="350" viewBox="0 0 482 350" fill="none" xmlns="http://www.w3.org/2000/svg">
<path d="M480.128 164.76C480.128 259.477 351.802 349.762 231.128 349.762C110.454 349.762 0.128206 269.977 0.128206 175.26C-3.87183 69.4277 86.1282 -85.2396 214.128 57.7602C342.128 200.76 494.128 -2.23953 480.128 164.76Z" fill="white"/>
<g clip-path="url(#clip0_21_324)">
<path d="M271.854 303.333H188.89C181.33 303.333 175.145 297.147 175.145 289.585V232.335C175.145 210.339 193.112 192.319 215.154 192.319H245.59C267.583 192.319 285.599 210.339 285.599 232.335V289.585C285.599 297.147 279.414 303.333 271.854 303.333Z" fill="#1F78CA"/>
<path d="M244.608 176.313V195.315C244.608 202.876 238.423 209.062 230.863 209.062H229.881C222.321 209.062 216.136 202.876 216.136 195.315V176.313C216.136 168.752 222.321 162.565 229.881 162.565H230.863C238.423 162.565 244.608 168.752 244.608 176.313Z" fill="#E2B17D"/>
<path opacity="0.7" d="M244.608 179.603V189.472C235.772 191.141 220.947 187.753 216.136 184.905V178.473L244.608 179.603Z" fill="#C46F4E"/>
<path d="M230.372 184.513C200.279 184.513 175.685 159.914 175.685 129.865V113.466C175.685 83.4169 200.279 58.8181 230.372 58.8181C260.416 58.8181 285.01 83.4169 285.01 113.466V129.865C285.01 159.914 260.416 184.513 230.372 184.513Z" fill="#E2B17D"/>
<path d="M213.681 132.615C213.681 136.493 210.539 139.685 206.661 139.685C202.783 139.685 199.592 136.493 199.592 132.615C199.592 128.736 202.783 125.593 206.661 125.593C210.539 125.593 213.681 128.736 213.681 132.615Z" fill="#56423A"/>
<path d="M255.899 132.615C255.899 136.493 252.758 139.685 248.879 139.685C245.001 139.685 241.81 136.493 241.81 132.615C241.81 128.736 245.001 125.593 248.879 125.593C252.758 125.593 255.899 128.736 255.899 132.615Z" fill="#56423A"/>
<path d="M234.447 153.236H226.248C225.708 153.236 225.267 152.794 225.267 152.254V122.5C225.267 121.96 225.708 121.518 226.248 121.518C226.788 121.518 227.23 121.96 227.23 122.5V151.272H234.447C234.987 151.272 235.428 151.714 235.428 152.254C235.428 152.794 234.987 153.236 234.447 153.236Z" fill="#C46F4E"/>
<path opacity="0.6" d="M181.919 121.322C181.919 121.322 194.388 117.246 201.065 109.391C207.79 101.535 209.116 95.1517 209.263 95.6427C209.41 96.1337 221.192 112.337 247.407 114.644C273.572 116.903 279.119 109.047 279.119 109.047L274.554 94.808L202.243 75.1682L179.661 91.7147L178.974 117.737L181.919 121.322Z" fill="#C46F4E"/>
<path d="M197.972 76.9849C197.972 76.9849 206.317 98.0977 232.827 106.199C259.336 114.3 282.654 96.1337 282.654 96.1337C282.654 96.1337 278.236 60.5366 232.09 58.3271C185.945 56.1176 197.972 76.9849 197.972 76.9849Z" fill="#56423A"/>
<path d="M215.154 79.9309C215.154 79.9309 190.117 127.066 176.126 117.737C162.136 108.409 181.036 66.1831 199.445 68.3925C217.854 70.602 216.136 79.9309 215.154 79.9309Z" fill="#56423A"/>
<path d="M271.363 96.1337C271.363 96.1337 276.027 122.402 284.127 124.12C292.227 125.839 285.109 83.3679 271.363 74.039C257.618 64.7101 271.363 96.1337 271.363 96.1337Z" fill="#56423A"/>
<path d="M181.772 114.055C181.772 114.791 184.472 144.251 183.736 144.251C182.999 144.251 174.899 144.251 174.899 144.251L171.708 107.181L181.772 114.055Z" fill="#56423A"/>
<path d="M281.181 111.747C281.083 111.715 280.985 111.682 280.887 111.649L277.401 114.055C277.401 114.791 274.701 144.251 275.438 144.251C276.174 144.251 284.274 144.251 284.274 144.251L287.023 111.846C285.092 111.944 283.145 111.911 281.181 111.747Z" fill="#56423A"/>
<path d="M236.607 164.48C236.607 165.953 235.379 167.181 233.907 167.181C232.385 167.181 231.207 165.953 231.207 164.48C231.207 162.958 232.385 161.78 233.907 161.78C235.379 161.78 236.607 162.958 236.607 164.48Z" fill="#753232"/>
<path d="M294.436 121.174H291.49V120.291C291.589 97.9013 285.894 80.7655 274.554 69.3745C264.049 58.769 248.732 53.4172 229.145 53.4172C209.017 53.4172 193.701 58.6217 183.588 68.8835C168.517 84.2025 168.861 107.132 169.008 115.773C169.008 116.526 169.008 117.181 169.008 117.737H166.063C166.063 117.181 166.063 116.543 166.063 115.823C165.916 106.837 165.523 83.0241 181.477 66.8213C192.179 55.9703 208.183 50.4712 229.145 50.4712C249.567 50.4712 265.521 56.1176 276.665 67.2632C288.545 79.2435 294.534 97.1157 294.436 120.34V121.174Z" fill="#2D2D44"/>
<path d="M254.132 172.876C250.843 172.876 247.358 172.483 243.578 171.698L244.167 168.85C279.119 176.117 290.95 143.858 291.098 143.515L293.847 144.497C293.749 144.791 283.39 172.876 254.132 172.876Z" fill="#2D2D44"/>
<path d="M170.628 144.742H163.952C161.448 144.742 159.436 142.729 159.436 140.176V119.063C159.436 116.559 161.448 114.546 163.952 114.546H170.579C173.132 114.546 175.145 116.559 175.145 119.112V140.225C175.145 142.729 173.132 144.742 170.579 144.742H170.628Z" fill="#1F78CA"/>
<path d="M295.81 144.742H289.183C286.63 144.742 284.618 142.729 284.618 140.176V119.063C284.618 116.559 286.63 114.546 289.183 114.546H295.81C298.314 114.546 300.327 116.559 300.327 119.112V140.225C300.327 142.729 298.314 144.742 295.81 144.742Z" fill="#1F78CA"/>
<path d="M247.799 169.93C247.799 172.827 244.216 175.184 239.798 175.184C235.428 175.184 231.845 172.827 231.845 169.93C231.845 166.984 235.428 164.627 239.847 164.627C244.216 164.627 247.799 166.984 247.799 169.93Z" fill="#1F78CA"/>
<path d="M216.037 188.588L227.77 209.062L217.461 216.427L208.379 193.007L216.037 188.588Z" fill="#12518B"/>
<path d="M244.608 188.833C244.608 188.833 227.279 209.062 227.77 209.062C228.261 209.062 236.361 217.311 236.361 217.311L250.352 192.614L244.608 188.833Z" fill="#12518B"/>
<path d="M268.516 306.918C248.781 306.918 233.907 303.824 232.974 303.628C227.967 302.548 224.776 297.589 225.856 292.531C226.936 287.523 231.894 284.283 236.901 285.363C237.196 285.461 267.878 291.795 297.774 285.363C302.585 284.332 308.427 282.319 309.31 278.587C310.538 273.432 305.432 261.059 287.563 242.008C274.21 227.867 259.925 216.476 259.778 216.378C255.752 213.138 255.065 207.295 258.305 203.269C261.496 199.242 267.338 198.555 271.412 201.747C272.001 202.238 286.729 213.972 300.965 229.095C322.025 251.435 330.714 269.013 327.474 282.859C325.805 290.175 319.914 299.7 301.701 303.628C290.165 306.083 278.678 306.918 268.516 306.918Z" fill="#1F78CA"/>
<path opacity="0.5" d="M212.552 151.027C212.552 154.709 208.821 157.655 204.256 157.655C199.69 157.655 196.008 154.709 196.008 151.027C196.008 147.394 199.69 144.398 204.256 144.398C208.821 144.398 212.552 147.394 212.552 151.027Z" fill="#C48972"/>
<path opacity="0.5" d="M260.661 151.027C260.661 154.709 256.93 157.655 252.365 157.655C247.799 157.655 244.118 154.709 244.118 151.027C244.118 147.394 247.799 144.398 252.365 144.398C256.93 144.398 260.661 147.394 260.661 151.027Z" fill="#C48972"/>
<path d="M213.19 118.376C213.027 118.376 212.847 118.343 212.65 118.278C206.121 115.773 199.396 118.278 199.297 118.278C198.561 118.572 197.727 118.228 197.432 117.443C197.137 116.706 197.481 115.823 198.267 115.528C198.561 115.43 206.072 112.582 213.73 115.528C214.467 115.823 214.859 116.706 214.565 117.443C214.319 118.032 213.779 118.376 213.19 118.376Z" fill="#56423A"/>
<path d="M257.863 118.376C257.699 118.376 257.519 118.343 257.323 118.278C250.794 115.773 244.069 118.278 243.97 118.278C243.234 118.572 242.399 118.228 242.105 117.443C241.81 116.706 242.154 115.823 242.939 115.528C243.234 115.43 250.745 112.582 258.403 115.528C259.139 115.823 259.532 116.706 259.238 117.443C258.992 118.032 258.452 118.376 257.863 118.376Z" fill="#56423A"/>
<path d="M246.13 99.8161C228.31 99.8161 218.099 90.4382 218.001 90.34C217.805 90.1927 217.805 89.8489 218.001 89.6525C218.148 89.4561 218.492 89.4561 218.688 89.6525C218.787 89.7507 230.568 100.504 250.941 98.5887C251.236 98.5887 251.432 98.785 251.481 99.0305C251.481 99.3251 251.285 99.5215 251.039 99.5706C249.338 99.7343 247.701 99.8161 246.13 99.8161Z" fill="#997453"/>
<path d="M265.57 77.9669C265.472 77.9669 265.374 77.9341 265.276 77.8687C262.674 75.7083 259.778 73.7934 256.783 72.1732C256.538 72.0259 256.439 71.7313 256.587 71.4858C256.685 71.2403 256.979 71.1421 257.225 71.2894C260.318 72.9587 263.214 74.9227 265.914 77.0831C266.11 77.2795 266.159 77.5741 265.963 77.7705C265.865 77.9178 265.718 77.9669 265.57 77.9669Z" fill="#997453"/>
<path d="M253.494 70.5038C253.428 70.5038 253.363 70.4874 253.298 70.4547C243.136 65.8884 232.974 65.2501 220.799 65.692C220.554 65.692 220.308 65.4956 220.308 65.201C220.308 64.9555 220.505 64.7101 220.799 64.7101C233.072 64.2682 243.332 64.9064 253.69 69.5218C253.936 69.6691 254.034 69.9637 253.936 70.2092C253.838 70.3565 253.69 70.5038 253.494 70.5038Z" fill="#997453"/>
<path d="M247.554 80.5692C247.456 80.5692 247.358 80.5364 247.259 80.471C236.852 72.9097 220.161 74.1371 219.965 74.1371C219.719 74.1862 219.474 73.9898 219.474 73.6952C219.425 73.4497 219.621 73.2042 219.916 73.2042C220.063 73.1551 237.147 71.9277 247.848 79.6363C248.045 79.8327 248.094 80.1273 247.947 80.3237C247.848 80.471 247.701 80.5201 247.554 80.5201V80.5692Z" fill="#997453"/>
<path d="M177.697 93.1877C177.632 93.1877 177.566 93.1713 177.501 93.1386C177.256 93.0404 177.108 92.7458 177.206 92.5003C182.165 80.0291 192.867 74.3335 193.014 74.2353C193.259 74.1371 193.554 74.2353 193.652 74.4808C193.799 74.7263 193.701 75.0209 193.456 75.1191C193.357 75.1682 182.901 80.7655 178.139 92.8931C178.041 93.0895 177.894 93.1877 177.697 93.1877Z" fill="#997453"/>
<path d="M186.534 89.8981C186.436 89.8981 186.354 89.8817 186.288 89.849C186.043 89.7017 185.945 89.4071 186.092 89.1616C188.89 84.3989 194.683 80.5201 194.928 80.3237C195.125 80.1764 195.468 80.2746 195.616 80.471C195.763 80.7165 195.665 81.0111 195.468 81.1584C195.419 81.2075 189.627 85.0863 186.927 89.6526C186.828 89.849 186.681 89.8981 186.534 89.8981Z" fill="#997453"/>
<path d="M87.3699 301.811L76.619 227.426C76.1281 224.234 78.6317 221.337 81.8717 221.337H200.132C202.783 221.337 205.041 223.301 205.385 225.953L215.252 300.338C215.694 303.53 213.19 306.378 209.95 306.378H92.6226C89.9717 306.378 87.7135 304.414 87.3699 301.811Z" fill="#2D2D44"/>
<path d="M261.103 306.623H92.3281C90.6099 306.623 89.1863 305.199 89.1863 303.481C89.1863 301.713 90.6099 300.338 92.3281 300.338H261.103C262.821 300.338 264.245 301.713 264.245 303.481C264.245 305.199 262.821 306.623 261.103 306.623Z" fill="#2D2D44"/>
<path d="M208.772 304.659C208.281 304.659 207.839 304.266 207.79 303.775L197.972 227.524C197.923 226.984 198.267 226.493 198.807 226.395C199.396 226.345 199.837 226.738 199.936 227.278L209.754 303.53C209.803 304.07 209.459 304.561 208.919 304.61C208.854 304.643 208.805 304.659 208.772 304.659Z" fill="#2C4370"/>
<path d="M160.319 228.064H148.93C148.39 228.064 147.948 227.622 147.948 227.082C147.948 226.542 148.39 226.1 148.93 226.1H160.319C160.859 226.1 161.301 226.542 161.301 227.082C161.301 227.622 160.859 228.064 160.319 228.064Z" fill="#2C4370"/>
<path d="M80.7917 228.064C80.2517 228.064 79.859 227.622 79.8099 227.082C79.8099 226.542 80.2517 226.1 80.7917 226.1C100.674 225.756 120.506 225.756 139.75 226.1C140.29 226.1 140.732 226.542 140.683 227.082C140.683 227.622 140.241 228.064 139.701 228.064C120.506 227.72 100.674 227.72 80.8408 228.064C80.8081 228.064 80.7917 228.064 80.7917 228.064Z" fill="#2C4370"/>
<path d="M359.972 16.2489C335.771 16.2489 316.134 31.6661 316.134 50.6185C316.134 55.0374 317.165 59.2109 319.08 63.0407L298.412 84.8899L328.26 74.3335C336.212 80.9129 347.503 84.9881 359.972 84.9881C384.174 84.9881 403.811 69.62 403.811 50.6185C403.811 31.6661 384.174 16.2489 359.972 16.2489Z" fill="#E8E9EA"/>
<path d="M349.663 51.4532C349.663 54.1537 347.454 56.3632 344.754 56.3632C342.054 56.3632 339.845 54.1537 339.845 51.4532C339.845 48.7527 342.054 46.5433 344.754 46.5433C347.454 46.5433 349.663 48.7527 349.663 51.4532Z" fill="#1F78CA"/>
<path d="M365.372 51.4532C365.372 54.1537 363.163 56.3632 360.463 56.3632C357.763 56.3632 355.554 54.1537 355.554 51.4532C355.554 48.7527 357.763 46.5433 360.463 46.5433C363.163 46.5433 365.372 48.7527 365.372 51.4532Z" fill="#1F78CA"/>
<path d="M380.1 51.4532C380.1 54.1537 377.891 56.3632 375.191 56.3632C372.491 56.3632 370.282 54.1537 370.282 51.4532C370.282 48.7527 372.491 46.5433 375.191 46.5433C377.891 46.5433 380.1 48.7527 380.1 51.4532Z" fill="#1F78CA"/>
</g>
<defs>
<clipPath id="clip0_21_324">
<rect width="328" height="291" fill="white" transform="translate(76.1282 15.9277)"/>
</clipPath>
</defs>
</svg>
