<svg width="516" height="516" viewBox="0 0 516 516" fill="none" xmlns="http://www.w3.org/2000/svg">
<g clip-path="url(#clip0)">
<rect width="516" height="516" fill="white"/>
<g clip-path="url(#clip1)">
<path d="M270.974 401.535V434.599C270.974 438.301 267.976 441.299 264.274 441.299H19.7248C16.023 441.299 13.0248 438.301 13.0248 434.599V401.535C13.0248 366.996 41.282 339.602 75.8204 339.267C87.2414 339.145 97.5903 333.523 103.935 324.468C110.871 314.559 110.175 305.634 110.175 298.924L110.3 298.615C80.234 286.169 59.0872 256.547 59.0872 221.984C59.0872 221.984 59.0872 221.037 59.0872 219.362C52.0036 219.362 45.9443 216.066 42.153 210.937C42.153 210.929 42.1446 210.929 42.1446 210.92C39.885 208.065 38.1497 203.516 38.1497 198.81V117.187C38.1497 104.7 48.2751 94.5749 60.7622 94.5749C70.8624 69.3394 95.3006 52.7 122.611 52.7C162.465 52.7 188.078 52.4018 190.214 53.4705C190.717 53.5467 195.336 54.3691 195.7 54.5509C202.325 56.0734 209.653 59.4511 209.988 59.7852C231.754 70.7397 246.687 93.2852 246.687 119.315V197.587C246.687 209.614 236.938 219.362 224.912 219.362V221.984C224.912 256.547 203.765 286.169 173.699 298.615L173.824 298.924C173.824 305.442 173.072 314.479 180.064 324.468C186.391 333.499 196.726 339.145 208.179 339.267C242.717 339.602 270.974 366.996 270.974 401.535Z" fill="#B9DCFF"/>
<path d="M246.687 119.315V197.587C246.687 209.614 236.938 219.362 224.912 219.362V172.99C224.912 169.447 222.157 166.516 218.622 166.307C179.353 163.965 140.032 152.017 104.622 129.641C100.77 127.204 95.7027 129.214 94.5302 133.619C92.7798 140.244 88.8436 148.728 80.0247 154.037C71.9135 158.92 65.6348 157.955 63.2747 158.928C60.8041 159.917 59.0872 162.329 59.0872 165.126V219.362C52.0037 219.362 45.9444 216.066 42.153 210.937C42.153 210.929 42.1446 210.929 42.1446 210.92C40.643 209.023 39.1447 205.904 38.5267 202.713C37.989 199.974 38.1498 206.154 38.1498 117.187C38.1498 104.7 48.2751 94.5749 60.7622 94.5749C70.8105 69.4692 95.1767 52.7 122.611 52.7C162.465 52.7 188.078 52.4018 190.214 53.4705C196.713 54.4554 203.118 56.5022 208.229 58.931C208.329 58.9804 209.922 59.7199 209.988 59.7852C231.754 70.7397 246.687 93.2852 246.687 119.315V119.315Z" fill="#B9DCFF"/>
<path d="M270.974 401.535V434.599C270.974 438.301 267.976 441.299 264.274 441.299H19.7248C16.023 441.299 13.0248 438.301 13.0248 434.599V401.535C13.0248 366.996 41.282 339.602 75.8204 339.267C87.2414 339.145 97.5903 333.523 103.935 324.468C133.048 356.821 126.351 349.377 137.016 361.234C139.68 364.191 144.319 364.191 146.983 361.234C156.546 350.601 148.739 359.278 180.064 324.468C186.391 333.499 196.726 339.145 208.179 339.267C242.717 339.602 270.974 366.996 270.974 401.535V401.535Z" fill="#D1E7FF"/>
<path d="M194.829 336.47C194.725 336.691 186.459 374.294 186.512 374.055C185.421 379.002 179.16 380.595 175.838 376.77C153.848 351.447 156.848 354.75 154.621 352.741L180.064 324.467C183.749 329.728 188.857 333.907 194.829 336.47V336.47Z" fill="#E8F3FF"/>
<path d="M103.935 324.468L128.775 352.072L108.17 376.489C104.877 380.392 98.5393 378.828 97.4405 373.84C97.3877 373.602 89.2749 336.69 89.1702 336.469C95.1415 333.907 100.25 329.728 103.935 324.468V324.468Z" fill="#E8F3FF"/>
<path d="M224.912 221.984C224.912 267.791 187.77 304.896 142 304.896C96.2303 304.896 59.0872 267.793 59.0872 221.984C59.0872 220.643 59.0872 163.524 59.0872 165.129C59.0872 161.566 61.8719 158.644 65.4288 158.441C78.9971 157.668 90.4205 149.168 94.5335 133.617C95.6985 129.211 100.769 127.205 104.622 129.638C138.892 151.287 177.937 163.878 218.622 166.306C222.159 166.517 224.912 169.448 224.912 172.992V221.984Z" fill="#D1E7FF"/>
<path d="M205.557 77.825H147.736C122.151 77.825 98.9689 92.4644 87.872 115.228C86.6074 117.824 84.1619 119.583 81.3312 120.16C71.0299 122.271 63.2747 131.383 63.2747 142.312V158.928C60.8041 159.917 59.0872 162.329 59.0872 165.126V204.899C59.0872 214.308 46.8229 217.998 41.7678 210.409C40.617 208.877 39.1447 205.726 38.6941 203.475C37.9379 200.224 38.1498 206.514 38.1498 117.187C38.1498 104.7 48.2751 94.5749 60.7622 94.5749C70.9035 69.2381 95.4238 52.7 122.611 52.7C162.196 52.7 188.075 52.4002 190.214 53.4705C198.248 54.6882 205.619 57.6471 206.696 58.2442C206.959 58.3548 209.863 59.6605 209.988 59.7852C219.008 64.3412 215.683 77.8752 205.557 77.825V77.825Z" fill="#D1E7FF"/>
<path d="M174.771 312.676C154.137 321.313 131.462 321.983 109.228 312.676C110.364 307.964 110.175 304.913 110.175 298.924L110.3 298.615C130.469 306.986 153.491 307.003 173.699 298.615L173.824 298.924C173.824 304.915 173.636 307.966 174.771 312.676Z" fill="#A2D0FF"/>
<path d="M93.5251 356.084C60.3769 357.591 33.9622 384.952 33.9622 418.469V441.299H19.7248C16.0247 441.299 13.0248 438.299 13.0248 434.599V401.587C13.0248 367.037 41.2929 339.621 75.8422 339.265C80.5665 339.217 85.0714 338.225 89.1701 336.47C89.2748 336.691 93.4732 355.845 93.5251 356.084V356.084Z" fill="#E8F3FF"/>
<path d="M190.474 356.084C223.622 357.591 250.037 384.952 250.037 418.469V441.299H264.274C267.974 441.299 270.974 438.299 270.974 434.599V401.587C270.974 367.037 242.706 339.621 208.157 339.265C203.433 339.217 198.928 338.225 194.829 336.47C194.725 336.691 190.527 355.845 190.474 356.084V356.084Z" fill="#B9DCFF"/>
<path d="M104.463 359.643C105.711 365.313 107.042 371.351 108.173 376.485C104.88 380.389 98.5418 378.829 97.443 373.841C94.2228 359.217 89.2405 336.619 89.1702 336.47C95.1415 333.907 100.25 329.728 103.935 324.468L111.087 332.424C104.94 340.079 102.336 350.003 104.463 359.643V359.643Z" fill="#E8F3FF"/>
<path d="M123.712 148.076C122.24 159.946 117.034 170.595 108.351 177.048C92.8903 188.54 84.2122 207.027 84.2122 226.291V247.108C84.2122 259.527 68.4052 261.78 64.4748 251.443C60.9942 242.289 59.0872 232.358 59.0872 221.984V165.129C59.0872 161.566 61.8719 158.644 65.4288 158.441C79.0348 157.665 90.4314 149.133 94.5343 133.615C95.6984 129.213 100.762 127.202 104.612 129.633C108.846 132.308 113.453 135.032 118.43 137.725C122.163 139.748 124.235 143.863 123.712 148.076V148.076Z" fill="#E8F3FF"/>
<path d="M154.621 352.742L167.125 441.299H116.875L128.775 352.072L137.02 361.23C139.681 364.186 144.317 364.186 146.979 361.23L154.621 352.742Z" fill="#D1E7FF"/>
<path d="M137.527 361.795L126.925 441.299H116.875L128.775 352.072L137.527 361.795Z" fill="#B9DCFF"/>
<path d="M208.52 332.568C198.652 332.568 189.699 327.543 184.572 319.126C182.647 315.965 178.524 314.963 175.365 316.889C172.206 318.813 171.203 322.936 173.129 326.096C176.695 331.95 181.522 336.677 187.142 340.06L180.198 371.572L163.457 352.296C166.496 348.802 165.763 344.72 163.145 342.443C160.354 340.016 156.121 340.31 153.693 343.103L141.912 356.65L112.238 323.678C114.763 318.829 116.294 313.506 116.731 307.959C174.162 324.864 231.612 281.52 231.612 221.979V166.6C231.612 162.9 228.612 159.9 224.912 159.9C221.212 159.9 218.212 162.9 218.212 166.6V221.979C218.212 264.002 184.024 298.192 142 298.192C99.9756 298.192 65.7872 264.003 65.7872 221.979V165.119C82.1209 164.192 96.0142 153.937 100.965 135.351C128.863 153.217 160.133 164.792 192.95 169.385C196.628 169.898 200.003 167.333 200.514 163.679C201.026 160.014 198.472 156.628 194.808 156.114C161.392 151.437 128.783 138.93 99.8081 118.418C95.3785 115.281 89.2104 118.473 89.2372 123.93C89.238 124.097 89.1752 140.714 76.5708 148.296C68.6004 153.092 60.5386 151.543 59.1517 151.528C55.7272 151.495 52.8253 154.065 52.435 157.454C52.3613 158.102 52.3872 155.896 52.3872 211.068C47.9116 208.746 44.8498 204.126 44.8498 198.81V117.187C44.8498 108.413 51.9877 101.275 60.7622 101.275C63.5017 101.275 65.9656 99.6066 66.9832 97.0631C76.1353 74.1835 97.9706 59.4 122.613 59.4H180.071C213.11 59.4 239.987 86.2778 239.987 119.315V198.81C239.987 202.51 242.987 205.51 246.687 205.51C250.387 205.51 253.387 202.51 253.387 198.81V119.315C253.387 78.8894 220.498 46 180.071 46H122.613C93.8702 46 68.2453 62.4401 56.2121 88.2275C42.2024 90.4209 31.4498 102.572 31.4498 117.187V198.81C31.4498 211.628 40.4177 222.401 52.4551 225.292C53.7055 259.512 74.23 288.895 103.475 302.877V304.645C103.475 312.109 100.563 319.122 95.278 324.394C85.9039 333.741 74.091 332.568 75.4779 332.568C37.2578 332.568 6.32483 363.497 6.32483 401.722V441.299C6.32483 444.999 9.32475 447.999 13.0248 447.999C16.7249 447.999 19.7248 444.999 19.7248 441.299V401.722C19.7248 370.906 44.6613 345.968 75.4796 345.968C78.4117 345.968 81.3387 345.657 84.2331 345.038L93.5821 387.466C94.7655 392.838 101.581 394.564 105.184 390.417L118.384 375.218L110.227 440.468C109.768 444.14 112.374 447.488 116.045 447.947C119.723 448.405 123.065 445.797 123.524 442.13L132.95 366.721C133.377 367.194 137.101 371.371 137.578 371.792C140.344 374.219 144.556 373.973 147.015 371.2C148.34 369.683 144.913 373.622 151.034 366.583L160.476 442.129C160.935 445.796 164.276 448.405 167.956 447.946C171.628 447.487 174.232 444.139 173.773 440.468L165.617 375.217L178.817 390.416C182.425 394.571 189.237 392.828 190.419 387.465L199.768 345.035C202.606 345.638 205.532 345.967 208.52 345.967C239.335 345.968 264.274 370.903 264.274 401.722V441.299C264.274 444.999 267.274 447.999 270.974 447.999C274.674 447.999 277.674 444.999 277.674 441.299V401.722C277.674 363.501 246.745 332.567 208.52 332.568V332.568ZM103.801 371.572L96.8559 340.051C99.4103 338.508 101.806 336.671 104.015 334.571L120.259 352.621L103.801 371.572Z" fill="#066BBD"/>
</g>
<rect x="190" y="224" width="305" height="216" fill="white"/>
<path d="M498.75 227.5V237.75H191.25V227.5C191.25 222.063 193.41 216.849 197.254 213.004C201.099 209.16 206.313 207 211.75 207H478.25C483.687 207 488.901 209.16 492.746 213.004C496.59 216.849 498.75 222.063 498.75 227.5Z" fill="#BDDBFF"/>
<path d="M478.25 201.875H211.75C208.385 201.875 205.053 202.538 201.944 203.826C198.835 205.113 196.01 207.001 193.63 209.38C188.825 214.186 186.125 220.704 186.125 227.5V422.25C186.125 429.046 188.825 435.564 193.63 440.37C196.01 442.749 198.835 444.637 201.944 445.924C205.053 447.212 208.385 447.875 211.75 447.875H478.25C485.046 447.875 491.564 445.175 496.37 440.37C501.175 435.564 503.875 429.046 503.875 422.25V227.5C503.875 220.704 501.175 214.186 496.37 209.38C491.564 204.575 485.046 201.875 478.25 201.875V201.875ZM493.625 422.25C493.613 426.324 491.989 430.228 489.108 433.108C486.228 435.989 482.324 437.613 478.25 437.625H211.75C207.676 437.613 203.772 435.989 200.892 433.108C198.011 430.228 196.387 426.324 196.375 422.25V242.875H493.625V422.25ZM493.625 232.625H196.375V227.5C196.387 223.426 198.011 219.522 200.892 216.642C203.772 213.761 207.676 212.137 211.75 212.125H478.25C482.324 212.137 486.228 213.761 489.108 216.642C491.989 219.522 493.613 223.426 493.625 227.5V232.625Z" fill="#3D9AE2"/>
<path d="M224 299C224 294.029 228.029 290 233 290H261C265.971 290 270 294.029 270 299V317C270 321.971 265.971 326 261 326H233C228.029 326 224 321.971 224 317V299Z" fill="#B9DCFF"/>
<path d="M228 389C228 384.029 232.029 380 237 380H257C261.971 380 266 384.029 266 389V391C266 395.971 261.971 400 257 400H237C232.029 400 228 395.971 228 391V389Z" fill="#B9DCFF" fill-opacity="0.57"/>
<path d="M241 342H251.25V352.25H241V342Z" fill="#3D9AE2"/>
<path d="M282 217H292.25V227.25H282V217Z" fill="#3D9AE2"/>
<path d="M308 217H318.25V227.25H308V217Z" fill="#3D9AE2"/>
<path d="M334 217H344.25V227.25H334V217Z" fill="#3D9AE2"/>
<path d="M305 267H335.75V277.25H305V267Z" fill="#3D9AE2" fill-opacity="0.81"/>
<path d="M305 284H325.5V294.25H305V284Z" fill="#3D9AE2" fill-opacity="0.81"/>
<path d="M305 309H335.75V319.25H305V309Z" fill="#3D9AE2" fill-opacity="0.81"/>
<path d="M305 326H325.5V336.25H305V326Z" fill="#3D9AE2" fill-opacity="0.81"/>
<path d="M213 217H267V227H213V217Z" fill="#3D9AE2"/>
<path d="M203 254H282V257H203V254Z" fill="#3D9AE2" fill-opacity="0.59"/>
<path d="M203 272H282V279H203V272Z" fill="#3D9AE2" fill-opacity="0.67"/>
<path d="M408 421H453V426H408V421Z" fill="#3D9AE2" fill-opacity="0.6"/>
<path d="M305 355H325.5V365.25H305V355Z" fill="#3D9AE2" fill-opacity="0.82"/>
<path d="M235 261H248V267H235V261Z" fill="#3D9AE2"/>
<g clip-path="url(#clip2)">
<path d="M473.246 402.321V412.766C473.246 413.936 472.298 414.883 471.129 414.883H393.871C392.701 414.883 391.754 413.936 391.754 412.766V402.321C391.754 391.409 400.681 382.755 411.593 382.649C415.201 382.611 418.47 380.834 420.475 377.974C422.666 374.843 422.446 372.024 422.446 369.904L422.485 369.806C412.987 365.874 406.306 356.516 406.306 345.597C406.306 345.597 406.306 345.298 406.306 344.769C404.068 344.769 402.154 343.727 400.956 342.107C400.956 342.104 400.954 342.104 400.954 342.102C400.24 341.2 399.692 339.762 399.692 338.276V312.49C399.692 308.545 402.89 305.346 406.835 305.346C410.026 297.373 417.747 292.117 426.375 292.117C438.965 292.117 447.057 292.022 447.732 292.36C447.891 292.384 449.35 292.644 449.465 292.701C451.558 293.182 453.873 294.249 453.979 294.355C460.855 297.816 465.573 304.938 465.573 313.162V337.889C465.573 341.689 462.493 344.769 458.694 344.769V345.597C458.694 356.516 452.013 365.874 442.514 369.806L442.554 369.904C442.554 371.963 442.316 374.818 444.525 377.974C446.524 380.827 449.789 382.611 453.407 382.649C464.319 382.755 473.246 391.409 473.246 402.321Z" fill="#B9DCFF"/>
<path d="M465.573 313.162V337.889C465.573 341.689 462.493 344.769 458.694 344.769V330.119C458.694 329 457.823 328.073 456.707 328.007C444.3 327.268 431.878 323.493 420.691 316.424C419.474 315.654 417.874 316.289 417.503 317.681C416.95 319.774 415.707 322.454 412.921 324.131C410.358 325.674 408.375 325.369 407.629 325.676C406.849 325.989 406.306 326.751 406.306 327.634V344.769C404.068 344.769 402.154 343.727 400.956 342.107C400.956 342.104 400.954 342.104 400.954 342.102C400.479 341.502 400.006 340.517 399.811 339.509C399.641 338.644 399.692 340.596 399.692 312.49C399.692 308.545 402.89 305.346 406.835 305.346C410.01 297.414 417.708 292.117 426.375 292.117C438.965 292.117 447.057 292.022 447.732 292.36C449.785 292.671 451.808 293.318 453.423 294.085C453.455 294.101 453.958 294.334 453.979 294.355C460.855 297.816 465.573 304.938 465.573 313.162Z" fill="#B9DCFF"/>
<path d="M473.246 402.321V412.766C473.246 413.936 472.298 414.883 471.129 414.883H393.871C392.701 414.883 391.754 413.936 391.754 412.766V402.321C391.754 391.409 400.681 382.755 411.593 382.649C415.201 382.611 418.47 380.834 420.475 377.974C429.672 388.195 427.556 385.843 430.926 389.589C431.767 390.523 433.233 390.523 434.074 389.589C437.095 386.23 434.629 388.971 444.525 377.974C446.524 380.827 449.789 382.611 453.407 382.649C464.319 382.755 473.246 391.409 473.246 402.321Z" fill="#D1E7FF"/>
<path d="M449.19 381.765C449.157 381.835 446.545 393.715 446.562 393.639C446.218 395.202 444.24 395.705 443.19 394.497C436.243 386.497 437.191 387.54 436.487 386.906L444.525 377.974C445.689 379.635 447.303 380.956 449.19 381.765Z" fill="#E8F3FF"/>
<path d="M420.475 377.974L428.322 386.694L421.813 394.408C420.772 395.641 418.77 395.147 418.423 393.571C418.406 393.496 415.843 381.835 415.81 381.765C417.696 380.956 419.31 379.635 420.475 377.974Z" fill="#E8F3FF"/>
<path d="M458.694 345.597C458.694 360.068 446.96 371.79 432.5 371.79C418.04 371.79 406.306 360.069 406.306 345.597C406.306 345.173 406.306 327.128 406.306 327.635C406.306 326.51 407.186 325.586 408.31 325.522C412.596 325.278 416.205 322.593 417.504 317.68C417.872 316.288 419.474 315.654 420.692 316.423C431.518 323.262 443.853 327.24 456.707 328.007C457.824 328.074 458.694 329 458.694 330.119V345.597Z" fill="#D1E7FF"/>
<path d="M452.579 300.054H434.312C426.229 300.054 418.906 304.679 415.4 311.87C415 312.691 414.228 313.246 413.334 313.429C410.079 314.096 407.629 316.974 407.629 320.427V325.676C406.849 325.989 406.306 326.751 406.306 327.634V340.199C406.306 343.172 402.432 344.338 400.835 341.94C400.471 341.456 400.006 340.461 399.864 339.749C399.625 338.723 399.692 340.71 399.692 312.49C399.692 308.545 402.89 305.346 406.835 305.346C410.039 297.341 417.786 292.117 426.375 292.117C438.88 292.117 447.056 292.022 447.732 292.36C450.27 292.745 452.599 293.68 452.939 293.868C453.022 293.903 453.939 294.316 453.979 294.355C456.828 295.794 455.778 300.07 452.579 300.054Z" fill="#D1E7FF"/>
<path d="M442.853 374.248C436.334 376.977 429.171 377.189 422.147 374.248C422.506 372.76 422.446 371.796 422.446 369.904L422.485 369.806C428.857 372.451 436.13 372.456 442.514 369.806L442.554 369.904C442.554 371.797 442.494 372.76 442.853 374.248Z" fill="#A2D0FF"/>
<path d="M417.186 387.962C406.714 388.438 398.369 397.082 398.369 407.671V414.883H393.871C392.702 414.883 391.754 413.935 391.754 412.766V402.337C391.754 391.422 400.685 382.761 411.599 382.648C413.092 382.633 414.515 382.32 415.81 381.765C415.843 381.835 417.169 387.886 417.186 387.962Z" fill="#E8F3FF"/>
<path d="M447.814 387.962C458.286 388.438 466.631 397.082 466.631 407.671V414.883H471.129C472.298 414.883 473.246 413.935 473.246 412.766V402.337C473.246 391.422 464.315 382.761 453.4 382.648C451.908 382.633 450.485 382.32 449.19 381.765C449.157 381.835 447.831 387.886 447.814 387.962Z" fill="#B9DCFF"/>
<path d="M420.641 389.086C421.035 390.877 421.456 392.785 421.813 394.407C420.773 395.64 418.771 395.148 418.423 393.572C417.406 388.952 415.832 381.812 415.81 381.765C417.696 380.956 419.31 379.635 420.475 377.974L422.734 380.487C420.792 382.906 419.969 386.041 420.641 389.086Z" fill="#E8F3FF"/>
<path d="M426.722 322.248C426.257 325.998 424.613 329.362 421.869 331.401C416.985 335.031 414.244 340.872 414.244 346.958V353.534C414.244 357.457 409.25 358.169 408.008 354.904C406.909 352.012 406.306 348.874 406.306 345.597V327.635C406.306 326.51 407.186 325.586 408.31 325.522C412.608 325.277 416.208 322.582 417.505 317.679C417.872 316.289 419.472 315.653 420.688 316.421C422.026 317.267 423.482 318.127 425.054 318.978C426.233 319.617 426.888 320.917 426.722 322.248Z" fill="#E8F3FF"/>
<path d="M436.487 386.906L440.437 414.883H424.562L428.322 386.694L430.927 389.588C431.767 390.522 433.232 390.522 434.073 389.588L436.487 386.906Z" fill="#D1E7FF"/>
<path d="M431.087 389.766L427.737 414.883H424.562L428.322 386.694L431.087 389.766Z" fill="#B9DCFF"/>
<path d="M453.515 380.533C450.398 380.533 447.569 378.945 445.949 376.286C445.341 375.287 444.039 374.971 443.041 375.579C442.043 376.187 441.726 377.49 442.334 378.488C443.461 380.338 444.986 381.831 446.761 382.9L444.567 392.855L439.279 386.765C440.239 385.661 440.007 384.372 439.18 383.653C438.298 382.886 436.961 382.979 436.194 383.861L432.472 388.141L423.098 377.724C423.895 376.192 424.379 374.511 424.517 372.758C442.661 378.099 460.81 364.405 460.81 345.595V328.1C460.81 326.931 459.862 325.983 458.694 325.983C457.525 325.983 456.577 326.931 456.577 328.1V345.595C456.577 358.871 445.776 369.672 432.5 369.672C419.224 369.672 408.423 358.872 408.423 345.595V327.632C413.583 327.339 417.972 324.099 419.536 318.228C428.35 323.872 438.229 327.529 448.596 328.98C449.758 329.142 450.824 328.331 450.986 327.177C451.148 326.02 450.341 324.95 449.183 324.787C438.626 323.31 428.324 319.359 419.171 312.878C417.771 311.887 415.823 312.896 415.831 314.62C415.831 314.672 415.812 319.922 411.83 322.317C409.312 323.832 406.765 323.343 406.327 323.338C405.245 323.328 404.328 324.14 404.205 325.211C404.181 325.415 404.19 324.718 404.19 342.148C402.776 341.415 401.808 339.955 401.808 338.276V312.49C401.808 309.717 404.063 307.462 406.835 307.462C407.701 307.462 408.479 306.935 408.801 306.132C411.692 298.904 418.59 294.233 426.375 294.233H444.528C454.965 294.233 463.456 302.725 463.456 313.162V338.276C463.456 339.445 464.404 340.392 465.573 340.392C466.742 340.392 467.689 339.445 467.689 338.276V313.162C467.689 300.39 457.299 290 444.528 290H426.375C417.295 290 409.199 295.194 405.398 303.341C400.972 304.033 397.575 307.872 397.575 312.49V338.276C397.575 342.325 400.408 345.729 404.211 346.642C404.606 357.453 411.09 366.735 420.329 371.153V371.711C420.329 374.069 419.409 376.285 417.74 377.95C414.778 380.903 411.046 380.533 411.484 380.533C399.41 380.533 389.637 390.304 389.637 402.38V414.883C389.637 416.052 390.585 417 391.754 417C392.923 417 393.871 416.052 393.871 414.883V402.38C393.871 392.644 401.749 384.766 411.485 384.766C412.411 384.766 413.336 384.668 414.25 384.472L417.204 397.876C417.578 399.573 419.731 400.119 420.869 398.808L425.039 394.007L422.462 414.621C422.317 415.781 423.141 416.838 424.3 416.983C425.462 417.128 426.518 416.304 426.663 415.146L429.641 391.322C429.776 391.472 430.952 392.791 431.103 392.924C431.977 393.691 433.308 393.613 434.084 392.737C434.503 392.258 433.42 393.502 435.354 391.279L438.337 415.145C438.482 416.304 439.537 417.128 440.7 416.983C441.86 416.838 442.683 415.78 442.538 414.62L439.961 394.006L444.131 398.808C445.271 400.121 447.423 399.57 447.796 397.876L450.75 384.471C451.647 384.662 452.571 384.766 453.515 384.766C463.25 384.766 471.129 392.644 471.129 402.38V414.883C471.129 416.052 472.077 417 473.246 417C474.415 417 475.362 416.052 475.362 414.883V402.38C475.362 390.305 465.591 380.532 453.515 380.533ZM420.432 392.855L418.238 382.897C419.045 382.409 419.802 381.829 420.5 381.165L425.632 386.868L420.432 392.855Z" fill="#066BBD"/>
</g>
<g opacity="0.28" clip-path="url(#clip3)">
<path d="M381.146 409.643V414.167C381.146 414.673 380.736 415.083 380.229 415.083H346.771C346.264 415.083 345.854 414.673 345.854 414.167V409.643C345.854 404.917 349.72 401.169 354.446 401.124C356.008 401.107 357.424 400.338 358.292 399.099C359.241 397.743 359.146 396.522 359.146 395.604L359.163 395.562C355.049 393.859 352.156 389.806 352.156 385.077C352.156 385.077 352.156 384.948 352.156 384.719C351.187 384.719 350.358 384.268 349.839 383.566C349.839 383.565 349.838 383.565 349.838 383.564C349.529 383.173 349.292 382.551 349.292 381.907V370.74C349.292 369.031 350.677 367.646 352.385 367.646C353.767 364.193 357.111 361.917 360.847 361.917C366.3 361.917 369.804 361.876 370.097 362.022C370.165 362.033 370.797 362.145 370.847 362.17C371.753 362.378 372.756 362.84 372.802 362.886C375.78 364.385 377.823 367.469 377.823 371.031V381.74C377.823 383.385 376.489 384.719 374.844 384.719V385.077C374.844 389.806 371.95 393.859 367.837 395.562L367.854 395.604C367.854 396.496 367.751 397.732 368.708 399.099C369.573 400.334 370.987 401.107 372.554 401.124C377.28 401.169 381.146 404.917 381.146 409.643Z" fill="#B9DCFF"/>
<path d="M377.823 371.031V381.74C377.823 383.385 376.489 384.719 374.844 384.719V378.374C374.844 377.89 374.467 377.489 373.983 377.46C368.61 377.139 363.231 375.505 358.386 372.443C357.859 372.11 357.166 372.385 357.005 372.988C356.766 373.894 356.227 375.055 355.021 375.781C353.911 376.449 353.052 376.317 352.729 376.45C352.391 376.586 352.156 376.916 352.156 377.298V384.719C351.187 384.719 350.358 384.268 349.839 383.566C349.839 383.565 349.838 383.565 349.838 383.564C349.633 383.304 349.428 382.877 349.343 382.441C349.27 382.066 349.292 382.912 349.292 370.74C349.292 369.031 350.677 367.646 352.385 367.646C353.76 364.211 357.094 361.917 360.847 361.917C366.3 361.917 369.804 361.876 370.097 362.022C370.986 362.157 371.862 362.437 372.561 362.769C372.575 362.776 372.793 362.877 372.802 362.886C375.78 364.385 377.823 367.469 377.823 371.031Z" fill="#B9DCFF"/>
<path d="M381.146 409.643V414.167C381.146 414.673 380.736 415.083 380.229 415.083H346.771C346.264 415.083 345.854 414.673 345.854 414.167V409.643C345.854 404.917 349.72 401.169 354.446 401.124C356.008 401.107 357.424 400.338 358.292 399.099C362.275 403.525 361.359 402.507 362.818 404.129C363.183 404.534 363.817 404.534 364.182 404.129C365.49 402.674 364.422 403.861 368.708 399.099C369.573 400.334 370.987 401.107 372.554 401.124C377.28 401.169 381.146 404.917 381.146 409.643Z" fill="#D1E7FF"/>
<path d="M370.728 400.741C370.714 400.771 369.583 405.916 369.59 405.883C369.441 406.56 368.584 406.778 368.13 406.255C365.121 402.79 365.531 403.242 365.227 402.967L368.708 399.099C369.212 399.818 369.911 400.39 370.728 400.741Z" fill="#E8F3FF"/>
<path d="M358.292 399.099L361.691 402.876L358.872 406.216C358.421 406.75 357.554 406.536 357.404 405.854C357.396 405.821 356.286 400.771 356.272 400.741C357.089 400.39 357.788 399.818 358.292 399.099Z" fill="#E8F3FF"/>
<path d="M374.844 385.077C374.844 391.345 369.762 396.421 363.5 396.421C357.238 396.421 352.156 391.345 352.156 385.077C352.156 384.894 352.156 377.079 352.156 377.299C352.156 376.811 352.537 376.411 353.024 376.384C354.88 376.278 356.443 375.115 357.006 372.987C357.165 372.385 357.859 372.11 358.386 372.443C363.075 375.405 368.417 377.128 373.983 377.46C374.467 377.489 374.844 377.89 374.844 378.374V385.077Z" fill="#D1E7FF"/>
<path d="M372.196 365.354H364.285C360.784 365.354 357.613 367.357 356.094 370.471C355.921 370.827 355.587 371.067 355.2 371.146C353.79 371.435 352.729 372.682 352.729 374.177V376.45C352.391 376.586 352.156 376.916 352.156 377.298V382.74C352.156 384.027 350.478 384.532 349.787 383.494C349.629 383.284 349.428 382.853 349.366 382.545C349.263 382.1 349.292 382.961 349.292 370.74C349.292 369.031 350.677 367.646 352.385 367.646C353.773 364.179 357.128 361.917 360.847 361.917C366.263 361.917 369.804 361.876 370.097 362.022C371.196 362.189 372.204 362.594 372.351 362.675C372.387 362.69 372.785 362.869 372.802 362.886C374.036 363.509 373.581 365.361 372.196 365.354Z" fill="#D1E7FF"/>
<path d="M367.984 397.486C365.161 398.667 362.058 398.759 359.016 397.486C359.172 396.841 359.146 396.423 359.146 395.604L359.163 395.562C361.922 396.707 365.072 396.709 367.837 395.562L367.854 395.604C367.854 396.424 367.828 396.841 367.984 397.486Z" fill="#A2D0FF"/>
<path d="M356.868 403.424C352.333 403.631 348.719 407.374 348.719 411.96V415.083H346.771C346.265 415.083 345.854 414.673 345.854 414.167V409.65C345.854 404.923 349.722 401.172 354.449 401.123C355.095 401.117 355.711 400.981 356.272 400.741C356.286 400.771 356.861 403.392 356.868 403.424Z" fill="#E8F3FF"/>
<path d="M370.132 403.424C374.667 403.631 378.281 407.374 378.281 411.96V415.083H380.229C380.735 415.083 381.146 414.673 381.146 414.167V409.65C381.146 404.923 377.278 401.172 372.551 401.123C371.905 401.117 371.289 400.981 370.728 400.741C370.714 400.771 370.139 403.392 370.132 403.424Z" fill="#B9DCFF"/>
<path d="M358.364 403.911C358.535 404.687 358.717 405.513 358.872 406.216C358.421 406.75 357.554 406.536 357.404 405.854C356.963 403.853 356.282 400.761 356.272 400.741C357.089 400.39 357.788 399.818 358.292 399.099L359.271 400.187C358.43 401.235 358.073 402.593 358.364 403.911Z" fill="#E8F3FF"/>
<path d="M360.998 374.966C360.797 376.59 360.084 378.047 358.896 378.929C356.781 380.502 355.594 383.031 355.594 385.667V388.515C355.594 390.214 353.431 390.522 352.893 389.108C352.417 387.855 352.156 386.497 352.156 385.077V377.299C352.156 376.811 352.537 376.411 353.024 376.384C354.885 376.278 356.445 375.11 357.006 372.987C357.165 372.385 357.858 372.11 358.385 372.442C358.964 372.808 359.594 373.181 360.275 373.549C360.786 373.826 361.069 374.389 360.998 374.966Z" fill="#E8F3FF"/>
<path d="M365.227 402.967L366.937 415.083H360.062L361.691 402.876L362.819 404.129C363.183 404.533 363.817 404.533 364.181 404.129L365.227 402.967Z" fill="#D1E7FF"/>
<path d="M362.888 404.206L361.437 415.083H360.062L361.691 402.876L362.888 404.206Z" fill="#B9DCFF"/>
<path d="M372.601 400.207C371.251 400.207 370.026 399.52 369.325 398.368C369.061 397.936 368.497 397.798 368.065 398.062C367.633 398.325 367.495 398.889 367.759 399.322C368.247 400.123 368.907 400.769 369.676 401.232L368.726 405.543L366.436 402.906C366.852 402.428 366.751 401.87 366.393 401.558C366.011 401.226 365.432 401.266 365.1 401.648L363.488 403.502L359.428 398.991C359.774 398.327 359.983 397.599 360.043 396.84C367.9 399.153 375.76 393.223 375.76 385.077V377.5C375.76 376.994 375.35 376.583 374.844 376.583C374.337 376.583 373.927 376.994 373.927 377.5V385.077C373.927 390.826 369.25 395.504 363.5 395.504C357.75 395.504 353.073 390.826 353.073 385.077V377.297C355.308 377.171 357.208 375.767 357.886 373.225C361.703 375.669 365.981 377.253 370.471 377.881C370.974 377.951 371.436 377.6 371.506 377.1C371.576 376.599 371.226 376.136 370.725 376.065C366.153 375.425 361.692 373.714 357.727 370.908C357.121 370.479 356.278 370.915 356.281 371.662C356.281 371.685 356.273 373.958 354.548 374.996C353.458 375.652 352.355 375.44 352.165 375.438C351.697 375.433 351.299 375.785 351.246 376.249C351.236 376.337 351.24 376.035 351.24 383.584C350.627 383.266 350.208 382.634 350.208 381.907V370.74C350.208 369.539 351.185 368.562 352.385 368.562C352.76 368.562 353.097 368.334 353.237 367.986C354.489 364.856 357.476 362.833 360.848 362.833H368.709C373.229 362.833 376.906 366.511 376.906 371.031V381.907C376.906 382.413 377.317 382.823 377.823 382.823C378.329 382.823 378.74 382.413 378.74 381.907V371.031C378.74 365.5 374.24 361 368.709 361H360.848C356.915 361 353.409 363.249 351.763 366.777C349.846 367.077 348.375 368.74 348.375 370.74V381.907C348.375 383.661 349.602 385.134 351.249 385.53C351.42 390.212 354.228 394.232 358.229 396.145V396.387C358.229 397.408 357.831 398.367 357.108 399.089C355.825 400.368 354.209 400.207 354.399 400.207C349.17 400.207 344.938 404.439 344.938 409.668V415.083C344.938 415.589 345.348 416 345.854 416C346.36 416 346.771 415.589 346.771 415.083V409.668C346.771 405.452 350.183 402.04 354.399 402.04C354.8 402.04 355.201 401.998 355.597 401.913L356.876 407.718C357.038 408.453 357.97 408.689 358.463 408.122L360.269 406.042L359.153 414.97C359.09 415.472 359.447 415.93 359.949 415.993C360.452 416.055 360.909 415.699 360.972 415.197L362.262 404.88C362.32 404.944 362.83 405.516 362.895 405.574C363.273 405.906 363.85 405.872 364.186 405.492C364.367 405.285 363.899 405.824 364.736 404.861L366.028 415.197C366.091 415.698 366.548 416.055 367.051 415.993C367.554 415.93 367.91 415.472 367.847 414.969L366.731 406.042L368.537 408.122C369.031 408.69 369.963 408.452 370.124 407.718L371.404 401.913C371.792 401.995 372.192 402.04 372.601 402.04C376.817 402.04 380.229 405.452 380.229 409.668V415.083C380.229 415.589 380.64 416 381.146 416C381.652 416 382.062 415.589 382.062 415.083V409.668C382.062 404.439 377.831 400.207 372.601 400.207ZM358.274 405.543L357.324 401.231C357.673 401.02 358.001 400.768 358.303 400.481L360.525 402.951L358.274 405.543Z" fill="#066BBD"/>
</g>
</g>
<defs>
<clipPath id="clip0">
<rect width="516" height="516" fill="white"/>
</clipPath>
<clipPath id="clip1">
<rect width="402" height="402" fill="white" transform="translate(-59 46)"/>
</clipPath>
<clipPath id="clip2">
<rect width="127" height="127" fill="white" transform="translate(369 290)"/>
</clipPath>
<clipPath id="clip3">
<rect width="55" height="55" fill="white" transform="translate(336 361)"/>
</clipPath>
</defs>
</svg>
