<svg width="516" height="516" viewBox="0 0 516 516" fill="none" xmlns="http://www.w3.org/2000/svg">
<g clip-path="url(#clip0)">
<rect width="516" height="516" fill="white"/>
<path d="M493.312 114.125V129.812H22.6875V114.125C22.6875 105.804 25.9931 97.8235 31.877 91.9395C37.761 86.0556 45.7413 82.75 54.0625 82.75H461.938C470.259 82.75 478.239 86.0556 484.123 91.9395C490.007 97.8235 493.312 105.804 493.312 114.125Z" fill="#BDDBFF"/>
<path d="M461.938 74.9062H54.0625C48.9122 74.9063 43.8124 75.9207 39.0541 77.8916C34.2959 79.8625 29.9725 82.7514 26.3307 86.3932C18.9757 93.7481 14.8438 103.724 14.8438 114.125V412.188C14.8438 422.589 18.9757 432.564 26.3307 439.919C29.9725 443.561 34.2959 446.45 39.0541 448.421C43.8124 450.392 48.9122 451.406 54.0625 451.406H461.938C472.339 451.406 482.314 447.274 489.669 439.919C497.024 432.564 501.156 422.589 501.156 412.188V114.125C501.156 103.724 497.024 93.7481 489.669 86.3932C482.314 79.0382 472.339 74.9062 461.938 74.9062ZM485.469 412.188C485.45 418.423 482.965 424.397 478.556 428.806C474.147 433.215 468.173 435.7 461.938 435.719H54.0625C47.8274 435.7 41.8529 433.215 37.444 428.806C33.035 424.397 30.5499 418.423 30.5312 412.188V137.656H485.469V412.188ZM485.469 121.969H30.5312V114.125C30.5499 107.89 33.035 101.915 37.444 97.5065C41.8529 93.0975 47.8274 90.6124 54.0625 90.5938H461.938C468.173 90.6124 474.147 93.0975 478.556 97.5065C482.965 101.915 485.45 107.89 485.469 114.125V121.969Z" fill="#3D9AE2"/>
<path d="M72.811 218.78C72.811 213.81 76.8405 209.78 81.811 209.78H134.213C139.184 209.78 143.213 213.81 143.213 218.78V255.878C143.213 260.849 139.184 264.878 134.213 264.878H81.811C76.8405 264.878 72.811 260.849 72.811 255.878V218.78Z" fill="#B9DCFF"/>
<path d="M78.9329 356.524C78.9329 351.554 82.9623 347.524 87.9329 347.524H128.091C133.062 347.524 137.091 351.554 137.091 356.524V369.134C137.091 374.105 133.062 378.134 128.091 378.134H87.9329C82.9623 378.134 78.9329 374.105 78.9329 369.134V356.524Z" fill="#B9DCFF" fill-opacity="0.57"/>
<path d="M98.8292 289.366H114.517V305.053H98.8292V289.366Z" fill="#3D9AE2"/>
<path d="M161.579 98.0549H177.267V113.742H161.579V98.0549Z" fill="#3D9AE2"/>
<path d="M201.372 98.0549H217.059V113.742H201.372V98.0549Z" fill="#3D9AE2"/>
<path d="M241.165 98.0549H256.852V113.742H241.165V98.0549Z" fill="#3D9AE2"/>
<path d="M196.781 174.579H243.843V190.267H196.781V174.579Z" fill="#3D9AE2" fill-opacity="0.81"/>
<path d="M196.781 200.598H228.156V216.285H196.781V200.598Z" fill="#3D9AE2" fill-opacity="0.81"/>
<path d="M196.781 238.86H243.843V254.547H196.781V238.86Z" fill="#3D9AE2" fill-opacity="0.81"/>
<path d="M196.781 264.878H228.156V280.566H196.781V264.878Z" fill="#3D9AE2" fill-opacity="0.81"/>
<path d="M55.9756 98.0549H138.622V113.36H55.9756V98.0549Z" fill="#3D9AE2"/>
<path d="M40.6708 154.683H161.579V159.274H40.6708V154.683Z" fill="#3D9AE2" fill-opacity="0.59"/>
<path d="M40.6708 182.232H161.579V192.945H40.6708V182.232Z" fill="#3D9AE2" fill-opacity="0.67"/>
<path d="M354.421 410.274H423.293V417.927H354.421V410.274Z" fill="#3D9AE2" fill-opacity="0.6"/>
<path d="M196.781 309.262H228.156V324.95H196.781V309.262Z" fill="#3D9AE2" fill-opacity="0.82"/>
<path d="M89.6464 165.396H109.543V174.579H89.6464V165.396Z" fill="#3D9AE2"/>
<g clip-path="url(#clip1)">
<path d="M452.733 375.958V393.066C452.733 394.982 451.182 396.533 449.266 396.533H322.733C320.818 396.533 319.267 394.982 319.267 393.066V375.958C319.267 358.088 333.887 343.913 351.758 343.74C357.667 343.677 363.022 340.768 366.305 336.083C369.894 330.956 369.533 326.338 369.533 322.866L369.598 322.706C354.042 316.267 343.1 300.94 343.1 283.056C343.1 283.056 343.1 282.567 343.1 281.7C339.435 281.7 336.3 279.994 334.338 277.341C334.338 277.336 334.334 277.336 334.334 277.332C333.164 275.855 332.267 273.501 332.267 271.066V228.833C332.267 222.372 337.506 217.133 343.967 217.133C349.193 204.076 361.837 195.467 375.968 195.467C396.589 195.467 409.841 195.312 410.947 195.865C411.207 195.905 413.597 196.33 413.785 196.424C417.213 197.212 421.004 198.96 421.178 199.133C432.44 204.801 440.166 216.466 440.166 229.934V270.433C440.166 276.656 435.122 281.7 428.9 281.7V283.056C428.9 300.94 417.958 316.267 402.401 322.706L402.466 322.866C402.466 326.239 402.077 330.915 405.695 336.083C408.969 340.756 414.316 343.677 420.242 343.74C438.112 343.913 452.733 358.088 452.733 375.958Z" fill="#B9DCFF"/>
<path d="M440.166 229.934V270.433C440.166 276.656 435.122 281.7 428.9 281.7V257.706C428.9 255.873 427.474 254.357 425.645 254.248C405.327 253.037 384.982 246.855 366.66 235.277C364.667 234.016 362.045 235.056 361.438 237.335C360.533 240.763 358.496 245.153 353.933 247.9C349.736 250.426 346.488 249.927 345.267 250.431C343.988 250.942 343.1 252.19 343.1 253.637V281.7C339.435 281.7 336.3 279.994 334.338 277.34C334.338 277.336 334.334 277.336 334.334 277.332C333.557 276.35 332.781 274.737 332.462 273.085C332.183 271.668 332.267 274.866 332.267 228.833C332.267 222.372 337.506 217.133 343.967 217.133C349.166 204.143 361.773 195.467 375.968 195.467C396.589 195.467 409.841 195.312 410.947 195.865C414.309 196.375 417.623 197.434 420.268 198.691C420.319 198.716 421.144 199.099 421.178 199.133C432.44 204.801 440.166 216.466 440.166 229.934Z" fill="#B9DCFF"/>
<path d="M452.733 375.958V393.066C452.733 394.982 451.182 396.533 449.266 396.533H322.733C320.818 396.533 319.267 394.982 319.267 393.066V375.958C319.267 358.088 333.887 343.913 351.758 343.74C357.667 343.677 363.022 340.768 366.305 336.083C381.368 352.823 377.903 348.971 383.421 355.106C384.799 356.636 387.2 356.636 388.578 355.106C393.526 349.605 389.487 354.094 405.695 336.083C408.969 340.756 414.316 343.677 420.242 343.74C438.112 343.913 452.733 358.088 452.733 375.958Z" fill="#D1E7FF"/>
<path d="M413.334 342.293C413.281 342.407 409.004 361.864 409.031 361.74C408.467 364.299 405.227 365.124 403.508 363.145C392.13 350.042 393.682 351.751 392.53 350.712L405.695 336.083C407.601 338.804 410.245 340.967 413.334 342.293Z" fill="#E8F3FF"/>
<path d="M366.305 336.083L379.157 350.366L368.496 362.999C366.792 365.019 363.513 364.209 362.944 361.629C362.917 361.505 358.719 342.407 358.665 342.292C361.755 340.967 364.398 338.804 366.305 336.083Z" fill="#E8F3FF"/>
<path d="M428.9 283.056C428.9 306.758 409.682 325.956 386 325.956C362.318 325.956 343.1 306.759 343.1 283.056C343.1 282.362 343.1 252.808 343.1 253.639C343.1 251.796 344.541 250.283 346.381 250.178C353.401 249.778 359.312 245.38 361.44 237.334C362.043 235.055 364.667 234.016 366.66 235.276C384.392 246.477 404.594 252.992 425.645 254.248C427.475 254.357 428.9 255.874 428.9 257.707V283.056Z" fill="#D1E7FF"/>
<path d="M418.885 208.467H388.968C375.73 208.467 363.735 216.041 357.994 227.819C357.339 229.163 356.074 230.073 354.609 230.372C349.279 231.464 345.267 236.178 345.267 241.833V250.431C343.988 250.942 343.1 252.19 343.1 253.637V274.216C343.1 279.085 336.754 280.994 334.139 277.067C333.543 276.274 332.781 274.644 332.548 273.479C332.157 271.798 332.267 275.052 332.267 228.833C332.267 222.372 337.506 217.133 343.967 217.133C349.214 204.024 361.901 195.467 375.968 195.467C396.45 195.467 409.84 195.312 410.947 195.865C415.104 196.495 418.917 198.026 419.475 198.335C419.611 198.393 421.113 199.068 421.178 199.133C425.845 201.49 424.124 208.493 418.885 208.467Z" fill="#D1E7FF"/>
<path d="M402.956 329.982C392.28 334.451 380.548 334.797 369.043 329.982C369.631 327.544 369.533 325.965 369.533 322.866L369.598 322.706C380.034 327.038 391.945 327.046 402.401 322.706L402.466 322.866C402.466 325.966 402.369 327.545 402.956 329.982Z" fill="#A2D0FF"/>
<path d="M360.919 352.441C343.767 353.221 330.1 367.378 330.1 384.72V396.533H322.733C320.819 396.533 319.267 394.981 319.267 393.066V375.985C319.267 358.108 333.893 343.923 351.769 343.739C354.214 343.714 356.544 343.201 358.665 342.293C358.719 342.407 360.892 352.318 360.919 352.441Z" fill="#E8F3FF"/>
<path d="M411.081 352.441C428.232 353.221 441.9 367.378 441.9 384.72V396.533H449.266C451.181 396.533 452.733 394.981 452.733 393.066V375.985C452.733 358.108 438.107 343.923 420.23 343.739C417.786 343.714 415.455 343.201 413.334 342.293C413.281 342.407 411.108 352.318 411.081 352.441Z" fill="#B9DCFF"/>
<path d="M366.578 354.283C367.223 357.217 367.912 360.341 368.497 362.997C366.794 365.017 363.514 364.21 362.946 361.629C361.279 354.062 358.702 342.37 358.665 342.293C361.755 340.967 364.398 338.804 366.305 336.083L370.005 340.2C366.825 344.16 365.477 349.295 366.578 354.283Z" fill="#E8F3FF"/>
<path d="M376.538 244.815C375.776 250.957 373.082 256.467 368.589 259.806C360.59 265.752 356.1 275.318 356.1 285.285V296.056C356.1 302.482 347.921 303.647 345.887 298.299C344.087 293.562 343.1 288.424 343.1 283.056V253.639C343.1 251.796 344.541 250.283 346.381 250.178C353.421 249.777 359.318 245.362 361.441 237.333C362.043 235.055 364.663 234.015 366.655 235.273C368.846 236.657 371.23 238.066 373.805 239.46C375.736 240.506 376.808 242.635 376.538 244.815Z" fill="#E8F3FF"/>
<path d="M392.53 350.712L399 396.533H373L379.157 350.366L383.423 355.104C384.8 356.634 387.199 356.634 388.576 355.104L392.53 350.712Z" fill="#D1E7FF"/>
<path d="M383.686 355.397L378.2 396.533H373L379.157 350.366L383.686 355.397Z" fill="#B9DCFF"/>
<path d="M420.418 340.274C415.313 340.274 410.68 337.674 408.027 333.319C407.031 331.683 404.898 331.165 403.263 332.161C401.629 333.157 401.11 335.29 402.106 336.925C403.951 339.954 406.449 342.4 409.357 344.15L405.764 360.455L397.102 350.481C398.675 348.673 398.295 346.561 396.941 345.384C395.497 344.128 393.307 344.28 392.05 345.725L385.955 352.734L370.601 335.674C371.907 333.165 372.7 330.411 372.926 327.541C402.641 336.288 432.366 313.861 432.366 283.054V254.4C432.366 252.485 430.814 250.933 428.9 250.933C426.985 250.933 425.433 252.485 425.433 254.4V283.054C425.433 304.797 407.744 322.487 386 322.487C364.256 322.487 346.567 304.798 346.567 283.054V253.634C355.018 253.154 362.206 247.848 364.768 238.231C379.203 247.475 395.382 253.464 412.362 255.841C414.265 256.106 416.012 254.779 416.276 252.888C416.541 250.993 415.219 249.24 413.324 248.975C396.034 246.554 379.161 240.083 364.169 229.47C361.877 227.847 358.686 229.498 358.7 232.322C358.7 232.408 358.668 241.006 352.146 244.929C348.022 247.411 343.851 246.609 343.133 246.602C341.361 246.585 339.86 247.914 339.658 249.668C339.62 250.003 339.633 248.861 339.633 277.408C337.317 276.207 335.733 273.817 335.733 271.066V228.833C335.733 224.293 339.427 220.6 343.967 220.6C345.384 220.6 346.659 219.737 347.185 218.421C351.921 206.583 363.219 198.933 375.969 198.933H405.699C422.793 198.933 436.7 212.84 436.7 229.934V271.066C436.7 272.98 438.252 274.532 440.166 274.532C442.081 274.532 443.633 272.98 443.633 271.066V229.934C443.633 209.017 426.616 192 405.699 192H375.969C361.097 192 347.838 200.506 341.612 213.849C334.363 214.984 328.8 221.271 328.8 228.833V271.066C328.8 277.698 333.44 283.272 339.668 284.768C340.315 302.474 350.935 317.677 366.066 324.912V325.826C366.066 329.688 364.56 333.317 361.825 336.044C356.975 340.881 350.863 340.274 351.581 340.274C331.805 340.274 315.8 356.277 315.8 376.055V396.533C315.8 398.447 317.352 400 319.267 400C321.181 400 322.733 398.447 322.733 396.533V376.055C322.733 360.11 335.636 347.207 351.581 347.208C353.099 347.208 354.613 347.046 356.111 346.726L360.948 368.679C361.56 371.459 365.087 372.352 366.951 370.206L373.781 362.342L369.56 396.103C369.323 398.003 370.671 399.735 372.57 399.973C374.474 400.21 376.203 398.86 376.44 396.963L381.318 357.945C381.538 358.19 383.465 360.351 383.712 360.569C385.143 361.825 387.323 361.697 388.595 360.263C389.281 359.478 387.507 361.516 390.674 357.874L395.56 396.962C395.797 398.859 397.526 400.21 399.43 399.972C401.33 399.735 402.677 398.002 402.44 396.103L398.22 362.341L405.049 370.205C406.916 372.355 410.441 371.453 411.052 368.678L415.89 346.725C417.358 347.037 418.872 347.207 420.419 347.207C436.363 347.207 449.266 360.109 449.266 376.055V396.533C449.266 398.447 450.818 400 452.733 400C454.647 400 456.2 398.447 456.2 396.533V376.055C456.2 356.279 440.196 340.273 420.418 340.274ZM366.235 360.455L362.642 344.146C363.964 343.347 365.203 342.397 366.346 341.31L374.751 350.649L366.235 360.455Z" fill="#066BBD"/>
</g>
<g opacity="0.28" clip-path="url(#clip2)">
<path d="M302.621 389.788V397.766C302.621 398.66 301.897 399.383 301.004 399.383H241.996C241.103 399.383 240.379 398.66 240.379 397.766V389.788C240.379 381.454 247.197 374.844 255.531 374.763C258.287 374.734 260.784 373.377 262.315 371.193C263.989 368.802 263.821 366.648 263.821 365.029L263.851 364.954C256.596 361.951 251.494 354.804 251.494 346.464C251.494 346.464 251.494 346.235 251.494 345.831C249.784 345.831 248.322 345.036 247.408 343.798C247.408 343.796 247.406 343.796 247.406 343.794C246.86 343.105 246.442 342.008 246.442 340.872V321.177C246.442 318.164 248.885 315.721 251.898 315.721C254.335 309.632 260.232 305.617 266.822 305.617C276.438 305.617 282.618 305.545 283.134 305.803C283.255 305.821 284.37 306.019 284.457 306.063C286.056 306.431 287.824 307.246 287.905 307.326C293.157 309.97 296.76 315.41 296.76 321.69V340.577C296.76 343.479 294.408 345.831 291.506 345.831V346.464C291.506 354.804 286.404 361.951 279.149 364.954L279.179 365.029C279.179 366.602 278.997 368.782 280.685 371.193C282.211 373.372 284.705 374.734 287.469 374.763C295.802 374.844 302.621 381.454 302.621 389.788Z" fill="#B9DCFF"/>
<path d="M296.76 321.69V340.577C296.76 343.479 294.408 345.831 291.506 345.831V334.642C291.506 333.787 290.841 333.08 289.988 333.029C280.513 332.464 271.025 329.581 262.481 324.182C261.551 323.594 260.329 324.079 260.046 325.142C259.623 326.74 258.674 328.787 256.546 330.069C254.589 331.247 253.074 331.014 252.504 331.249C251.908 331.487 251.494 332.069 251.494 332.744V345.831C249.784 345.831 248.322 345.036 247.408 343.798C247.408 343.796 247.406 343.796 247.406 343.794C247.043 343.336 246.682 342.584 246.533 341.814C246.403 341.153 246.442 342.644 246.442 321.177C246.442 318.164 248.885 315.721 251.898 315.721C254.322 309.663 260.202 305.617 266.822 305.617C276.438 305.617 282.618 305.545 283.134 305.803C284.702 306.04 286.247 306.534 287.481 307.12C287.505 307.132 287.889 307.311 287.905 307.326C293.157 309.97 296.76 315.41 296.76 321.69Z" fill="#B9DCFF"/>
<path d="M302.621 389.788V397.766C302.621 398.66 301.897 399.383 301.004 399.383H241.996C241.103 399.383 240.379 398.66 240.379 397.766V389.788C240.379 381.454 247.197 374.844 255.531 374.763C258.287 374.734 260.784 373.377 262.315 371.193C269.34 378.999 267.724 377.203 270.298 380.064C270.94 380.777 272.06 380.777 272.702 380.064C275.01 377.498 273.126 379.592 280.685 371.193C282.211 373.372 284.705 374.734 287.469 374.763C295.802 374.844 302.621 381.454 302.621 389.788Z" fill="#D1E7FF"/>
<path d="M284.247 374.088C284.222 374.142 282.228 383.215 282.24 383.157C281.977 384.351 280.466 384.736 279.665 383.813C274.359 377.702 275.083 378.499 274.545 378.015L280.684 371.192C281.574 372.462 282.806 373.47 284.247 374.088Z" fill="#E8F3FF"/>
<path d="M262.315 371.193L268.309 377.853L263.337 383.745C262.543 384.687 261.013 384.309 260.748 383.106C260.735 383.048 258.778 374.142 258.752 374.088C260.193 373.47 261.426 372.462 262.315 371.193Z" fill="#E8F3FF"/>
<path d="M291.506 346.464C291.506 357.517 282.544 366.47 271.5 366.47C260.456 366.47 251.494 357.517 251.494 346.464C251.494 346.14 251.494 332.358 251.494 332.745C251.494 331.885 252.166 331.18 253.024 331.131C256.298 330.945 259.054 328.894 260.047 325.141C260.328 324.078 261.551 323.594 262.481 324.181C270.75 329.405 280.171 332.443 289.988 333.029C290.842 333.08 291.506 333.787 291.506 334.642V346.464Z" fill="#D1E7FF"/>
<path d="M286.836 311.679H272.884C266.71 311.679 261.117 315.212 258.439 320.704C258.134 321.331 257.544 321.755 256.861 321.894C254.375 322.404 252.504 324.602 252.504 327.24V331.249C251.908 331.487 251.494 332.069 251.494 332.744V342.341C251.494 344.612 248.534 345.502 247.315 343.671C247.037 343.301 246.682 342.541 246.573 341.998C246.39 341.213 246.442 342.731 246.442 321.177C246.442 318.164 248.885 315.721 251.898 315.721C254.345 309.607 260.261 305.617 266.822 305.617C276.373 305.617 282.617 305.544 283.134 305.803C285.072 306.096 286.851 306.81 287.111 306.954C287.174 306.981 287.875 307.296 287.905 307.326C290.081 308.426 289.279 311.691 286.836 311.679Z" fill="#D1E7FF"/>
<path d="M279.407 368.347C274.429 370.431 268.957 370.593 263.592 368.347C263.866 367.21 263.821 366.474 263.821 365.029L263.851 364.954C268.718 366.974 274.273 366.978 279.149 364.954L279.179 365.029C279.179 366.475 279.134 367.211 279.407 368.347Z" fill="#A2D0FF"/>
<path d="M259.803 378.821C251.805 379.185 245.431 385.787 245.431 393.874V399.383H241.996C241.103 399.383 240.379 398.659 240.379 397.766V389.801C240.379 381.464 247.2 374.849 255.537 374.763C256.677 374.751 257.764 374.512 258.753 374.088C258.778 374.142 259.791 378.764 259.803 378.821Z" fill="#E8F3FF"/>
<path d="M283.196 378.821C291.195 379.185 297.569 385.787 297.569 393.874V399.383H301.004C301.897 399.383 302.621 398.659 302.621 397.766V389.801C302.621 381.464 295.8 374.849 287.463 374.763C286.323 374.751 285.236 374.512 284.247 374.088C284.222 374.142 283.209 378.764 283.196 378.821Z" fill="#B9DCFF"/>
<path d="M262.442 379.68C262.744 381.048 263.065 382.505 263.338 383.744C262.543 384.686 261.014 384.31 260.749 383.106C259.972 379.577 258.769 374.124 258.752 374.088C260.193 373.47 261.426 372.462 262.315 371.193L264.041 373.112C262.558 374.959 261.929 377.354 262.442 379.68Z" fill="#E8F3FF"/>
<path d="M267.087 328.63C266.732 331.494 265.476 334.064 263.381 335.621C259.65 338.394 257.556 342.855 257.556 347.503V352.526C257.556 355.523 253.742 356.066 252.794 353.572C251.954 351.363 251.494 348.967 251.494 346.464V332.745C251.494 331.885 252.166 331.18 253.024 331.131C256.307 330.944 259.057 328.885 260.047 325.141C260.328 324.079 261.55 323.594 262.478 324.18C263.5 324.826 264.612 325.483 265.813 326.133C266.714 326.621 267.213 327.614 267.087 328.63Z" fill="#E8F3FF"/>
<path d="M274.545 378.015L277.562 399.383H265.438L268.309 377.853L270.298 380.063C270.941 380.776 272.059 380.776 272.701 380.063L274.545 378.015Z" fill="#D1E7FF"/>
<path d="M270.421 380.199L267.862 399.383H265.438L268.309 377.853L270.421 380.199Z" fill="#B9DCFF"/>
<path d="M287.551 373.147C285.17 373.147 283.01 371.935 281.772 369.903C281.308 369.141 280.313 368.899 279.551 369.364C278.788 369.828 278.547 370.823 279.011 371.585C279.872 372.998 281.036 374.139 282.392 374.955L280.717 382.559L276.677 377.907C277.411 377.064 277.234 376.079 276.602 375.53C275.929 374.944 274.907 375.015 274.321 375.689L271.479 378.958L264.319 371.002C264.928 369.832 265.297 368.547 265.403 367.209C279.26 371.288 293.123 360.829 293.123 346.463V333.1C293.123 332.207 292.399 331.483 291.506 331.483C290.613 331.483 289.889 332.207 289.889 333.1V346.463C289.889 356.603 281.64 364.852 271.5 364.852C261.36 364.852 253.11 356.603 253.11 346.463V332.743C257.052 332.519 260.404 330.044 261.599 325.56C268.33 329.871 275.875 332.664 283.794 333.772C284.681 333.896 285.496 333.277 285.619 332.395C285.743 331.511 285.126 330.694 284.242 330.57C276.179 329.441 268.311 326.424 261.319 321.474C260.251 320.717 258.762 321.487 258.769 322.804C258.769 322.844 258.754 326.854 255.712 328.683C253.789 329.841 251.844 329.467 251.509 329.463C250.683 329.455 249.983 330.075 249.889 330.893C249.871 331.05 249.877 330.517 249.877 343.83C248.797 343.27 248.058 342.155 248.058 340.872V321.177C248.058 319.06 249.781 317.337 251.898 317.337C252.559 317.337 253.153 316.935 253.399 316.321C255.607 310.8 260.876 307.233 266.822 307.233H280.686C288.658 307.233 295.144 313.719 295.144 321.691V340.872C295.144 341.765 295.867 342.489 296.76 342.489C297.653 342.489 298.377 341.765 298.377 340.872V321.691C298.377 311.936 290.441 304 280.686 304H266.822C259.887 304 253.703 307.967 250.8 314.189C247.419 314.718 244.825 317.65 244.825 321.177V340.872C244.825 343.965 246.989 346.564 249.893 347.262C250.195 355.519 255.148 362.609 262.204 365.983V366.409C262.204 368.21 261.502 369.903 260.226 371.175C257.964 373.43 255.114 373.147 255.449 373.147C246.226 373.147 238.762 380.61 238.762 389.833V399.383C238.762 400.276 239.486 401 240.379 401C241.272 401 241.996 400.276 241.996 399.383V389.833C241.996 382.398 248.013 376.38 255.449 376.38C256.157 376.38 256.863 376.305 257.561 376.156L259.817 386.393C260.103 387.69 261.747 388.106 262.617 387.106L265.802 383.438L263.833 399.183C263.723 400.069 264.351 400.877 265.237 400.987C266.125 401.098 266.931 400.468 267.042 399.584L269.316 381.388C269.419 381.502 270.318 382.51 270.433 382.611C271.1 383.197 272.117 383.138 272.71 382.469C273.03 382.103 272.203 383.053 273.68 381.355L275.958 399.583C276.069 400.468 276.875 401.098 277.763 400.987C278.649 400.876 279.277 400.068 279.167 399.182L277.199 383.438L280.384 387.105C281.254 388.108 282.898 387.687 283.183 386.393L285.439 376.155C286.124 376.301 286.83 376.38 287.551 376.38C294.986 376.38 301.004 382.397 301.004 389.833V399.383C301.004 400.276 301.728 401 302.621 401C303.513 401 304.237 400.276 304.237 399.383V389.833C304.237 380.611 296.774 373.147 287.551 373.147ZM262.283 382.559L260.607 374.953C261.223 374.58 261.802 374.137 262.334 373.63L266.254 377.986L262.283 382.559Z" fill="#066BBD"/>
</g>
</g>
<defs>
<clipPath id="clip0">
<rect width="516" height="516" fill="white"/>
</clipPath>
<clipPath id="clip1">
<rect width="208" height="208" fill="white" transform="translate(282 192)"/>
</clipPath>
<clipPath id="clip2">
<rect width="97" height="97" fill="white" transform="translate(223 304)"/>
</clipPath>
</defs>
</svg>
