<svg xmlns="http://www.w3.org/2000/svg" xmlns:xlink="http://www.w3.org/1999/xlink" width="1080" zoomAndPan="magnify" viewBox="0 0 810 809.999993" height="1080" preserveAspectRatio="xMidYMid meet" version="1.0"><defs><clipPath id="25852b24a3"><path d="M 379 41 L 741.84375 41 L 741.84375 208 L 379 208 Z M 379 41 " clip-rule="nonzero"/></clipPath><clipPath id="3ed9dd7694"><path d="M 379 724 L 741.84375 724 L 741.84375 769 L 379 769 Z M 379 724 " clip-rule="nonzero"/></clipPath><clipPath id="c2c51c0904"><path d="M 379 663 L 741.84375 663 L 741.84375 708 L 379 708 Z M 379 663 " clip-rule="nonzero"/></clipPath><clipPath id="3265ca998d"><path d="M 68.34375 443 L 432 443 L 432 489 L 68.34375 489 Z M 68.34375 443 " clip-rule="nonzero"/></clipPath><clipPath id="17b865b0a7"><path d="M 68.34375 382 L 432 382 L 432 428 L 68.34375 428 Z M 68.34375 382 " clip-rule="nonzero"/></clipPath></defs><path fill="#7ed63f" d="M 606.667969 280.53125 C 640.820312 280.53125 672.121094 294.757812 694.414062 317.042969 C 717.179688 339.328125 730.933594 370.625 730.933594 404.761719 C 730.933594 439.375 717.179688 470.199219 694.414062 492.957031 C 672.121094 515.242188 640.820312 528.992188 606.667969 528.992188 C 572.046875 528.992188 541.214844 515.242188 518.449219 492.957031 C 496.160156 470.199219 482.402344 439.375 482.402344 404.761719 C 482.402344 370.625 496.160156 339.328125 518.449219 317.042969 C 541.214844 294.757812 572.046875 280.53125 606.667969 280.53125 Z M 606.667969 280.53125 " fill-opacity="1" fill-rule="nonzero"/><path fill="#fcbe37" d="M 203.519531 0.300781 C 237.667969 0.300781 268.496094 14.527344 290.789062 36.8125 C 313.554688 59.097656 327.308594 90.390625 327.308594 124.53125 C 327.308594 158.671875 313.554688 189.492188 290.789062 211.777344 C 268.496094 234.539062 237.667969 248.289062 203.519531 248.289062 C 168.894531 248.289062 138.066406 234.539062 115.773438 211.777344 C 93.007812 189.492188 79.253906 158.671875 79.253906 124.53125 C 79.253906 90.390625 93.007812 59.097656 115.773438 36.8125 C 138.066406 14.527344 168.894531 0.300781 203.519531 0.300781 Z M 203.519531 0.300781 " fill-opacity="1" fill-rule="nonzero"/><g clip-path="url(#25852b24a3)"><path fill="#70787e" d="M 400.824219 41.078125 L 572.046875 41.078125 C 583.902344 41.078125 593.863281 51.035156 593.863281 63.363281 C 593.863281 75.691406 583.902344 85.652344 572.046875 85.652344 L 400.824219 85.652344 C 388.96875 85.652344 379.007812 75.691406 379.007812 63.363281 C 379.007812 51.035156 388.96875 41.078125 400.824219 41.078125 Z M 400.824219 102.246094 L 720.027344 102.246094 C 731.882812 102.246094 741.84375 112.203125 741.84375 124.53125 C 741.84375 136.386719 731.882812 146.34375 720.027344 146.34375 L 400.824219 146.34375 C 388.96875 146.34375 379.007812 136.386719 379.007812 124.53125 C 379.007812 112.203125 388.96875 102.246094 400.824219 102.246094 Z M 400.824219 163.414062 L 720.027344 163.414062 C 731.882812 163.414062 741.84375 173.371094 741.84375 185.226562 C 741.84375 197.554688 731.882812 207.511719 720.027344 207.511719 L 400.824219 207.511719 C 388.96875 207.511719 379.007812 197.554688 379.007812 185.226562 C 379.007812 173.371094 388.96875 163.414062 400.824219 163.414062 Z M 400.824219 163.414062 " fill-opacity="1" fill-rule="evenodd"/></g><g clip-path="url(#3ed9dd7694)"><path fill="#70787e" d="M 400.824219 724.347656 L 720.027344 724.347656 C 731.882812 724.347656 741.84375 734.308594 741.84375 746.636719 C 741.84375 758.488281 731.882812 768.445312 720.027344 768.445312 L 400.824219 768.445312 C 388.96875 768.445312 379.007812 758.488281 379.007812 746.636719 C 379.007812 734.308594 388.96875 724.347656 400.824219 724.347656 Z M 400.824219 724.347656 " fill-opacity="1" fill-rule="evenodd"/></g><g clip-path="url(#c2c51c0904)"><path fill="#70787e" d="M 400.824219 663.183594 L 720.027344 663.183594 C 731.882812 663.183594 741.84375 673.140625 741.84375 685.46875 C 741.84375 697.796875 731.882812 707.753906 720.027344 707.753906 L 400.824219 707.753906 C 388.96875 707.753906 379.007812 697.796875 379.007812 685.46875 C 379.007812 673.140625 388.96875 663.183594 400.824219 663.183594 Z M 400.824219 663.183594 " fill-opacity="1" fill-rule="evenodd"/></g><path fill="#70787e" d="M 400.824219 602.488281 L 572.046875 602.488281 C 583.902344 602.488281 593.863281 611.972656 593.863281 624.300781 C 593.863281 636.628906 583.902344 646.585938 572.046875 646.585938 L 400.824219 646.585938 C 388.96875 646.585938 379.007812 636.628906 379.007812 624.300781 C 379.007812 611.972656 388.96875 602.488281 400.824219 602.488281 Z M 400.824219 602.488281 " fill-opacity="1" fill-rule="evenodd"/><g clip-path="url(#3265ca998d)"><path fill="#70787e" d="M 409.363281 488.214844 L 90.636719 488.214844 C 78.304688 488.214844 68.34375 478.257812 68.34375 465.929688 C 68.34375 453.601562 78.304688 443.644531 90.636719 443.644531 L 409.363281 443.644531 C 421.21875 443.644531 431.179688 453.601562 431.179688 465.929688 C 431.179688 478.257812 421.21875 488.214844 409.363281 488.214844 Z M 409.363281 488.214844 " fill-opacity="1" fill-rule="evenodd"/></g><g clip-path="url(#17b865b0a7)"><path fill="#70787e" d="M 409.363281 427.046875 L 90.636719 427.046875 C 78.304688 427.046875 68.34375 417.089844 68.34375 404.761719 C 68.34375 392.910156 78.304688 382.953125 90.636719 382.953125 L 409.363281 382.953125 C 421.21875 382.953125 431.179688 392.910156 431.179688 404.761719 C 431.179688 417.089844 421.21875 427.046875 409.363281 427.046875 Z M 409.363281 427.046875 " fill-opacity="1" fill-rule="evenodd"/></g><path fill="#70787e" d="M 409.363281 365.882812 L 238.140625 365.882812 C 226.285156 365.882812 216.324219 355.925781 216.324219 344.070312 C 216.324219 331.742188 226.285156 321.785156 238.140625 321.785156 L 409.363281 321.785156 C 421.21875 321.785156 431.179688 331.742188 431.179688 344.070312 C 431.179688 355.925781 421.21875 365.882812 409.363281 365.882812 Z M 409.363281 365.882812 " fill-opacity="1" fill-rule="evenodd"/><path fill="#df5a49" d="M 203.519531 561.238281 C 237.667969 561.238281 268.496094 574.988281 291.261719 597.746094 C 313.554688 620.03125 327.785156 651.328125 327.785156 685.46875 C 327.785156 719.609375 313.554688 750.902344 291.261719 773.1875 C 268.496094 795.949219 237.667969 809.699219 203.519531 809.699219 C 168.894531 809.699219 138.066406 795.949219 115.300781 773.1875 C 93.007812 750.902344 78.777344 719.609375 78.777344 685.46875 C 78.777344 651.328125 93.007812 620.03125 115.300781 597.746094 C 138.066406 574.988281 168.894531 561.238281 203.519531 561.238281 Z M 203.519531 561.238281 " fill-opacity="1" fill-rule="nonzero"/><path fill="#ffffff" d="M 194.03125 80.433594 L 194.03125 187.121094 C 194.03125 193.285156 198.773438 198.5 204.941406 198.5 C 211.105469 198.5 215.851562 193.285156 215.851562 187.121094 L 215.851562 61.46875 C 215.851562 59.570312 215.375 57.675781 214.425781 55.777344 C 211.582031 50.5625 204.941406 48.664062 199.25 51.984375 L 199.722656 51.984375 L 166.046875 71.425781 C 160.832031 74.269531 158.933594 80.910156 162.253906 86.125 C 165.101562 91.339844 171.738281 93.238281 176.957031 90.390625 Z M 194.03125 80.433594 " fill-opacity="1" fill-rule="evenodd"/><path fill="#ffffff" d="M 602.402344 354.027344 C 605.722656 352.605469 609.515625 352.605469 613.308594 353.554688 C 618.050781 354.976562 622.320312 357.820312 625.167969 362.5625 C 629.910156 370.148438 626.589844 380.105469 619.949219 390.539062 C 606.667969 410.453125 582.007812 429.894531 568.25 438.902344 C 564.929688 441.273438 563.507812 444.59375 563.507812 447.910156 L 563.507812 467.828125 C 563.507812 473.992188 568.25 478.730469 574.417969 478.730469 L 637.023438 478.730469 C 643.191406 478.730469 648.40625 473.992188 648.40625 467.828125 C 648.40625 461.664062 643.191406 456.921875 637.023438 456.921875 L 585.324219 456.921875 L 585.324219 453.601562 C 600.976562 442.695312 624.691406 423.253906 638.445312 402.390625 C 649.832031 385.320312 654.574219 367.304688 644.140625 350.707031 C 637.972656 341.226562 628.960938 335.0625 619 332.214844 C 611.414062 330.320312 603.347656 330.320312 596.234375 332.691406 C 588.644531 335.0625 581.53125 339.328125 575.839844 346.441406 C 568.726562 355.449219 563.984375 368.253906 564.457031 384.847656 C 564.929688 391.011719 569.675781 395.753906 575.839844 395.753906 C 582.007812 395.753906 586.75 390.539062 586.75 384.375 C 586.273438 373.46875 589.121094 365.40625 592.914062 360.191406 C 595.761719 356.871094 599.082031 354.976562 602.402344 354.027344 Z M 602.402344 354.027344 " fill-opacity="1" fill-rule="evenodd"/><path fill="#ffffff" d="M 195.929688 696.375 Z M 198.773438 611.5 C 187.867188 611.5 176.957031 615.765625 168.421875 623.828125 C 164.152344 628.09375 164.152344 635.207031 168.421875 639.472656 C 172.6875 643.742188 179.804688 643.742188 184.070312 639.472656 C 188.339844 635.679688 193.558594 633.785156 198.773438 633.785156 C 203.992188 633.785156 209.210938 635.679688 213.003906 639.472656 C 217.273438 643.742188 219.167969 648.957031 219.167969 654.171875 C 219.167969 659.390625 217.273438 664.605469 213.003906 668.398438 L 212.53125 668.871094 C 210.632812 670.769531 208.261719 672.191406 205.890625 673.140625 C 204.464844 673.613281 202.570312 674.085938 200.671875 674.5625 C 199.25 674.085938 197.828125 674.085938 196.878906 674.5625 C 190.710938 674.085938 185.96875 678.828125 185.496094 684.519531 C 185.019531 690.683594 189.761719 695.898438 195.929688 696.375 C 197.351562 696.375 199.25 696.375 200.671875 696.375 C 202.570312 696.847656 204.464844 696.847656 205.890625 697.796875 C 208.261719 698.746094 211.105469 700.167969 213.003906 702.539062 C 217.273438 706.332031 219.167969 711.546875 219.167969 716.761719 C 219.167969 721.976562 217.273438 727.195312 213.003906 731.460938 L 212.53125 731.9375 C 208.734375 735.253906 203.519531 737.152344 198.773438 737.152344 C 193.558594 737.152344 188.339844 735.253906 184.070312 731.460938 C 179.804688 726.71875 172.6875 726.71875 168.421875 731.460938 C 164.152344 735.730469 164.152344 742.367188 168.421875 747.109375 C 176.957031 755.167969 187.867188 759.4375 198.773438 759.4375 C 209.210938 759.4375 219.644531 755.644531 228.179688 747.582031 L 228.65625 747.109375 C 237.191406 738.574219 241.460938 727.667969 241.460938 716.761719 C 241.460938 705.855469 237.191406 694.949219 228.65625 686.890625 L 227.234375 685.46875 L 228.179688 684.519531 L 228.65625 684.046875 C 237.191406 675.984375 241.460938 665.078125 241.460938 654.171875 C 241.460938 630.464844 222.015625 611.5 198.773438 611.5 Z M 198.773438 611.5 " fill-opacity="1" fill-rule="evenodd"/></svg>