<svg width="469" height="248" viewBox="0 0 469 248" fill="none" xmlns="http://www.w3.org/2000/svg">
<rect width="469" height="248" fill="white"/>
<path d="M29.4717 166.84V173.649H28.8037C28.4079 172.078 27.9688 170.953 27.4863 170.272C27.0039 169.58 26.3421 169.029 25.501 168.621C25.0309 168.398 24.2083 168.287 23.0332 168.287H21.1592V187.695C21.1592 188.982 21.2272 189.786 21.3633 190.107C21.5117 190.429 21.79 190.714 22.1982 190.961C22.6188 191.196 23.1878 191.313 23.9053 191.313H24.7402V192H11.5664V191.313H12.4014C13.1312 191.313 13.7188 191.184 14.1641 190.924C14.4857 190.751 14.7393 190.454 14.9248 190.033C15.0609 189.736 15.1289 188.957 15.1289 187.695V168.287H13.3105C11.6159 168.287 10.3851 168.646 9.61816 169.363C8.54199 170.365 7.86165 171.794 7.57715 173.649H6.87207V166.84H29.4717ZM36.5039 174.651V178.585C37.6543 176.791 38.6624 175.604 39.5283 175.022C40.3942 174.429 41.2292 174.132 42.0332 174.132C42.7259 174.132 43.2764 174.348 43.6846 174.781C44.1051 175.202 44.3154 175.802 44.3154 176.581C44.3154 177.41 44.1113 178.053 43.7031 178.511C43.3073 178.968 42.8249 179.197 42.2559 179.197C41.6003 179.197 41.0312 178.987 40.5488 178.566C40.0664 178.146 39.7819 177.911 39.6953 177.861C39.5716 177.787 39.4294 177.75 39.2686 177.75C38.9098 177.75 38.5697 177.886 38.248 178.158C37.7409 178.579 37.3574 179.179 37.0977 179.958C36.7018 181.158 36.5039 182.481 36.5039 183.929V187.918L36.5225 188.957C36.5225 189.662 36.5658 190.114 36.6523 190.312C36.8008 190.646 37.0173 190.893 37.3018 191.054C37.5986 191.202 38.0934 191.295 38.7861 191.332V192H29.416V191.332C30.1706 191.27 30.6777 191.066 30.9375 190.72C31.2096 190.361 31.3457 189.427 31.3457 187.918V178.325C31.3457 177.336 31.2962 176.705 31.1973 176.433C31.0736 176.086 30.8942 175.833 30.6592 175.672C30.4242 175.511 30.0098 175.4 29.416 175.338V174.651H36.5039ZM50.3643 166.246C51.1683 166.246 51.8486 166.531 52.4053 167.1C52.9619 167.656 53.2402 168.33 53.2402 169.122C53.2402 169.914 52.9557 170.588 52.3867 171.145C51.8301 171.701 51.1559 171.979 50.3643 171.979C49.5726 171.979 48.8984 171.701 48.3418 171.145C47.7852 170.588 47.5068 169.914 47.5068 169.122C47.5068 168.33 47.7852 167.656 48.3418 167.1C48.8984 166.531 49.5726 166.246 50.3643 166.246ZM52.9619 174.651V188.4C52.9619 189.625 53.1042 190.41 53.3887 190.757C53.6732 191.091 54.2298 191.283 55.0586 191.332V192H45.6885V191.332C46.4554 191.307 47.0244 191.085 47.3955 190.664C47.6429 190.38 47.7666 189.625 47.7666 188.4V178.27C47.7666 177.045 47.6243 176.266 47.3398 175.932C47.0553 175.585 46.5049 175.387 45.6885 175.338V174.651H52.9619ZM63.4824 166.84V176.396C64.9421 174.886 66.5378 174.132 68.2695 174.132C69.457 174.132 70.5765 174.484 71.6279 175.189C72.6794 175.882 73.502 176.872 74.0957 178.158C74.6895 179.445 74.9863 180.929 74.9863 182.611C74.9863 184.504 74.609 186.223 73.8545 187.77C73.0999 189.316 72.0918 190.497 70.8301 191.313C69.5684 192.118 68.1273 192.52 66.5068 192.52C65.5667 192.52 64.7318 192.371 64.002 192.074C63.2721 191.777 62.5547 191.295 61.8496 190.627L58.9736 192.501H58.3428V170.439C58.3428 169.438 58.2995 168.819 58.2129 168.584C58.0892 168.238 57.8913 167.984 57.6191 167.823C57.3594 167.65 56.9141 167.551 56.2832 167.526V166.84H63.4824ZM63.4824 178.047V185.766C63.4824 187.337 63.5195 188.339 63.5938 188.771C63.7174 189.501 64.0143 190.095 64.4844 190.553C64.9544 190.998 65.5544 191.221 66.2842 191.221C66.915 191.221 67.4531 191.041 67.8984 190.683C68.3561 190.324 68.7334 189.613 69.0303 188.549C69.3395 187.485 69.4941 185.568 69.4941 182.797C69.4941 180.137 69.1602 178.313 68.4922 177.323C68.0098 176.606 67.3604 176.247 66.5439 176.247C65.4801 176.247 64.4596 176.847 63.4824 178.047ZM94.6729 174.651V188.233C94.6729 189.557 94.7965 190.386 95.0439 190.72C95.2913 191.041 95.7923 191.245 96.5469 191.332V192H89.4775V189.681C88.6488 190.67 87.82 191.394 86.9912 191.852C86.1624 192.297 85.2347 192.52 84.208 192.52C83.2308 192.52 82.3587 192.223 81.5918 191.629C80.8372 191.023 80.3301 190.318 80.0703 189.514C79.8105 188.71 79.6807 187.306 79.6807 185.302V178.418C79.6807 177.107 79.557 176.29 79.3096 175.969C79.0745 175.647 78.5736 175.437 77.8066 175.338V174.651H84.876V186.508C84.876 187.745 84.9316 188.543 85.043 188.901C85.1667 189.26 85.3522 189.532 85.5996 189.718C85.8594 189.903 86.1562 189.996 86.4902 189.996C86.9355 189.996 87.3376 189.879 87.6963 189.644C88.1911 189.322 88.7848 188.673 89.4775 187.695V178.418C89.4775 177.107 89.3538 176.29 89.1064 175.969C88.8714 175.647 88.3704 175.437 87.6035 175.338V174.651H94.6729ZM106.158 174.651V176.896C107.049 175.932 107.902 175.233 108.719 174.8C109.535 174.354 110.413 174.132 111.354 174.132C112.479 174.132 113.413 174.447 114.155 175.078C114.897 175.697 115.392 176.47 115.64 177.397C115.838 178.103 115.937 179.457 115.937 181.461V188.215C115.937 189.551 116.054 190.386 116.289 190.72C116.536 191.041 117.044 191.245 117.811 191.332V192H109.034V191.332C109.69 191.245 110.16 190.973 110.444 190.516C110.642 190.206 110.741 189.439 110.741 188.215V180.496C110.741 179.074 110.686 178.177 110.574 177.806C110.463 177.435 110.271 177.15 109.999 176.952C109.739 176.742 109.449 176.637 109.127 176.637C108.063 176.637 107.074 177.397 106.158 178.919V188.215C106.158 189.514 106.276 190.336 106.511 190.683C106.758 191.029 107.21 191.245 107.865 191.332V192H99.0889V191.332C99.8187 191.258 100.338 191.023 100.647 190.627C100.858 190.355 100.963 189.551 100.963 188.215V178.418C100.963 177.107 100.839 176.29 100.592 175.969C100.357 175.647 99.8558 175.437 99.0889 175.338V174.651H106.158ZM129.797 189.439C127.682 191.307 125.783 192.241 124.101 192.241C123.111 192.241 122.288 191.92 121.633 191.276C120.977 190.621 120.649 189.804 120.649 188.827C120.649 187.504 121.218 186.316 122.356 185.265C123.494 184.201 125.975 182.791 129.797 181.034V179.29C129.797 177.979 129.723 177.156 129.574 176.822C129.438 176.476 129.172 176.179 128.776 175.932C128.381 175.672 127.935 175.542 127.44 175.542C126.636 175.542 125.975 175.721 125.455 176.08C125.133 176.303 124.973 176.562 124.973 176.859C124.973 177.119 125.146 177.441 125.492 177.824C125.962 178.356 126.197 178.869 126.197 179.364C126.197 179.97 125.968 180.49 125.511 180.923C125.065 181.343 124.478 181.554 123.748 181.554C122.969 181.554 122.313 181.319 121.781 180.849C121.262 180.379 121.002 179.828 121.002 179.197C121.002 178.307 121.354 177.459 122.06 176.655C122.765 175.839 123.748 175.214 125.01 174.781C126.271 174.348 127.583 174.132 128.943 174.132C130.589 174.132 131.887 174.484 132.84 175.189C133.805 175.882 134.429 176.637 134.714 177.453C134.887 177.973 134.974 179.166 134.974 181.034V187.77C134.974 188.561 135.005 189.062 135.066 189.272C135.128 189.47 135.221 189.619 135.345 189.718C135.468 189.817 135.611 189.866 135.771 189.866C136.093 189.866 136.421 189.637 136.755 189.18L137.312 189.625C136.693 190.54 136.05 191.208 135.382 191.629C134.726 192.037 133.978 192.241 133.137 192.241C132.147 192.241 131.374 192.012 130.817 191.555C130.261 191.085 129.921 190.38 129.797 189.439ZM129.797 188.085V182.277C128.3 183.156 127.187 184.096 126.457 185.098C125.975 185.766 125.733 186.44 125.733 187.12C125.733 187.689 125.938 188.19 126.346 188.623C126.655 188.957 127.088 189.124 127.645 189.124C128.263 189.124 128.98 188.778 129.797 188.085ZM146.014 166.84V188.4C146.014 189.625 146.156 190.41 146.44 190.757C146.725 191.091 147.282 191.283 148.11 191.332V192H138.74V191.332C139.507 191.307 140.076 191.085 140.447 190.664C140.695 190.38 140.818 189.625 140.818 188.4V170.439C140.818 169.227 140.676 168.454 140.392 168.12C140.107 167.774 139.557 167.576 138.74 167.526V166.84H146.014ZM175.868 166.265L176.072 174.651H175.312C174.953 172.549 174.068 170.86 172.658 169.586C171.26 168.299 169.745 167.656 168.112 167.656C166.851 167.656 165.849 167.996 165.106 168.677C164.377 169.345 164.012 170.118 164.012 170.996C164.012 171.553 164.142 172.048 164.401 172.48C164.76 173.062 165.335 173.637 166.127 174.206C166.708 174.614 168.05 175.338 170.153 176.377C173.097 177.824 175.083 179.191 176.109 180.478C177.124 181.764 177.631 183.236 177.631 184.894C177.631 186.996 176.808 188.809 175.163 190.33C173.53 191.839 171.452 192.594 168.929 192.594C168.137 192.594 167.389 192.513 166.684 192.353C165.979 192.192 165.094 191.889 164.03 191.443C163.437 191.196 162.948 191.072 162.564 191.072C162.243 191.072 161.903 191.196 161.544 191.443C161.185 191.691 160.895 192.068 160.672 192.575H159.985V183.075H160.672C161.216 185.747 162.261 187.788 163.808 189.198C165.366 190.596 167.042 191.295 168.836 191.295C170.221 191.295 171.322 190.918 172.139 190.163C172.967 189.409 173.382 188.53 173.382 187.528C173.382 186.935 173.221 186.359 172.899 185.803C172.59 185.246 172.114 184.72 171.471 184.226C170.827 183.718 169.689 183.063 168.057 182.259C165.768 181.133 164.123 180.174 163.121 179.383C162.119 178.591 161.346 177.707 160.802 176.729C160.27 175.752 160.004 174.676 160.004 173.501C160.004 171.497 160.74 169.79 162.212 168.38C163.684 166.97 165.539 166.265 167.778 166.265C168.595 166.265 169.386 166.364 170.153 166.562C170.735 166.71 171.44 166.988 172.269 167.396C173.11 167.792 173.697 167.99 174.031 167.99C174.353 167.99 174.606 167.891 174.792 167.693C174.978 167.495 175.151 167.019 175.312 166.265H175.868ZM197.206 174.651V188.233C197.206 189.557 197.33 190.386 197.577 190.72C197.825 191.041 198.326 191.245 199.08 191.332V192H192.011V189.681C191.182 190.67 190.353 191.394 189.524 191.852C188.696 192.297 187.768 192.52 186.741 192.52C185.764 192.52 184.892 192.223 184.125 191.629C183.37 191.023 182.863 190.318 182.604 189.514C182.344 188.71 182.214 187.306 182.214 185.302V178.418C182.214 177.107 182.09 176.29 181.843 175.969C181.608 175.647 181.107 175.437 180.34 175.338V174.651H187.409V186.508C187.409 187.745 187.465 188.543 187.576 188.901C187.7 189.26 187.885 189.532 188.133 189.718C188.393 189.903 188.689 189.996 189.023 189.996C189.469 189.996 189.871 189.879 190.229 189.644C190.724 189.322 191.318 188.673 192.011 187.695V178.418C192.011 177.107 191.887 176.29 191.64 175.969C191.405 175.647 190.904 175.437 190.137 175.338V174.651H197.206ZM208.32 190.237V196.694C208.32 197.585 208.388 198.191 208.524 198.513C208.673 198.834 208.896 199.069 209.192 199.218C209.489 199.366 210.071 199.44 210.937 199.44V200.127H201.047V199.44C201.814 199.416 202.383 199.199 202.754 198.791C203.001 198.507 203.125 197.771 203.125 196.583V178.27C203.125 177.045 202.983 176.266 202.698 175.932C202.414 175.585 201.863 175.387 201.047 175.338V174.651H208.32V176.934C208.926 176.043 209.545 175.4 210.176 175.004C211.079 174.423 212.062 174.132 213.126 174.132C214.4 174.132 215.557 174.534 216.596 175.338C217.647 176.142 218.445 177.255 218.989 178.678C219.534 180.088 219.806 181.609 219.806 183.242C219.806 184.999 219.521 186.607 218.952 188.066C218.396 189.514 217.579 190.621 216.503 191.388C215.439 192.142 214.252 192.52 212.94 192.52C211.988 192.52 211.097 192.309 210.269 191.889C209.65 191.567 209.001 191.017 208.32 190.237ZM208.32 188.363C209.384 189.872 210.522 190.627 211.734 190.627C212.402 190.627 212.953 190.274 213.386 189.569C214.029 188.53 214.351 186.551 214.351 183.632C214.351 180.638 213.998 178.591 213.293 177.49C212.823 176.76 212.192 176.396 211.4 176.396C210.151 176.396 209.124 177.299 208.32 179.104V188.363ZM229.955 174.651V178.585C231.105 176.791 232.114 175.604 232.979 175.022C233.845 174.429 234.68 174.132 235.484 174.132C236.177 174.132 236.728 174.348 237.136 174.781C237.556 175.202 237.767 175.802 237.767 176.581C237.767 177.41 237.562 178.053 237.154 178.511C236.758 178.968 236.276 179.197 235.707 179.197C235.051 179.197 234.482 178.987 234 178.566C233.518 178.146 233.233 177.911 233.146 177.861C233.023 177.787 232.881 177.75 232.72 177.75C232.361 177.75 232.021 177.886 231.699 178.158C231.192 178.579 230.809 179.179 230.549 179.958C230.153 181.158 229.955 182.481 229.955 183.929V187.918L229.974 188.957C229.974 189.662 230.017 190.114 230.104 190.312C230.252 190.646 230.468 190.893 230.753 191.054C231.05 191.202 231.545 191.295 232.237 191.332V192H222.867V191.332C223.622 191.27 224.129 191.066 224.389 190.72C224.661 190.361 224.797 189.427 224.797 187.918V178.325C224.797 177.336 224.747 176.705 224.648 176.433C224.525 176.086 224.345 175.833 224.11 175.672C223.875 175.511 223.461 175.4 222.867 175.338V174.651H229.955ZM253.631 182.704H244.112C244.224 185.005 244.836 186.823 245.949 188.159C246.803 189.186 247.829 189.699 249.029 189.699C249.771 189.699 250.446 189.495 251.052 189.087C251.658 188.666 252.307 187.918 253 186.842L253.631 187.25C252.691 189.167 251.652 190.528 250.514 191.332C249.376 192.124 248.058 192.52 246.562 192.52C243.989 192.52 242.04 191.53 240.717 189.551C239.653 187.955 239.121 185.976 239.121 183.613C239.121 180.719 239.9 178.418 241.459 176.711C243.03 174.992 244.867 174.132 246.97 174.132C248.726 174.132 250.248 174.855 251.534 176.303C252.833 177.738 253.532 179.871 253.631 182.704ZM249.066 181.461C249.066 179.469 248.955 178.103 248.732 177.36C248.522 176.618 248.188 176.055 247.73 175.672C247.471 175.449 247.124 175.338 246.691 175.338C246.048 175.338 245.522 175.653 245.114 176.284C244.384 177.385 244.02 178.894 244.02 180.812V181.461H249.066ZM263.02 174.651V176.934C263.972 175.895 264.85 175.171 265.654 174.763C266.471 174.342 267.361 174.132 268.326 174.132C269.439 174.132 270.373 174.392 271.128 174.911C271.882 175.431 272.464 176.222 272.872 177.286C273.862 176.173 274.808 175.369 275.711 174.874C276.626 174.379 277.579 174.132 278.568 174.132C279.768 174.132 280.721 174.41 281.426 174.967C282.143 175.511 282.638 176.21 282.91 177.063C283.195 177.905 283.337 179.253 283.337 181.108V188.215C283.337 189.551 283.454 190.38 283.689 190.701C283.937 191.023 284.444 191.233 285.211 191.332V192H276.249V191.332C276.954 191.27 277.474 190.998 277.808 190.516C278.03 190.182 278.142 189.415 278.142 188.215V180.756C278.142 179.21 278.08 178.226 277.956 177.806C277.832 177.385 277.634 177.076 277.362 176.878C277.103 176.668 276.793 176.562 276.435 176.562C275.903 176.562 275.365 176.76 274.82 177.156C274.276 177.54 273.726 178.121 273.169 178.9V188.215C273.169 189.464 273.274 190.25 273.484 190.571C273.769 191.029 274.313 191.283 275.117 191.332V192H266.137V191.332C266.619 191.307 266.996 191.19 267.269 190.979C267.553 190.757 267.739 190.497 267.825 190.2C267.924 189.891 267.974 189.229 267.974 188.215V180.756C267.974 179.185 267.912 178.201 267.788 177.806C267.664 177.41 267.454 177.101 267.157 176.878C266.873 176.655 266.563 176.544 266.229 176.544C265.735 176.544 265.283 176.674 264.875 176.934C264.294 177.317 263.675 177.973 263.02 178.9V188.215C263.02 189.439 263.137 190.25 263.372 190.646C263.619 191.029 264.127 191.258 264.894 191.332V192H255.95V191.332C256.68 191.258 257.2 191.023 257.509 190.627C257.719 190.355 257.824 189.551 257.824 188.215V178.418C257.824 177.107 257.701 176.29 257.453 175.969C257.218 175.647 256.717 175.437 255.95 175.338V174.651H263.02ZM295.657 174.132C297.166 174.132 298.57 174.521 299.869 175.301C301.168 176.08 302.151 177.187 302.819 178.622C303.5 180.057 303.84 181.628 303.84 183.335C303.84 185.797 303.215 187.856 301.966 189.514C300.457 191.518 298.372 192.52 295.713 192.52C293.103 192.52 291.093 191.604 289.683 189.773C288.272 187.943 287.567 185.821 287.567 183.409C287.567 180.923 288.285 178.758 289.72 176.915C291.167 175.06 293.146 174.132 295.657 174.132ZM295.731 175.449C295.101 175.449 294.556 175.69 294.099 176.173C293.653 176.643 293.356 177.583 293.208 178.993C293.072 180.391 293.004 182.339 293.004 184.838C293.004 186.161 293.09 187.398 293.264 188.549C293.4 189.427 293.69 190.095 294.136 190.553C294.581 191.01 295.088 191.239 295.657 191.239C296.214 191.239 296.678 191.085 297.049 190.775C297.531 190.355 297.853 189.767 298.014 189.013C298.261 187.838 298.385 185.463 298.385 181.888C298.385 179.785 298.267 178.344 298.032 177.564C297.797 176.773 297.451 176.198 296.993 175.839C296.672 175.579 296.251 175.449 295.731 175.449ZM325.048 168.287V178.529H325.549C327.145 178.529 328.301 178.028 329.019 177.026C329.736 176.024 330.194 174.546 330.392 172.592H331.097V185.766H330.392C330.243 184.331 329.928 183.156 329.445 182.24C328.975 181.325 328.425 180.713 327.794 180.403C327.163 180.082 326.248 179.921 325.048 179.921V187.009C325.048 188.394 325.104 189.242 325.215 189.551C325.339 189.86 325.561 190.114 325.883 190.312C326.204 190.509 326.724 190.608 327.441 190.608H328.944C331.295 190.608 333.175 190.064 334.585 188.976C336.007 187.887 337.028 186.229 337.646 184.003H338.333L337.201 192H315.455V191.313H316.29C317.02 191.313 317.607 191.184 318.053 190.924C318.374 190.751 318.622 190.454 318.795 190.033C318.931 189.736 318.999 188.957 318.999 187.695V171.145C318.999 170.007 318.968 169.308 318.906 169.048C318.783 168.615 318.554 168.281 318.22 168.046C317.75 167.7 317.106 167.526 316.29 167.526H315.455V166.84H336.515V174.28H335.81C335.451 172.462 334.944 171.157 334.288 170.365C333.645 169.574 332.729 168.992 331.542 168.621C330.849 168.398 329.55 168.287 327.646 168.287H325.048ZM348.111 166.84V188.4C348.111 189.625 348.254 190.41 348.538 190.757C348.823 191.091 349.379 191.283 350.208 191.332V192H340.838V191.332C341.605 191.307 342.174 191.085 342.545 190.664C342.792 190.38 342.916 189.625 342.916 188.4V170.439C342.916 169.227 342.774 168.454 342.489 168.12C342.205 167.774 341.654 167.576 340.838 167.526V166.84H348.111ZM366.592 182.704H357.073C357.185 185.005 357.797 186.823 358.91 188.159C359.764 189.186 360.79 189.699 361.99 189.699C362.732 189.699 363.407 189.495 364.013 189.087C364.619 188.666 365.268 187.918 365.961 186.842L366.592 187.25C365.652 189.167 364.613 190.528 363.475 191.332C362.337 192.124 361.019 192.52 359.522 192.52C356.95 192.52 355.001 191.53 353.678 189.551C352.614 187.955 352.082 185.976 352.082 183.613C352.082 180.719 352.861 178.418 354.42 176.711C355.991 174.992 357.828 174.132 359.931 174.132C361.687 174.132 363.209 174.855 364.495 176.303C365.794 177.738 366.493 179.871 366.592 182.704ZM362.027 181.461C362.027 179.469 361.916 178.103 361.693 177.36C361.483 176.618 361.149 176.055 360.691 175.672C360.432 175.449 360.085 175.338 359.652 175.338C359.009 175.338 358.483 175.653 358.075 176.284C357.345 177.385 356.98 178.894 356.98 180.812V181.461H362.027ZM382.938 187.528L383.514 187.974C382.697 189.507 381.677 190.652 380.452 191.406C379.24 192.148 377.947 192.52 376.574 192.52C374.261 192.52 372.412 191.647 371.026 189.903C369.641 188.159 368.948 186.062 368.948 183.613C368.948 181.251 369.579 179.173 370.841 177.379C372.362 175.214 374.459 174.132 377.131 174.132C378.924 174.132 380.347 174.583 381.398 175.486C382.462 176.389 382.994 177.397 382.994 178.511C382.994 179.216 382.778 179.779 382.345 180.199C381.924 180.62 381.368 180.83 380.675 180.83C379.945 180.83 379.339 180.589 378.856 180.106C378.386 179.624 378.096 178.764 377.984 177.527C377.91 176.748 377.731 176.204 377.446 175.895C377.162 175.585 376.828 175.431 376.444 175.431C375.851 175.431 375.343 175.746 374.923 176.377C374.28 177.329 373.958 178.789 373.958 180.756C373.958 182.389 374.218 183.953 374.737 185.45C375.257 186.935 375.968 188.042 376.871 188.771C377.551 189.303 378.355 189.569 379.283 189.569C379.889 189.569 380.465 189.427 381.009 189.143C381.553 188.858 382.196 188.32 382.938 187.528ZM392.55 168.306V174.651H396.669V176.488H392.55V187.194C392.55 188.196 392.593 188.846 392.68 189.143C392.779 189.427 392.946 189.662 393.181 189.848C393.416 190.021 393.632 190.107 393.83 190.107C394.634 190.107 395.395 189.495 396.112 188.271L396.669 188.679C395.667 191.054 394.04 192.241 391.789 192.241C390.688 192.241 389.754 191.938 388.987 191.332C388.233 190.714 387.75 190.027 387.54 189.272C387.416 188.852 387.354 187.714 387.354 185.858V176.488H385.091V175.839C386.649 174.738 387.973 173.581 389.062 172.369C390.162 171.157 391.121 169.802 391.938 168.306H392.55ZM406.503 174.132C408.012 174.132 409.416 174.521 410.715 175.301C412.014 176.08 412.997 177.187 413.665 178.622C414.345 180.057 414.686 181.628 414.686 183.335C414.686 185.797 414.061 187.856 412.812 189.514C411.302 191.518 409.218 192.52 406.559 192.52C403.949 192.52 401.938 191.604 400.528 189.773C399.118 187.943 398.413 185.821 398.413 183.409C398.413 180.923 399.131 178.758 400.565 176.915C402.013 175.06 403.992 174.132 406.503 174.132ZM406.577 175.449C405.946 175.449 405.402 175.69 404.944 176.173C404.499 176.643 404.202 177.583 404.054 178.993C403.918 180.391 403.85 182.339 403.85 184.838C403.85 186.161 403.936 187.398 404.109 188.549C404.245 189.427 404.536 190.095 404.981 190.553C405.427 191.01 405.934 191.239 406.503 191.239C407.06 191.239 407.523 191.085 407.895 190.775C408.377 190.355 408.699 189.767 408.859 189.013C409.107 187.838 409.23 185.463 409.23 181.888C409.23 179.785 409.113 178.344 408.878 177.564C408.643 176.773 408.297 176.198 407.839 175.839C407.517 175.579 407.097 175.449 406.577 175.449ZM424.52 174.651V178.585C425.67 176.791 426.678 175.604 427.544 175.022C428.41 174.429 429.245 174.132 430.049 174.132C430.742 174.132 431.292 174.348 431.7 174.781C432.121 175.202 432.331 175.802 432.331 176.581C432.331 177.41 432.127 178.053 431.719 178.511C431.323 178.968 430.84 179.197 430.271 179.197C429.616 179.197 429.047 178.987 428.564 178.566C428.082 178.146 427.798 177.911 427.711 177.861C427.587 177.787 427.445 177.75 427.284 177.75C426.925 177.75 426.585 177.886 426.264 178.158C425.757 178.579 425.373 179.179 425.113 179.958C424.717 181.158 424.52 182.481 424.52 183.929V187.918L424.538 188.957C424.538 189.662 424.581 190.114 424.668 190.312C424.816 190.646 425.033 190.893 425.317 191.054C425.614 191.202 426.109 191.295 426.802 191.332V192H417.432V191.332C418.186 191.27 418.693 191.066 418.953 190.72C419.225 190.361 419.361 189.427 419.361 187.918V178.325C419.361 177.336 419.312 176.705 419.213 176.433C419.089 176.086 418.91 175.833 418.675 175.672C418.44 175.511 418.025 175.4 417.432 175.338V174.651H424.52ZM443.779 189.439C441.664 191.307 439.765 192.241 438.083 192.241C437.093 192.241 436.271 191.92 435.615 191.276C434.96 190.621 434.632 189.804 434.632 188.827C434.632 187.504 435.201 186.316 436.339 185.265C437.477 184.201 439.957 182.791 443.779 181.034V179.29C443.779 177.979 443.705 177.156 443.557 176.822C443.421 176.476 443.155 176.179 442.759 175.932C442.363 175.672 441.918 175.542 441.423 175.542C440.619 175.542 439.957 175.721 439.438 176.08C439.116 176.303 438.955 176.562 438.955 176.859C438.955 177.119 439.128 177.441 439.475 177.824C439.945 178.356 440.18 178.869 440.18 179.364C440.18 179.97 439.951 180.49 439.493 180.923C439.048 181.343 438.46 181.554 437.73 181.554C436.951 181.554 436.296 181.319 435.764 180.849C435.244 180.379 434.984 179.828 434.984 179.197C434.984 178.307 435.337 177.459 436.042 176.655C436.747 175.839 437.73 175.214 438.992 174.781C440.254 174.348 441.565 174.132 442.926 174.132C444.571 174.132 445.87 174.484 446.822 175.189C447.787 175.882 448.412 176.637 448.696 177.453C448.869 177.973 448.956 179.166 448.956 181.034V187.77C448.956 188.561 448.987 189.062 449.049 189.272C449.111 189.47 449.203 189.619 449.327 189.718C449.451 189.817 449.593 189.866 449.754 189.866C450.076 189.866 450.403 189.637 450.737 189.18L451.294 189.625C450.675 190.54 450.032 191.208 449.364 191.629C448.709 192.037 447.96 192.241 447.119 192.241C446.13 192.241 445.356 192.012 444.8 191.555C444.243 191.085 443.903 190.38 443.779 189.439ZM443.779 188.085V182.277C442.283 183.156 441.169 184.096 440.439 185.098C439.957 185.766 439.716 186.44 439.716 187.12C439.716 187.689 439.92 188.19 440.328 188.623C440.637 188.957 441.07 189.124 441.627 189.124C442.245 189.124 442.963 188.778 443.779 188.085ZM459.996 166.84V188.4C459.996 189.625 460.138 190.41 460.423 190.757C460.707 191.091 461.264 191.283 462.093 191.332V192H452.723V191.332C453.49 191.307 454.059 191.085 454.43 190.664C454.677 190.38 454.801 189.625 454.801 188.4V170.439C454.801 169.227 454.659 168.454 454.374 168.12C454.09 167.774 453.539 167.576 452.723 167.526V166.84H459.996ZM120.315 210.265V219.134H119.629C118.8 216.709 117.557 214.866 115.899 213.604C114.242 212.343 112.43 211.712 110.463 211.712C108.583 211.712 107.018 212.244 105.769 213.308C104.519 214.359 103.635 215.831 103.115 217.724C102.596 219.616 102.336 221.558 102.336 223.55C102.336 225.962 102.62 228.077 103.189 229.896C103.758 231.714 104.674 233.05 105.936 233.903C107.21 234.757 108.719 235.184 110.463 235.184C111.069 235.184 111.688 235.122 112.318 234.998C112.962 234.862 113.617 234.67 114.285 234.423V229.19C114.285 228.201 114.217 227.564 114.081 227.279C113.945 226.982 113.66 226.716 113.228 226.481C112.807 226.246 112.294 226.129 111.688 226.129H111.038V225.442H123.266V226.129C122.338 226.191 121.688 226.321 121.317 226.519C120.959 226.704 120.68 227.02 120.482 227.465C120.371 227.7 120.315 228.275 120.315 229.19V234.423C118.707 235.14 117.031 235.678 115.287 236.037C113.555 236.408 111.756 236.594 109.888 236.594C107.5 236.594 105.515 236.272 103.932 235.629C102.361 234.973 100.969 234.12 99.7568 233.068C98.557 232.005 97.6169 230.811 96.9365 229.487C96.0706 227.78 95.6377 225.869 95.6377 223.754C95.6377 219.969 96.9674 216.771 99.627 214.161C102.286 211.551 105.632 210.246 109.665 210.246C110.914 210.246 112.04 210.345 113.042 210.543C113.586 210.642 114.465 210.926 115.677 211.396C116.901 211.854 117.625 212.083 117.848 212.083C118.194 212.083 118.516 211.959 118.812 211.712C119.109 211.452 119.382 210.97 119.629 210.265H120.315ZM141.709 218.651V232.233C141.709 233.557 141.833 234.386 142.08 234.72C142.327 235.041 142.828 235.245 143.583 235.332V236H136.514V233.681C135.685 234.67 134.856 235.394 134.027 235.852C133.199 236.297 132.271 236.52 131.244 236.52C130.267 236.52 129.395 236.223 128.628 235.629C127.873 235.023 127.366 234.318 127.106 233.514C126.847 232.71 126.717 231.306 126.717 229.302V222.418C126.717 221.107 126.593 220.29 126.346 219.969C126.111 219.647 125.61 219.437 124.843 219.338V218.651H131.912V230.508C131.912 231.745 131.968 232.543 132.079 232.901C132.203 233.26 132.388 233.532 132.636 233.718C132.896 233.903 133.192 233.996 133.526 233.996C133.972 233.996 134.374 233.879 134.732 233.644C135.227 233.322 135.821 232.673 136.514 231.695V222.418C136.514 221.107 136.39 220.29 136.143 219.969C135.908 219.647 135.407 219.437 134.64 219.338V218.651H141.709ZM155.681 233.439C153.565 235.307 151.667 236.241 149.984 236.241C148.995 236.241 148.172 235.92 147.517 235.276C146.861 234.621 146.533 233.804 146.533 232.827C146.533 231.504 147.102 230.316 148.24 229.265C149.378 228.201 151.858 226.791 155.681 225.034V223.29C155.681 221.979 155.606 221.156 155.458 220.822C155.322 220.476 155.056 220.179 154.66 219.932C154.264 219.672 153.819 219.542 153.324 219.542C152.52 219.542 151.858 219.721 151.339 220.08C151.017 220.303 150.856 220.562 150.856 220.859C150.856 221.119 151.03 221.441 151.376 221.824C151.846 222.356 152.081 222.869 152.081 223.364C152.081 223.97 151.852 224.49 151.395 224.923C150.949 225.343 150.362 225.554 149.632 225.554C148.853 225.554 148.197 225.319 147.665 224.849C147.146 224.379 146.886 223.828 146.886 223.197C146.886 222.307 147.238 221.459 147.943 220.655C148.648 219.839 149.632 219.214 150.894 218.781C152.155 218.348 153.466 218.132 154.827 218.132C156.472 218.132 157.771 218.484 158.724 219.189C159.688 219.882 160.313 220.637 160.598 221.453C160.771 221.973 160.857 223.166 160.857 225.034V231.77C160.857 232.561 160.888 233.062 160.95 233.272C161.012 233.47 161.105 233.619 161.229 233.718C161.352 233.817 161.494 233.866 161.655 233.866C161.977 233.866 162.305 233.637 162.639 233.18L163.195 233.625C162.577 234.54 161.934 235.208 161.266 235.629C160.61 236.037 159.862 236.241 159.021 236.241C158.031 236.241 157.258 236.012 156.701 235.555C156.145 235.085 155.804 234.38 155.681 233.439ZM155.681 232.085V226.277C154.184 227.156 153.071 228.096 152.341 229.098C151.858 229.766 151.617 230.44 151.617 231.12C151.617 231.689 151.821 232.19 152.229 232.623C152.539 232.957 152.972 233.124 153.528 233.124C154.147 233.124 154.864 232.778 155.681 232.085ZM171.99 212.306V218.651H176.109V220.488H171.99V231.194C171.99 232.196 172.034 232.846 172.12 233.143C172.219 233.427 172.386 233.662 172.621 233.848C172.856 234.021 173.073 234.107 173.271 234.107C174.075 234.107 174.835 233.495 175.553 232.271L176.109 232.679C175.107 235.054 173.481 236.241 171.229 236.241C170.129 236.241 169.195 235.938 168.428 235.332C167.673 234.714 167.191 234.027 166.98 233.272C166.857 232.852 166.795 231.714 166.795 229.858V220.488H164.531V219.839C166.09 218.738 167.413 217.581 168.502 216.369C169.603 215.157 170.562 213.802 171.378 212.306H171.99ZM192.456 226.704H182.938C183.049 229.005 183.661 230.823 184.774 232.159C185.628 233.186 186.655 233.699 187.854 233.699C188.597 233.699 189.271 233.495 189.877 233.087C190.483 232.666 191.132 231.918 191.825 230.842L192.456 231.25C191.516 233.167 190.477 234.528 189.339 235.332C188.201 236.124 186.883 236.52 185.387 236.52C182.814 236.52 180.866 235.53 179.542 233.551C178.478 231.955 177.946 229.976 177.946 227.613C177.946 224.719 178.726 222.418 180.284 220.711C181.855 218.992 183.692 218.132 185.795 218.132C187.551 218.132 189.073 218.855 190.359 220.303C191.658 221.738 192.357 223.871 192.456 226.704ZM187.892 225.461C187.892 223.469 187.78 222.103 187.558 221.36C187.347 220.618 187.013 220.055 186.556 219.672C186.296 219.449 185.95 219.338 185.517 219.338C184.873 219.338 184.348 219.653 183.939 220.284C183.21 221.385 182.845 222.894 182.845 224.812V225.461H187.892ZM201.845 218.651V220.934C202.797 219.895 203.675 219.171 204.479 218.763C205.296 218.342 206.187 218.132 207.151 218.132C208.265 218.132 209.199 218.392 209.953 218.911C210.708 219.431 211.289 220.222 211.697 221.286C212.687 220.173 213.633 219.369 214.536 218.874C215.451 218.379 216.404 218.132 217.394 218.132C218.593 218.132 219.546 218.41 220.251 218.967C220.968 219.511 221.463 220.21 221.735 221.063C222.02 221.905 222.162 223.253 222.162 225.108V232.215C222.162 233.551 222.28 234.38 222.515 234.701C222.762 235.023 223.269 235.233 224.036 235.332V236H215.074V235.332C215.779 235.27 216.299 234.998 216.633 234.516C216.855 234.182 216.967 233.415 216.967 232.215V224.756C216.967 223.21 216.905 222.226 216.781 221.806C216.658 221.385 216.46 221.076 216.188 220.878C215.928 220.668 215.618 220.562 215.26 220.562C214.728 220.562 214.19 220.76 213.646 221.156C213.101 221.54 212.551 222.121 211.994 222.9V232.215C211.994 233.464 212.099 234.25 212.31 234.571C212.594 235.029 213.138 235.283 213.942 235.332V236H204.962V235.332C205.444 235.307 205.822 235.19 206.094 234.979C206.378 234.757 206.564 234.497 206.65 234.2C206.749 233.891 206.799 233.229 206.799 232.215V224.756C206.799 223.185 206.737 222.201 206.613 221.806C206.49 221.41 206.279 221.101 205.982 220.878C205.698 220.655 205.389 220.544 205.055 220.544C204.56 220.544 204.108 220.674 203.7 220.934C203.119 221.317 202.5 221.973 201.845 222.9V232.215C201.845 233.439 201.962 234.25 202.197 234.646C202.445 235.029 202.952 235.258 203.719 235.332V236H194.775V235.332C195.505 235.258 196.025 235.023 196.334 234.627C196.544 234.355 196.649 233.551 196.649 232.215V222.418C196.649 221.107 196.526 220.29 196.278 219.969C196.043 219.647 195.542 219.437 194.775 219.338V218.651H201.845ZM235.874 233.439C233.759 235.307 231.86 236.241 230.178 236.241C229.188 236.241 228.366 235.92 227.71 235.276C227.054 234.621 226.727 233.804 226.727 232.827C226.727 231.504 227.296 230.316 228.434 229.265C229.572 228.201 232.052 226.791 235.874 225.034V223.29C235.874 221.979 235.8 221.156 235.651 220.822C235.515 220.476 235.249 220.179 234.854 219.932C234.458 219.672 234.012 219.542 233.518 219.542C232.714 219.542 232.052 219.721 231.532 220.08C231.211 220.303 231.05 220.562 231.05 220.859C231.05 221.119 231.223 221.441 231.569 221.824C232.039 222.356 232.274 222.869 232.274 223.364C232.274 223.97 232.046 224.49 231.588 224.923C231.143 225.343 230.555 225.554 229.825 225.554C229.046 225.554 228.39 225.319 227.858 224.849C227.339 224.379 227.079 223.828 227.079 223.197C227.079 222.307 227.432 221.459 228.137 220.655C228.842 219.839 229.825 219.214 231.087 218.781C232.349 218.348 233.66 218.132 235.021 218.132C236.666 218.132 237.965 218.484 238.917 219.189C239.882 219.882 240.507 220.637 240.791 221.453C240.964 221.973 241.051 223.166 241.051 225.034V231.77C241.051 232.561 241.082 233.062 241.144 233.272C241.205 233.47 241.298 233.619 241.422 233.718C241.546 233.817 241.688 233.866 241.849 233.866C242.17 233.866 242.498 233.637 242.832 233.18L243.389 233.625C242.77 234.54 242.127 235.208 241.459 235.629C240.803 236.037 240.055 236.241 239.214 236.241C238.224 236.241 237.451 236.012 236.895 235.555C236.338 235.085 235.998 234.38 235.874 233.439ZM235.874 232.085V226.277C234.377 227.156 233.264 228.096 232.534 229.098C232.052 229.766 231.811 230.44 231.811 231.12C231.811 231.689 232.015 232.19 232.423 232.623C232.732 232.957 233.165 233.124 233.722 233.124C234.34 233.124 235.058 232.778 235.874 232.085ZM252.091 210.84V232.4C252.091 233.625 252.233 234.41 252.518 234.757C252.802 235.091 253.359 235.283 254.188 235.332V236H244.817V235.332C245.584 235.307 246.153 235.085 246.524 234.664C246.772 234.38 246.896 233.625 246.896 232.4V214.439C246.896 213.227 246.753 212.454 246.469 212.12C246.184 211.774 245.634 211.576 244.817 211.526V210.84H252.091ZM265.45 233.439C263.335 235.307 261.436 236.241 259.754 236.241C258.764 236.241 257.942 235.92 257.286 235.276C256.631 234.621 256.303 233.804 256.303 232.827C256.303 231.504 256.872 230.316 258.01 229.265C259.148 228.201 261.628 226.791 265.45 225.034V223.29C265.45 221.979 265.376 221.156 265.228 220.822C265.091 220.476 264.826 220.179 264.43 219.932C264.034 219.672 263.589 219.542 263.094 219.542C262.29 219.542 261.628 219.721 261.108 220.08C260.787 220.303 260.626 220.562 260.626 220.859C260.626 221.119 260.799 221.441 261.146 221.824C261.616 222.356 261.851 222.869 261.851 223.364C261.851 223.97 261.622 224.49 261.164 224.923C260.719 225.343 260.131 225.554 259.401 225.554C258.622 225.554 257.966 225.319 257.435 224.849C256.915 224.379 256.655 223.828 256.655 223.197C256.655 222.307 257.008 221.459 257.713 220.655C258.418 219.839 259.401 219.214 260.663 218.781C261.925 218.348 263.236 218.132 264.597 218.132C266.242 218.132 267.541 218.484 268.493 219.189C269.458 219.882 270.083 220.637 270.367 221.453C270.54 221.973 270.627 223.166 270.627 225.034V231.77C270.627 232.561 270.658 233.062 270.72 233.272C270.782 233.47 270.874 233.619 270.998 233.718C271.122 233.817 271.264 233.866 271.425 233.866C271.746 233.866 272.074 233.637 272.408 233.18L272.965 233.625C272.346 234.54 271.703 235.208 271.035 235.629C270.38 236.037 269.631 236.241 268.79 236.241C267.8 236.241 267.027 236.012 266.471 235.555C265.914 235.085 265.574 234.38 265.45 233.439ZM265.45 232.085V226.277C263.953 227.156 262.84 228.096 262.11 229.098C261.628 229.766 261.387 230.44 261.387 231.12C261.387 231.689 261.591 232.19 261.999 232.623C262.308 232.957 262.741 233.124 263.298 233.124C263.916 233.124 264.634 232.778 265.45 232.085ZM275.488 242.661V241.845C276.923 241.226 277.962 240.422 278.605 239.433C279.261 238.455 279.589 237.453 279.589 236.427C279.589 236.216 279.546 236.056 279.459 235.944C279.372 235.845 279.286 235.796 279.199 235.796C279.125 235.796 279.014 235.839 278.865 235.926C278.507 236.136 278.061 236.241 277.529 236.241C276.799 236.241 276.162 235.957 275.618 235.388C275.086 234.819 274.82 234.151 274.82 233.384C274.82 232.567 275.13 231.85 275.748 231.231C276.367 230.613 277.115 230.304 277.993 230.304C279.057 230.304 279.966 230.718 280.721 231.547C281.475 232.363 281.853 233.489 281.853 234.924C281.853 236.693 281.314 238.264 280.238 239.637C279.174 241.01 277.591 242.018 275.488 242.661ZM317.96 210.265V218.985H317.236C316.692 216.709 315.678 214.965 314.193 213.753C312.709 212.541 311.027 211.935 309.146 211.935C307.576 211.935 306.134 212.386 304.823 213.289C303.512 214.192 302.553 215.373 301.947 216.833C301.168 218.701 300.778 220.779 300.778 223.067C300.778 225.319 301.063 227.372 301.632 229.228C302.201 231.071 303.091 232.468 304.304 233.421C305.516 234.361 307.087 234.831 309.017 234.831C310.6 234.831 312.047 234.485 313.358 233.792C314.682 233.099 316.074 231.906 317.533 230.211V232.382C316.123 233.854 314.651 234.924 313.117 235.592C311.596 236.247 309.814 236.575 307.773 236.575C305.089 236.575 302.702 236.037 300.611 234.961C298.533 233.885 296.925 232.339 295.787 230.322C294.661 228.306 294.099 226.16 294.099 223.884C294.099 221.484 294.723 219.208 295.973 217.056C297.234 214.903 298.929 213.233 301.057 212.046C303.197 210.858 305.466 210.265 307.866 210.265C309.635 210.265 311.503 210.648 313.47 211.415C314.608 211.86 315.331 212.083 315.641 212.083C316.036 212.083 316.377 211.941 316.661 211.656C316.958 211.359 317.15 210.896 317.236 210.265H317.96ZM324.807 230.285C325.673 230.285 326.402 230.588 326.996 231.194C327.602 231.8 327.905 232.53 327.905 233.384C327.905 234.237 327.602 234.967 326.996 235.573C326.39 236.167 325.66 236.464 324.807 236.464C323.953 236.464 323.223 236.167 322.617 235.573C322.023 234.967 321.727 234.237 321.727 233.384C321.727 232.53 322.023 231.8 322.617 231.194C323.223 230.588 323.953 230.285 324.807 230.285ZM352.75 228.838H343.862L342.805 231.287C342.458 232.104 342.285 232.778 342.285 233.31C342.285 234.015 342.57 234.534 343.139 234.868C343.473 235.066 344.295 235.215 345.606 235.313V236H337.238V235.313C338.141 235.177 338.883 234.806 339.465 234.2C340.046 233.582 340.764 232.314 341.617 230.396L350.616 210.32H350.969L360.042 230.953C360.908 232.908 361.619 234.138 362.176 234.646C362.596 235.029 363.19 235.252 363.957 235.313V236H351.785V235.313H352.286C353.263 235.313 353.95 235.177 354.346 234.905C354.618 234.707 354.754 234.423 354.754 234.052C354.754 233.829 354.717 233.6 354.643 233.365C354.618 233.254 354.432 232.79 354.086 231.974L352.75 228.838ZM352.119 227.465L348.371 218.8L344.512 227.465H352.119ZM369.152 230.285C370.018 230.285 370.748 230.588 371.342 231.194C371.948 231.8 372.251 232.53 372.251 233.384C372.251 234.237 371.948 234.967 371.342 235.573C370.736 236.167 370.006 236.464 369.152 236.464C368.299 236.464 367.569 236.167 366.963 235.573C366.369 234.967 366.072 234.237 366.072 233.384C366.072 232.53 366.369 231.8 366.963 231.194C367.569 230.588 368.299 230.285 369.152 230.285Z" fill="#207AB9"/>
<path fill-rule="evenodd" clip-rule="evenodd" d="M234.067 10.0683C254.181 10.0683 274.294 10.1293 294.407 10.0149C298.213 9.99327 301.873 13.0101 301.844 17.5023C301.806 23.1964 301.847 28.8919 301.83 34.5861C301.817 39.0713 298.762 42.0989 294.281 42.0995C281.513 42.1027 268.746 42.0995 255.979 42.1021C252.241 42.1027 250.067 44.2792 250.066 48.0626C250.059 70.5876 250.059 93.1126 250.066 115.637C250.066 119.478 252.341 121.722 256.231 121.737C262.057 121.76 267.884 121.838 273.709 121.741C276.694 121.692 278.73 122.959 280.112 125.493C284.307 133.179 288.52 140.855 292.676 148.564C294.12 151.243 292.545 153.762 289.479 153.767C279.347 153.783 269.214 153.773 259.081 153.774C232.432 153.774 205.784 153.774 179.134 153.773C175.057 153.772 173.703 151.463 175.674 147.83C179.584 140.622 183.556 133.449 187.41 126.211C189.02 123.189 191.167 121.64 194.775 121.773C200.439 121.982 206.119 121.784 211.792 121.737C215.62 121.705 217.938 119.365 217.938 115.568C217.938 93.0936 217.938 70.6194 217.938 48.1452C217.938 44.3644 215.687 42.1027 211.923 42.1021C199.307 42.1002 186.692 42.1014 174.077 42.1014C169.083 42.1014 166.145 39.3014 166.062 34.2409C165.972 28.7508 165.989 23.2575 166.057 17.7667C166.123 12.4348 170.029 9.97039 174.031 10.0003C194.042 10.1503 214.055 10.0683 234.067 10.0683ZM234.094 16.1737C221.682 16.1737 209.27 16.1737 196.857 16.1737C191.233 16.1737 185.61 16.1795 179.986 16.1718C176.187 16.1667 173.806 18.546 173.739 21.4478C173.677 24.1849 173.426 26.9392 173.644 29.6547C173.905 32.9194 175.563 34.8473 178.215 35.2987C179.429 35.5052 180.722 35.1925 181.979 35.1912C193.936 35.1791 205.893 35.1766 217.849 35.1887C222.007 35.1931 224.312 37.5374 224.312 41.6984C224.312 67.9859 224.251 94.274 224.366 120.561C224.388 125.492 221.357 128.833 216.219 128.748C209.938 128.644 203.654 128.78 197.376 128.624C194.363 128.549 192.348 129.358 191.178 132.424C189.903 135.767 188.096 138.903 186.584 142.159C185.211 145.112 185.951 146.451 188.922 146.452C219.066 146.46 249.21 146.46 279.356 146.453C282.013 146.452 282.788 145.331 281.937 142.802C281.791 142.372 281.583 141.963 281.384 141.552C279.71 138.093 277.935 134.677 276.392 131.159C275.615 129.387 274.411 128.729 272.634 128.73C265.848 128.732 259.061 128.731 252.274 128.729C246.628 128.728 243.87 125.981 243.87 120.366C243.869 94.2816 243.869 68.1976 243.87 42.1135C243.87 37.4701 246.127 35.1868 250.73 35.1861C262.433 35.1842 274.136 35.183 285.839 35.1931C286.49 35.1938 287.146 35.2732 287.793 35.3629C291.639 35.893 294.54 33.3688 294.548 29.4678C294.552 27.5869 294.56 25.7054 294.545 23.8238C294.537 22.7591 294.647 21.6607 294.426 20.6373C293.81 17.7648 291.467 16.1782 288.05 16.1769C270.065 16.1712 252.08 16.1737 234.094 16.1737Z" fill="#207AB9"/>
<path fill-rule="evenodd" clip-rule="evenodd" d="M206.38 92.7162C206.674 90.1176 204.899 88.3817 201.563 88.3357C195.332 88.2507 189.101 88.2565 182.87 88.229C180.159 88.2169 177.714 87.4333 175.555 85.7531C173.67 84.2864 172.679 82.3997 172.699 79.973C172.722 77.1623 172.736 74.3489 172.671 71.5388C172.66 71.108 172.275 70.3839 171.948 70.3091C167.97 69.3997 166.206 66.6534 166.062 62.8297C165.929 59.2667 166.018 55.6807 166.257 52.1221C166.504 48.46 169.494 45.7445 173.16 45.7311C184.56 45.6876 195.961 45.6806 207.36 45.7343C211.297 45.7528 214.257 48.9496 214.263 52.9446C214.268 56.2674 214.105 59.6003 214.307 62.9108C214.53 66.5806 211.541 70.5117 206.755 70.4606C198.599 70.373 190.44 70.4363 182.283 70.4363C181.739 70.4363 181.195 70.4363 180.343 70.4363C180.504 73.2228 180.502 75.8687 180.859 78.4654C181.113 80.3162 182.21 80.9822 184.097 80.9899C191.138 81.0199 198.181 81.0244 205.222 81.0678C206.634 81.0768 208.056 81.1343 209.454 81.3164C212.246 81.6801 214.482 84.218 214.515 87.3291C214.598 95.4055 214.619 103.484 214.522 111.56C214.48 115.096 211.23 118.069 207.724 118.071C196.122 118.084 184.519 118.083 172.916 118.071C169.825 118.068 166.536 115.503 166.322 112.415C166.026 108.154 165.901 103.836 166.25 99.5891C166.629 94.9722 169.511 92.7219 174.098 92.7181C184.232 92.7085 194.365 92.7155 204.498 92.7162C205.1 92.7162 205.701 92.7162 206.38 92.7162ZM190.646 99.9764C186.493 99.9764 182.339 99.9623 178.186 99.9828C175.962 99.9937 174.25 101.66 174.133 103.889C174.095 104.603 174.192 105.328 174.113 106.034C173.786 108.964 176.03 111.089 179.04 111.051C186.13 110.963 193.226 110.897 200.313 111.067C205.125 111.182 207.351 109.996 206.99 104.255C206.832 101.724 205.182 99.9815 202.651 99.9777C198.649 99.9706 194.648 99.9757 190.646 99.9764ZM190.548 63.5065C194.599 63.5065 198.649 63.518 202.699 63.5027C205.264 63.4924 206.929 61.7956 206.969 59.1925C206.979 58.5796 206.972 57.9667 206.971 57.3538C206.965 54.1858 205.468 52.6468 202.375 52.6455C195.085 52.6417 187.79 52.8079 180.506 52.5906C175.099 52.4289 173.863 54.1232 174.109 59.2239C174.233 61.8109 175.819 63.495 178.399 63.5039C182.448 63.5174 186.499 63.5065 190.548 63.5065Z" fill="#217AB9"/>
<path fill-rule="evenodd" clip-rule="evenodd" d="M254.284 81.9099C254.284 72.6698 254.377 63.4285 254.25 54.1904C254.175 48.6389 257.882 45.6174 262.695 45.6978C273.38 45.8759 284.07 45.752 294.757 45.7539C299.562 45.7546 302.52 48.7129 302.522 53.5145C302.524 56.7307 302.536 59.9468 302.519 63.163C302.497 67.1176 299.413 70.2157 295.479 70.2228C288.287 70.2355 281.094 70.2304 273.902 70.2234C271.328 70.2215 269.414 68.5933 269.421 66.443C269.428 64.3329 271.388 62.6192 273.894 62.6103C279.415 62.5899 284.937 62.6103 290.457 62.6007C293.382 62.5962 294.809 61.0172 294.982 58.0933C295.235 53.8413 292.742 52.3561 289.448 52.4352C284.892 52.545 280.331 52.4371 275.773 52.4722C272.69 52.4952 269.608 52.6075 266.525 52.672C263.993 52.7243 262.385 54.311 262.374 56.8947C262.35 63.0717 262.459 69.2507 262.336 75.4252C262.232 80.7004 263.063 81.1612 267.907 81.0074C271.5 80.8931 275.099 80.9697 278.695 80.9914C280.791 81.0042 282.55 82.1677 282.991 83.7634C283.6 85.9666 281.656 88.286 279.126 88.3007C274.668 88.3263 270.211 88.3071 265.753 88.3084C263.164 88.309 262.371 89.08 262.367 91.6356C262.359 96.2815 262.355 100.927 262.369 105.573C262.377 108.537 263.925 110.088 266.841 110.089C274.743 110.092 282.646 110.004 290.545 110.137C293.208 110.182 295.186 107.938 294.938 105.647C294.857 104.889 294.986 104.11 294.906 103.352C294.698 101.372 292.964 99.894 290.791 99.8595C285.229 99.7702 279.666 99.7025 274.103 99.6476C271.301 99.6202 269.451 98.1937 269.419 95.9764C269.386 93.754 271.374 92.0939 274.147 92.083C278.806 92.0658 283.467 92.0524 288.126 92.0881C291.107 92.1105 294.089 92.1928 297.068 92.3032C300.236 92.42 302.722 95.1537 302.779 98.6558C302.845 102.739 302.852 106.824 302.805 110.907C302.758 114.963 299.636 118.015 295.629 118.017C284.434 118.021 273.239 117.904 262.048 118.079C258.044 118.142 254.27 115.277 254.279 110.242C254.298 100.798 254.284 91.3548 254.284 81.9099Z" fill="#217AB9"/>
</svg>
