<svg xmlns="http://www.w3.org/2000/svg" xmlns:xlink="http://www.w3.org/1999/xlink" width="4800" zoomAndPan="magnify" viewBox="0 0 3600 2592.000001" height="3456" preserveAspectRatio="xMidYMid meet" version="1.0"><defs><clipPath id="b1ee8927de"><path d="M 4 42.527344 L 3595 42.527344 L 3595 2548.8125 L 4 2548.8125 Z M 4 42.527344 " clip-rule="nonzero"/></clipPath><clipPath id="9723e889d3"><path d="M 4 42.527344 L 3595 42.527344 L 3595 620 L 4 620 Z M 4 42.527344 " clip-rule="nonzero"/></clipPath></defs><g clip-path="url(#b1ee8927de)"><path fill="#98b7e4" d="M 3427.308594 2548.8125 L 172.691406 2548.8125 C 80.058594 2548.8125 4.992188 2473.765625 4.992188 2381.117188 L 4.992188 210.226562 C 4.992188 117.578125 80.058594 42.527344 172.664062 42.527344 L 3427.277344 42.527344 C 3519.914062 42.527344 3594.949219 117.578125 3594.949219 210.226562 L 3594.949219 2381.117188 C 3594.949219 2473.765625 3519.914062 2548.8125 3427.277344 2548.8125 " fill-opacity="1" fill-rule="nonzero"/></g><g clip-path="url(#9723e889d3)"><path fill="#496592" d="M 3594.980469 619.960938 L 3594.980469 210.226562 C 3594.980469 117.578125 3519.941406 42.527344 3427.308594 42.527344 L 172.691406 42.527344 C 80.058594 42.527344 4.992188 117.578125 4.992188 210.226562 L 4.992188 619.960938 L 3594.949219 619.960938 " fill-opacity="1" fill-rule="nonzero"/></g><path fill="#f8dd4e" d="M 314.742188 345.253906 C 314.742188 388.058594 280.109375 422.695312 237.3125 422.695312 C 194.542969 422.695312 159.855469 388.058594 159.855469 345.253906 C 159.855469 302.449219 194.542969 267.8125 237.3125 267.8125 C 280.109375 267.8125 314.742188 302.449219 314.742188 345.253906 " fill-opacity="1" fill-rule="nonzero"/><path fill="#6ec399" d="M 568.152344 345.253906 C 568.152344 388.058594 533.519531 422.695312 490.722656 422.695312 C 447.921875 422.695312 413.289062 388.058594 413.289062 345.253906 C 413.289062 302.449219 447.921875 267.8125 490.722656 267.8125 C 533.519531 267.8125 568.152344 302.449219 568.152344 345.253906 " fill-opacity="1" fill-rule="nonzero"/><path fill="#ed547c" d="M 849.71875 345.253906 C 849.71875 388.058594 815.085938 422.695312 772.285156 422.695312 C 729.488281 422.695312 694.855469 388.058594 694.855469 345.253906 C 694.855469 302.449219 729.488281 267.8125 772.285156 267.8125 C 815.085938 267.8125 849.71875 302.449219 849.71875 345.253906 " fill-opacity="1" fill-rule="nonzero"/><path stroke-linecap="round" transform="matrix(1.407827, 0, 0, -1.408024, -1193.039653, 4289.130686)" fill="none" stroke-linejoin="round" d="M 1070.99961 1495.999881 L 3131.001037 1495.999881 " stroke="#496592" stroke-width="50" stroke-opacity="1" stroke-miterlimit="10"/><path fill="#ffffff" d="M 2243.464844 1408.3125 C 2243.464844 1703.855469 2003.992188 1943.363281 1708.492188 1943.363281 C 1412.988281 1943.363281 1173.515625 1703.855469 1173.515625 1408.3125 C 1173.515625 1112.769531 1412.988281 873.261719 1708.492188 873.261719 C 2003.992188 873.261719 2243.464844 1112.769531 2243.464844 1408.3125 " fill-opacity="1" fill-rule="nonzero"/><path fill="#ed547c" d="M 2114.929688 1415.210938 L 1792.117188 1601.632812 L 1469.160156 1788.058594 L 1469.160156 1042.226562 L 1792.117188 1228.648438 L 2114.929688 1415.210938 " fill-opacity="1" fill-rule="nonzero"/><path fill="#ed547c" d="M 525.917969 2323.527344 C 502.6875 2323.527344 483.683594 2304.519531 483.683594 2281.289062 L 483.683594 2112.324219 C 483.683594 2089.09375 502.6875 2070.085938 525.917969 2070.085938 C 549.144531 2070.085938 568.152344 2089.09375 568.152344 2112.324219 L 568.152344 2281.289062 C 568.152344 2304.519531 549.144531 2323.527344 525.917969 2323.527344 " fill-opacity="1" fill-rule="nonzero"/></svg>