<?xml version="1.0" encoding="utf-8"?>
<!-- Generator: Adobe Illustrator 16.0.3, SVG Export Plug-In . SVG Version: 6.00 Build 0)  -->
<!DOCTYPE svg PUBLIC "-//W3C//DTD SVG 1.1//EN" "http://www.w3.org/Graphics/SVG/1.1/DTD/svg11.dtd">
<svg version="1.1" id="Capa_1" xmlns="http://www.w3.org/2000/svg" xmlns:xlink="http://www.w3.org/1999/xlink" x="0px" y="0px"
	 width="512px" height="512px" viewBox="0 0 512 512" enable-background="new 0 0 512 512" xml:space="preserve">
<g>
	<path fill-rule="evenodd" clip-rule="evenodd" fill="#237AB0" d="M253.659,2.963c70.805,0,141.61,0.214,212.413-0.188
		c13.397-0.076,26.28,10.507,26.18,26.263c-0.132,19.974,0.012,39.95-0.048,59.924c-0.047,15.732-10.799,26.351-26.576,26.354
		c-44.944,0.012-89.89-0.001-134.831,0.009c-13.158,0.001-20.813,7.636-20.815,20.907c-0.022,79.007-0.023,158.015,0,237.022
		c0.001,13.473,8.01,21.343,21.704,21.395c20.508,0.08,41.022,0.355,61.526,0.016c10.506-0.172,17.674,4.27,22.542,13.16
		c14.768,26.96,29.599,53.886,44.226,80.924c5.085,9.397-0.458,18.232-11.251,18.25c-35.67,0.057-71.34,0.021-107.011,0.022
		c-93.812,0-187.623,0-281.434-0.002c-14.354-0.003-19.122-8.103-12.184-20.846c13.766-25.283,27.75-50.444,41.317-75.831
		c5.665-10.601,13.223-16.032,25.924-15.566c19.941,0.733,39.934,0.037,59.906-0.127c13.475-0.11,21.633-8.321,21.634-21.639
		c0.003-78.831,0.003-157.659,0-236.49c-0.001-13.262-7.921-21.195-21.174-21.197c-44.408-0.008-88.817-0.002-133.227-0.004
		c-17.578-0.001-27.925-9.822-28.216-27.57c-0.316-19.257-0.257-38.525-0.017-57.785C14.479,11.26,28.23,2.617,42.316,2.722
		C112.761,3.25,183.21,2.963,253.659,2.963z M253.754,24.378c-43.695,0-87.39,0-131.085,0c-19.797,0-39.593,0.021-59.391-0.008
		c-13.375-0.019-21.756,8.328-21.99,18.505c-0.221,9.6-1.103,19.262-0.338,28.786c0.921,11.452,6.758,18.215,16.093,19.798
		c4.272,0.725,8.826-0.373,13.251-0.377c42.09-0.042,84.181-0.05,126.271-0.009c14.638,0.015,22.751,8.238,22.751,22.833
		c0.001,92.206-0.212,184.414,0.193,276.617c0.075,17.295-10.595,29.014-28.682,28.716c-22.107-0.364-44.231,0.113-66.331-0.437
		c-10.609-0.262-17.702,2.574-21.818,13.328c-4.49,11.726-10.849,22.728-16.175,34.148c-4.833,10.358-2.227,15.054,8.23,15.057
		c106.116,0.026,212.233,0.026,318.353,0.003c9.356-0.003,12.085-3.934,9.086-12.807c-0.509-1.507-1.244-2.943-1.944-4.383
		c-5.895-12.135-12.144-24.114-17.574-36.454c-2.733-6.216-6.974-8.523-13.228-8.521c-23.89,0.007-47.781,0.005-71.673-0.002
		c-19.876-0.005-29.586-9.639-29.586-29.336c-0.002-91.492-0.002-182.984,0-274.477c0-16.287,7.949-24.296,24.149-24.298
		c41.199-0.006,82.396-0.011,123.594,0.024c2.293,0.002,4.601,0.281,6.879,0.595c13.539,1.86,23.751-6.994,23.78-20.678
		c0.012-6.599,0.041-13.198-0.01-19.797c-0.03-3.734,0.357-7.587-0.418-11.177c-2.172-10.075-10.416-15.641-22.447-15.644
		C380.382,24.371,317.069,24.378,253.754,24.378z"/>
	<path fill-rule="evenodd" clip-rule="evenodd" fill="#247AB1" d="M156.274,294.403c1.035-9.066-5.213-15.123-16.959-15.283
		c-21.931-0.297-43.867-0.276-65.799-0.372c-9.542-0.041-18.146-2.776-25.748-8.638c-6.637-5.116-10.123-11.699-10.054-20.164
		c0.08-9.807,0.129-19.621-0.1-29.424c-0.035-1.503-1.392-4.029-2.543-4.291c-14.001-3.173-20.211-12.753-20.717-26.092
		c-0.47-12.431-0.155-24.94,0.687-37.356c0.867-12.775,11.395-22.248,24.299-22.295c40.127-0.152,80.255-0.177,120.382,0.01
		c13.859,0.065,24.278,11.217,24.299,25.155c0.018,11.592-0.555,23.219,0.153,34.768c0.786,12.802-9.737,26.517-26.584,26.339
		c-28.709-0.306-57.426-0.085-86.14-0.085c-1.914,0-3.829,0-6.826,0c0.566,9.721,0.561,18.953,1.815,28.011
		c0.894,6.456,4.756,8.778,11.397,8.808c24.787,0.104,49.574,0.12,74.36,0.271c4.97,0.032,9.975,0.23,14.896,0.867
		c9.828,1.269,17.7,10.123,17.813,20.976c0.294,28.176,0.368,56.359,0.027,84.532c-0.147,12.337-11.59,22.707-23.931,22.718
		c-40.841,0.041-81.681,0.039-122.522-0.002c-10.881-0.011-22.458-8.956-23.211-19.73c-1.041-14.862-1.482-29.929-0.253-44.744
		c1.335-16.106,11.48-23.959,27.626-23.971c35.67-0.033,71.339-0.009,107.008-0.007
		C151.765,294.403,153.882,294.403,156.274,294.403z M100.89,319.731c-14.62,0-29.242-0.05-43.861,0.023
		c-7.828,0.036-13.853,5.849-14.269,13.626c-0.133,2.492,0.209,5.019-0.069,7.484c-1.151,10.223,6.746,17.635,17.343,17.504
		c24.957-0.308,49.933-0.538,74.879,0.055c16.939,0.402,24.774-3.736,23.506-23.763c-0.559-8.831-6.362-14.909-15.273-14.925
		C129.061,319.714,114.975,319.729,100.89,319.731z M100.545,192.502c14.257,0,28.513,0.041,42.769-0.014
		c9.031-0.035,14.89-5.957,15.032-15.037c0.033-2.138,0.01-4.276,0.005-6.416c-0.021-11.053-5.288-16.421-16.179-16.426
		c-25.661-0.013-51.339,0.566-76.979-0.192c-19.031-0.564-23.383,5.348-22.517,23.141c0.438,9.025,6.019,14.9,15.099,14.931
		C72.033,192.539,86.29,192.502,100.545,192.502z"/>
	<path fill-rule="evenodd" clip-rule="evenodd" fill="#247AB1" d="M324.548,256.735c0-32.277,0.324-64.559-0.119-96.832
		c-0.266-19.392,12.788-29.947,29.733-29.666c37.618,0.623,75.255,0.19,112.88,0.197c16.918,0.003,27.333,10.337,27.339,27.109
		c0.007,11.234,0.051,22.47-0.01,33.704c-0.076,13.814-10.935,24.636-24.786,24.66c-25.322,0.045-50.645,0.028-75.97,0.004
		c-9.063-0.008-15.798-5.695-15.773-13.208c0.021-7.371,6.925-13.356,15.748-13.388c19.438-0.07,38.877-0.001,58.313-0.032
		c10.3-0.016,15.322-5.533,15.935-15.745c0.891-14.853-7.889-20.042-19.484-19.764c-16.042,0.384-32.099,0.007-48.147,0.128
		c-10.854,0.081-21.705,0.474-32.559,0.698c-8.916,0.183-14.575,5.725-14.613,14.751c-0.086,21.578,0.299,43.164-0.133,64.733
		c-0.368,18.428,2.561,20.037,19.615,19.499c12.646-0.399,25.319-0.13,37.98-0.057c7.38,0.044,13.57,4.108,15.123,9.683
		c2.146,7.696-4.701,15.799-13.605,15.851c-15.694,0.089-31.387,0.021-47.081,0.026c-9.117,0.002-11.91,2.694-11.923,11.622
		c-0.026,16.23-0.041,32.458,0.007,48.687c0.031,10.353,5.479,15.771,15.749,15.776c27.817,0.012,55.644-0.296,83.454,0.171
		c9.375,0.156,16.34-7.685,15.467-15.688c-0.288-2.646,0.168-5.37-0.113-8.016c-0.734-6.916-6.839-12.079-14.49-12.199
		c-19.583-0.312-39.169-0.55-58.754-0.741c-9.863-0.095-16.376-5.078-16.49-12.823c-0.115-7.765,6.884-13.563,16.646-13.6
		c16.405-0.062,32.813-0.108,49.218,0.017c10.495,0.079,20.992,0.366,31.481,0.751c11.156,0.407,19.907,9.958,20.107,22.191
		c0.23,14.265,0.259,28.534,0.091,42.8c-0.165,14.164-11.157,24.827-25.266,24.833c-39.411,0.016-78.829-0.394-118.23,0.219
		c-14.098,0.217-27.386-9.79-27.354-27.378C324.594,322.718,324.548,289.729,324.548,256.735z"/>
</g>
</svg>
