<svg xmlns="http://www.w3.org/2000/svg" xmlns:xlink="http://www.w3.org/1999/xlink" width="1080" zoomAndPan="magnify" viewBox="0 0 810 809.999993" height="1080" preserveAspectRatio="xMidYMid meet" version="1.0"><defs><clipPath id="e3966d45a9"><path d="M 11.21875 98.105469 L 798.769531 98.105469 L 798.769531 810 L 11.21875 810 Z M 11.21875 98.105469 " clip-rule="nonzero"/></clipPath><clipPath id="0d9392522e"><path d="M 798.769531 503.121094 C 798.769531 279.4375 622.472656 98.105469 404.996094 98.105469 C 187.519531 98.105469 11.21875 279.4375 11.21875 503.121094 C 11.21875 726.808594 187.519531 908.140625 404.996094 908.140625 C 622.472656 908.140625 798.769531 726.808594 798.769531 503.121094 Z M 798.769531 503.121094 " clip-rule="nonzero"/></clipPath><clipPath id="a264c5d508"><path d="M 11.21875 251.347656 L 798.769531 251.347656 L 798.769531 810 L 11.21875 810 Z M 11.21875 251.347656 " clip-rule="nonzero"/></clipPath><clipPath id="55a24aeb68"><path d="M 798.769531 656.367188 C 798.769531 432.683594 622.472656 251.347656 404.996094 251.347656 C 187.519531 251.347656 11.21875 432.683594 11.21875 656.367188 C 11.21875 880.054688 187.519531 1061.386719 404.996094 1061.386719 C 622.472656 1061.386719 798.769531 880.054688 798.769531 656.367188 Z M 798.769531 656.367188 " clip-rule="nonzero"/></clipPath><clipPath id="506f342259"><path d="M 11.21875 401.0625 L 798.769531 401.0625 L 798.769531 810 L 11.21875 810 Z M 11.21875 401.0625 " clip-rule="nonzero"/></clipPath><clipPath id="490766b363"><path d="M 798.769531 806.082031 C 798.769531 582.394531 622.472656 401.0625 404.996094 401.0625 C 187.519531 401.0625 11.21875 582.394531 11.21875 806.082031 C 11.21875 1029.765625 187.519531 1211.097656 404.996094 1211.097656 C 622.472656 1211.097656 798.769531 1029.765625 798.769531 806.082031 Z M 798.769531 806.082031 " clip-rule="nonzero"/></clipPath><clipPath id="679168ef58"><path d="M 220 275 L 652 275 L 652 748.617188 L 220 748.617188 Z M 220 275 " clip-rule="nonzero"/></clipPath><clipPath id="14719a6033"><path d="M 219 375 L 652.472656 375 L 652.472656 748.617188 L 219 748.617188 Z M 219 375 " clip-rule="nonzero"/></clipPath><clipPath id="2a7a8d57b0"><path d="M 297 274.617188 L 652.472656 274.617188 L 652.472656 608 L 297 608 Z M 297 274.617188 " clip-rule="nonzero"/></clipPath><clipPath id="0dfc83305e"><path d="M 519 274.617188 L 648 274.617188 L 648 458 L 519 458 Z M 519 274.617188 " clip-rule="nonzero"/></clipPath><clipPath id="e18f1a67f6"><path d="M 244 290 L 585 290 L 585 748.617188 L 244 748.617188 Z M 244 290 " clip-rule="nonzero"/></clipPath></defs><g clip-path="url(#e3966d45a9)"><g clip-path="url(#0d9392522e)"><path fill="#c7ece4" d="M 798.769531 98.105469 L 798.769531 908.140625 L 11.21875 908.140625 L 11.21875 98.105469 Z M 798.769531 98.105469 " fill-opacity="1" fill-rule="nonzero"/></g></g><g clip-path="url(#a264c5d508)"><g clip-path="url(#55a24aeb68)"><path fill="#99ddd0" d="M 798.769531 251.347656 L 798.769531 1061.386719 L 11.21875 1061.386719 L 11.21875 251.347656 Z M 798.769531 251.347656 " fill-opacity="1" fill-rule="nonzero"/></g></g><g clip-path="url(#506f342259)"><g clip-path="url(#490766b363)"><path fill="#71cfbf" d="M 798.769531 401.0625 L 798.769531 1211.097656 L 11.21875 1211.097656 L 11.21875 401.0625 Z M 798.769531 401.0625 " fill-opacity="1" fill-rule="nonzero"/></g></g><g clip-path="url(#679168ef58)"><path fill="#d37643" d="M 651.960938 372.550781 L 651.960938 463.871094 L 589.660156 463.871094 L 589.660156 372.550781 Z M 568.542969 540.125 L 651.960938 540.125 L 651.960938 748.144531 L 637.425781 748.144531 L 637.425781 554.664062 L 373.800781 554.664062 L 373.425781 569.945312 L 453.082031 580.3125 L 472.671875 731.339844 L 469.171875 731.835938 L 469.089844 732.757812 C 473.054688 734.050781 476.222656 735.367188 478.503906 736.664062 C 484.492188 740.074219 486.726562 744.777344 486.835938 748.144531 L 420.203125 748.144531 L 419.929688 738.824219 L 410.015625 740.230469 L 406.6875 634.238281 L 406.054688 634.5 C 404.707031 635.0625 403.28125 635.347656 401.820312 635.347656 L 396.503906 635.347656 L 382.996094 728.019531 L 379.492188 727.550781 L 379.164062 728.417969 C 382.625 730.730469 385.320312 732.855469 387.167969 734.722656 C 392.015625 739.625 392.894531 744.757812 392.089844 748.03125 L 327.933594 730.007812 L 330.191406 720.960938 L 320.265625 719.632812 L 341.105469 635.347656 L 291.867188 635.347656 L 291.867188 737.125 L 324.238281 737.125 L 324.71875 737.128906 L 324.808594 737.125 C 327.84375 737.125 330.316406 739.597656 330.316406 742.632812 C 330.316406 745.671875 327.84375 748.144531 324.808594 748.144531 C 321.769531 748.144531 319.300781 745.671875 319.300781 742.632812 C 319.300781 741.851562 319.464844 741.089844 319.792969 740.363281 L 320.097656 739.695312 L 255.433594 739.695312 L 255.738281 740.363281 C 256.066406 741.085938 256.230469 741.851562 256.230469 742.632812 C 256.230469 745.671875 253.761719 748.144531 250.726562 748.144531 C 247.6875 748.144531 245.21875 745.671875 245.21875 742.632812 C 245.21875 739.597656 247.6875 737.125 250.726562 737.125 L 283.667969 737.125 L 283.667969 635.347656 L 237.4375 635.347656 L 220.476562 511.277344 C 219.578125 504.699219 221.449219 498.011719 225.480469 493.390625 C 228.640625 489.769531 232.792969 487.773438 237.175781 487.773438 L 298.054688 487.773438 L 298.183594 487.503906 C 302.5 478.378906 307.625 470.914062 313.859375 464.679688 C 318.523438 460.015625 323.996094 456.847656 330.128906 455.261719 L 330.433594 455.183594 L 331.214844 449.90625 L 337.730469 449.746094 L 337.832031 449.269531 L 337.347656 449.28125 L 339.820312 437.882812 C 339.832031 437.886719 340 437.910156 340.292969 437.941406 L 340.410156 437.410156 L 340.039062 437.410156 C 339.039062 436.15625 332.761719 427.53125 335.964844 412.765625 C 337.359375 406.351562 340 405.394531 341.449219 405.394531 C 341.992188 405.394531 342.351562 405.53125 342.355469 405.53125 L 342.761719 405.6875 L 342.957031 405.292969 C 343.066406 405.066406 345.757812 399.707031 355.28125 399.707031 C 356.160156 399.707031 357.078125 399.753906 358.019531 399.847656 C 367.273438 400.761719 374.457031 404.042969 379.363281 409.601562 C 381.074219 411.539062 381.871094 414.023438 381.597656 416.601562 C 381.320312 419.230469 379.953125 421.628906 377.847656 423.1875 L 377.644531 423.339844 L 377.65625 423.59375 C 377.664062 423.6875 377.660156 423.777344 377.664062 423.871094 C 377.816406 423.769531 377.984375 423.679688 378.132812 423.570312 C 378.207031 425.148438 378.101562 426.757812 377.75 428.378906 C 377.535156 429.371094 377.222656 430.3125 376.863281 431.230469 L 380.929688 439.199219 C 381.171875 439.886719 380.808594 440.644531 380.117188 440.886719 L 375.550781 442.492188 L 372.566406 450.199219 C 371.832031 452.089844 369.832031 453.167969 367.851562 452.734375 L 359.660156 450.957031 L 359.164062 453.234375 L 358.703125 453.113281 L 358.605469 453.578125 L 362.050781 454.496094 L 361.277344 459.742188 L 361.578125 459.898438 C 363.105469 460.6875 364.59375 461.539062 366 462.421875 C 383.136719 473.195312 427.070312 522 427.511719 522.488281 L 427.648438 522.636719 L 481.664062 524.992188 L 493.882812 473.980469 C 494.082031 473.140625 494.828125 472.550781 495.691406 472.550781 L 582.367188 472.550781 C 582.941406 472.550781 583.476562 472.808594 583.832031 473.261719 C 584.1875 473.714844 584.316406 474.292969 584.179688 474.851562 Z M 390.25 540.125 L 374.53125 524.53125 L 374.152344 540.125 Z M 552.097656 286.777344 L 540.585938 275.089844 L 440.453125 275.089844 L 440.453125 417.738281 L 552.097656 417.738281 Z M 552.097656 286.777344 " fill-opacity="1" fill-rule="nonzero"/></g><g clip-path="url(#14719a6033)"><path fill="#096b72" d="M 649.507812 460.109375 L 591.378906 460.109375 L 591.378906 375.105469 L 649.507812 375.105469 Z M 569.144531 539.652344 L 489.648438 539.652344 C 489.617188 539.652344 489.59375 539.652344 489.5625 539.652344 C 489.5625 539.652344 489.558594 539.652344 489.558594 539.652344 L 478.933594 540.75 L 453.394531 546.804688 L 389.097656 539.652344 L 370.234375 539.652344 L 370.234375 485.074219 L 304.839844 485.074219 L 297.753906 487.300781 L 237.175781 487.300781 C 226.453125 487.300781 218.285156 498.738281 220.007812 511.339844 L 237.023438 635.820312 L 401.820312 635.820312 C 403.382812 635.820312 404.875 635.503906 406.234375 634.941406 C 407.164062 634.550781 408.03125 634.039062 408.820312 633.433594 L 427.101562 633.433594 L 427.101562 581.769531 L 370.234375 572.730469 L 370.234375 555.136719 L 636.953125 555.136719 L 636.953125 748.617188 L 652.433594 748.617188 L 652.433594 539.652344 Z M 478.738281 736.25 C 476.097656 734.75 472.621094 733.410156 469.238281 732.304688 L 456.957031 725.390625 L 450.222656 735.003906 L 443.507812 740.578125 L 427.050781 738.292969 L 422.125 733.921875 L 419.472656 739.367188 L 419.742188 748.617188 L 487.3125 748.617188 L 487.3125 748.40625 C 487.316406 744.390625 484.546875 739.558594 478.738281 736.25 Z M 379.425781 728.023438 L 371.421875 719.703125 L 360.390625 725.476562 L 352.421875 729.03125 L 337.191406 722.375 L 333.984375 714.964844 L 329.605469 721.359375 L 327.363281 730.339844 L 392.421875 748.617188 L 392.480469 748.414062 C 393.566406 744.546875 392.207031 739.144531 387.503906 734.390625 C 385.371094 732.230469 382.382812 730 379.425781 728.023438 Z M 379.425781 728.023438 " fill-opacity="1" fill-rule="nonzero"/></g><g clip-path="url(#2a7a8d57b0)"><path fill="#f7f7f7" d="M 589.1875 372.078125 L 589.1875 464.34375 L 652.433594 464.34375 L 652.433594 372.078125 Z M 594.375 378.136719 L 647.246094 378.136719 L 647.246094 392.964844 L 594.375 392.964844 Z M 605.5625 401.042969 L 594.539062 401.042969 L 594.539062 397.105469 L 605.5625 397.105469 Z M 619.511719 401.042969 L 608.488281 401.042969 L 608.488281 397.105469 L 619.511719 397.105469 Z M 647.410156 454.761719 C 647.410156 456.125 646.308594 457.226562 644.945312 457.226562 L 638.847656 457.226562 C 637.488281 457.226562 636.386719 456.125 636.386719 454.761719 L 636.386719 435.042969 C 636.386719 433.683594 637.484375 432.578125 638.847656 432.578125 L 644.945312 432.578125 C 646.308594 432.578125 647.410156 433.683594 647.410156 435.042969 Z M 427.863281 522.171875 L 481.292969 524.5 L 480.988281 526.582031 L 478.933594 540.75 L 477.664062 549.503906 L 399.03125 549.503906 L 389.097656 539.652344 L 374.976562 525.640625 L 374.636719 539.652344 L 374.261719 555.136719 L 373.910156 569.53125 L 396.855469 572.515625 C 396.855469 572.515625 396.914062 610.480469 346.566406 606.804688 L 332.605469 504.683594 C 331.234375 494.660156 323.964844 487.300781 315.4375 487.300781 L 297.757812 487.300781 C 301.992188 478.347656 307.125 470.746094 313.523438 464.347656 C 318.425781 459.441406 324.046875 456.34375 330.011719 454.804688 L 330.804688 449.441406 L 337.34375 449.28125 L 343.699219 449.125 L 359.164062 453.238281 L 362.582031 454.144531 L 361.792969 459.476562 C 363.300781 460.253906 364.785156 461.101562 366.25 462.019531 C 383.640625 472.953125 427.863281 522.171875 427.863281 522.171875 Z M 540.785156 274.617188 L 552.574219 286.582031 L 552.574219 418.210938 L 439.976562 418.210938 L 439.976562 274.617188 Z M 540.785156 274.617188 " fill-opacity="1" fill-rule="nonzero"/></g><g clip-path="url(#0dfc83305e)"><path fill="#b5b5b5" d="M 605.566406 407.808594 L 605.566406 413.90625 C 605.566406 415.269531 604.460938 416.371094 603.101562 416.371094 L 597.003906 416.371094 C 595.640625 416.371094 594.539062 415.269531 594.539062 413.90625 L 594.539062 407.808594 C 594.539062 406.445312 595.640625 405.34375 597.003906 405.34375 L 603.101562 405.34375 C 604.460938 405.34375 605.566406 406.445312 605.566406 407.808594 Z M 617.050781 405.34375 L 610.949219 405.34375 C 609.589844 405.34375 608.488281 406.445312 608.488281 407.808594 L 608.488281 413.90625 C 608.488281 415.269531 609.589844 416.371094 610.949219 416.371094 L 617.050781 416.371094 C 618.410156 416.371094 619.511719 415.269531 619.511719 413.90625 L 619.511719 407.808594 C 619.511719 406.445312 618.410156 405.34375 617.050781 405.34375 Z M 631 405.34375 L 624.898438 405.34375 C 623.539062 405.34375 622.4375 406.445312 622.4375 407.808594 L 622.4375 413.90625 C 622.4375 415.269531 623.539062 416.371094 624.898438 416.371094 L 631 416.371094 C 632.359375 416.371094 633.460938 415.269531 633.460938 413.90625 L 633.460938 407.808594 C 633.460938 406.445312 632.359375 405.34375 631 405.34375 Z M 644.945312 405.34375 L 638.847656 405.34375 C 637.484375 405.34375 636.386719 406.445312 636.386719 407.808594 L 636.386719 413.90625 C 636.386719 415.269531 637.488281 416.371094 638.847656 416.371094 L 644.945312 416.371094 C 646.308594 416.371094 647.410156 415.269531 647.410156 413.90625 L 647.410156 407.808594 C 647.410156 406.445312 646.308594 405.34375 644.945312 405.34375 Z M 603.101562 418.960938 L 597.003906 418.960938 C 595.640625 418.960938 594.539062 420.066406 594.539062 421.425781 L 594.539062 427.527344 C 594.539062 428.886719 595.640625 429.992188 597.003906 429.992188 L 603.101562 429.992188 C 604.460938 429.992188 605.566406 428.886719 605.566406 427.527344 L 605.566406 421.425781 C 605.566406 420.066406 604.460938 418.960938 603.101562 418.960938 Z M 617.050781 418.960938 L 610.949219 418.960938 C 609.589844 418.960938 608.488281 420.066406 608.488281 421.425781 L 608.488281 427.527344 C 608.488281 428.886719 609.589844 429.992188 610.949219 429.992188 L 617.050781 429.992188 C 618.410156 429.992188 619.511719 428.886719 619.511719 427.527344 L 619.511719 421.425781 C 619.511719 420.066406 618.410156 418.960938 617.050781 418.960938 Z M 631 418.960938 L 624.898438 418.960938 C 623.539062 418.960938 622.4375 420.066406 622.4375 421.425781 L 622.4375 427.527344 C 622.4375 428.886719 623.539062 429.992188 624.898438 429.992188 L 631 429.992188 C 632.359375 429.992188 633.460938 428.886719 633.460938 427.527344 L 633.460938 421.425781 C 633.460938 420.066406 632.359375 418.960938 631 418.960938 Z M 644.945312 418.960938 L 638.847656 418.960938 C 637.484375 418.960938 636.386719 420.066406 636.386719 421.425781 L 636.386719 427.527344 C 636.386719 428.886719 637.488281 429.992188 638.847656 429.992188 L 644.945312 429.992188 C 646.308594 429.992188 647.410156 428.886719 647.410156 427.527344 L 647.410156 421.425781 C 647.410156 420.066406 646.308594 418.960938 644.945312 418.960938 Z M 603.101562 432.578125 L 597.003906 432.578125 C 595.640625 432.578125 594.539062 433.683594 594.539062 435.042969 L 594.539062 441.144531 C 594.539062 442.507812 595.640625 443.609375 597.003906 443.609375 L 603.101562 443.609375 C 604.460938 443.609375 605.566406 442.503906 605.566406 441.144531 L 605.566406 435.042969 C 605.566406 433.683594 604.460938 432.578125 603.101562 432.578125 Z M 617.050781 432.578125 L 610.949219 432.578125 C 609.589844 432.578125 608.488281 433.683594 608.488281 435.042969 L 608.488281 441.144531 C 608.488281 442.507812 609.589844 443.609375 610.949219 443.609375 L 617.050781 443.609375 C 618.410156 443.609375 619.511719 442.503906 619.511719 441.144531 L 619.511719 435.042969 C 619.511719 433.683594 618.410156 432.578125 617.050781 432.578125 Z M 631 432.578125 L 624.898438 432.578125 C 623.539062 432.578125 622.4375 433.683594 622.4375 435.042969 L 622.4375 441.144531 C 622.4375 442.507812 623.539062 443.609375 624.898438 443.609375 L 631 443.609375 C 632.359375 443.609375 633.460938 442.503906 633.460938 441.144531 L 633.460938 435.042969 C 633.460938 433.683594 632.359375 432.578125 631 432.578125 Z M 603.101562 446.199219 L 597.003906 446.199219 C 595.640625 446.199219 594.539062 447.300781 594.539062 448.664062 L 594.539062 454.761719 C 594.539062 456.125 595.640625 457.226562 597.003906 457.226562 L 603.101562 457.226562 C 604.460938 457.226562 605.566406 456.125 605.566406 454.761719 L 605.566406 448.664062 C 605.566406 447.300781 604.460938 446.199219 603.101562 446.199219 Z M 617.050781 446.199219 L 610.949219 446.199219 C 609.589844 446.199219 608.488281 447.300781 608.488281 448.664062 L 608.488281 454.761719 C 608.488281 456.125 609.589844 457.226562 610.949219 457.226562 L 617.050781 457.226562 C 618.410156 457.226562 619.511719 456.125 619.511719 454.761719 L 619.511719 448.664062 C 619.511719 447.300781 618.410156 446.199219 617.050781 446.199219 Z M 631 446.199219 L 624.898438 446.199219 C 623.539062 446.199219 622.4375 447.300781 622.4375 448.664062 L 622.4375 454.761719 C 622.4375 456.125 623.539062 457.226562 624.898438 457.226562 L 631 457.226562 C 632.359375 457.226562 633.460938 456.125 633.460938 454.761719 L 633.460938 448.664062 C 633.460938 447.300781 632.359375 446.199219 631 446.199219 Z M 519.144531 382.3125 L 541.664062 382.3125 L 541.664062 310.515625 L 519.144531 310.515625 Z M 540.785156 286.582031 L 552.574219 286.582031 L 540.785156 274.617188 Z M 540.785156 286.582031 " fill-opacity="1" fill-rule="nonzero"/></g><g clip-path="url(#e18f1a67f6)"><path fill="#000000" d="M 584.640625 474.960938 L 569.144531 539.652344 L 489.648438 539.652344 C 503.421875 539.628906 508.527344 534.679688 508.527344 534.679688 L 514.242188 538.585938 C 514.597656 538.832031 515.050781 538.902344 515.460938 538.773438 C 516.507812 538.449219 516.8125 537.117188 516.011719 536.375 L 513.414062 533.953125 L 519.429688 536.800781 C 520.074219 537.082031 520.796875 537.125 521.472656 536.917969 L 525.675781 535.617188 C 526.933594 535.230469 527.242188 533.589844 526.210938 532.765625 L 512.128906 521.523438 L 487.316406 527.09375 L 480.988281 526.582031 L 481.292969 524.5 L 493.417969 473.871094 C 493.667969 472.820312 494.609375 472.078125 495.691406 472.078125 L 582.367188 472.078125 C 583.878906 472.078125 584.992188 473.492188 584.640625 474.960938 Z M 396.855469 572.515625 C 396.855469 572.515625 379.851562 595.121094 346.566406 606.804688 L 347.070312 610.480469 L 401.820312 610.480469 C 408.175781 610.480469 413.324219 615.632812 413.324219 621.984375 L 413.324219 624.316406 C 413.324219 629.105469 410.398438 633.207031 406.234375 634.941406 L 409.558594 740.773438 L 419.472656 739.367188 L 427.050781 738.292969 L 450.226562 735.003906 L 469.238281 732.304688 L 473.203125 731.742188 L 453.503906 579.890625 Z M 340.5 635.820312 L 319.679688 720.035156 L 329.605469 721.359375 L 337.191406 722.375 L 360.390625 725.476562 L 379.429688 728.023438 L 383.398438 728.554688 L 396.914062 635.820312 Z M 324.808594 736.652344 C 324.773438 736.652344 324.742188 736.65625 324.710938 736.65625 L 324.710938 736.652344 L 292.339844 736.652344 L 292.339844 635.820312 L 283.191406 635.820312 L 283.191406 736.652344 L 250.820312 736.652344 L 250.820312 736.65625 C 250.789062 736.65625 250.757812 736.652344 250.722656 736.652344 C 247.421875 736.652344 244.742188 739.332031 244.742188 742.632812 C 244.742188 745.9375 247.421875 748.617188 250.722656 748.617188 C 254.027344 748.617188 256.703125 745.9375 256.703125 742.632812 C 256.703125 741.753906 256.511719 740.921875 256.167969 740.171875 L 319.363281 740.171875 C 319.019531 740.921875 318.824219 741.753906 318.824219 742.632812 C 318.824219 745.9375 321.503906 748.617188 324.808594 748.617188 C 328.109375 748.617188 330.789062 745.9375 330.789062 742.632812 C 330.789062 739.332031 328.109375 736.652344 324.808594 736.652344 Z M 339.820312 437.882812 C 339.917969 437.898438 350.027344 439.355469 355.980469 434.042969 C 354.113281 429.042969 355.441406 423.40625 358.171875 422.449219 C 360.375 421.671875 363.085938 423.078125 364.898438 425.421875 L 363.605469 431.375 L 369.628906 428.5 L 370.015625 426.699219 C 372.082031 426.1875 374.042969 425.539062 375.824219 424.847656 C 376.675781 424.519531 377.4375 424.082031 378.128906 423.570312 C 382.570312 420.285156 383.601562 413.683594 379.71875 409.289062 C 375.789062 404.839844 369.160156 400.476562 358.0625 399.375 C 345.8125 398.164062 342.527344 405.089844 342.527344 405.089844 C 342.527344 405.089844 337.574219 403.109375 335.5 412.664062 C 331.945312 429.050781 339.8125 437.882812 339.8125 437.882812 C 339.8125 437.882812 339.820312 437.882812 339.820312 437.882812 Z M 512.085938 310.515625 L 449.457031 310.515625 L 449.457031 382.3125 L 512.085938 382.3125 Z M 541.664062 394.71875 L 502.960938 394.71875 L 502.960938 395.421875 L 541.664062 395.421875 Z M 541.664062 401.933594 L 541.664062 401.230469 L 517.738281 401.230469 L 517.738281 401.933594 Z M 541.664062 297.40625 L 450.886719 297.40625 L 450.886719 298.109375 L 541.664062 298.109375 Z M 541.664062 290.894531 L 450.886719 290.894531 L 450.886719 291.597656 L 541.664062 291.597656 Z M 541.664062 290.894531 " fill-opacity="1" fill-rule="nonzero"/></g></svg>