<svg height="512" viewBox="0 0 64 64" width="512" xmlns="http://www.w3.org/2000/svg"><g id="Blue"><path d="m3 43h58v6h-58z" fill="#7cb8eb"/><path d="m39 55h-14l2-6h10z" fill="#cdeef6"/><path d="m18 55h28v4h-28z" fill="#cdeef6"/><path d="m3 5h58v38h-58z" fill="#cdeef6"/><path d="m37 15h14v14h-14z" fill="#fff"/><path d="m37 29h14v10h-14z" fill="#7cb8eb"/><path d="m40 18h2v2h-2z" fill="#4f83d1"/><path d="m46 18h2v2h-2z" fill="#4f83d1"/><path d="m44 26a1 1 0 0 1 -.555-.168l-3-2 1.11-1.664 2.445 1.632 2.445-1.63 1.11 1.664-3 2a1 1 0 0 1 -.555.166z" fill="#4f83d1"/><path d="m37 11h14v4h-14z" fill="#7cb8eb"/><path d="m37 39v-10h-2a2 2 0 0 0 -2 2v12h11v-4z" fill="#7cb8eb"/><path d="m53 29h-2v10h-7v4h11v-12a2 2 0 0 0 -2-2z" fill="#7cb8eb"/><path d="m41 29 3 6 3-6z" fill="#fff"/><path d="m43 35h2v4h-2z" fill="#4f83d1"/><path d="m7 11h20v20h-20z" fill="#7cb8eb"/><path d="m14 15h6v6h-6z" fill="#fff"/><path d="m12 25h10a1 1 0 0 1 1 1v5a0 0 0 0 1 0 0h-12a0 0 0 0 1 0 0v-5a1 1 0 0 1 1-1z" fill="#cdeef6"/><g fill="#4f83d1"><path d="m16 26h2v2h-2z"/><path d="m6 38h2v2h-2z"/><path d="m10 38h2v2h-2z"/><path d="m31 8h2v2h-2z"/><path d="m61 4h-58a1 1 0 0 0 -1 1v44a1 1 0 0 0 1 1h22.613l-1.333 4h-6.28a1 1 0 0 0 -1 1v4a1 1 0 0 0 1 1h28a1 1 0 0 0 1-1v-4a1 1 0 0 0 -1-1h-6.28l-1.333-4h22.613a1 1 0 0 0 1-1v-44a1 1 0 0 0 -1-1zm-16 52v2h-26v-2zm-18.612-2 1.333-4h8.558l1.333 4zm33.612-6h-56v-4h56zm-23-8h6v2h-9v-11a1 1 0 0 1 1-1h1v9a1 1 0 0 0 1 1zm7-7.236-1.382-2.764h2.764zm3.618-2.764h2.382v8h-5v-2.764zm-2.618 10h6a1 1 0 0 0 1-1v-9h1a1 1 0 0 1 1 1v11h-9zm5-26h-12v-2h12zm0 2v12h-12v-12zm-9.618 14 2.618 5.236v2.764h-5v-8zm19.618 12h-4v-11a3 3 0 0 0 -3-3h-1v-17a1 1 0 0 0 -1-1h-14a1 1 0 0 0 -1 1v17h-1a3 3 0 0 0 -3 3v11h-28v-36h56z"/><path d="m40 18h2v2h-2z"/><path d="m46 18h2v2h-2z"/><path d="m40.445 23.832 3 2a1 1 0 0 0 1.11 0l3-2-1.11-1.664-2.445 1.632-2.445-1.63z"/><path d="m7 32h20a1 1 0 0 0 1-1v-20a1 1 0 0 0 -1-1h-20a1 1 0 0 0 -1 1v20a1 1 0 0 0 1 1zm15-2h-10v-4h4v2h2v-2h4zm-14-18h18v18h-2v-4a2 2 0 0 0 -2-2h-10a2 2 0 0 0 -2 2v4h-2z"/><path d="m14 22h6a1 1 0 0 0 1-1v-6a1 1 0 0 0 -1-1h-6a1 1 0 0 0 -1 1v6a1 1 0 0 0 1 1zm1-6h4v4h-4z"/><path d="m6 38h2v2h-2z"/><path d="m10 38h2v2h-2z"/><path d="m31 8h2v2h-2z"/></g></g></svg>