<?xml version="1.0" standalone="no"?><svg xmlns="http://www.w3.org/2000/svg" viewBox="0 0 1440 320"><path fill="#EDEDED" fill-opacity="1" d="M0,96L0,288L65.5,288L65.5,96L130.9,96L130.9,96L196.4,96L196.4,32L261.8,32L261.8,288L327.3,288L327.3,224L392.7,224L392.7,224L458.2,224L458.2,96L523.6,96L523.6,160L589.1,160L589.1,64L654.5,64L654.5,256L720,256L720,64L785.5,64L785.5,256L850.9,256L850.9,160L916.4,160L916.4,224L981.8,224L981.8,256L1047.3,256L1047.3,160L1112.7,160L1112.7,64L1178.2,64L1178.2,160L1243.6,160L1243.6,224L1309.1,224L1309.1,96L1374.5,96L1374.5,288L1440,288L1440,320L1374.5,320L1374.5,320L1309.1,320L1309.1,320L1243.6,320L1243.6,320L1178.2,320L1178.2,320L1112.7,320L1112.7,320L1047.3,320L1047.3,320L981.8,320L981.8,320L916.4,320L916.4,320L850.9,320L850.9,320L785.5,320L785.5,320L720,320L720,320L654.5,320L654.5,320L589.1,320L589.1,320L523.6,320L523.6,320L458.2,320L458.2,320L392.7,320L392.7,320L327.3,320L327.3,320L261.8,320L261.8,320L196.4,320L196.4,320L130.9,320L130.9,320L65.5,320L65.5,320L0,320L0,320Z"></path></svg>