<?xml version="1.0" standalone="no"?><svg xmlns="http://www.w3.org/2000/svg" viewBox="0 0 1440 320"><path fill="#1D5079" fill-opacity="1" d="M0,128L18.5,128C36.9,128,74,128,111,138.7C147.7,149,185,171,222,176C258.5,181,295,171,332,144C369.2,117,406,75,443,74.7C480,75,517,117,554,133.3C590.8,149,628,139,665,122.7C701.5,107,738,85,775,112C812.3,139,849,213,886,202.7C923.1,192,960,96,997,74.7C1033.8,53,1071,107,1108,138.7C1144.6,171,1182,181,1218,176C1255.4,171,1292,149,1329,144C1366.2,139,1403,149,1422,154.7L1440,160L1440,0L1421.5,0C1403.1,0,1366,0,1329,0C1292.3,0,1255,0,1218,0C1181.5,0,1145,0,1108,0C1070.8,0,1034,0,997,0C960,0,923,0,886,0C849.2,0,812,0,775,0C738.5,0,702,0,665,0C627.7,0,591,0,554,0C516.9,0,480,0,443,0C406.2,0,369,0,332,0C295.4,0,258,0,222,0C184.6,0,148,0,111,0C73.8,0,37,0,18,0L0,0Z"></path></svg>