<?xml version="1.0"?>
<svg width="1440" height="240" xmlns="http://www.w3.org/2000/svg" xmlns:svg="http://www.w3.org/2000/svg">
 <g class="layer">
  <title>Layer 1</title>
  <path d="m0,167.67l30,9.29c30,8.94 90,28.04 150,0c60,-27.52 120,-102.17 180,-115.8c60,-14.15 120,32.73 180,60.24c60,28.04 120,36.72 180,27.78c60,-9.29 120,-37.07 180,-37.07c60,0 120,27.78 180,37.07c60,8.94 120,0.26 180,-27.78c60,-27.52 120,-74.39 150,-97.22l30,-23.18l0,250l-30,0c-30,0 -90,0 -150,0c-60,0 -120,0 -180,0c-60,0 -120,0 -180,0c-60,0 -120,0 -180,0c-60,0 -120,0 -180,0c-60,0 -120,0 -180,0c-60,0 -120,0 -180,0c-60,0 -120,0 -150,0l-30,0l0,-83.33z" fill="#ffff" id="svg_1"/>
 </g>
</svg>