<svg xmlns="http://www.w3.org/2000/svg" xmlns:xlink="http://www.w3.org/1999/xlink" width="6912" zoomAndPan="magnify" viewBox="0 0 5184 2592.000001" height="3456" preserveAspectRatio="xMidYMid meet" version="1.0"><defs><g/><clipPath id="33014eb028"><path d="M 531.066406 0 L 5007.328125 0 L 5007.328125 2591 L 531.066406 2591 Z M 531.066406 0 " clip-rule="nonzero"/></clipPath><clipPath id="2530504a26"><path d="M 3590.121094 -48.003906 L 1948.273438 -48.003906 L 531.066406 1369.199219 L 1948.273438 2786.402344 L 3590.121094 2786.402344 L 5007.328125 1369.199219 Z M 3590.121094 -48.003906 " clip-rule="nonzero"/></clipPath><clipPath id="54f439756f"><path d="M 1194.597656 0 L 5183 0 L 5183 2591 L 1194.597656 2591 Z M 1194.597656 0 " clip-rule="nonzero"/></clipPath><clipPath id="01fbca71f7"><path d="M 4253.652344 -48.003906 L 2611.800781 -48.003906 L 1194.597656 1369.199219 L 2611.800781 2786.402344 L 4253.652344 2786.402344 L 5670.855469 1369.199219 Z M 4253.652344 -48.003906 " clip-rule="nonzero"/></clipPath><clipPath id="89c5a22fe7"><path d="M 1988.140625 0 L 5183 0 L 5183 2591 L 1988.140625 2591 Z M 1988.140625 0 " clip-rule="nonzero"/></clipPath><clipPath id="86c9702fe3"><path d="M 5047.195312 -101.0625 L 3405.34375 -101.0625 L 1988.140625 1316.140625 L 3405.34375 2733.34375 L 5047.195312 2733.34375 L 6464.398438 1316.140625 Z M 5047.195312 -101.0625 " clip-rule="nonzero"/></clipPath></defs><g clip-path="url(#33014eb028)"><g clip-path="url(#2530504a26)"><path fill="#247ab1" d="M 531.066406 -48.003906 L 5007.328125 -48.003906 L 5007.328125 2786.402344 L 531.066406 2786.402344 Z M 531.066406 -48.003906 " fill-opacity="1" fill-rule="nonzero"/></g></g><g clip-path="url(#54f439756f)"><g clip-path="url(#01fbca71f7)"><path fill="#135a94" d="M 1194.597656 -48.003906 L 5670.855469 -48.003906 L 5670.855469 2786.402344 L 1194.597656 2786.402344 Z M 1194.597656 -48.003906 " fill-opacity="1" fill-rule="nonzero"/></g></g><g clip-path="url(#89c5a22fe7)"><g clip-path="url(#86c9702fe3)"><path fill="#1d5079" d="M 1988.140625 -101.0625 L 6464.398438 -101.0625 L 6464.398438 2733.34375 L 1988.140625 2733.34375 Z M 1988.140625 -101.0625 " fill-opacity="1" fill-rule="nonzero"/></g></g><g fill="#ffffff" fill-opacity="1"><g transform="translate(2881.870572, 1620.29251)"><g><path d="M 124.90625 -99.109375 L 121.390625 -99.109375 C 120.472656 -108.359375 117.570312 -115.328125 112.6875 -120.015625 C 107.800781 -124.703125 102.226562 -127.046875 95.96875 -127.046875 L 80.734375 -127.046875 L 80.734375 -21.109375 C 80.734375 -16.285156 81.382812 -12.632812 82.6875 -10.15625 C 83.988281 -7.6875 86.003906 -5.992188 88.734375 -5.078125 C 91.472656 -4.171875 95.320312 -3.648438 100.28125 -3.515625 L 100.28125 0 L 29.90625 0 L 29.90625 -3.515625 C 34.851562 -3.515625 38.660156 -3.875 41.328125 -4.59375 C 44.003906 -5.3125 46.023438 -6.90625 47.390625 -9.375 C 48.765625 -11.851562 49.453125 -15.632812 49.453125 -20.71875 L 49.453125 -127.046875 L 32.640625 -127.046875 C 26.773438 -127.046875 21.5625 -124.472656 17 -119.328125 C 12.445312 -114.179688 9.710938 -107.441406 8.796875 -99.109375 L 5.28125 -99.109375 L 5.28125 -134.28125 L 124.90625 -134.28125 Z M 124.90625 -99.109375 "/></g></g></g><g fill="#ffffff" fill-opacity="1"><g transform="translate(3012.243683, 1620.29251)"><g><path d="M 60.59375 -92.84375 C 63.71875 -92.84375 66.257812 -91.632812 68.21875 -89.21875 C 70.175781 -86.8125 71.15625 -83.722656 71.15625 -79.953125 C 71.15625 -75.910156 70.175781 -72.648438 68.21875 -70.171875 C 66.257812 -67.691406 63.585938 -66.453125 60.203125 -66.453125 C 58.640625 -66.453125 57.269531 -66.773438 56.09375 -67.421875 C 54.925781 -68.078125 53.492188 -68.992188 51.796875 -70.171875 C 49.316406 -71.867188 47.492188 -72.71875 46.328125 -72.71875 C 44.242188 -72.71875 42.484375 -71.019531 41.046875 -67.625 C 39.609375 -64.238281 38.890625 -60.394531 38.890625 -56.09375 L 38.890625 -15.4375 C 38.890625 -11.132812 39.738281 -8.070312 41.4375 -6.25 C 43.132812 -4.425781 46.195312 -3.515625 50.625 -3.515625 L 50.625 0 L 2.15625 0 L 2.15625 -3.515625 C 8.800781 -3.515625 12.125 -7.425781 12.125 -15.25 L 12.125 -75.453125 C 12.125 -83.140625 8.800781 -87.046875 2.15625 -87.171875 L 2.15625 -90.703125 L 38.890625 -90.703125 L 38.890625 -74.46875 L 39.296875 -74.46875 C 45.410156 -86.71875 52.507812 -92.84375 60.59375 -92.84375 Z M 60.59375 -92.84375 "/></g></g></g><g fill="#ffffff" fill-opacity="1"><g transform="translate(3087.496507, 1620.29251)"><g><path d="M 27.5625 -137.21875 C 31.726562 -137.21875 35.273438 -135.75 38.203125 -132.8125 C 41.140625 -129.882812 42.609375 -126.335938 42.609375 -122.171875 C 42.609375 -117.992188 41.140625 -114.40625 38.203125 -111.40625 C 35.273438 -108.414062 31.726562 -106.921875 27.5625 -106.921875 C 23.394531 -106.921875 19.8125 -108.414062 16.8125 -111.40625 C 13.8125 -114.40625 12.3125 -117.992188 12.3125 -122.171875 C 12.3125 -126.335938 13.8125 -129.882812 16.8125 -132.8125 C 19.8125 -135.75 23.394531 -137.21875 27.5625 -137.21875 Z M 40.46875 -14.859375 C 40.46875 -7.429688 43.722656 -3.648438 50.234375 -3.515625 L 50.234375 0 L 2.34375 0 L 2.34375 -3.515625 C 6.382812 -3.515625 9.285156 -4.425781 11.046875 -6.25 C 12.804688 -8.070312 13.6875 -11.265625 13.6875 -15.828125 L 13.6875 -75.0625 C 13.6875 -79.363281 12.835938 -82.457031 11.140625 -84.34375 C 9.441406 -86.226562 6.507812 -87.171875 2.34375 -87.171875 L 2.34375 -90.703125 L 40.46875 -90.703125 Z M 40.46875 -14.859375 "/></g></g></g><g fill="#ffffff" fill-opacity="1"><g transform="translate(3140.466675, 1620.29251)"><g><path d="M 39.484375 -82.484375 C 46.390625 -89.390625 53.6875 -92.84375 61.375 -92.84375 C 67.375 -92.84375 72.847656 -90.953125 77.796875 -87.171875 C 82.742188 -83.398438 86.648438 -78.222656 89.515625 -71.640625 C 92.390625 -65.054688 93.828125 -57.660156 93.828125 -49.453125 C 93.828125 -39.679688 92.035156 -30.820312 88.453125 -22.875 C 84.867188 -14.925781 79.914062 -8.671875 73.59375 -4.109375 C 67.269531 0.453125 60.203125 2.734375 52.390625 2.734375 C 47.691406 2.734375 43.710938 1.953125 40.453125 0.390625 C 37.203125 -1.171875 34.015625 -3.773438 30.890625 -7.421875 L 16.03125 2.34375 L 12.703125 2.34375 L 12.703125 -119.234375 C 12.703125 -123.273438 11.882812 -126.140625 10.25 -127.828125 C 8.625 -129.523438 6.117188 -130.503906 2.734375 -130.765625 L 2.734375 -134.28125 L 39.484375 -134.28125 Z M 39.484375 -73.5 L 39.484375 -25.609375 C 39.484375 -20.265625 40.394531 -15.34375 42.21875 -10.84375 C 44.039062 -6.351562 46.972656 -4.109375 51.015625 -4.109375 C 55.578125 -4.109375 59.160156 -7.691406 61.765625 -14.859375 C 64.367188 -22.023438 65.671875 -32.644531 65.671875 -46.71875 C 65.671875 -59.226562 64.5625 -68.21875 62.34375 -73.6875 C 60.132812 -79.164062 56.945312 -81.90625 52.78125 -81.90625 C 48.601562 -81.90625 44.171875 -79.101562 39.484375 -73.5 Z M 39.484375 -73.5 "/></g></g></g><g fill="#ffffff" fill-opacity="1"><g transform="translate(3238.197614, 1620.29251)"><g><path d="M 37.140625 -26.78125 C 37.140625 -21.039062 37.820312 -16.898438 39.1875 -14.359375 C 40.5625 -11.828125 42.742188 -10.5625 45.734375 -10.5625 C 48.472656 -10.5625 51.207031 -11.601562 53.9375 -13.6875 C 56.675781 -15.769531 59.09375 -18.632812 61.1875 -22.28125 L 61.1875 -76.234375 C 61.1875 -80.015625 60.269531 -82.6875 58.4375 -84.25 C 56.613281 -85.8125 53.75 -86.785156 49.84375 -87.171875 L 49.84375 -90.703125 L 87.953125 -90.703125 L 87.953125 -10.75 C 87.953125 -6.445312 90.171875 -4.035156 94.609375 -3.515625 L 94.609375 0 L 61.1875 0 L 61.1875 -11.734375 C 57.53125 -7.429688 53.488281 -3.941406 49.0625 -1.265625 C 44.632812 1.398438 40.070312 2.734375 35.375 2.734375 C 27.6875 2.734375 21.59375 0.226562 17.09375 -4.78125 C 12.601562 -9.800781 10.359375 -16.484375 10.359375 -24.828125 L 10.359375 -74.859375 C 10.359375 -78.898438 9.835938 -81.832031 8.796875 -83.65625 C 7.753906 -85.476562 5.800781 -86.648438 2.9375 -87.171875 L 2.9375 -90.703125 L 37.140625 -90.703125 Z M 37.140625 -26.78125 "/></g></g></g><g fill="#ffffff" fill-opacity="1"><g transform="translate(3335.928553, 1620.29251)"><g><path d="M 63.71875 -92.84375 C 71.539062 -92.84375 77.503906 -90.203125 81.609375 -84.921875 C 85.710938 -79.648438 87.765625 -73.171875 87.765625 -65.484375 L 87.765625 -18.765625 C 87.765625 -14.984375 87.925781 -12.210938 88.25 -10.453125 C 88.582031 -8.691406 89.171875 -7.351562 90.015625 -6.4375 C 90.859375 -5.53125 92.320312 -4.554688 94.40625 -3.515625 L 94.40625 0 L 52.78125 0 L 52.78125 -3.515625 C 58.25 -4.171875 60.984375 -8.34375 60.984375 -16.03125 L 60.984375 -66.84375 C 60.984375 -75.84375 58.117188 -80.34375 52.390625 -80.34375 C 47.304688 -80.34375 42.351562 -76.628906 37.53125 -69.203125 L 37.53125 -14.859375 C 37.53125 -8.335938 40.265625 -4.554688 45.734375 -3.515625 L 45.734375 0 L 3.328125 0 L 3.328125 -3.515625 C 5.671875 -4.035156 7.492188 -5.207031 8.796875 -7.03125 C 10.097656 -8.851562 10.75 -11.785156 10.75 -15.828125 L 10.75 -75.453125 C 10.75 -78.054688 10.191406 -80.5 9.078125 -82.78125 C 7.972656 -85.0625 6.054688 -86.523438 3.328125 -87.171875 L 3.328125 -90.703125 L 37.53125 -90.703125 L 37.53125 -78.578125 C 41.695312 -83.398438 45.863281 -86.984375 50.03125 -89.328125 C 54.207031 -91.671875 58.769531 -92.84375 63.71875 -92.84375 Z M 63.71875 -92.84375 "/></g></g></g><g fill="#ffffff" fill-opacity="1"><g transform="translate(3433.659492, 1620.29251)"><g><path d="M 49.65625 -92.84375 C 60.851562 -92.84375 69.054688 -90.5625 74.265625 -86 C 79.484375 -81.445312 82.09375 -75.648438 82.09375 -68.609375 L 82.09375 -20.328125 C 82.09375 -13.160156 83.914062 -9.578125 87.5625 -9.578125 C 88.613281 -9.578125 89.492188 -9.867188 90.203125 -10.453125 C 90.921875 -11.046875 91.738281 -12.054688 92.65625 -13.484375 L 94.40625 -11.734375 C 92.582031 -7.296875 89.71875 -3.773438 85.8125 -1.171875 C 81.90625 1.429688 77.539062 2.734375 72.71875 2.734375 C 67.757812 2.734375 63.75 1.5 60.6875 -0.96875 C 57.625 -3.445312 55.832031 -7.097656 55.3125 -11.921875 C 54.53125 -11.398438 53.359375 -10.488281 51.796875 -9.1875 C 47.234375 -5.40625 43 -2.472656 39.09375 -0.390625 C 35.1875 1.691406 30.691406 2.734375 25.609375 2.734375 C 20.523438 2.734375 16.253906 0.910156 12.796875 -2.734375 C 9.347656 -6.378906 7.625 -10.8125 7.625 -16.03125 C 7.625 -22.800781 10.585938 -28.859375 16.515625 -34.203125 C 22.441406 -39.546875 28.925781 -43.847656 35.96875 -47.109375 L 55.3125 -56.484375 L 55.3125 -74.28125 C 55.3125 -77.539062 54.300781 -80.304688 52.28125 -82.578125 C 50.269531 -84.859375 47.113281 -86 42.8125 -86 C 39.03125 -86 35.867188 -85.21875 33.328125 -83.65625 C 30.785156 -82.09375 29.515625 -80.203125 29.515625 -77.984375 C 29.515625 -77.203125 29.742188 -76.421875 30.203125 -75.640625 C 30.660156 -74.859375 31.210938 -74.078125 31.859375 -73.296875 C 33.035156 -71.867188 33.945312 -70.5 34.59375 -69.1875 C 35.25 -67.882812 35.578125 -66.390625 35.578125 -64.703125 C 35.578125 -61.578125 34.398438 -59.035156 32.046875 -57.078125 C 29.703125 -55.117188 26.644531 -54.140625 22.875 -54.140625 C 18.695312 -54.140625 15.304688 -55.25 12.703125 -57.46875 C 10.097656 -59.6875 8.796875 -62.617188 8.796875 -66.265625 C 8.796875 -70.953125 10.648438 -75.347656 14.359375 -79.453125 C 18.078125 -83.554688 23.0625 -86.8125 29.3125 -89.21875 C 35.570312 -91.632812 42.351562 -92.84375 49.65625 -92.84375 Z M 34.203125 -24.4375 C 34.203125 -21.3125 35.082031 -18.769531 36.84375 -16.8125 C 38.601562 -14.851562 40.851562 -13.875 43.59375 -13.875 C 45.800781 -13.875 47.785156 -14.265625 49.546875 -15.046875 C 51.304688 -15.828125 53.226562 -17.066406 55.3125 -18.765625 L 55.3125 -49.65625 C 41.238281 -42.476562 34.203125 -34.070312 34.203125 -24.4375 Z M 34.203125 -24.4375 "/></g></g></g><g fill="#ffffff" fill-opacity="1"><g transform="translate(3531.390431, 1620.29251)"><g><path d="M 41.046875 -13.09375 C 41.046875 -9.832031 41.828125 -7.421875 43.390625 -5.859375 C 44.953125 -4.296875 47.429688 -3.515625 50.828125 -3.515625 L 50.828125 0 L 2.34375 0 L 2.34375 -3.515625 C 6.382812 -3.515625 9.378906 -4.394531 11.328125 -6.15625 C 13.285156 -7.914062 14.265625 -10.617188 14.265625 -14.265625 L 14.265625 -118.84375 C 14.265625 -123.269531 13.382812 -126.332031 11.625 -128.03125 C 9.863281 -129.726562 6.769531 -130.640625 2.34375 -130.765625 L 2.34375 -134.28125 L 41.046875 -134.28125 Z M 41.046875 -13.09375 "/></g></g></g><g fill="#ffffff" fill-opacity="1"><g transform="translate(3584.360599, 1620.29251)"><g/></g></g><g fill="#ffffff" fill-opacity="1"><g transform="translate(3633.226068, 1620.29251)"><g><path d="M 52.390625 -137.21875 C 58.515625 -137.21875 63.789062 -136.597656 68.21875 -135.359375 C 72.644531 -134.117188 77.53125 -132.394531 82.875 -130.1875 C 84.695312 -129.40625 86.457031 -128.71875 88.15625 -128.125 C 89.851562 -127.539062 91.285156 -127.25 92.453125 -127.25 C 94.535156 -127.25 96.226562 -128.09375 97.53125 -129.78125 C 98.84375 -131.476562 99.5 -133.957031 99.5 -137.21875 L 103.203125 -137.21875 L 103.203125 -93.828125 L 99.5 -93.828125 C 98.1875 -100.734375 95.378906 -106.921875 91.078125 -112.390625 C 86.785156 -117.867188 81.445312 -122.101562 75.0625 -125.09375 C 68.675781 -128.09375 61.832031 -129.59375 54.53125 -129.59375 C 46.582031 -129.59375 40.066406 -127.671875 34.984375 -123.828125 C 29.898438 -119.984375 27.359375 -115.195312 27.359375 -109.46875 C 27.359375 -105.164062 28.859375 -101.515625 31.859375 -98.515625 C 34.859375 -95.515625 38.601562 -93.035156 43.09375 -91.078125 C 47.59375 -89.128906 53.816406 -86.851562 61.765625 -84.25 C 69.710938 -81.644531 76.359375 -79.234375 81.703125 -77.015625 C 87.046875 -74.796875 91.738281 -72.0625 95.78125 -68.8125 C 100.34375 -65.03125 104.085938 -60.53125 107.015625 -55.3125 C 109.953125 -50.101562 111.421875 -44.238281 111.421875 -37.71875 C 111.421875 -29.769531 109.269531 -22.734375 104.96875 -16.609375 C 100.664062 -10.484375 94.632812 -5.726562 86.875 -2.34375 C 79.125 1.039062 70.171875 2.734375 60.015625 2.734375 C 53.628906 2.734375 48.25 2.175781 43.875 1.0625 C 39.507812 -0.0390625 35.050781 -1.503906 30.5 -3.328125 C 26.195312 -5.148438 23.003906 -6.0625 20.921875 -6.0625 C 18.566406 -6.0625 16.539062 -5.34375 14.84375 -3.90625 C 13.15625 -2.476562 11.660156 -0.265625 10.359375 2.734375 L 6.640625 2.734375 L 6.640625 -46.515625 L 10.359375 -46.515625 C 12.703125 -33.484375 18.269531 -23.15625 27.0625 -15.53125 C 35.863281 -7.914062 46.519531 -4.109375 59.03125 -4.109375 C 68.414062 -4.109375 75.84375 -6.03125 81.3125 -9.875 C 86.789062 -13.71875 89.53125 -18.894531 89.53125 -25.40625 C 89.53125 -30.488281 87.929688 -34.789062 84.734375 -38.3125 C 81.546875 -41.832031 77.570312 -44.695312 72.8125 -46.90625 C 68.050781 -49.125 61.632812 -51.601562 53.5625 -54.34375 C 43.519531 -57.863281 35.40625 -61.15625 29.21875 -64.21875 C 23.03125 -67.28125 17.753906 -71.578125 13.390625 -77.109375 C 9.023438 -82.648438 6.84375 -89.65625 6.84375 -98.125 C 6.84375 -105.550781 8.796875 -112.226562 12.703125 -118.15625 C 16.609375 -124.082031 22.015625 -128.738281 28.921875 -132.125 C 35.835938 -135.519531 43.660156 -137.21875 52.390625 -137.21875 Z M 52.390625 -137.21875 "/></g></g></g><g fill="#ffffff" fill-opacity="1"><g transform="translate(3751.285044, 1620.29251)"><g><path d="M 37.140625 -26.78125 C 37.140625 -21.039062 37.820312 -16.898438 39.1875 -14.359375 C 40.5625 -11.828125 42.742188 -10.5625 45.734375 -10.5625 C 48.472656 -10.5625 51.207031 -11.601562 53.9375 -13.6875 C 56.675781 -15.769531 59.09375 -18.632812 61.1875 -22.28125 L 61.1875 -76.234375 C 61.1875 -80.015625 60.269531 -82.6875 58.4375 -84.25 C 56.613281 -85.8125 53.75 -86.785156 49.84375 -87.171875 L 49.84375 -90.703125 L 87.953125 -90.703125 L 87.953125 -10.75 C 87.953125 -6.445312 90.171875 -4.035156 94.609375 -3.515625 L 94.609375 0 L 61.1875 0 L 61.1875 -11.734375 C 57.53125 -7.429688 53.488281 -3.941406 49.0625 -1.265625 C 44.632812 1.398438 40.070312 2.734375 35.375 2.734375 C 27.6875 2.734375 21.59375 0.226562 17.09375 -4.78125 C 12.601562 -9.800781 10.359375 -16.484375 10.359375 -24.828125 L 10.359375 -74.859375 C 10.359375 -78.898438 9.835938 -81.832031 8.796875 -83.65625 C 7.753906 -85.476562 5.800781 -86.648438 2.9375 -87.171875 L 2.9375 -90.703125 L 37.140625 -90.703125 Z M 37.140625 -26.78125 "/></g></g></g><g fill="#ffffff" fill-opacity="1"><g transform="translate(3849.015983, 1620.29251)"><g><path d="M 61.578125 -92.84375 C 67.566406 -92.84375 72.9375 -90.757812 77.6875 -86.59375 C 82.445312 -82.425781 86.195312 -76.722656 88.9375 -69.484375 C 91.675781 -62.253906 93.046875 -54.078125 93.046875 -44.953125 C 93.046875 -34.265625 91.253906 -25.335938 87.671875 -18.171875 C 84.085938 -11.003906 79.71875 -5.726562 74.5625 -2.34375 C 69.414062 1.039062 64.367188 2.734375 59.421875 2.734375 C 51.597656 2.734375 45.410156 -0.71875 40.859375 -7.625 L 40.46875 -7.625 L 40.46875 26.390625 C 40.46875 30.816406 41.410156 33.8125 43.296875 35.375 C 45.179688 36.9375 48.796875 37.785156 54.140625 37.921875 L 54.140625 41.4375 L 2.9375 41.4375 L 2.9375 37.921875 C 6.707031 37.921875 9.441406 37.007812 11.140625 35.1875 C 12.835938 33.363281 13.6875 30.363281 13.6875 26.1875 L 13.6875 -75.453125 C 13.6875 -79.753906 12.804688 -82.78125 11.046875 -84.53125 C 9.285156 -86.289062 6.582031 -87.171875 2.9375 -87.171875 L 2.9375 -90.703125 L 40.46875 -90.703125 L 40.46875 -79.953125 L 40.859375 -79.953125 C 46.066406 -88.546875 52.972656 -92.84375 61.578125 -92.84375 Z M 40.46875 -69.59375 L 40.46875 -16.21875 C 45.539062 -9.832031 50.035156 -6.640625 53.953125 -6.640625 C 58.117188 -6.640625 60.984375 -9.410156 62.546875 -14.953125 C 64.109375 -20.492188 64.890625 -30.101562 64.890625 -43.78125 C 64.890625 -56.945312 63.945312 -66.460938 62.0625 -72.328125 C 60.175781 -78.191406 57.015625 -81.125 52.578125 -81.125 C 50.234375 -81.125 47.953125 -79.945312 45.734375 -77.59375 C 43.523438 -75.25 41.769531 -72.582031 40.46875 -69.59375 Z M 40.46875 -69.59375 "/></g></g></g><g fill="#ffffff" fill-opacity="1"><g transform="translate(3946.746921, 1620.29251)"><g><path d="M 60.59375 -92.84375 C 63.71875 -92.84375 66.257812 -91.632812 68.21875 -89.21875 C 70.175781 -86.8125 71.15625 -83.722656 71.15625 -79.953125 C 71.15625 -75.910156 70.175781 -72.648438 68.21875 -70.171875 C 66.257812 -67.691406 63.585938 -66.453125 60.203125 -66.453125 C 58.640625 -66.453125 57.269531 -66.773438 56.09375 -67.421875 C 54.925781 -68.078125 53.492188 -68.992188 51.796875 -70.171875 C 49.316406 -71.867188 47.492188 -72.71875 46.328125 -72.71875 C 44.242188 -72.71875 42.484375 -71.019531 41.046875 -67.625 C 39.609375 -64.238281 38.890625 -60.394531 38.890625 -56.09375 L 38.890625 -15.4375 C 38.890625 -11.132812 39.738281 -8.070312 41.4375 -6.25 C 43.132812 -4.425781 46.195312 -3.515625 50.625 -3.515625 L 50.625 0 L 2.15625 0 L 2.15625 -3.515625 C 8.800781 -3.515625 12.125 -7.425781 12.125 -15.25 L 12.125 -75.453125 C 12.125 -83.140625 8.800781 -87.046875 2.15625 -87.171875 L 2.15625 -90.703125 L 38.890625 -90.703125 L 38.890625 -74.46875 L 39.296875 -74.46875 C 45.410156 -86.71875 52.507812 -92.84375 60.59375 -92.84375 Z M 60.59375 -92.84375 "/></g></g></g><g fill="#ffffff" fill-opacity="1"><g transform="translate(4021.999746, 1620.29251)"><g><path d="M 45.34375 -92.84375 C 53.289062 -92.84375 59.96875 -90.820312 65.375 -86.78125 C 70.789062 -82.75 74.863281 -77.570312 77.59375 -71.25 C 80.332031 -64.925781 81.769531 -58.378906 81.90625 -51.609375 L 81.90625 -48.28125 L 30.5 -48.28125 C 31.28125 -37.46875 34.113281 -28.738281 39 -22.09375 C 43.882812 -15.445312 49.972656 -12.125 57.265625 -12.125 C 61.960938 -12.125 65.972656 -13.394531 69.296875 -15.9375 C 72.617188 -18.476562 75.648438 -22.15625 78.390625 -26.96875 L 81.90625 -24.828125 C 77.46875 -15.441406 72.1875 -8.5 66.0625 -4 C 59.9375 0.488281 52.707031 2.734375 44.375 2.734375 C 36.03125 2.734375 28.894531 0.679688 22.96875 -3.421875 C 17.039062 -7.523438 12.507812 -13.09375 9.375 -20.125 C 6.25 -27.164062 4.6875 -35.050781 4.6875 -43.78125 C 4.6875 -52.507812 6.507812 -60.617188 10.15625 -68.109375 C 13.8125 -75.609375 18.765625 -81.601562 25.015625 -86.09375 C 31.273438 -90.59375 38.050781 -92.84375 45.34375 -92.84375 Z M 58.046875 -59.625 C 58.046875 -68.875 57.035156 -75.710938 55.015625 -80.140625 C 53.003906 -84.566406 49.78125 -86.78125 45.34375 -86.78125 C 40.65625 -86.78125 37.007812 -83.878906 34.40625 -78.078125 C 31.800781 -72.285156 30.5 -65.609375 30.5 -58.046875 L 30.5 -54.734375 L 58.046875 -54.734375 Z M 58.046875 -59.625 "/></g></g></g><g fill="#ffffff" fill-opacity="1"><g transform="translate(4107.612046, 1620.29251)"><g><path d="M 64.703125 -92.84375 C 70.691406 -92.84375 75.671875 -91.375 79.640625 -88.4375 C 83.617188 -85.507812 86.195312 -81.441406 87.375 -76.234375 C 91.019531 -81.578125 95.316406 -85.679688 100.265625 -88.546875 C 105.222656 -91.410156 110.375 -92.84375 115.71875 -92.84375 C 123.40625 -92.84375 129.269531 -90.429688 133.3125 -85.609375 C 137.351562 -80.796875 139.375 -74.929688 139.375 -68.015625 L 139.375 -13.875 C 139.375 -10.875 140.054688 -8.429688 141.421875 -6.546875 C 142.785156 -4.660156 144.96875 -3.648438 147.96875 -3.515625 L 147.96875 0 L 104.1875 0 L 104.1875 -3.515625 C 107.570312 -3.648438 109.816406 -4.53125 110.921875 -6.15625 C 112.035156 -7.78125 112.59375 -10.679688 112.59375 -14.859375 L 112.59375 -70.171875 C 112.59375 -72.253906 112.003906 -74.4375 110.828125 -76.71875 C 109.660156 -79 107.640625 -80.140625 104.765625 -80.140625 C 102.035156 -80.140625 99.492188 -79.257812 97.140625 -77.5 C 94.796875 -75.738281 92.0625 -72.644531 88.9375 -68.21875 L 88.9375 -15.25 C 88.9375 -8.207031 91.738281 -4.296875 97.34375 -3.515625 L 97.34375 0 L 53.953125 0 L 53.953125 -3.515625 C 59.421875 -4.171875 62.15625 -8.273438 62.15625 -15.828125 L 62.15625 -69.203125 C 62.15625 -72.191406 61.503906 -74.726562 60.203125 -76.8125 C 58.898438 -78.90625 56.75 -79.953125 53.75 -79.953125 C 48.664062 -79.953125 43.582031 -76.039062 38.5 -68.21875 L 38.5 -15.4375 C 38.5 -8.269531 41.367188 -4.296875 47.109375 -3.515625 L 47.109375 0 L 2.734375 0 L 2.734375 -3.515625 C 5.859375 -3.910156 8.140625 -4.984375 9.578125 -6.734375 C 11.015625 -8.492188 11.734375 -11.59375 11.734375 -16.03125 L 11.734375 -74.078125 C 11.734375 -78.773438 10.945312 -82.066406 9.375 -83.953125 C 7.8125 -85.835938 5.597656 -86.910156 2.734375 -87.171875 L 2.734375 -90.703125 L 38.5 -90.703125 L 38.5 -77.984375 L 38.890625 -77.984375 C 42.929688 -83.203125 47.035156 -86.984375 51.203125 -89.328125 C 55.378906 -91.671875 59.878906 -92.84375 64.703125 -92.84375 Z M 64.703125 -92.84375 "/></g></g></g><g fill="#ffffff" fill-opacity="1"><g transform="translate(4258.313191, 1620.29251)"><g><path d="M 48.46875 -92.84375 C 56.425781 -92.84375 63.691406 -90.953125 70.265625 -87.171875 C 76.847656 -83.398438 82.125 -77.894531 86.09375 -70.65625 C 90.070312 -63.425781 92.0625 -54.796875 92.0625 -44.765625 C 92.0625 -34.078125 89.847656 -25.179688 85.421875 -18.078125 C 80.992188 -10.972656 75.488281 -5.726562 68.90625 -2.34375 C 62.320312 1.039062 55.773438 2.734375 49.265625 2.734375 C 42.085938 2.734375 35.144531 0.878906 28.4375 -2.828125 C 21.726562 -6.546875 16.253906 -12.019531 12.015625 -19.25 C 7.785156 -26.488281 5.671875 -35.1875 5.671875 -45.34375 C 5.671875 -54.46875 7.492188 -62.613281 11.140625 -69.78125 C 14.785156 -76.945312 19.863281 -82.582031 26.375 -86.6875 C 32.894531 -90.789062 40.257812 -92.84375 48.46875 -92.84375 Z M 33.8125 -49.265625 C 33.8125 -37.535156 34.203125 -28.507812 34.984375 -22.1875 C 35.765625 -15.863281 37.226562 -11.269531 39.375 -8.40625 C 41.53125 -5.539062 44.691406 -4.109375 48.859375 -4.109375 C 52.640625 -4.109375 55.640625 -5.28125 57.859375 -7.625 C 60.078125 -9.96875 61.640625 -13.773438 62.546875 -19.046875 C 63.460938 -24.328125 63.921875 -31.53125 63.921875 -40.65625 C 63.921875 -52.382812 63.59375 -61.34375 62.9375 -67.53125 C 62.289062 -73.71875 60.859375 -78.34375 58.640625 -81.40625 C 56.421875 -84.46875 53.03125 -86 48.46875 -86 C 42.738281 -86 38.863281 -82.90625 36.84375 -76.71875 C 34.820312 -70.53125 33.8125 -61.378906 33.8125 -49.265625 Z M 33.8125 -49.265625 "/></g></g></g><g fill="#ffffff" fill-opacity="1"><g transform="translate(4356.04413, 1620.29251)"><g/></g></g><g fill="#ffffff" fill-opacity="1"><g transform="translate(4404.909681, 1620.29251)"><g><path d="M 116.6875 -95.96875 L 113.171875 -95.96875 C 111.347656 -106.132812 107.695312 -113.851562 102.21875 -119.125 C 96.75 -124.40625 89.585938 -127.046875 80.734375 -127.046875 L 54.34375 -127.046875 L 54.34375 -72.125 L 58.4375 -72.125 C 63.394531 -72.125 67.46875 -72.90625 70.65625 -74.46875 C 73.851562 -76.03125 76.554688 -79.0625 78.765625 -83.5625 C 80.984375 -88.0625 82.613281 -94.476562 83.65625 -102.8125 L 87.171875 -102.8125 L 87.171875 -34.59375 L 83.65625 -34.59375 C 82.226562 -46.457031 79.460938 -54.472656 75.359375 -58.640625 C 71.253906 -62.804688 65.878906 -64.890625 59.234375 -64.890625 L 54.34375 -64.890625 L 54.34375 -21.703125 C 54.34375 -16.097656 55.1875 -12.285156 56.875 -10.265625 C 58.570312 -8.242188 61.832031 -7.234375 66.65625 -7.234375 L 80.734375 -7.234375 C 92.203125 -7.234375 101.191406 -10.328125 107.703125 -16.515625 C 114.222656 -22.703125 119.175781 -31.007812 122.5625 -41.4375 L 126.078125 -41.4375 L 120.015625 0 L 3.515625 0 L 3.515625 -3.515625 L 8.015625 -3.515625 C 12.578125 -3.515625 15.929688 -4.195312 18.078125 -5.5625 C 20.234375 -6.9375 21.601562 -8.726562 22.1875 -10.9375 C 22.769531 -13.15625 23.0625 -16.15625 23.0625 -19.9375 L 23.0625 -114.734375 C 23.0625 -121.117188 21.59375 -125.351562 18.65625 -127.4375 C 15.726562 -129.53125 10.679688 -130.640625 3.515625 -130.765625 L 3.515625 -134.28125 L 116.6875 -134.28125 Z M 116.6875 -95.96875 "/></g></g></g><g fill="#ffffff" fill-opacity="1"><g transform="translate(4535.282711, 1620.29251)"><g><path d="M 41.046875 -13.09375 C 41.046875 -9.832031 41.828125 -7.421875 43.390625 -5.859375 C 44.953125 -4.296875 47.429688 -3.515625 50.828125 -3.515625 L 50.828125 0 L 2.34375 0 L 2.34375 -3.515625 C 6.382812 -3.515625 9.378906 -4.394531 11.328125 -6.15625 C 13.285156 -7.914062 14.265625 -10.617188 14.265625 -14.265625 L 14.265625 -118.84375 C 14.265625 -123.269531 13.382812 -126.332031 11.625 -128.03125 C 9.863281 -129.726562 6.769531 -130.640625 2.34375 -130.765625 L 2.34375 -134.28125 L 41.046875 -134.28125 Z M 41.046875 -13.09375 "/></g></g></g><g fill="#ffffff" fill-opacity="1"><g transform="translate(4588.252921, 1620.29251)"><g><path d="M 45.34375 -92.84375 C 53.289062 -92.84375 59.96875 -90.820312 65.375 -86.78125 C 70.789062 -82.75 74.863281 -77.570312 77.59375 -71.25 C 80.332031 -64.925781 81.769531 -58.378906 81.90625 -51.609375 L 81.90625 -48.28125 L 30.5 -48.28125 C 31.28125 -37.46875 34.113281 -28.738281 39 -22.09375 C 43.882812 -15.445312 49.972656 -12.125 57.265625 -12.125 C 61.960938 -12.125 65.972656 -13.394531 69.296875 -15.9375 C 72.617188 -18.476562 75.648438 -22.15625 78.390625 -26.96875 L 81.90625 -24.828125 C 77.46875 -15.441406 72.1875 -8.5 66.0625 -4 C 59.9375 0.488281 52.707031 2.734375 44.375 2.734375 C 36.03125 2.734375 28.894531 0.679688 22.96875 -3.421875 C 17.039062 -7.523438 12.507812 -13.09375 9.375 -20.125 C 6.25 -27.164062 4.6875 -35.050781 4.6875 -43.78125 C 4.6875 -52.507812 6.507812 -60.617188 10.15625 -68.109375 C 13.8125 -75.609375 18.765625 -81.601562 25.015625 -86.09375 C 31.273438 -90.59375 38.050781 -92.84375 45.34375 -92.84375 Z M 58.046875 -59.625 C 58.046875 -68.875 57.035156 -75.710938 55.015625 -80.140625 C 53.003906 -84.566406 49.78125 -86.78125 45.34375 -86.78125 C 40.65625 -86.78125 37.007812 -83.878906 34.40625 -78.078125 C 31.800781 -72.285156 30.5 -65.609375 30.5 -58.046875 L 30.5 -54.734375 L 58.046875 -54.734375 Z M 58.046875 -59.625 "/></g></g></g><g fill="#ffffff" fill-opacity="1"><g transform="translate(4673.865221, 1620.29251)"><g><path d="M 49.265625 -92.84375 C 54.992188 -92.84375 60.269531 -91.800781 65.09375 -89.71875 C 69.914062 -87.632812 73.726562 -84.863281 76.53125 -81.40625 C 79.332031 -77.957031 80.734375 -74.148438 80.734375 -69.984375 C 80.734375 -66.585938 79.59375 -63.78125 77.3125 -61.5625 C 75.03125 -59.351562 72.195312 -58.25 68.8125 -58.25 C 63.851562 -58.25 60.003906 -60.398438 57.265625 -64.703125 C 56.222656 -66.265625 55.503906 -67.828125 55.109375 -69.390625 C 54.722656 -70.953125 54.398438 -72.84375 54.140625 -75.0625 C 53.878906 -77.28125 53.585938 -79.003906 53.265625 -80.234375 C 52.941406 -81.472656 52.320312 -82.550781 51.40625 -83.46875 C 49.707031 -85.15625 47.625 -86 45.15625 -86 C 39.9375 -86 36.15625 -83.226562 33.8125 -77.6875 C 31.46875 -72.15625 30.296875 -65.476562 30.296875 -57.65625 C 30.296875 -51.40625 31.238281 -44.789062 33.125 -37.8125 C 35.019531 -30.84375 38.113281 -24.847656 42.40625 -19.828125 C 46.707031 -14.816406 52.1875 -12.3125 58.84375 -12.3125 C 63.007812 -12.3125 66.585938 -12.992188 69.578125 -14.359375 C 72.578125 -15.734375 76.097656 -18.570312 80.140625 -22.875 L 83.265625 -20.71875 C 79.097656 -13.15625 73.851562 -7.351562 67.53125 -3.3125 C 61.207031 0.71875 54.140625 2.734375 46.328125 2.734375 C 38.378906 2.734375 31.242188 0.78125 24.921875 -3.125 C 18.597656 -7.03125 13.644531 -12.46875 10.0625 -19.4375 C 6.476562 -26.414062 4.6875 -34.335938 4.6875 -43.203125 C 4.6875 -52.453125 6.640625 -60.890625 10.546875 -68.515625 C 14.460938 -76.140625 19.804688 -82.097656 26.578125 -86.390625 C 33.359375 -90.691406 40.921875 -92.84375 49.265625 -92.84375 Z M 49.265625 -92.84375 "/></g></g></g><g fill="#ffffff" fill-opacity="1"><g transform="translate(4759.477521, 1620.29251)"><g><path d="M 37.921875 -123.34375 L 41.25 -123.34375 L 41.25 -90.703125 L 61.96875 -90.703125 L 61.96875 -80.921875 L 41.25 -80.921875 L 41.25 -18.375 C 41.25 -15.894531 41.769531 -13.613281 42.8125 -11.53125 C 43.851562 -9.445312 45.675781 -8.40625 48.28125 -8.40625 C 52.707031 -8.40625 56.488281 -11.46875 59.625 -17.59375 L 61.96875 -14.46875 C 56.75 -3 48.472656 2.734375 37.140625 2.734375 C 29.835938 2.734375 24.234375 0.453125 20.328125 -4.109375 C 16.421875 -8.671875 14.46875 -14.207031 14.46875 -20.71875 L 14.46875 -80.921875 L 3.328125 -80.921875 L 3.328125 -84.4375 C 9.578125 -88.875 16.347656 -95.195312 23.640625 -103.40625 C 30.941406 -111.613281 35.703125 -118.257812 37.921875 -123.34375 Z M 37.921875 -123.34375 "/></g></g></g><g fill="#ffffff" fill-opacity="1"><g transform="translate(4824.566368, 1620.29251)"><g><path d="M 48.46875 -92.84375 C 56.425781 -92.84375 63.691406 -90.953125 70.265625 -87.171875 C 76.847656 -83.398438 82.125 -77.894531 86.09375 -70.65625 C 90.070312 -63.425781 92.0625 -54.796875 92.0625 -44.765625 C 92.0625 -34.078125 89.847656 -25.179688 85.421875 -18.078125 C 80.992188 -10.972656 75.488281 -5.726562 68.90625 -2.34375 C 62.320312 1.039062 55.773438 2.734375 49.265625 2.734375 C 42.085938 2.734375 35.144531 0.878906 28.4375 -2.828125 C 21.726562 -6.546875 16.253906 -12.019531 12.015625 -19.25 C 7.785156 -26.488281 5.671875 -35.1875 5.671875 -45.34375 C 5.671875 -54.46875 7.492188 -62.613281 11.140625 -69.78125 C 14.785156 -76.945312 19.863281 -82.582031 26.375 -86.6875 C 32.894531 -90.789062 40.257812 -92.84375 48.46875 -92.84375 Z M 33.8125 -49.265625 C 33.8125 -37.535156 34.203125 -28.507812 34.984375 -22.1875 C 35.765625 -15.863281 37.226562 -11.269531 39.375 -8.40625 C 41.53125 -5.539062 44.691406 -4.109375 48.859375 -4.109375 C 52.640625 -4.109375 55.640625 -5.28125 57.859375 -7.625 C 60.078125 -9.96875 61.640625 -13.773438 62.546875 -19.046875 C 63.460938 -24.328125 63.921875 -31.53125 63.921875 -40.65625 C 63.921875 -52.382812 63.59375 -61.34375 62.9375 -67.53125 C 62.289062 -73.71875 60.859375 -78.34375 58.640625 -81.40625 C 56.421875 -84.46875 53.03125 -86 48.46875 -86 C 42.738281 -86 38.863281 -82.90625 36.84375 -76.71875 C 34.820312 -70.53125 33.8125 -61.378906 33.8125 -49.265625 Z M 33.8125 -49.265625 "/></g></g></g><g fill="#ffffff" fill-opacity="1"><g transform="translate(4922.297307, 1620.29251)"><g><path d="M 60.59375 -92.84375 C 63.71875 -92.84375 66.257812 -91.632812 68.21875 -89.21875 C 70.175781 -86.8125 71.15625 -83.722656 71.15625 -79.953125 C 71.15625 -75.910156 70.175781 -72.648438 68.21875 -70.171875 C 66.257812 -67.691406 63.585938 -66.453125 60.203125 -66.453125 C 58.640625 -66.453125 57.269531 -66.773438 56.09375 -67.421875 C 54.925781 -68.078125 53.492188 -68.992188 51.796875 -70.171875 C 49.316406 -71.867188 47.492188 -72.71875 46.328125 -72.71875 C 44.242188 -72.71875 42.484375 -71.019531 41.046875 -67.625 C 39.609375 -64.238281 38.890625 -60.394531 38.890625 -56.09375 L 38.890625 -15.4375 C 38.890625 -11.132812 39.738281 -8.070312 41.4375 -6.25 C 43.132812 -4.425781 46.195312 -3.515625 50.625 -3.515625 L 50.625 0 L 2.15625 0 L 2.15625 -3.515625 C 8.800781 -3.515625 12.125 -7.425781 12.125 -15.25 L 12.125 -75.453125 C 12.125 -83.140625 8.800781 -87.046875 2.15625 -87.171875 L 2.15625 -90.703125 L 38.890625 -90.703125 L 38.890625 -74.46875 L 39.296875 -74.46875 C 45.410156 -86.71875 52.507812 -92.84375 60.59375 -92.84375 Z M 60.59375 -92.84375 "/></g></g></g><g fill="#ffffff" fill-opacity="1"><g transform="translate(4997.550131, 1620.29251)"><g><path d="M 49.65625 -92.84375 C 60.851562 -92.84375 69.054688 -90.5625 74.265625 -86 C 79.484375 -81.445312 82.09375 -75.648438 82.09375 -68.609375 L 82.09375 -20.328125 C 82.09375 -13.160156 83.914062 -9.578125 87.5625 -9.578125 C 88.613281 -9.578125 89.492188 -9.867188 90.203125 -10.453125 C 90.921875 -11.046875 91.738281 -12.054688 92.65625 -13.484375 L 94.40625 -11.734375 C 92.582031 -7.296875 89.71875 -3.773438 85.8125 -1.171875 C 81.90625 1.429688 77.539062 2.734375 72.71875 2.734375 C 67.757812 2.734375 63.75 1.5 60.6875 -0.96875 C 57.625 -3.445312 55.832031 -7.097656 55.3125 -11.921875 C 54.53125 -11.398438 53.359375 -10.488281 51.796875 -9.1875 C 47.234375 -5.40625 43 -2.472656 39.09375 -0.390625 C 35.1875 1.691406 30.691406 2.734375 25.609375 2.734375 C 20.523438 2.734375 16.253906 0.910156 12.796875 -2.734375 C 9.347656 -6.378906 7.625 -10.8125 7.625 -16.03125 C 7.625 -22.800781 10.585938 -28.859375 16.515625 -34.203125 C 22.441406 -39.546875 28.925781 -43.847656 35.96875 -47.109375 L 55.3125 -56.484375 L 55.3125 -74.28125 C 55.3125 -77.539062 54.300781 -80.304688 52.28125 -82.578125 C 50.269531 -84.859375 47.113281 -86 42.8125 -86 C 39.03125 -86 35.867188 -85.21875 33.328125 -83.65625 C 30.785156 -82.09375 29.515625 -80.203125 29.515625 -77.984375 C 29.515625 -77.203125 29.742188 -76.421875 30.203125 -75.640625 C 30.660156 -74.859375 31.210938 -74.078125 31.859375 -73.296875 C 33.035156 -71.867188 33.945312 -70.5 34.59375 -69.1875 C 35.25 -67.882812 35.578125 -66.390625 35.578125 -64.703125 C 35.578125 -61.578125 34.398438 -59.035156 32.046875 -57.078125 C 29.703125 -55.117188 26.644531 -54.140625 22.875 -54.140625 C 18.695312 -54.140625 15.304688 -55.25 12.703125 -57.46875 C 10.097656 -59.6875 8.796875 -62.617188 8.796875 -66.265625 C 8.796875 -70.953125 10.648438 -75.347656 14.359375 -79.453125 C 18.078125 -83.554688 23.0625 -86.8125 29.3125 -89.21875 C 35.570312 -91.632812 42.351562 -92.84375 49.65625 -92.84375 Z M 34.203125 -24.4375 C 34.203125 -21.3125 35.082031 -18.769531 36.84375 -16.8125 C 38.601562 -14.851562 40.851562 -13.875 43.59375 -13.875 C 45.800781 -13.875 47.785156 -14.265625 49.546875 -15.046875 C 51.304688 -15.828125 53.226562 -17.066406 55.3125 -18.765625 L 55.3125 -49.65625 C 41.238281 -42.476562 34.203125 -34.070312 34.203125 -24.4375 Z M 34.203125 -24.4375 "/></g></g></g><g fill="#ffffff" fill-opacity="1"><g transform="translate(5095.28107, 1620.29251)"><g><path d="M 41.046875 -13.09375 C 41.046875 -9.832031 41.828125 -7.421875 43.390625 -5.859375 C 44.953125 -4.296875 47.429688 -3.515625 50.828125 -3.515625 L 50.828125 0 L 2.34375 0 L 2.34375 -3.515625 C 6.382812 -3.515625 9.378906 -4.394531 11.328125 -6.15625 C 13.285156 -7.914062 14.265625 -10.617188 14.265625 -14.265625 L 14.265625 -118.84375 C 14.265625 -123.269531 13.382812 -126.332031 11.625 -128.03125 C 9.863281 -129.726562 6.769531 -130.640625 2.34375 -130.765625 L 2.34375 -134.28125 L 41.046875 -134.28125 Z M 41.046875 -13.09375 "/></g></g></g><g fill="#ffffff" fill-opacity="1"><g transform="translate(3349.121334, 1893.446788)"><g><path d="M 79.359375 -137.21875 C 86.140625 -137.21875 91.9375 -136.597656 96.75 -135.359375 C 101.570312 -134.117188 106.460938 -132.457031 111.421875 -130.375 C 115.191406 -128.8125 117.863281 -128.03125 119.4375 -128.03125 C 121.90625 -128.03125 123.757812 -128.742188 125 -130.171875 C 126.238281 -131.609375 127.378906 -133.828125 128.421875 -136.828125 L 132.328125 -136.828125 L 132.328125 -91.28125 L 128.421875 -91.28125 C 124.253906 -103.40625 118.0625 -112.820312 109.84375 -119.53125 C 101.632812 -126.238281 92.453125 -129.59375 82.296875 -129.59375 C 70.046875 -129.59375 60.5 -123.789062 53.65625 -112.1875 C 46.8125 -100.59375 43.390625 -84.632812 43.390625 -64.3125 C 43.390625 -39.414062 48.144531 -22.671875 57.65625 -14.078125 C 61.3125 -10.679688 65.320312 -8.171875 69.6875 -6.546875 C 74.050781 -4.921875 78.253906 -4.109375 82.296875 -4.109375 C 88.421875 -4.109375 94.675781 -5.539062 101.0625 -8.40625 L 101.0625 -41.25 C 101.0625 -49.320312 95.910156 -53.359375 85.609375 -53.359375 L 84.25 -53.359375 L 84.25 -56.875 L 147.96875 -56.875 L 147.96875 -53.359375 C 137.539062 -53.359375 132.328125 -49.382812 132.328125 -41.4375 L 132.328125 -8.40625 C 125.816406 -4.882812 118.03125 -2.144531 108.96875 -0.1875 C 99.914062 1.757812 90.765625 2.734375 81.515625 2.734375 C 66.523438 2.734375 53.523438 -0.195312 42.515625 -6.0625 C 31.503906 -11.925781 23.097656 -19.9375 17.296875 -30.09375 C 11.492188 -40.257812 8.59375 -51.597656 8.59375 -64.109375 C 8.59375 -77.273438 11.753906 -89.460938 18.078125 -100.671875 C 24.398438 -111.878906 32.96875 -120.769531 43.78125 -127.34375 C 54.601562 -133.925781 66.460938 -137.21875 79.359375 -137.21875 Z M 79.359375 -137.21875 "/></g></g></g><g fill="#ffffff" fill-opacity="1"><g transform="translate(3499.822493, 1893.446788)"><g><path d="M 37.140625 -26.78125 C 37.140625 -21.039062 37.820312 -16.898438 39.1875 -14.359375 C 40.5625 -11.828125 42.742188 -10.5625 45.734375 -10.5625 C 48.472656 -10.5625 51.207031 -11.601562 53.9375 -13.6875 C 56.675781 -15.769531 59.09375 -18.632812 61.1875 -22.28125 L 61.1875 -76.234375 C 61.1875 -80.015625 60.269531 -82.6875 58.4375 -84.25 C 56.613281 -85.8125 53.75 -86.785156 49.84375 -87.171875 L 49.84375 -90.703125 L 87.953125 -90.703125 L 87.953125 -10.75 C 87.953125 -6.445312 90.171875 -4.035156 94.609375 -3.515625 L 94.609375 0 L 61.1875 0 L 61.1875 -11.734375 C 57.53125 -7.429688 53.488281 -3.941406 49.0625 -1.265625 C 44.632812 1.398438 40.070312 2.734375 35.375 2.734375 C 27.6875 2.734375 21.59375 0.226562 17.09375 -4.78125 C 12.601562 -9.800781 10.359375 -16.484375 10.359375 -24.828125 L 10.359375 -74.859375 C 10.359375 -78.898438 9.835938 -81.832031 8.796875 -83.65625 C 7.753906 -85.476562 5.800781 -86.648438 2.9375 -87.171875 L 2.9375 -90.703125 L 37.140625 -90.703125 Z M 37.140625 -26.78125 "/></g></g></g><g fill="#ffffff" fill-opacity="1"><g transform="translate(3597.553442, 1893.446788)"><g><path d="M 49.65625 -92.84375 C 60.851562 -92.84375 69.054688 -90.5625 74.265625 -86 C 79.484375 -81.445312 82.09375 -75.648438 82.09375 -68.609375 L 82.09375 -20.328125 C 82.09375 -13.160156 83.914062 -9.578125 87.5625 -9.578125 C 88.613281 -9.578125 89.492188 -9.867188 90.203125 -10.453125 C 90.921875 -11.046875 91.738281 -12.054688 92.65625 -13.484375 L 94.40625 -11.734375 C 92.582031 -7.296875 89.71875 -3.773438 85.8125 -1.171875 C 81.90625 1.429688 77.539062 2.734375 72.71875 2.734375 C 67.757812 2.734375 63.75 1.5 60.6875 -0.96875 C 57.625 -3.445312 55.832031 -7.097656 55.3125 -11.921875 C 54.53125 -11.398438 53.359375 -10.488281 51.796875 -9.1875 C 47.234375 -5.40625 43 -2.472656 39.09375 -0.390625 C 35.1875 1.691406 30.691406 2.734375 25.609375 2.734375 C 20.523438 2.734375 16.253906 0.910156 12.796875 -2.734375 C 9.347656 -6.378906 7.625 -10.8125 7.625 -16.03125 C 7.625 -22.800781 10.585938 -28.859375 16.515625 -34.203125 C 22.441406 -39.546875 28.925781 -43.847656 35.96875 -47.109375 L 55.3125 -56.484375 L 55.3125 -74.28125 C 55.3125 -77.539062 54.300781 -80.304688 52.28125 -82.578125 C 50.269531 -84.859375 47.113281 -86 42.8125 -86 C 39.03125 -86 35.867188 -85.21875 33.328125 -83.65625 C 30.785156 -82.09375 29.515625 -80.203125 29.515625 -77.984375 C 29.515625 -77.203125 29.742188 -76.421875 30.203125 -75.640625 C 30.660156 -74.859375 31.210938 -74.078125 31.859375 -73.296875 C 33.035156 -71.867188 33.945312 -70.5 34.59375 -69.1875 C 35.25 -67.882812 35.578125 -66.390625 35.578125 -64.703125 C 35.578125 -61.578125 34.398438 -59.035156 32.046875 -57.078125 C 29.703125 -55.117188 26.644531 -54.140625 22.875 -54.140625 C 18.695312 -54.140625 15.304688 -55.25 12.703125 -57.46875 C 10.097656 -59.6875 8.796875 -62.617188 8.796875 -66.265625 C 8.796875 -70.953125 10.648438 -75.347656 14.359375 -79.453125 C 18.078125 -83.554688 23.0625 -86.8125 29.3125 -89.21875 C 35.570312 -91.632812 42.351562 -92.84375 49.65625 -92.84375 Z M 34.203125 -24.4375 C 34.203125 -21.3125 35.082031 -18.769531 36.84375 -16.8125 C 38.601562 -14.851562 40.851562 -13.875 43.59375 -13.875 C 45.800781 -13.875 47.785156 -14.265625 49.546875 -15.046875 C 51.304688 -15.828125 53.226562 -17.066406 55.3125 -18.765625 L 55.3125 -49.65625 C 41.238281 -42.476562 34.203125 -34.070312 34.203125 -24.4375 Z M 34.203125 -24.4375 "/></g></g></g><g fill="#ffffff" fill-opacity="1"><g transform="translate(3695.284401, 1893.446788)"><g><path d="M 37.921875 -123.34375 L 41.25 -123.34375 L 41.25 -90.703125 L 61.96875 -90.703125 L 61.96875 -80.921875 L 41.25 -80.921875 L 41.25 -18.375 C 41.25 -15.894531 41.769531 -13.613281 42.8125 -11.53125 C 43.851562 -9.445312 45.675781 -8.40625 48.28125 -8.40625 C 52.707031 -8.40625 56.488281 -11.46875 59.625 -17.59375 L 61.96875 -14.46875 C 56.75 -3 48.472656 2.734375 37.140625 2.734375 C 29.835938 2.734375 24.234375 0.453125 20.328125 -4.109375 C 16.421875 -8.671875 14.46875 -14.207031 14.46875 -20.71875 L 14.46875 -80.921875 L 3.328125 -80.921875 L 3.328125 -84.4375 C 9.578125 -88.875 16.347656 -95.195312 23.640625 -103.40625 C 30.941406 -111.613281 35.703125 -118.257812 37.921875 -123.34375 Z M 37.921875 -123.34375 "/></g></g></g><g fill="#ffffff" fill-opacity="1"><g transform="translate(3760.373207, 1893.446788)"><g><path d="M 45.34375 -92.84375 C 53.289062 -92.84375 59.96875 -90.820312 65.375 -86.78125 C 70.789062 -82.75 74.863281 -77.570312 77.59375 -71.25 C 80.332031 -64.925781 81.769531 -58.378906 81.90625 -51.609375 L 81.90625 -48.28125 L 30.5 -48.28125 C 31.28125 -37.46875 34.113281 -28.738281 39 -22.09375 C 43.882812 -15.445312 49.972656 -12.125 57.265625 -12.125 C 61.960938 -12.125 65.972656 -13.394531 69.296875 -15.9375 C 72.617188 -18.476562 75.648438 -22.15625 78.390625 -26.96875 L 81.90625 -24.828125 C 77.46875 -15.441406 72.1875 -8.5 66.0625 -4 C 59.9375 0.488281 52.707031 2.734375 44.375 2.734375 C 36.03125 2.734375 28.894531 0.679688 22.96875 -3.421875 C 17.039062 -7.523438 12.507812 -13.09375 9.375 -20.125 C 6.25 -27.164062 4.6875 -35.050781 4.6875 -43.78125 C 4.6875 -52.507812 6.507812 -60.617188 10.15625 -68.109375 C 13.8125 -75.609375 18.765625 -81.601562 25.015625 -86.09375 C 31.273438 -90.59375 38.050781 -92.84375 45.34375 -92.84375 Z M 58.046875 -59.625 C 58.046875 -68.875 57.035156 -75.710938 55.015625 -80.140625 C 53.003906 -84.566406 49.78125 -86.78125 45.34375 -86.78125 C 40.65625 -86.78125 37.007812 -83.878906 34.40625 -78.078125 C 31.800781 -72.285156 30.5 -65.609375 30.5 -58.046875 L 30.5 -54.734375 L 58.046875 -54.734375 Z M 58.046875 -59.625 "/></g></g></g><g fill="#ffffff" fill-opacity="1"><g transform="translate(3845.985507, 1893.446788)"><g><path d="M 64.703125 -92.84375 C 70.691406 -92.84375 75.671875 -91.375 79.640625 -88.4375 C 83.617188 -85.507812 86.195312 -81.441406 87.375 -76.234375 C 91.019531 -81.578125 95.316406 -85.679688 100.265625 -88.546875 C 105.222656 -91.410156 110.375 -92.84375 115.71875 -92.84375 C 123.40625 -92.84375 129.269531 -90.429688 133.3125 -85.609375 C 137.351562 -80.796875 139.375 -74.929688 139.375 -68.015625 L 139.375 -13.875 C 139.375 -10.875 140.054688 -8.429688 141.421875 -6.546875 C 142.785156 -4.660156 144.96875 -3.648438 147.96875 -3.515625 L 147.96875 0 L 104.1875 0 L 104.1875 -3.515625 C 107.570312 -3.648438 109.816406 -4.53125 110.921875 -6.15625 C 112.035156 -7.78125 112.59375 -10.679688 112.59375 -14.859375 L 112.59375 -70.171875 C 112.59375 -72.253906 112.003906 -74.4375 110.828125 -76.71875 C 109.660156 -79 107.640625 -80.140625 104.765625 -80.140625 C 102.035156 -80.140625 99.492188 -79.257812 97.140625 -77.5 C 94.796875 -75.738281 92.0625 -72.644531 88.9375 -68.21875 L 88.9375 -15.25 C 88.9375 -8.207031 91.738281 -4.296875 97.34375 -3.515625 L 97.34375 0 L 53.953125 0 L 53.953125 -3.515625 C 59.421875 -4.171875 62.15625 -8.273438 62.15625 -15.828125 L 62.15625 -69.203125 C 62.15625 -72.191406 61.503906 -74.726562 60.203125 -76.8125 C 58.898438 -78.90625 56.75 -79.953125 53.75 -79.953125 C 48.664062 -79.953125 43.582031 -76.039062 38.5 -68.21875 L 38.5 -15.4375 C 38.5 -8.269531 41.367188 -4.296875 47.109375 -3.515625 L 47.109375 0 L 2.734375 0 L 2.734375 -3.515625 C 5.859375 -3.910156 8.140625 -4.984375 9.578125 -6.734375 C 11.015625 -8.492188 11.734375 -11.59375 11.734375 -16.03125 L 11.734375 -74.078125 C 11.734375 -78.773438 10.945312 -82.066406 9.375 -83.953125 C 7.8125 -85.835938 5.597656 -86.910156 2.734375 -87.171875 L 2.734375 -90.703125 L 38.5 -90.703125 L 38.5 -77.984375 L 38.890625 -77.984375 C 42.929688 -83.203125 47.035156 -86.984375 51.203125 -89.328125 C 55.378906 -91.671875 59.878906 -92.84375 64.703125 -92.84375 Z M 64.703125 -92.84375 "/></g></g></g><g fill="#ffffff" fill-opacity="1"><g transform="translate(3996.686653, 1893.446788)"><g><path d="M 49.65625 -92.84375 C 60.851562 -92.84375 69.054688 -90.5625 74.265625 -86 C 79.484375 -81.445312 82.09375 -75.648438 82.09375 -68.609375 L 82.09375 -20.328125 C 82.09375 -13.160156 83.914062 -9.578125 87.5625 -9.578125 C 88.613281 -9.578125 89.492188 -9.867188 90.203125 -10.453125 C 90.921875 -11.046875 91.738281 -12.054688 92.65625 -13.484375 L 94.40625 -11.734375 C 92.582031 -7.296875 89.71875 -3.773438 85.8125 -1.171875 C 81.90625 1.429688 77.539062 2.734375 72.71875 2.734375 C 67.757812 2.734375 63.75 1.5 60.6875 -0.96875 C 57.625 -3.445312 55.832031 -7.097656 55.3125 -11.921875 C 54.53125 -11.398438 53.359375 -10.488281 51.796875 -9.1875 C 47.234375 -5.40625 43 -2.472656 39.09375 -0.390625 C 35.1875 1.691406 30.691406 2.734375 25.609375 2.734375 C 20.523438 2.734375 16.253906 0.910156 12.796875 -2.734375 C 9.347656 -6.378906 7.625 -10.8125 7.625 -16.03125 C 7.625 -22.800781 10.585938 -28.859375 16.515625 -34.203125 C 22.441406 -39.546875 28.925781 -43.847656 35.96875 -47.109375 L 55.3125 -56.484375 L 55.3125 -74.28125 C 55.3125 -77.539062 54.300781 -80.304688 52.28125 -82.578125 C 50.269531 -84.859375 47.113281 -86 42.8125 -86 C 39.03125 -86 35.867188 -85.21875 33.328125 -83.65625 C 30.785156 -82.09375 29.515625 -80.203125 29.515625 -77.984375 C 29.515625 -77.203125 29.742188 -76.421875 30.203125 -75.640625 C 30.660156 -74.859375 31.210938 -74.078125 31.859375 -73.296875 C 33.035156 -71.867188 33.945312 -70.5 34.59375 -69.1875 C 35.25 -67.882812 35.578125 -66.390625 35.578125 -64.703125 C 35.578125 -61.578125 34.398438 -59.035156 32.046875 -57.078125 C 29.703125 -55.117188 26.644531 -54.140625 22.875 -54.140625 C 18.695312 -54.140625 15.304688 -55.25 12.703125 -57.46875 C 10.097656 -59.6875 8.796875 -62.617188 8.796875 -66.265625 C 8.796875 -70.953125 10.648438 -75.347656 14.359375 -79.453125 C 18.078125 -83.554688 23.0625 -86.8125 29.3125 -89.21875 C 35.570312 -91.632812 42.351562 -92.84375 49.65625 -92.84375 Z M 34.203125 -24.4375 C 34.203125 -21.3125 35.082031 -18.769531 36.84375 -16.8125 C 38.601562 -14.851562 40.851562 -13.875 43.59375 -13.875 C 45.800781 -13.875 47.785156 -14.265625 49.546875 -15.046875 C 51.304688 -15.828125 53.226562 -17.066406 55.3125 -18.765625 L 55.3125 -49.65625 C 41.238281 -42.476562 34.203125 -34.070312 34.203125 -24.4375 Z M 34.203125 -24.4375 "/></g></g></g><g fill="#ffffff" fill-opacity="1"><g transform="translate(4094.417592, 1893.446788)"><g><path d="M 41.046875 -13.09375 C 41.046875 -9.832031 41.828125 -7.421875 43.390625 -5.859375 C 44.953125 -4.296875 47.429688 -3.515625 50.828125 -3.515625 L 50.828125 0 L 2.34375 0 L 2.34375 -3.515625 C 6.382812 -3.515625 9.378906 -4.394531 11.328125 -6.15625 C 13.285156 -7.914062 14.265625 -10.617188 14.265625 -14.265625 L 14.265625 -118.84375 C 14.265625 -123.269531 13.382812 -126.332031 11.625 -128.03125 C 9.863281 -129.726562 6.769531 -130.640625 2.34375 -130.765625 L 2.34375 -134.28125 L 41.046875 -134.28125 Z M 41.046875 -13.09375 "/></g></g></g><g fill="#ffffff" fill-opacity="1"><g transform="translate(4147.387719, 1893.446788)"><g><path d="M 49.65625 -92.84375 C 60.851562 -92.84375 69.054688 -90.5625 74.265625 -86 C 79.484375 -81.445312 82.09375 -75.648438 82.09375 -68.609375 L 82.09375 -20.328125 C 82.09375 -13.160156 83.914062 -9.578125 87.5625 -9.578125 C 88.613281 -9.578125 89.492188 -9.867188 90.203125 -10.453125 C 90.921875 -11.046875 91.738281 -12.054688 92.65625 -13.484375 L 94.40625 -11.734375 C 92.582031 -7.296875 89.71875 -3.773438 85.8125 -1.171875 C 81.90625 1.429688 77.539062 2.734375 72.71875 2.734375 C 67.757812 2.734375 63.75 1.5 60.6875 -0.96875 C 57.625 -3.445312 55.832031 -7.097656 55.3125 -11.921875 C 54.53125 -11.398438 53.359375 -10.488281 51.796875 -9.1875 C 47.234375 -5.40625 43 -2.472656 39.09375 -0.390625 C 35.1875 1.691406 30.691406 2.734375 25.609375 2.734375 C 20.523438 2.734375 16.253906 0.910156 12.796875 -2.734375 C 9.347656 -6.378906 7.625 -10.8125 7.625 -16.03125 C 7.625 -22.800781 10.585938 -28.859375 16.515625 -34.203125 C 22.441406 -39.546875 28.925781 -43.847656 35.96875 -47.109375 L 55.3125 -56.484375 L 55.3125 -74.28125 C 55.3125 -77.539062 54.300781 -80.304688 52.28125 -82.578125 C 50.269531 -84.859375 47.113281 -86 42.8125 -86 C 39.03125 -86 35.867188 -85.21875 33.328125 -83.65625 C 30.785156 -82.09375 29.515625 -80.203125 29.515625 -77.984375 C 29.515625 -77.203125 29.742188 -76.421875 30.203125 -75.640625 C 30.660156 -74.859375 31.210938 -74.078125 31.859375 -73.296875 C 33.035156 -71.867188 33.945312 -70.5 34.59375 -69.1875 C 35.25 -67.882812 35.578125 -66.390625 35.578125 -64.703125 C 35.578125 -61.578125 34.398438 -59.035156 32.046875 -57.078125 C 29.703125 -55.117188 26.644531 -54.140625 22.875 -54.140625 C 18.695312 -54.140625 15.304688 -55.25 12.703125 -57.46875 C 10.097656 -59.6875 8.796875 -62.617188 8.796875 -66.265625 C 8.796875 -70.953125 10.648438 -75.347656 14.359375 -79.453125 C 18.078125 -83.554688 23.0625 -86.8125 29.3125 -89.21875 C 35.570312 -91.632812 42.351562 -92.84375 49.65625 -92.84375 Z M 34.203125 -24.4375 C 34.203125 -21.3125 35.082031 -18.769531 36.84375 -16.8125 C 38.601562 -14.851562 40.851562 -13.875 43.59375 -13.875 C 45.800781 -13.875 47.785156 -14.265625 49.546875 -15.046875 C 51.304688 -15.828125 53.226562 -17.066406 55.3125 -18.765625 L 55.3125 -49.65625 C 41.238281 -42.476562 34.203125 -34.070312 34.203125 -24.4375 Z M 34.203125 -24.4375 "/></g></g></g><g fill="#ffffff" fill-opacity="1"><g transform="translate(4245.118658, 1893.446788)"><g/></g></g><g fill="#ffffff" fill-opacity="1"><g transform="translate(4293.984127, 1893.446788)"><g><path d="M 78.78125 -137.21875 C 85.550781 -137.21875 91.148438 -136.628906 95.578125 -135.453125 C 100.015625 -134.285156 104.773438 -132.660156 109.859375 -130.578125 C 110.378906 -130.316406 111.710938 -129.757812 113.859375 -128.90625 C 116.003906 -128.0625 117.925781 -127.640625 119.625 -127.640625 C 124.570312 -127.640625 127.632812 -130.769531 128.8125 -137.03125 L 132.71875 -137.03125 L 132.71875 -92.0625 L 128.8125 -92.0625 C 127.769531 -99.488281 125.128906 -105.972656 120.890625 -111.515625 C 116.660156 -117.054688 111.546875 -121.289062 105.546875 -124.21875 C 99.554688 -127.15625 93.429688 -128.625 87.171875 -128.625 C 78.316406 -128.625 70.597656 -125.984375 64.015625 -120.703125 C 57.429688 -115.421875 52.410156 -108.085938 48.953125 -98.703125 C 45.503906 -89.328125 43.78125 -78.707031 43.78125 -66.84375 C 43.78125 -47.6875 47.554688 -32.664062 55.109375 -21.78125 C 62.671875 -10.90625 73.097656 -5.46875 86.390625 -5.46875 C 94.867188 -5.46875 102.492188 -7.488281 109.265625 -11.53125 C 116.046875 -15.570312 122.953125 -21.695312 129.984375 -29.90625 L 129.984375 -19.15625 C 122.691406 -11.46875 115.101562 -5.894531 107.21875 -2.4375 C 99.332031 1.007812 90.304688 2.734375 80.140625 2.734375 C 65.804688 2.734375 53.265625 -0.257812 42.515625 -6.25 C 31.765625 -12.25 23.488281 -20.394531 17.6875 -30.6875 C 11.882812 -40.976562 8.984375 -52.378906 8.984375 -64.890625 C 8.984375 -77.796875 12.144531 -89.785156 18.46875 -100.859375 C 24.789062 -111.941406 33.296875 -120.769531 43.984375 -127.34375 C 54.671875 -133.925781 66.269531 -137.21875 78.78125 -137.21875 Z M 78.78125 -137.21875 "/></g></g></g><g fill="#ffffff" fill-opacity="1"><g transform="translate(4434.521215, 1893.446788)"><g><path d="M 26.578125 -28.734375 C 30.878906 -28.734375 34.5625 -27.203125 37.625 -24.140625 C 40.6875 -21.078125 42.21875 -17.394531 42.21875 -13.09375 C 42.21875 -8.789062 40.6875 -5.078125 37.625 -1.953125 C 34.5625 1.171875 30.878906 2.734375 26.578125 2.734375 C 22.285156 2.734375 18.570312 1.171875 15.4375 -1.953125 C 12.3125 -5.078125 10.75 -8.789062 10.75 -13.09375 C 10.75 -17.394531 12.3125 -21.078125 15.4375 -24.140625 C 18.570312 -27.203125 22.285156 -28.734375 26.578125 -28.734375 Z M 26.578125 -28.734375 "/></g></g></g><g fill="#ffffff" fill-opacity="1"><g transform="translate(4487.491342, 1893.446788)"><g><path d="M 24.828125 -26.78125 L 70.171875 -136.4375 L 72.125 -136.4375 L 117.28125 -26.390625 C 120.28125 -18.960938 123.242188 -13.289062 126.171875 -9.375 C 129.109375 -5.46875 132.921875 -3.515625 137.609375 -3.515625 L 137.609375 0 L 74.859375 0 L 74.859375 -3.515625 C 81.117188 -3.648438 85.289062 -4.140625 87.375 -4.984375 C 89.457031 -5.828125 90.5 -7.75 90.5 -10.75 C 90.5 -11.664062 90.269531 -12.707031 89.8125 -13.875 C 89.363281 -15.050781 89.007812 -16.03125 88.75 -16.8125 L 80.34375 -37.921875 L 37.328125 -37.921875 L 31.28125 -23.265625 C 29.445312 -19.609375 28.53125 -16.414062 28.53125 -13.6875 C 28.53125 -9.644531 30.03125 -6.9375 33.03125 -5.5625 C 36.03125 -4.195312 40.265625 -3.515625 45.734375 -3.515625 L 45.734375 0 L 2.734375 0 L 2.734375 -3.515625 C 7.160156 -3.910156 11.132812 -5.929688 14.65625 -9.578125 C 18.175781 -13.222656 21.566406 -18.957031 24.828125 -26.78125 Z M 77.40625 -45.15625 L 58.84375 -90.109375 L 40.265625 -45.15625 Z M 77.40625 -45.15625 "/></g></g></g><g fill="#ffffff" fill-opacity="1"><g transform="translate(4628.02843, 1893.446788)"><g><path d="M 26.578125 -28.734375 C 30.878906 -28.734375 34.5625 -27.203125 37.625 -24.140625 C 40.6875 -21.078125 42.21875 -17.394531 42.21875 -13.09375 C 42.21875 -8.789062 40.6875 -5.078125 37.625 -1.953125 C 34.5625 1.171875 30.878906 2.734375 26.578125 2.734375 C 22.285156 2.734375 18.570312 1.171875 15.4375 -1.953125 C 12.3125 -5.078125 10.75 -8.789062 10.75 -13.09375 C 10.75 -17.394531 12.3125 -21.078125 15.4375 -24.140625 C 18.570312 -27.203125 22.285156 -28.734375 26.578125 -28.734375 Z M 26.578125 -28.734375 "/></g></g></g><path fill="#ffffff" d="M 4011.5 531.554688 C 4120.945312 531.554688 4230.390625 531.886719 4339.832031 531.265625 C 4360.542969 531.148438 4380.457031 547.507812 4380.300781 571.859375 C 4380.097656 602.734375 4380.320312 633.613281 4380.226562 664.488281 C 4380.152344 688.804688 4363.535156 705.21875 4339.148438 705.222656 C 4269.675781 705.242188 4200.203125 705.222656 4130.734375 705.238281 C 4110.398438 705.238281 4098.5625 717.039062 4098.5625 737.554688 C 4098.527344 859.675781 4098.527344 981.800781 4098.5625 1103.925781 C 4098.5625 1124.75 4110.941406 1136.914062 4132.109375 1136.996094 C 4163.808594 1137.117188 4195.519531 1137.542969 4227.210938 1137.019531 C 4243.453125 1136.753906 4254.53125 1143.621094 4262.054688 1157.363281 C 4284.882812 1199.035156 4307.808594 1240.65625 4330.417969 1282.449219 C 4338.277344 1296.972656 4329.710938 1310.628906 4313.027344 1310.65625 C 4257.890625 1310.746094 4202.753906 1310.691406 4147.617188 1310.691406 C 4002.609375 1310.691406 3857.601562 1310.691406 3712.597656 1310.6875 C 3690.410156 1310.683594 3683.039062 1298.164062 3693.761719 1278.464844 C 3715.042969 1239.386719 3736.65625 1200.492188 3757.628906 1161.253906 C 3766.382812 1144.867188 3778.066406 1136.472656 3797.699219 1137.191406 C 3828.523438 1138.324219 3859.425781 1137.25 3890.296875 1136.996094 C 3911.125 1136.824219 3923.734375 1124.132812 3923.738281 1103.546875 C 3923.742188 981.695312 3923.742188 859.847656 3923.738281 738 C 3923.734375 717.5 3911.492188 705.238281 3891.007812 705.234375 C 3822.367188 705.222656 3753.722656 705.230469 3685.074219 705.226562 C 3657.90625 705.226562 3641.910156 690.046875 3641.460938 662.613281 C 3640.972656 632.84375 3641.0625 603.0625 3641.433594 573.292969 C 3641.792969 544.378906 3663.050781 531.019531 3684.824219 531.183594 C 3793.710938 532 3902.605469 531.554688 4011.5 531.554688 Z M 4011.648438 564.65625 C 3944.105469 564.65625 3876.566406 564.65625 3809.027344 564.65625 C 3778.425781 564.65625 3747.828125 564.691406 3717.222656 564.644531 C 3696.550781 564.617188 3683.59375 577.519531 3683.234375 593.25 C 3682.890625 608.085938 3681.527344 623.023438 3682.710938 637.742188 C 3684.132812 655.445312 3693.15625 665.898438 3707.585938 668.347656 C 3714.191406 669.46875 3721.230469 667.769531 3728.070312 667.761719 C 3793.128906 667.699219 3858.191406 667.6875 3923.25 667.75 C 3945.875 667.773438 3958.417969 680.484375 3958.417969 703.042969 C 3958.417969 845.570312 3958.089844 988.097656 3958.714844 1130.617188 C 3958.832031 1157.351562 3942.335938 1175.464844 3914.378906 1175.003906 C 3880.207031 1174.441406 3846.011719 1175.179688 3811.851562 1174.328125 C 3795.453125 1173.925781 3784.488281 1178.308594 3778.125 1194.929688 C 3771.183594 1213.054688 3761.355469 1230.0625 3753.125 1247.714844 C 3745.652344 1263.726562 3749.679688 1270.984375 3765.84375 1270.988281 C 3929.871094 1271.027344 4093.898438 1271.027344 4257.933594 1270.992188 C 4272.394531 1270.988281 4276.613281 1264.914062 4271.976562 1251.195312 C 4271.191406 1248.867188 4270.054688 1246.648438 4268.972656 1244.421875 C 4259.859375 1225.664062 4250.199219 1207.148438 4241.808594 1188.074219 C 4237.582031 1178.464844 4231.027344 1174.898438 4221.359375 1174.902344 C 4184.433594 1174.914062 4147.503906 1174.910156 4110.574219 1174.898438 C 4079.851562 1174.890625 4064.839844 1160 4064.839844 1129.554688 C 4064.839844 988.132812 4064.839844 846.710938 4064.839844 705.289062 C 4064.839844 680.113281 4077.128906 667.734375 4102.167969 667.730469 C 4165.851562 667.71875 4229.53125 667.710938 4293.210938 667.765625 C 4296.757812 667.769531 4300.324219 668.199219 4303.84375 668.6875 C 4324.773438 671.5625 4340.558594 657.875 4340.601562 636.722656 C 4340.621094 626.523438 4340.664062 616.324219 4340.585938 606.121094 C 4340.539062 600.351562 4341.136719 594.394531 4339.941406 588.847656 C 4336.582031 573.273438 4323.839844 564.667969 4305.242188 564.664062 C 4207.378906 564.644531 4109.515625 564.65625 4011.648438 564.65625 Z M 4011.648438 564.65625 " fill-opacity="1" fill-rule="evenodd"/><path fill="#ffffff" d="M 3860.96875 982.042969 C 3862.570312 968.027344 3852.914062 958.667969 3834.757812 958.417969 C 3800.855469 957.960938 3766.949219 957.992188 3733.050781 957.84375 C 3718.300781 957.78125 3705 953.554688 3693.25 944.492188 C 3682.992188 936.585938 3677.601562 926.410156 3677.707031 913.324219 C 3677.832031 898.164062 3677.910156 882.996094 3677.554688 867.84375 C 3677.5 865.519531 3675.402344 861.613281 3673.625 861.210938 C 3651.980469 856.304688 3642.382812 841.496094 3641.601562 820.878906 C 3640.875 801.664062 3641.359375 782.328125 3642.664062 763.136719 C 3644.003906 743.390625 3660.277344 728.746094 3680.222656 728.675781 C 3742.246094 728.441406 3804.273438 728.402344 3866.300781 728.691406 C 3887.722656 728.789062 3903.828125 746.027344 3903.859375 767.574219 C 3903.886719 785.492188 3903 803.464844 3904.097656 821.316406 C 3905.3125 841.101562 3889.046875 862.300781 3863.003906 862.027344 C 3818.628906 861.554688 3774.238281 861.894531 3729.855469 861.894531 C 3726.898438 861.894531 3723.9375 861.894531 3719.304688 861.894531 C 3720.179688 876.921875 3720.171875 891.191406 3722.109375 905.195312 C 3723.492188 915.171875 3729.460938 918.761719 3739.726562 918.808594 C 3778.039062 918.96875 3816.355469 918.992188 3854.667969 919.226562 C 3862.347656 919.277344 3870.085938 919.582031 3877.691406 920.566406 C 3892.882812 922.527344 3905.050781 936.214844 3905.226562 952.992188 C 3905.679688 996.542969 3905.796875 1040.105469 3905.269531 1083.652344 C 3905.039062 1102.722656 3887.351562 1118.753906 3868.277344 1118.769531 C 3805.148438 1118.832031 3742.019531 1118.832031 3678.890625 1118.765625 C 3662.074219 1118.75 3644.175781 1104.921875 3643.011719 1088.269531 C 3641.40625 1065.296875 3640.722656 1042.007812 3642.621094 1019.109375 C 3644.6875 994.210938 3660.367188 982.074219 3685.324219 982.054688 C 3740.460938 982.003906 3795.59375 982.039062 3850.730469 982.042969 C 3854 982.042969 3857.273438 982.042969 3860.96875 982.042969 Z M 3775.363281 1021.191406 C 3752.761719 1021.191406 3730.160156 1021.117188 3707.566406 1021.226562 C 3695.464844 1021.285156 3686.152344 1030.269531 3685.507812 1042.289062 C 3685.304688 1046.140625 3685.832031 1050.046875 3685.402344 1053.859375 C 3683.621094 1069.660156 3695.828125 1081.117188 3712.210938 1080.914062 C 3750.785156 1080.4375 3789.390625 1080.082031 3827.953125 1081 C 3854.136719 1081.621094 3866.246094 1075.226562 3864.285156 1044.269531 C 3863.421875 1030.617188 3854.453125 1021.222656 3840.679688 1021.199219 C 3818.90625 1021.167969 3797.132812 1021.191406 3775.363281 1021.191406 Z M 3774.828125 824.53125 C 3796.867188 824.53125 3818.902344 824.59375 3840.9375 824.507812 C 3854.898438 824.457031 3863.953125 815.300781 3864.171875 801.265625 C 3864.222656 797.960938 3864.1875 794.65625 3864.179688 791.347656 C 3864.148438 774.265625 3856.007812 765.964844 3839.171875 765.957031 C 3799.507812 765.9375 3759.816406 766.832031 3720.183594 765.664062 C 3690.765625 764.789062 3684.039062 773.929688 3685.378906 801.433594 C 3686.054688 815.382812 3694.683594 824.464844 3708.71875 824.511719 C 3730.757812 824.589844 3752.792969 824.53125 3774.828125 824.53125 Z M 3774.828125 824.53125 " fill-opacity="1" fill-rule="evenodd"/><path fill="#ffffff" d="M 4121.078125 923.816406 C 4121.078125 873.925781 4121.578125 824.027344 4120.890625 774.140625 C 4120.480469 744.167969 4140.660156 727.851562 4166.851562 728.285156 C 4225 729.25 4283.175781 728.582031 4341.332031 728.589844 C 4367.484375 728.59375 4383.582031 744.570312 4383.59375 770.492188 C 4383.601562 787.859375 4383.671875 805.226562 4383.578125 822.589844 C 4383.457031 843.945312 4366.675781 860.671875 4345.265625 860.707031 C 4306.121094 860.777344 4266.980469 860.753906 4227.835938 860.714844 C 4213.824219 860.703125 4203.414062 851.914062 4203.453125 840.300781 C 4203.488281 828.90625 4214.160156 819.65625 4227.796875 819.605469 C 4257.84375 819.496094 4287.890625 819.601562 4317.933594 819.554688 C 4333.851562 819.53125 4341.617188 811.003906 4342.5625 795.21875 C 4343.941406 772.257812 4330.371094 764.238281 4312.445312 764.667969 C 4287.648438 765.261719 4262.832031 764.679688 4238.023438 764.867188 C 4221.246094 764.992188 4204.472656 765.597656 4187.695312 765.945312 C 4173.914062 766.226562 4165.167969 774.792969 4165.109375 788.746094 C 4164.976562 822.101562 4165.570312 855.464844 4164.902344 888.804688 C 4164.335938 917.289062 4168.863281 919.777344 4195.222656 918.945312 C 4214.769531 918.328125 4234.359375 918.746094 4253.929688 918.859375 C 4265.335938 918.925781 4274.90625 925.207031 4277.304688 933.824219 C 4280.625 945.722656 4270.039062 958.246094 4256.277344 958.328125 C 4232.019531 958.464844 4207.761719 958.359375 4183.5 958.367188 C 4169.410156 958.371094 4165.09375 962.53125 4165.070312 976.332031 C 4165.03125 1001.417969 4165.007812 1026.503906 4165.082031 1051.589844 C 4165.132812 1067.589844 4173.550781 1075.964844 4189.425781 1075.972656 C 4232.425781 1075.992188 4275.4375 1075.515625 4318.421875 1076.238281 C 4332.914062 1076.480469 4343.679688 1064.359375 4342.332031 1051.988281 C 4341.886719 1047.898438 4342.589844 1043.6875 4342.15625 1039.597656 C 4341.023438 1028.90625 4331.585938 1020.925781 4319.757812 1020.742188 C 4289.488281 1020.257812 4259.214844 1019.890625 4228.941406 1019.597656 C 4213.695312 1019.449219 4203.628906 1011.746094 4203.453125 999.773438 C 4203.273438 987.773438 4214.09375 978.808594 4229.183594 978.753906 C 4254.539062 978.65625 4279.902344 978.585938 4305.261719 978.78125 C 4321.484375 978.902344 4337.707031 979.34375 4353.921875 979.941406 C 4371.164062 980.570312 4384.691406 995.332031 4385 1014.242188 C 4385.355469 1036.292969 4385.402344 1058.347656 4385.140625 1080.398438 C 4384.886719 1102.292969 4367.894531 1118.773438 4346.085938 1118.785156 C 4285.167969 1118.808594 4224.238281 1118.175781 4163.335938 1119.121094 C 4141.542969 1119.457031 4121.003906 1103.988281 4121.054688 1076.804688 C 4121.148438 1025.808594 4121.078125 974.816406 4121.078125 923.816406 Z M 4121.078125 923.816406 " fill-opacity="1" fill-rule="evenodd"/></svg>