<svg width="516" height="516" viewBox="0 0 516 516" fill="none" xmlns="http://www.w3.org/2000/svg">
<rect width="516" height="516" fill="white"/>
<path d="M461.938 68.9062H54.0625C48.9122 68.9063 43.8124 69.9207 39.0541 71.8916C34.2959 73.8625 29.9725 76.7514 26.3307 80.3932C18.9757 87.7481 14.8438 97.7235 14.8438 108.125V406.188C14.8438 416.589 18.9757 426.564 26.3307 433.919C29.9725 437.561 34.2959 440.45 39.0541 442.421C43.8124 444.392 48.9122 445.406 54.0625 445.406H461.938C472.339 445.406 482.314 441.274 489.669 433.919C497.024 426.564 501.156 416.589 501.156 406.188V108.125C501.156 97.7235 497.024 87.7481 489.669 80.3932C482.314 73.0382 472.339 68.9062 461.938 68.9062ZM485.469 406.188C485.45 412.423 482.965 418.397 478.556 422.806C474.147 427.215 468.173 429.7 461.938 429.719H54.0625C47.8274 429.7 41.8529 427.215 37.444 422.806C33.035 418.397 30.5499 412.423 30.5312 406.188V131.656H485.469V406.188ZM485.469 115.969H30.5312V108.125C30.5499 101.89 33.035 95.9154 37.444 91.5065C41.8529 87.0975 47.8274 84.6124 54.0625 84.5938H461.938C468.173 84.6124 474.147 87.0975 478.556 91.5065C482.965 95.9154 485.45 101.89 485.469 108.125V115.969Z" fill="#3D9AE2"/>
<path d="M31 112H486V134H31V112Z" fill="white"/>
<path opacity="0.23" d="M381 136C381 112.804 399.804 94 423 94H425C448.196 94 467 112.804 467 136V136C467 159.196 448.196 178 425 178H423C399.804 178 381 159.196 381 136V136Z" fill="#B9DCFF"/>
<path d="M346 220.683H466.909V225.274H346V220.683Z" fill="#3D9AE2" fill-opacity="0.59"/>
<path opacity="0.12" d="M47 168C47 141.49 68.4903 120 95 120H102C128.51 120 150 141.49 150 168V168C150 194.51 128.51 216 102 216H95C68.4903 216 47 194.51 47 168V168Z" fill="#B9DCFF"/>
<path d="M172 111H292.909V115.591H172V111Z" fill="#3D9AE2" fill-opacity="0.59"/>
<path d="M346.329 197H406.329V201H346.329V197Z" fill="#3D9AE2" fill-opacity="0.59"/>
<path d="M69 241H129V245H69V241Z" fill="#3D9AE2" fill-opacity="0.59"/>
<path d="M69 253H129V257H69V253Z" fill="#3D9AE2" fill-opacity="0.59"/>
<path d="M172 184H232V188H172V184Z" fill="#3D9AE2" fill-opacity="0.59"/>
<path d="M346.329 207H406.329V215H346.329V207Z" fill="#3D9AE2" fill-opacity="0.59"/>
<path d="M346.329 233H406.329V241H346.329V233Z" fill="#3D9AE2" fill-opacity="0.59"/>
<path d="M172 126H292.909V136.713H172V126Z" fill="#3D9AE2" fill-opacity="0.67"/>
<path d="M172 197H292.909V207.713H172V197Z" fill="#3D9AE2" fill-opacity="0.67"/>
<path d="M172 142H232V153H172V142Z" fill="#3D9AE2" fill-opacity="0.67"/>
<path d="M172 215H232V226H172V215Z" fill="#3D9AE2" fill-opacity="0.67"/>
<path d="M172 170H277V178H172V170Z" fill="#3D9AE2" fill-opacity="0.67"/>
<path opacity="0.12" d="M62 315H446V341H62V315Z" fill="#3D9AE2"/>
<path opacity="0.1" d="M62 349H446V373H62V349Z" fill="#3D9AE2"/>
<path opacity="0.09" d="M62 382H446V409H62V382Z" fill="#3D9AE2"/>
</svg>
