<?xml version="1.0" encoding="iso-8859-1"?>
<!-- Generator: Adobe Illustrator 19.0.0, SVG Export Plug-In . SVG Version: 6.00 Build 0)  -->
<svg version="1.1" id="Capa_1" xmlns="http://www.w3.org/2000/svg" xmlns:xlink="http://www.w3.org/1999/xlink" x="0px" y="0px"
	 viewBox="0 0 512 512" style="enable-background:new 0 0 512 512;" xml:space="preserve">
<g>
	<g transform="translate(1 1)">
		<path style="fill:#A4C2F7;" d="M417.133,109.933l85.333,238.933V434.2c0.002,9.053-3.593,17.737-9.995,24.139
			s-15.085,9.997-24.139,9.995h-25.6v25.6c-0.014,4.707-3.826,8.519-8.533,8.533H75.8c-4.707-0.014-8.519-3.826-8.533-8.533v-25.6
			h-25.6c-9.053,0.003-17.737-3.593-24.139-9.995S7.531,443.254,7.533,434.2v-85.333l85.333-238.933h-76.8
			c-4.707-0.014-8.519-3.826-8.533-8.533V75.8l102.4-68.267h290.133l102.4,68.267v25.6c-0.014,4.707-3.826,8.519-8.533,8.533
			H417.133z"/>
		<path style="fill:#E3E7F2;" d="M391.533,109.933l85.333,238.933V434.2c0.002,9.053-3.593,17.737-9.995,24.139
			c-6.402,6.402-15.085,9.997-24.139,9.995h-25.6v25.6c-0.014,4.707-3.826,8.519-8.533,8.533H75.8
			c-4.707-0.014-8.519-3.826-8.533-8.533v-25.6h-25.6c-9.053,0.003-17.737-3.593-24.139-9.995S7.531,443.254,7.533,434.2v-85.333
			l85.333-238.933h-76.8c-4.707-0.014-8.519-3.826-8.533-8.533V75.8l102.4-68.267h264.533l102.4,68.267v25.6
			c-0.014,4.707-3.826,8.519-8.533,8.533H391.533z"/>
		<path style="fill:#A4C2F7;" d="M442.733,468.333v25.6c-0.014,4.707-3.826,8.519-8.533,8.533H75.8
			c-4.707-0.014-8.519-3.826-8.533-8.533v-25.6H442.733z"/>
		<path style="fill:#E3E7F2;" d="M417.133,468.333v25.6c-0.014,4.707-3.826,8.519-8.533,8.533H75.8
			c-4.707-0.014-8.519-3.826-8.533-8.533v-25.6H417.133z"/>
		<polygon style="fill:#A4C2F7;" points="502.467,348.867 7.533,348.867 92.867,109.933 417.133,109.933 		"/>
		<polygon style="fill:#E3E7F2;" points="476.867,348.867 7.533,348.867 92.867,109.933 391.533,109.933 		"/>
		<path style="fill:#A4C2F7;" d="M135.533,348.867h238.933v51.2c0,9.426-7.641,17.067-17.067,17.067H152.6
			c-9.426,0-17.067-7.641-17.067-17.067V348.867z"/>
		<g>
			<path style="fill:#E3E7F2;" d="M203.8,348.867V383h-25.6c-4.713,0-8.533-3.821-8.533-8.533v-25.6H203.8z"/>
			<rect x="203.8" y="348.867" style="fill:#E3E7F2;" width="34.133" height="34.133"/>
			<rect x="237.933" y="348.867" style="fill:#E3E7F2;" width="34.133" height="34.133"/>
			<rect x="272.067" y="348.867" style="fill:#E3E7F2;" width="34.133" height="34.133"/>
			<path style="fill:#E3E7F2;" d="M340.333,348.867v25.6c0,4.713-3.82,8.533-8.533,8.533h-25.6v-34.133H340.333z"/>
			<path style="fill:#E3E7F2;" d="M50.2,383h17.067c4.713,0,8.533,3.82,8.533,8.533V408.6c0,4.713-3.821,8.533-8.533,8.533H50.2
				c-4.713,0-8.533-3.821-8.533-8.533v-17.067C41.667,386.821,45.487,383,50.2,383z"/>
		</g>
		<path style="fill:#A4C2F7;" d="M441.965,314.733H68.035c-2.774-0.017-5.369-1.376-6.962-3.647
			c-1.593-2.271-1.988-5.173-1.06-7.788l54.869-153.6c1.234-3.369,4.433-5.616,8.021-5.632h264.192
			c3.588,0.016,6.788,2.263,8.021,5.632l54.869,153.6c0.929,2.614,0.534,5.516-1.06,7.788
			C447.334,313.357,444.74,314.716,441.965,314.733z"/>
		
			<linearGradient id="SVGID_1_" gradientUnits="userSpaceOnUse" x1="-49.6884" y1="651.2161" x2="-49.0439" y2="649.8336" gradientTransform="matrix(366.1296 0 0 -170.6667 18317 111279.7422)">
			<stop  offset="0" style="stop-color:#D4E1F4"/>
			<stop  offset="0.1717" style="stop-color:#D4E1F4"/>
			<stop  offset="0.2" style="stop-color:#D4E1F4"/>
			<stop  offset="0.2001" style="stop-color:#DAE4F4"/>
			<stop  offset="0.2007" style="stop-color:#EBEBF4"/>
			<stop  offset="0.2014" style="stop-color:#F6F1F4"/>
			<stop  offset="0.2023" style="stop-color:#FDF4F4"/>
			<stop  offset="0.205" style="stop-color:#FFF5F4"/>
			<stop  offset="0.2522" style="stop-color:#FFF5F4"/>
			<stop  offset="0.26" style="stop-color:#FFF5F4"/>
			<stop  offset="0.26" style="stop-color:#D4E1F4"/>
			<stop  offset="0.3974" style="stop-color:#D4E1F4"/>
			<stop  offset="0.42" style="stop-color:#D4E1F4"/>
			<stop  offset="0.4201" style="stop-color:#DAE4F4"/>
			<stop  offset="0.4207" style="stop-color:#EBEBF4"/>
			<stop  offset="0.4214" style="stop-color:#F6F1F4"/>
			<stop  offset="0.4223" style="stop-color:#FDF4F4"/>
			<stop  offset="0.425" style="stop-color:#FFF5F4"/>
			<stop  offset="0.4894" style="stop-color:#FFF5F4"/>
			<stop  offset="0.5" style="stop-color:#FFF5F4"/>
			<stop  offset="0.5" style="stop-color:#F9F2F4"/>
			<stop  offset="0.5001" style="stop-color:#E8EBF4"/>
			<stop  offset="0.5003" style="stop-color:#DDE5F4"/>
			<stop  offset="0.5005" style="stop-color:#D6E2F4"/>
			<stop  offset="0.501" style="stop-color:#D4E1F4"/>
			<stop  offset="0.7062" style="stop-color:#D4E1F4"/>
			<stop  offset="0.74" style="stop-color:#D4E1F4"/>
			<stop  offset="0.741" style="stop-color:#FFF5F4"/>
			<stop  offset="0.8346" style="stop-color:#FFF5F4"/>
			<stop  offset="0.85" style="stop-color:#FFF5F4"/>
			<stop  offset="0.851" style="stop-color:#D4E1F4"/>
		</linearGradient>
		<path style="fill:url(#SVGID_1_);" d="M417.133,314.733H68.035c-2.774-0.017-5.369-1.376-6.962-3.647
			c-1.593-2.271-1.988-5.173-1.06-7.788l54.869-153.6c1.234-3.369,4.433-5.616,8.021-5.632h239.36
			c3.588,0.017,6.787,2.263,8.021,5.632l54.869,153.6c0.929,2.614,0.534,5.516-1.06,7.788
			C422.502,313.357,419.908,314.716,417.133,314.733z"/>
		<path style="fill:#A4C2F7;" d="M502.467,75.8v25.6c-0.014,4.707-3.826,8.519-8.533,8.533H16.067
			c-4.707-0.014-8.519-3.826-8.533-8.533V75.8H502.467z"/>
		<path style="fill:#E3E7F2;" d="M476.867,75.8v25.6c-0.014,4.707-3.826,8.519-8.533,8.533H16.067
			c-4.707-0.014-8.519-3.826-8.533-8.533V75.8H476.867z"/>
		<polygon style="fill:#A4C2F7;" points="502.467,75.8 7.533,75.8 109.933,7.533 400.067,7.533 		"/>
		<polygon style="fill:#E3E7F2;" points="468.333,75.8 7.533,75.8 109.933,7.533 365.933,7.533 		"/>
		<g>
			<path style="fill:#FFFFFF;" d="M16.067,109.933h25.6c-4.707-0.014-8.519-3.826-8.533-8.533V75.8l102.4-68.267h-25.6L7.533,75.8
				v25.6C7.547,106.107,11.36,109.919,16.067,109.933z"/>
			<path style="fill:#FFFFFF;" d="M41.667,468.333h25.6c-9.053,0.003-17.737-3.593-24.139-9.995
				c-6.402-6.402-9.997-15.085-9.995-24.139v-85.333l85.333-238.933h-25.6L7.533,348.867V434.2
				c-0.002,9.053,3.593,17.737,9.995,24.139C23.93,464.74,32.613,468.336,41.667,468.333z"/>
			<path style="fill:#FFFFFF;" d="M75.8,502.467h25.6c-4.707-0.014-8.519-3.826-8.533-8.533v-25.6h-25.6v25.6
				C67.281,498.64,71.093,502.453,75.8,502.467z"/>
		</g>
	</g>
	<g>
		<polygon style="fill:#FFFFFF;" points="101.905,113.801 64.589,218.274 16.572,352.734 0.495,347 48.521,212.531 85.828,108.066 
					"/>
		<g>
			<path style="fill:#428DFF;" d="M77.79,170.16c-0.339-0.465-0.739-0.884-1.189-1.243c-0.373-0.394-0.804-0.73-1.277-0.996
				c-0.498-0.28-1.015-0.525-1.547-0.734c-2.138-0.73-4.474-0.625-6.538,0.293c-2.621,1.182-4.456,3.62-4.867,6.465
				c-0.411,2.845,0.659,5.703,2.838,7.579c0.82,0.758,1.78,1.347,2.827,1.735c3.254,1.147,6.878,0.231,9.196-2.325
				c2.318-2.556,2.876-6.252,1.417-9.379L77.79,170.16z"/>
			<path style="fill:#428DFF;" d="M511.172,73.243c-0.391-0.864-0.925-1.655-1.579-2.342c-0.123-0.128-0.265-0.221-0.396-0.341
				c-0.309-0.312-0.643-0.6-0.997-0.86l-102.4-68.267C404.399,0.499,402.752,0,401.067,0H110.933
				c-1.685,0.001-3.331,0.499-4.733,1.434L3.8,69.7c-0.354,0.26-0.688,0.548-0.997,0.86c-0.131,0.12-0.273,0.214-0.396,0.341
				c-0.654,0.686-1.188,1.478-1.579,2.342c-0.091,0.195-0.154,0.392-0.23,0.595C0.222,74.781,0.019,75.785,0,76.8v34.133
				c-0.001,2.263,0.898,4.434,2.499,6.035c1.6,1.6,3.771,2.499,6.035,2.499h73.225l-7.407,20.741
				c-1.585,4.438,0.728,9.321,5.166,10.907c4.438,1.585,9.321-0.728,10.907-5.166l9.457-26.482H412.12l79.238,221.867H20.643
				l46.819-131.095c1.025-2.871,0.441-6.071-1.532-8.395c-1.974-2.324-5.037-3.418-8.036-2.87c-2.999,0.547-5.478,2.653-6.504,5.524
				L0.497,346.996l0.077,0.027c-0.355,0.907-0.549,1.869-0.574,2.843V435.2c0.028,23.553,19.114,42.639,42.667,42.667h17.067v17.067
				c0.011,9.421,7.645,17.056,17.067,17.067h358.4c9.421-0.011,17.056-7.645,17.067-17.067v-17.067h17.067
				c23.553-0.028,42.639-19.114,42.667-42.667v-85.333c-0.218-0.946-0.384-1.903-0.496-2.867l-81.262-227.533h73.225
				c2.263,0.001,4.434-0.898,6.035-2.499c1.6-1.6,2.499-3.771,2.499-6.035V76.8c-0.019-1.015-0.222-2.019-0.598-2.962
				C511.326,73.635,511.262,73.439,511.172,73.243z M281.6,375.467V358.4h17.067v17.067H281.6z M247.467,375.467V358.4h17.067
				v17.067H247.467z M213.333,375.467V358.4H230.4v17.067H213.333z M315.733,358.4H332.8v17.067h-17.067V358.4z M196.267,358.4
				v17.067H179.2V358.4H196.267z M162.133,358.4V384c-0.001,2.263,0.898,4.434,2.499,6.035c1.6,1.6,3.771,2.499,6.035,2.499h170.667
				c2.263,0.001,4.434-0.898,6.035-2.499c1.6-1.6,2.499-3.771,2.499-6.035v-25.6h17.067v42.667
				c-0.005,4.711-3.822,8.529-8.533,8.533H153.6c-4.711-0.005-8.529-3.822-8.533-8.533V358.4H162.133z M435.212,494.933H76.8
				v-17.067h358.404L435.212,494.933z M494.933,435.2c-0.015,14.132-11.468,25.585-25.6,25.6H42.667
				c-14.132-0.015-25.585-11.468-25.6-25.6v-76.8H128v42.667c0.015,14.132,11.468,25.585,25.6,25.6h204.8
				c14.132-0.015,25.585-11.468,25.6-25.6V358.4h110.933V435.2z M113.517,17.067h284.967l76.8,51.2H36.717L113.517,17.067z
				 M17.067,102.4V85.333h477.867V102.4H17.067z"/>
			<path style="fill:#428DFF;" d="M68.267,375.467H51.2c-9.421,0.011-17.056,7.645-17.067,17.067V409.6
				c0.011,9.421,7.645,17.056,17.067,17.067h17.067c9.421-0.011,17.056-7.645,17.067-17.067v-17.067
				C85.323,383.112,77.688,375.477,68.267,375.467z M51.2,409.6v-17.067h17.067l0.012,17.067H51.2z"/>
			<path style="fill:#428DFF;" d="M55.125,317.025c3.198,4.536,8.4,7.237,13.95,7.242h373.85c5.548-0.003,10.748-2.701,13.945-7.235
				c3.197-4.534,3.991-10.339,2.13-15.565l-54.863-153.6c-2.432-6.788-8.86-11.321-16.071-11.333H123.933
				c-7.21,0.012-13.639,4.545-16.071,11.333L53,301.458C51.137,306.684,51.93,312.49,55.125,317.025z M69.075,307.209V307.2
				l54.858-153.6h264.129l54.862,153.6l-373.858,0.025L69.075,307.209z"/>
			<path style="fill:#428DFF;" d="M128.009,221.867c1.682-0.001,3.326-0.5,4.725-1.434l25.6-17.067
				c3.872-2.633,4.899-7.894,2.302-11.79c-2.597-3.896-7.849-4.971-11.768-2.409l-25.6,17.067c-3.13,2.087-4.524,5.977-3.432,9.577
				C120.927,219.41,124.247,221.87,128.009,221.867z"/>
			<path style="fill:#428DFF;" d="M179.2,187.733c2.855,0.03,5.532-1.385,7.115-3.761c1.584-2.376,1.86-5.39,0.735-8.014
				c-1.031-2.685-3.362-4.656-6.181-5.227c-2.819-0.571-5.733,0.338-7.728,2.41c-0.755,0.829-1.363,1.782-1.796,2.817
				c-1.122,2.625-0.844,5.639,0.74,8.013S176.346,187.761,179.2,187.733z"/>
			<path style="fill:#428DFF;" d="M225.542,172.183l-110.933,76.8c-3.864,2.687-4.824,7.996-2.144,11.865
				c2.679,3.87,7.986,4.84,11.861,2.168l110.933-76.8c3.864-2.687,4.824-7.996,2.144-11.865
				C234.723,170.482,229.417,169.512,225.542,172.183z"/>
			<path style="fill:#428DFF;" d="M463.275,407.125c0.829,0.753,1.78,1.359,2.813,1.792c2.067,0.911,4.421,0.911,6.487,0
				c1.034-0.433,1.987-1.039,2.817-1.792c0.751-0.832,1.357-1.784,1.792-2.817c0.438-1.026,0.67-2.127,0.683-3.242
				c-0.016-0.545-0.073-1.088-0.171-1.625c-0.082-0.563-0.255-1.109-0.512-1.617c-0.187-0.546-0.447-1.064-0.771-1.542
				c-0.313-0.446-0.654-0.872-1.021-1.275c-0.816-0.771-1.772-1.379-2.817-1.792c-3.177-1.341-6.849-0.634-9.3,1.792l-1.025,1.275
				c-0.324,0.477-0.583,0.996-0.771,1.542c-0.258,0.507-0.43,1.053-0.508,1.617c-0.1,0.536-0.158,1.08-0.171,1.625
				c0.012,1.115,0.243,2.216,0.679,3.242C461.914,405.342,462.521,406.295,463.275,407.125z"/>
			<path style="fill:#428DFF;" d="M427.346,404.308c0.78,2.141,2.467,3.828,4.608,4.608c2.066,0.911,4.421,0.911,6.487,0
				c1.034-0.433,1.987-1.039,2.817-1.792c0.751-0.832,1.357-1.784,1.792-2.817c0.437-1.025,0.67-2.126,0.683-3.241
				c-0.016-0.545-0.073-1.088-0.171-1.625c-0.082-0.563-0.255-1.109-0.513-1.617c-0.187-0.546-0.447-1.064-0.771-1.542
				c-0.338-0.425-0.679-0.85-1.021-1.275c-0.83-0.753-1.783-1.359-2.817-1.792c-3.178-1.333-6.845-0.626-9.3,1.792l-1.025,1.275
				c-0.324,0.477-0.583,0.996-0.771,1.542c-0.258,0.507-0.43,1.053-0.508,1.617c-0.1,0.536-0.158,1.08-0.171,1.625
				C426.638,402.185,426.871,403.295,427.346,404.308z"/>
		</g>
	</g>
</g>
<g>
</g>
<g>
</g>
<g>
</g>
<g>
</g>
<g>
</g>
<g>
</g>
<g>
</g>
<g>
</g>
<g>
</g>
<g>
</g>
<g>
</g>
<g>
</g>
<g>
</g>
<g>
</g>
<g>
</g>
</svg>
