<svg xmlns="http://www.w3.org/2000/svg" xmlns:xlink="http://www.w3.org/1999/xlink" width="6912" zoomAndPan="magnify" viewBox="0 0 5184 2592.000001" height="3456" preserveAspectRatio="xMidYMid meet" version="1.0"><defs><g/></defs><path fill="#ffffff" d="M 2545.308594 140.777344 C 2713.960938 140.777344 2882.613281 141.289062 3051.261719 140.332031 C 3083.171875 140.148438 3113.859375 165.355469 3113.621094 202.886719 C 3113.304688 250.464844 3113.648438 298.042969 3113.503906 345.621094 C 3113.394531 383.09375 3087.78125 408.386719 3050.203125 408.394531 C 2943.148438 408.421875 2836.09375 408.390625 2729.046875 408.414062 C 2697.703125 408.417969 2679.472656 426.605469 2679.464844 458.214844 C 2679.414062 646.402344 2679.410156 834.59375 2679.464844 1022.78125 C 2679.46875 1054.875 2698.546875 1073.621094 2731.164062 1073.746094 C 2780.011719 1073.933594 2828.875 1074.589844 2877.714844 1073.78125 C 2902.738281 1073.371094 2919.8125 1083.953125 2931.40625 1105.128906 C 2966.582031 1169.34375 3001.910156 1233.480469 3036.75 1297.882812 C 3048.863281 1320.265625 3035.660156 1341.308594 3009.953125 1341.351562 C 2924.988281 1341.488281 2840.023438 1341.402344 2755.058594 1341.40625 C 2531.605469 1341.40625 2308.15625 1341.40625 2084.703125 1341.402344 C 2050.515625 1341.394531 2039.15625 1322.101562 2055.683594 1291.746094 C 2088.472656 1231.523438 2121.78125 1171.59375 2154.097656 1111.125 C 2167.589844 1085.871094 2185.59375 1072.9375 2215.847656 1074.046875 C 2263.34375 1075.792969 2310.964844 1074.136719 2358.539062 1073.746094 C 2390.632812 1073.480469 2410.066406 1053.925781 2410.070312 1022.203125 C 2410.074219 834.433594 2410.074219 646.671875 2410.070312 458.902344 C 2410.066406 427.3125 2391.203125 408.414062 2359.632812 408.410156 C 2253.855469 408.390625 2148.078125 408.40625 2042.296875 408.402344 C 2000.429688 408.398438 1975.78125 385.007812 1975.089844 342.730469 C 1974.335938 296.863281 1974.476562 250.96875 1975.046875 205.09375 C 1975.601562 160.539062 2008.355469 139.953125 2041.90625 140.203125 C 2209.699219 141.460938 2377.503906 140.777344 2545.308594 140.777344 Z M 2545.535156 191.785156 C 2441.457031 191.785156 2337.378906 191.785156 2233.300781 191.785156 C 2186.144531 191.785156 2138.992188 191.835938 2091.835938 191.769531 C 2059.976562 191.722656 2040.015625 211.605469 2039.457031 235.84375 C 2038.929688 258.710938 2036.832031 281.726562 2038.652344 304.410156 C 2040.847656 331.6875 2054.75 347.796875 2076.984375 351.570312 C 2087.160156 353.296875 2098.007812 350.679688 2108.546875 350.671875 C 2208.804688 350.570312 2309.0625 350.550781 2409.316406 350.648438 C 2444.183594 350.683594 2463.507812 370.273438 2463.507812 405.035156 C 2463.507812 624.664062 2463.003906 844.296875 2463.964844 1063.917969 C 2464.144531 1105.113281 2438.730469 1133.027344 2395.648438 1132.316406 C 2342.992188 1131.449219 2290.292969 1132.585938 2237.652344 1131.273438 C 2212.382812 1130.652344 2195.488281 1137.40625 2185.683594 1163.019531 C 2174.988281 1190.953125 2159.84375 1217.15625 2147.15625 1244.359375 C 2135.644531 1269.03125 2141.851562 1280.214844 2166.757812 1280.222656 C 2419.519531 1280.285156 2672.28125 1280.285156 2925.050781 1280.230469 C 2947.335938 1280.222656 2953.839844 1270.859375 2946.695312 1249.726562 C 2945.480469 1246.136719 2943.730469 1242.714844 2942.0625 1239.285156 C 2928.023438 1210.382812 2913.136719 1181.847656 2900.203125 1152.453125 C 2893.695312 1137.648438 2883.59375 1132.152344 2868.695312 1132.160156 C 2811.792969 1132.175781 2754.886719 1132.171875 2697.976562 1132.152344 C 2650.632812 1132.140625 2627.503906 1109.195312 2627.503906 1062.277344 C 2627.5 844.351562 2627.5 626.421875 2627.503906 408.496094 C 2627.503906 369.699219 2646.4375 350.625 2685.027344 350.617188 C 2783.160156 350.605469 2881.285156 350.59375 2979.417969 350.675781 C 2984.878906 350.679688 2990.375 351.34375 2995.800781 352.09375 C 3028.050781 356.523438 3052.375 335.433594 3052.445312 302.839844 C 3052.472656 287.121094 3052.542969 271.402344 3052.421875 255.683594 C 3052.347656 246.789062 3053.269531 237.613281 3051.425781 229.0625 C 3046.25 205.0625 3026.617188 191.804688 2997.957031 191.796875 C 2847.152344 191.769531 2696.347656 191.785156 2545.535156 191.785156 Z M 2545.535156 191.785156 " fill-opacity="1" fill-rule="evenodd"/><path fill="#ffffff" d="M 2313.347656 834.964844 C 2315.8125 813.371094 2300.929688 798.945312 2272.949219 798.5625 C 2220.710938 797.855469 2168.460938 797.90625 2116.222656 797.675781 C 2093.496094 797.578125 2073 791.066406 2054.894531 777.101562 C 2039.082031 764.914062 2030.78125 749.234375 2030.945312 729.074219 C 2031.136719 705.714844 2031.253906 682.335938 2030.707031 658.988281 C 2030.625 655.40625 2027.390625 649.390625 2024.648438 648.765625 C 1991.300781 641.207031 1976.507812 618.390625 1975.304688 586.617188 C 1974.183594 557.007812 1974.933594 527.210938 1976.941406 497.636719 C 1979.003906 467.207031 2004.082031 444.644531 2034.816406 444.53125 C 2130.398438 444.171875 2225.980469 444.109375 2321.558594 444.558594 C 2354.570312 444.710938 2379.386719 471.273438 2379.4375 504.472656 C 2379.480469 532.085938 2378.113281 559.78125 2379.800781 587.289062 C 2381.671875 617.78125 2356.609375 650.449219 2316.480469 650.027344 C 2248.097656 649.296875 2179.695312 649.824219 2111.300781 649.824219 C 2106.742188 649.824219 2102.179688 649.824219 2095.042969 649.824219 C 2096.390625 672.976562 2096.378906 694.96875 2099.367188 716.542969 C 2101.496094 731.921875 2110.695312 737.453125 2126.511719 737.523438 C 2185.554688 737.773438 2244.59375 737.808594 2303.632812 738.167969 C 2315.46875 738.246094 2327.390625 738.71875 2339.113281 740.234375 C 2362.523438 743.257812 2381.273438 764.347656 2381.542969 790.199219 C 2382.242188 857.3125 2382.417969 924.441406 2381.605469 991.546875 C 2381.257812 1020.933594 2354 1045.632812 2324.605469 1045.660156 C 2227.324219 1045.757812 2130.046875 1045.75 2032.765625 1045.652344 C 2006.847656 1045.628906 1979.273438 1024.320312 1977.480469 998.660156 C 1975 963.257812 1973.949219 927.371094 1976.878906 892.082031 C 1980.058594 853.71875 2004.222656 835.011719 2042.679688 834.984375 C 2127.644531 834.90625 2212.605469 834.964844 2297.566406 834.96875 C 2302.605469 834.964844 2307.648438 834.964844 2313.347656 834.964844 Z M 2181.425781 895.296875 C 2146.601562 895.296875 2111.773438 895.175781 2076.953125 895.351562 C 2058.304688 895.4375 2043.953125 909.28125 2042.964844 927.804688 C 2042.648438 933.742188 2043.460938 939.761719 2042.800781 945.632812 C 2040.058594 969.984375 2058.867188 987.636719 2084.109375 987.324219 C 2143.554688 986.59375 2203.046875 986.042969 2262.464844 987.457031 C 2302.8125 988.414062 2321.476562 978.558594 2318.453125 930.855469 C 2317.125 909.820312 2303.300781 895.34375 2282.074219 895.304688 C 2248.527344 895.253906 2214.976562 895.289062 2181.425781 895.296875 Z M 2180.605469 592.246094 C 2214.5625 592.246094 2248.519531 592.34375 2282.476562 592.210938 C 2303.988281 592.128906 2317.941406 578.023438 2318.28125 556.394531 C 2318.359375 551.300781 2318.304688 546.210938 2318.292969 541.113281 C 2318.242188 514.785156 2305.699219 502 2279.757812 501.988281 C 2218.632812 501.957031 2157.46875 503.335938 2096.398438 501.53125 C 2051.066406 500.1875 2040.703125 514.269531 2042.765625 556.648438 C 2043.808594 578.148438 2057.101562 592.140625 2078.730469 592.214844 C 2112.691406 592.332031 2146.648438 592.246094 2180.605469 592.246094 Z M 2180.605469 592.246094 " fill-opacity="1" fill-rule="evenodd"/><path fill="#ffffff" d="M 2714.160156 745.242188 C 2714.160156 668.363281 2714.933594 591.46875 2713.878906 514.597656 C 2713.246094 468.40625 2744.339844 443.265625 2784.699219 443.933594 C 2874.304688 445.417969 2963.953125 444.386719 3053.570312 444.402344 C 3093.867188 444.410156 3118.675781 469.027344 3118.691406 508.976562 C 3118.707031 535.734375 3118.8125 562.496094 3118.667969 589.257812 C 3118.484375 622.160156 3092.621094 647.9375 3059.628906 647.996094 C 2999.3125 648.101562 2938.996094 648.0625 2878.675781 648.003906 C 2857.085938 647.984375 2841.042969 634.4375 2841.105469 616.542969 C 2841.152344 598.984375 2857.597656 584.730469 2878.613281 584.652344 C 2924.914062 584.488281 2971.214844 584.652344 3017.511719 584.578125 C 3042.046875 584.539062 3054.007812 571.398438 3055.46875 547.074219 C 3057.589844 511.695312 3036.675781 499.335938 3009.058594 500 C 2970.847656 500.914062 2932.601562 500.015625 2894.375 500.304688 C 2868.523438 500.496094 2842.675781 501.433594 2816.824219 501.964844 C 2795.585938 502.402344 2782.105469 515.601562 2782.015625 537.101562 C 2781.808594 588.5 2782.726562 639.914062 2781.699219 691.289062 C 2780.820312 735.183594 2787.796875 739.015625 2828.421875 737.734375 C 2858.542969 736.785156 2888.726562 737.425781 2918.886719 737.601562 C 2936.464844 737.703125 2951.207031 747.386719 2954.90625 760.664062 C 2960.019531 778.996094 2943.710938 798.296875 2922.5 798.421875 C 2885.121094 798.632812 2847.738281 798.46875 2810.359375 798.480469 C 2788.640625 798.488281 2781.988281 804.898438 2781.957031 826.164062 C 2781.894531 864.824219 2781.859375 903.476562 2781.976562 942.132812 C 2782.046875 966.792969 2795.027344 979.699219 2819.488281 979.710938 C 2885.746094 979.738281 2952.027344 979.003906 3018.269531 980.117188 C 3040.597656 980.488281 3057.1875 961.8125 3055.109375 942.75 C 3054.425781 936.449219 3055.511719 929.960938 3054.839844 923.65625 C 3053.09375 907.183594 3038.550781 894.886719 3020.328125 894.601562 C 2973.679688 893.855469 2927.027344 893.289062 2880.378906 892.835938 C 2856.886719 892.609375 2841.371094 880.738281 2841.101562 862.292969 C 2840.828125 843.796875 2857.5 829.984375 2880.75 829.898438 C 2919.828125 829.75 2958.910156 829.640625 2997.984375 829.9375 C 3022.984375 830.125 3047.984375 830.808594 3072.96875 831.726562 C 3099.542969 832.695312 3120.386719 855.445312 3120.863281 884.582031 C 3121.410156 918.5625 3121.480469 952.550781 3121.078125 986.53125 C 3120.6875 1020.269531 3094.503906 1045.667969 3060.898438 1045.679688 C 2967.023438 1045.71875 2873.132812 1044.742188 2779.285156 1046.203125 C 2745.703125 1046.71875 2714.050781 1022.882812 2714.128906 980.988281 C 2714.269531 902.410156 2714.160156 823.832031 2714.160156 745.242188 Z M 2714.160156 745.242188 " fill-opacity="1" fill-rule="evenodd"/><g fill="#ffffff" fill-opacity="1"><g transform="translate(84.565768, 1831.255234)"><g><path d="M 276.03125 -219.015625 L 268.25 -219.015625 C 266.238281 -239.453125 259.832031 -254.851562 249.03125 -265.21875 C 238.226562 -275.59375 225.914062 -280.78125 212.09375 -280.78125 L 178.40625 -280.78125 L 178.40625 -46.65625 C 178.40625 -36 179.84375 -27.929688 182.71875 -22.453125 C 185.601562 -16.984375 190.066406 -13.238281 196.109375 -11.21875 C 202.160156 -9.207031 210.65625 -8.0625 221.59375 -7.78125 L 221.59375 0 L 66.09375 0 L 66.09375 -7.78125 C 77.03125 -7.78125 85.453125 -8.570312 91.359375 -10.15625 C 97.265625 -11.738281 101.726562 -15.265625 104.75 -20.734375 C 107.769531 -26.203125 109.28125 -34.550781 109.28125 -45.78125 L 109.28125 -280.78125 L 72.140625 -280.78125 C 59.179688 -280.78125 47.660156 -275.09375 37.578125 -263.71875 C 27.503906 -252.34375 21.457031 -237.441406 19.4375 -219.015625 L 11.65625 -219.015625 L 11.65625 -296.765625 L 276.03125 -296.765625 Z M 276.03125 -219.015625 "/></g></g></g><g fill="#ffffff" fill-opacity="1"><g transform="translate(372.693156, 1831.255234)"><g><path d="M 133.90625 -205.1875 C 140.820312 -205.1875 146.4375 -202.519531 150.75 -197.1875 C 155.070312 -191.863281 157.234375 -185.023438 157.234375 -176.671875 C 157.234375 -167.742188 155.070312 -160.546875 150.75 -155.078125 C 146.4375 -149.609375 140.535156 -146.875 133.046875 -146.875 C 129.585938 -146.875 126.5625 -147.59375 123.96875 -149.03125 C 121.382812 -150.46875 118.21875 -152.484375 114.46875 -155.078125 C 109 -158.816406 104.96875 -160.6875 102.375 -160.6875 C 97.769531 -160.6875 93.882812 -156.941406 90.71875 -149.453125 C 87.550781 -141.972656 85.96875 -133.476562 85.96875 -123.96875 L 85.96875 -34.125 C 85.96875 -24.625 87.835938 -17.859375 91.578125 -13.828125 C 95.316406 -9.796875 102.082031 -7.78125 111.875 -7.78125 L 111.875 0 L 4.75 0 L 4.75 -7.78125 C 19.4375 -7.78125 26.78125 -16.414062 26.78125 -33.6875 L 26.78125 -166.734375 C 26.78125 -183.722656 19.4375 -192.363281 4.75 -192.65625 L 4.75 -200.4375 L 85.96875 -200.4375 L 85.96875 -164.578125 L 86.828125 -164.578125 C 100.359375 -191.648438 116.050781 -205.1875 133.90625 -205.1875 Z M 133.90625 -205.1875 "/></g></g></g><g fill="#ffffff" fill-opacity="1"><g transform="translate(539.003533, 1831.255234)"><g><path d="M 60.90625 -303.234375 C 70.125 -303.234375 77.972656 -299.992188 84.453125 -293.515625 C 90.929688 -287.035156 94.171875 -279.191406 94.171875 -269.984375 C 94.171875 -260.765625 90.929688 -252.84375 84.453125 -246.21875 C 77.972656 -239.59375 70.125 -236.28125 60.90625 -236.28125 C 51.6875 -236.28125 43.765625 -239.59375 37.140625 -246.21875 C 30.523438 -252.84375 27.21875 -260.765625 27.21875 -269.984375 C 27.21875 -279.191406 30.523438 -287.035156 37.140625 -293.515625 C 43.765625 -299.992188 51.6875 -303.234375 60.90625 -303.234375 Z M 89.421875 -32.828125 C 89.421875 -16.410156 96.617188 -8.0625 111.015625 -7.78125 L 111.015625 0 L 5.1875 0 L 5.1875 -7.78125 C 14.113281 -7.78125 20.519531 -9.796875 24.40625 -13.828125 C 28.289062 -17.859375 30.234375 -24.910156 30.234375 -34.984375 L 30.234375 -165.875 C 30.234375 -175.375 28.359375 -182.210938 24.609375 -186.390625 C 20.867188 -190.566406 14.394531 -192.65625 5.1875 -192.65625 L 5.1875 -200.4375 L 89.421875 -200.4375 Z M 89.421875 -32.828125 "/></g></g></g><g fill="#ffffff" fill-opacity="1"><g transform="translate(656.068732, 1831.255234)"><g><path d="M 87.25 -182.296875 C 102.519531 -197.554688 118.648438 -205.1875 135.640625 -205.1875 C 148.890625 -205.1875 160.984375 -201.007812 171.921875 -192.65625 C 182.867188 -184.300781 191.507812 -172.851562 197.84375 -158.3125 C 204.175781 -143.769531 207.34375 -127.425781 207.34375 -109.28125 C 207.34375 -87.6875 203.382812 -68.101562 195.46875 -50.53125 C 187.550781 -32.96875 176.609375 -19.144531 162.640625 -9.0625 C 148.671875 1.007812 133.046875 6.046875 115.765625 6.046875 C 105.398438 6.046875 96.617188 4.316406 89.421875 0.859375 C 82.222656 -2.585938 75.164062 -8.347656 68.25 -16.421875 L 35.421875 5.1875 L 28.078125 5.1875 L 28.078125 -263.5 C 28.078125 -272.425781 26.273438 -278.757812 22.671875 -282.5 C 19.078125 -286.25 13.535156 -288.410156 6.046875 -288.984375 L 6.046875 -296.765625 L 87.25 -296.765625 Z M 87.25 -162.421875 L 87.25 -56.59375 C 87.25 -44.78125 89.265625 -33.90625 93.296875 -23.96875 C 97.335938 -14.039062 103.820312 -9.078125 112.75 -9.078125 C 122.820312 -9.078125 130.738281 -16.992188 136.5 -32.828125 C 142.257812 -48.671875 145.140625 -72.140625 145.140625 -103.234375 C 145.140625 -130.878906 142.691406 -150.75 137.796875 -162.84375 C 132.898438 -174.945312 125.84375 -181 116.625 -181 C 107.414062 -181 97.625 -174.804688 87.25 -162.421875 Z M 87.25 -162.421875 "/></g></g></g><g fill="#ffffff" fill-opacity="1"><g transform="translate(872.056254, 1831.255234)"><g><path d="M 82.078125 -59.1875 C 82.078125 -46.507812 83.585938 -37.363281 86.609375 -31.75 C 89.628906 -26.132812 94.453125 -23.328125 101.078125 -23.328125 C 107.128906 -23.328125 113.175781 -25.628906 119.21875 -30.234375 C 125.269531 -34.847656 130.597656 -41.1875 135.203125 -49.25 L 135.203125 -168.46875 C 135.203125 -176.820312 133.1875 -182.722656 129.15625 -186.171875 C 125.125 -189.628906 118.789062 -191.789062 110.15625 -192.65625 L 110.15625 -200.4375 L 194.390625 -200.4375 L 194.390625 -23.765625 C 194.390625 -14.253906 199.285156 -8.925781 209.078125 -7.78125 L 209.078125 0 L 135.203125 0 L 135.203125 -25.921875 C 127.140625 -16.410156 118.210938 -8.703125 108.421875 -2.796875 C 98.628906 3.097656 88.550781 6.046875 78.1875 6.046875 C 61.195312 6.046875 47.734375 0.503906 37.796875 -10.578125 C 27.859375 -21.671875 22.890625 -36.429688 22.890625 -54.859375 L 22.890625 -165.4375 C 22.890625 -174.363281 21.738281 -180.84375 19.4375 -184.875 C 17.132812 -188.914062 12.816406 -191.507812 6.484375 -192.65625 L 6.484375 -200.4375 L 82.078125 -200.4375 Z M 82.078125 -59.1875 "/></g></g></g><g fill="#ffffff" fill-opacity="1"><g transform="translate(1088.043777, 1831.255234)"><g><path d="M 140.828125 -205.1875 C 158.097656 -205.1875 171.269531 -199.351562 180.34375 -187.6875 C 189.414062 -176.03125 193.953125 -161.703125 193.953125 -144.703125 L 193.953125 -41.46875 C 193.953125 -33.113281 194.3125 -26.992188 195.03125 -23.109375 C 195.75 -19.222656 197.046875 -16.269531 198.921875 -14.25 C 200.796875 -12.238281 204.035156 -10.082031 208.640625 -7.78125 L 208.640625 0 L 116.625 0 L 116.625 -7.78125 C 128.726562 -9.21875 134.78125 -18.429688 134.78125 -35.421875 L 134.78125 -147.734375 C 134.78125 -167.609375 128.441406 -177.546875 115.765625 -177.546875 C 104.535156 -177.546875 93.59375 -169.335938 82.9375 -152.921875 L 82.9375 -32.828125 C 82.9375 -18.429688 88.984375 -10.082031 101.078125 -7.78125 L 101.078125 0 L 7.34375 0 L 7.34375 -7.78125 C 12.53125 -8.925781 16.5625 -11.515625 19.4375 -15.546875 C 22.320312 -19.578125 23.765625 -26.054688 23.765625 -34.984375 L 23.765625 -166.734375 C 23.765625 -172.492188 22.539062 -177.894531 20.09375 -182.9375 C 17.644531 -187.976562 13.394531 -191.21875 7.34375 -192.65625 L 7.34375 -200.4375 L 82.9375 -200.4375 L 82.9375 -173.65625 C 92.15625 -184.3125 101.367188 -192.226562 110.578125 -197.40625 C 119.796875 -202.59375 129.878906 -205.1875 140.828125 -205.1875 Z M 140.828125 -205.1875 "/></g></g></g><g fill="#ffffff" fill-opacity="1"><g transform="translate(1304.031299, 1831.255234)"><g><path d="M 109.71875 -205.1875 C 134.488281 -205.1875 152.628906 -200.144531 164.140625 -190.0625 C 175.660156 -179.988281 181.421875 -167.175781 181.421875 -151.625 L 181.421875 -44.921875 C 181.421875 -29.085938 185.453125 -21.171875 193.515625 -21.171875 C 195.828125 -21.171875 197.773438 -21.816406 199.359375 -23.109375 C 200.941406 -24.398438 202.738281 -26.632812 204.75 -29.8125 L 208.640625 -25.921875 C 204.609375 -16.128906 198.269531 -8.351562 189.625 -2.59375 C 180.988281 3.164062 171.34375 6.046875 160.6875 6.046875 C 149.75 6.046875 140.894531 3.3125 134.125 -2.15625 C 127.351562 -7.632812 123.394531 -15.695312 122.25 -26.34375 C 120.519531 -25.195312 117.925781 -23.179688 114.46875 -20.296875 C 104.394531 -11.953125 95.035156 -5.472656 86.390625 -0.859375 C 77.753906 3.742188 67.820312 6.046875 56.59375 6.046875 C 45.351562 6.046875 35.914062 2.015625 28.28125 -6.046875 C 20.65625 -14.109375 16.84375 -23.898438 16.84375 -35.421875 C 16.84375 -50.398438 23.394531 -63.789062 36.5 -75.59375 C 49.601562 -87.40625 63.929688 -96.910156 79.484375 -104.109375 L 122.25 -124.84375 L 122.25 -164.140625 C 122.25 -171.347656 120.015625 -177.46875 115.546875 -182.5 C 111.085938 -187.539062 104.101562 -190.0625 94.59375 -190.0625 C 86.25 -190.0625 79.269531 -188.332031 73.65625 -184.875 C 68.039062 -181.425781 65.234375 -177.253906 65.234375 -172.359375 C 65.234375 -170.628906 65.734375 -168.898438 66.734375 -167.171875 C 67.742188 -165.441406 68.96875 -163.710938 70.40625 -161.984375 C 73 -158.816406 75.015625 -155.789062 76.453125 -152.90625 C 77.898438 -150.03125 78.625 -146.722656 78.625 -142.984375 C 78.625 -136.066406 76.03125 -130.445312 70.84375 -126.125 C 65.65625 -121.8125 58.890625 -119.65625 50.546875 -119.65625 C 41.328125 -119.65625 33.835938 -122.101562 28.078125 -127 C 22.316406 -131.894531 19.4375 -138.375 19.4375 -146.4375 C 19.4375 -156.800781 23.539062 -166.519531 31.75 -175.59375 C 39.957031 -184.664062 50.972656 -191.863281 64.796875 -197.1875 C 78.617188 -202.519531 93.59375 -205.1875 109.71875 -205.1875 Z M 75.59375 -54 C 75.59375 -47.082031 77.535156 -41.460938 81.421875 -37.140625 C 85.304688 -32.828125 90.273438 -30.671875 96.328125 -30.671875 C 101.222656 -30.671875 105.613281 -31.535156 109.5 -33.265625 C 113.382812 -34.992188 117.632812 -37.726562 122.25 -41.46875 L 122.25 -109.71875 C 91.144531 -93.882812 75.59375 -75.3125 75.59375 -54 Z M 75.59375 -54 "/></g></g></g><g fill="#ffffff" fill-opacity="1"><g transform="translate(1520.018822, 1831.255234)"><g><path d="M 90.71875 -28.9375 C 90.71875 -21.738281 92.441406 -16.410156 95.890625 -12.953125 C 99.347656 -9.503906 104.820312 -7.78125 112.3125 -7.78125 L 112.3125 0 L 5.1875 0 L 5.1875 -7.78125 C 14.113281 -7.78125 20.734375 -9.722656 25.046875 -13.609375 C 29.367188 -17.492188 31.53125 -23.46875 31.53125 -31.53125 L 31.53125 -262.640625 C 31.53125 -272.429688 29.585938 -279.195312 25.703125 -282.9375 C 21.816406 -286.6875 14.976562 -288.703125 5.1875 -288.984375 L 5.1875 -296.765625 L 90.71875 -296.765625 Z M 90.71875 -28.9375 "/></g></g></g><g fill="#ffffff" fill-opacity="1"><g transform="translate(1637.083974, 1831.255234)"><g/></g></g><g fill="#ffffff" fill-opacity="1"><g transform="translate(1745.077645, 1831.255234)"><g><path d="M 115.765625 -303.234375 C 129.296875 -303.234375 140.957031 -301.863281 150.75 -299.125 C 160.539062 -296.394531 171.34375 -292.582031 183.15625 -287.6875 C 187.1875 -285.957031 191.070312 -284.445312 194.8125 -283.15625 C 198.5625 -281.863281 201.734375 -281.21875 204.328125 -281.21875 C 208.929688 -281.21875 212.671875 -283.085938 215.546875 -286.828125 C 218.429688 -290.566406 219.875 -296.035156 219.875 -303.234375 L 228.078125 -303.234375 L 228.078125 -207.34375 L 219.875 -207.34375 C 216.988281 -222.601562 210.796875 -236.28125 201.296875 -248.375 C 191.796875 -260.476562 179.988281 -269.835938 165.875 -276.453125 C 151.757812 -283.078125 136.640625 -286.390625 120.515625 -286.390625 C 102.953125 -286.390625 88.550781 -282.140625 77.3125 -273.640625 C 66.082031 -265.148438 60.46875 -254.570312 60.46875 -241.90625 C 60.46875 -232.394531 63.78125 -224.328125 70.40625 -217.703125 C 77.03125 -211.085938 85.3125 -205.617188 95.25 -201.296875 C 105.1875 -196.972656 118.9375 -191.929688 136.5 -186.171875 C 154.070312 -180.421875 168.757812 -175.097656 180.5625 -170.203125 C 192.375 -165.304688 202.742188 -159.253906 211.671875 -152.046875 C 221.742188 -143.703125 230.019531 -133.769531 236.5 -122.25 C 242.976562 -110.726562 246.21875 -97.769531 246.21875 -83.375 C 246.21875 -65.800781 241.46875 -50.25 231.96875 -36.71875 C 222.46875 -23.1875 209.148438 -12.675781 192.015625 -5.1875 C 174.878906 2.300781 155.078125 6.046875 132.609375 6.046875 C 118.503906 6.046875 106.625 4.820312 96.96875 2.375 C 87.320312 -0.0703125 77.460938 -3.3125 67.390625 -7.34375 C 57.878906 -11.375 50.820312 -13.390625 46.21875 -13.390625 C 41.03125 -13.390625 36.566406 -11.804688 32.828125 -8.640625 C 29.085938 -5.472656 25.773438 -0.578125 22.890625 6.046875 L 14.6875 6.046875 L 14.6875 -102.8125 L 22.890625 -102.8125 C 28.078125 -74.007812 40.390625 -51.1875 59.828125 -34.34375 C 79.265625 -17.5 102.804688 -9.078125 130.453125 -9.078125 C 151.191406 -9.078125 167.609375 -13.320312 179.703125 -21.8125 C 191.796875 -30.3125 197.84375 -41.757812 197.84375 -56.15625 C 197.84375 -67.382812 194.3125 -76.882812 187.25 -84.65625 C 180.195312 -92.4375 171.414062 -98.773438 160.90625 -103.671875 C 150.394531 -108.566406 136.210938 -114.039062 118.359375 -120.09375 C 96.179688 -127.863281 78.253906 -135.128906 64.578125 -141.890625 C 50.898438 -148.660156 39.238281 -158.164062 29.59375 -170.40625 C 19.945312 -182.644531 15.125 -198.125 15.125 -216.84375 C 15.125 -233.257812 19.441406 -248.019531 28.078125 -261.125 C 36.710938 -274.226562 48.660156 -284.519531 63.921875 -292 C 79.191406 -299.488281 96.472656 -303.234375 115.765625 -303.234375 Z M 115.765625 -303.234375 "/></g></g></g><g fill="#ffffff" fill-opacity="1"><g transform="translate(2005.990526, 1831.255234)"><g><path d="M 82.078125 -59.1875 C 82.078125 -46.507812 83.585938 -37.363281 86.609375 -31.75 C 89.628906 -26.132812 94.453125 -23.328125 101.078125 -23.328125 C 107.128906 -23.328125 113.175781 -25.628906 119.21875 -30.234375 C 125.269531 -34.847656 130.597656 -41.1875 135.203125 -49.25 L 135.203125 -168.46875 C 135.203125 -176.820312 133.1875 -182.722656 129.15625 -186.171875 C 125.125 -189.628906 118.789062 -191.789062 110.15625 -192.65625 L 110.15625 -200.4375 L 194.390625 -200.4375 L 194.390625 -23.765625 C 194.390625 -14.253906 199.285156 -8.925781 209.078125 -7.78125 L 209.078125 0 L 135.203125 0 L 135.203125 -25.921875 C 127.140625 -16.410156 118.210938 -8.703125 108.421875 -2.796875 C 98.628906 3.097656 88.550781 6.046875 78.1875 6.046875 C 61.195312 6.046875 47.734375 0.503906 37.796875 -10.578125 C 27.859375 -21.671875 22.890625 -36.429688 22.890625 -54.859375 L 22.890625 -165.4375 C 22.890625 -174.363281 21.738281 -180.84375 19.4375 -184.875 C 17.132812 -188.914062 12.816406 -191.507812 6.484375 -192.65625 L 6.484375 -200.4375 L 82.078125 -200.4375 Z M 82.078125 -59.1875 "/></g></g></g><g fill="#ffffff" fill-opacity="1"><g transform="translate(2221.978048, 1831.255234)"><g><path d="M 136.0625 -205.1875 C 149.3125 -205.1875 161.191406 -200.578125 171.703125 -191.359375 C 182.210938 -182.148438 190.488281 -169.550781 196.53125 -153.5625 C 202.582031 -137.582031 205.609375 -119.515625 205.609375 -99.359375 C 205.609375 -75.742188 201.648438 -56.015625 193.734375 -40.171875 C 185.816406 -24.335938 176.171875 -12.675781 164.796875 -5.1875 C 153.421875 2.300781 142.257812 6.046875 131.3125 6.046875 C 114.039062 6.046875 100.363281 -1.582031 90.28125 -16.84375 L 89.421875 -16.84375 L 89.421875 58.3125 C 89.421875 68.101562 91.503906 74.726562 95.671875 78.1875 C 99.847656 81.644531 107.84375 83.515625 119.65625 83.796875 L 119.65625 91.578125 L 6.484375 91.578125 L 6.484375 83.796875 C 14.828125 83.796875 20.867188 81.78125 24.609375 77.75 C 28.359375 73.71875 30.234375 67.097656 30.234375 57.890625 L 30.234375 -166.734375 C 30.234375 -176.242188 28.289062 -182.941406 24.40625 -186.828125 C 20.519531 -190.710938 14.546875 -192.65625 6.484375 -192.65625 L 6.484375 -200.4375 L 89.421875 -200.4375 L 89.421875 -176.671875 L 90.28125 -176.671875 C 101.800781 -195.679688 117.0625 -205.1875 136.0625 -205.1875 Z M 89.421875 -153.78125 L 89.421875 -35.859375 C 100.648438 -21.742188 110.582031 -14.6875 119.21875 -14.6875 C 128.4375 -14.6875 134.769531 -20.804688 138.21875 -33.046875 C 141.675781 -45.285156 143.40625 -66.523438 143.40625 -96.765625 C 143.40625 -125.847656 141.316406 -146.867188 137.140625 -159.828125 C 132.972656 -172.785156 125.992188 -179.265625 116.203125 -179.265625 C 111.015625 -179.265625 105.972656 -176.671875 101.078125 -171.484375 C 96.179688 -166.304688 92.296875 -160.40625 89.421875 -153.78125 Z M 89.421875 -153.78125 "/></g></g></g><g fill="#ffffff" fill-opacity="1"><g transform="translate(2437.965571, 1831.255234)"><g><path d="M 133.90625 -205.1875 C 140.820312 -205.1875 146.4375 -202.519531 150.75 -197.1875 C 155.070312 -191.863281 157.234375 -185.023438 157.234375 -176.671875 C 157.234375 -167.742188 155.070312 -160.546875 150.75 -155.078125 C 146.4375 -149.609375 140.535156 -146.875 133.046875 -146.875 C 129.585938 -146.875 126.5625 -147.59375 123.96875 -149.03125 C 121.382812 -150.46875 118.21875 -152.484375 114.46875 -155.078125 C 109 -158.816406 104.96875 -160.6875 102.375 -160.6875 C 97.769531 -160.6875 93.882812 -156.941406 90.71875 -149.453125 C 87.550781 -141.972656 85.96875 -133.476562 85.96875 -123.96875 L 85.96875 -34.125 C 85.96875 -24.625 87.835938 -17.859375 91.578125 -13.828125 C 95.316406 -9.796875 102.082031 -7.78125 111.875 -7.78125 L 111.875 0 L 4.75 0 L 4.75 -7.78125 C 19.4375 -7.78125 26.78125 -16.414062 26.78125 -33.6875 L 26.78125 -166.734375 C 26.78125 -183.722656 19.4375 -192.363281 4.75 -192.65625 L 4.75 -200.4375 L 85.96875 -200.4375 L 85.96875 -164.578125 L 86.828125 -164.578125 C 100.359375 -191.648438 116.050781 -205.1875 133.90625 -205.1875 Z M 133.90625 -205.1875 "/></g></g></g><g fill="#ffffff" fill-opacity="1"><g transform="translate(2604.275971, 1831.255234)"><g><path d="M 100.21875 -205.1875 C 117.78125 -205.1875 132.535156 -200.722656 144.484375 -191.796875 C 156.441406 -182.867188 165.441406 -171.421875 171.484375 -157.453125 C 177.535156 -143.484375 180.707031 -129.015625 181 -114.046875 L 181 -106.703125 L 67.390625 -106.703125 C 69.117188 -82.796875 75.378906 -63.5 86.171875 -48.8125 C 96.972656 -34.125 110.4375 -26.78125 126.5625 -26.78125 C 136.9375 -26.78125 145.789062 -29.585938 153.125 -35.203125 C 160.46875 -40.816406 167.164062 -48.953125 173.21875 -59.609375 L 181 -54.859375 C 171.207031 -34.128906 159.539062 -18.796875 146 -8.859375 C 132.46875 1.078125 116.488281 6.046875 98.0625 6.046875 C 79.625 6.046875 63.851562 1.507812 50.75 -7.5625 C 37.65625 -16.632812 27.648438 -28.941406 20.734375 -44.484375 C 13.828125 -60.035156 10.375 -77.460938 10.375 -96.765625 C 10.375 -116.054688 14.40625 -133.976562 22.46875 -150.53125 C 30.53125 -167.09375 41.472656 -180.34375 55.296875 -190.28125 C 69.117188 -200.21875 84.09375 -205.1875 100.21875 -205.1875 Z M 128.296875 -131.75 C 128.296875 -152.195312 126.0625 -167.316406 121.59375 -177.109375 C 117.132812 -186.898438 110.007812 -191.796875 100.21875 -191.796875 C 89.851562 -191.796875 81.789062 -185.382812 76.03125 -172.5625 C 70.269531 -159.75 67.390625 -144.992188 67.390625 -128.296875 L 67.390625 -120.953125 L 128.296875 -120.953125 Z M 128.296875 -131.75 "/></g></g></g><g fill="#ffffff" fill-opacity="1"><g transform="translate(2793.481105, 1831.255234)"><g><path d="M 142.984375 -205.1875 C 156.234375 -205.1875 167.25 -201.945312 176.03125 -195.46875 C 184.8125 -188.988281 190.5 -179.988281 193.09375 -168.46875 C 201.15625 -180.269531 210.65625 -189.335938 221.59375 -195.671875 C 232.539062 -202.015625 243.914062 -205.1875 255.71875 -205.1875 C 272.71875 -205.1875 285.679688 -199.859375 294.609375 -189.203125 C 303.535156 -178.546875 308 -165.585938 308 -150.328125 L 308 -30.671875 C 308 -24.046875 309.507812 -18.644531 312.53125 -14.46875 C 315.550781 -10.289062 320.375 -8.0625 327 -7.78125 L 327 0 L 230.234375 0 L 230.234375 -7.78125 C 237.722656 -8.0625 242.691406 -10 245.140625 -13.59375 C 247.585938 -17.195312 248.8125 -23.609375 248.8125 -32.828125 L 248.8125 -155.078125 C 248.8125 -159.679688 247.515625 -164.503906 244.921875 -169.546875 C 242.328125 -174.585938 237.863281 -177.109375 231.53125 -177.109375 C 225.488281 -177.109375 219.875 -175.160156 214.6875 -171.265625 C 209.5 -167.378906 203.453125 -160.539062 196.546875 -150.75 L 196.546875 -33.6875 C 196.546875 -18.144531 202.738281 -9.507812 215.125 -7.78125 L 215.125 0 L 119.21875 0 L 119.21875 -7.78125 C 131.3125 -9.21875 137.359375 -18.285156 137.359375 -34.984375 L 137.359375 -152.921875 C 137.359375 -159.546875 135.921875 -165.160156 133.046875 -169.765625 C 130.171875 -174.367188 125.421875 -176.671875 118.796875 -176.671875 C 107.554688 -176.671875 96.320312 -168.03125 85.09375 -150.75 L 85.09375 -34.125 C 85.09375 -18.289062 91.429688 -9.507812 104.109375 -7.78125 L 104.109375 0 L 6.046875 0 L 6.046875 -7.78125 C 12.960938 -8.644531 18.003906 -11.019531 21.171875 -14.90625 C 24.335938 -18.789062 25.921875 -25.628906 25.921875 -35.421875 L 25.921875 -163.71875 C 25.921875 -174.082031 24.191406 -181.351562 20.734375 -185.53125 C 17.273438 -189.707031 12.378906 -192.082031 6.046875 -192.65625 L 6.046875 -200.4375 L 85.09375 -200.4375 L 85.09375 -172.359375 L 85.96875 -172.359375 C 94.894531 -183.878906 103.960938 -192.226562 113.171875 -197.40625 C 122.390625 -202.59375 132.328125 -205.1875 142.984375 -205.1875 Z M 142.984375 -205.1875 "/></g></g></g><g fill="#ffffff" fill-opacity="1"><g transform="translate(3126.533874, 1831.255234)"><g><path d="M 107.125 -205.1875 C 124.695312 -205.1875 140.753906 -201.007812 155.296875 -192.65625 C 169.835938 -184.300781 181.5 -172.132812 190.28125 -156.15625 C 199.0625 -140.175781 203.453125 -121.097656 203.453125 -98.921875 C 203.453125 -75.304688 198.554688 -55.648438 188.765625 -39.953125 C 178.972656 -24.265625 166.804688 -12.675781 152.265625 -5.1875 C 137.722656 2.300781 123.253906 6.046875 108.859375 6.046875 C 93.015625 6.046875 77.675781 1.941406 62.84375 -6.265625 C 48.019531 -14.472656 35.925781 -26.566406 26.5625 -42.546875 C 17.207031 -58.523438 12.53125 -77.75 12.53125 -100.21875 C 12.53125 -120.375 16.5625 -138.367188 24.625 -154.203125 C 32.6875 -170.046875 43.914062 -182.503906 58.3125 -191.578125 C 72.71875 -200.648438 88.988281 -205.1875 107.125 -205.1875 Z M 74.734375 -108.859375 C 74.734375 -82.941406 75.597656 -63 77.328125 -49.03125 C 79.054688 -35.0625 82.296875 -24.910156 87.046875 -18.578125 C 91.796875 -12.242188 98.773438 -9.078125 107.984375 -9.078125 C 116.335938 -9.078125 122.960938 -11.664062 127.859375 -16.84375 C 132.753906 -22.03125 136.207031 -30.453125 138.21875 -42.109375 C 140.238281 -53.773438 141.25 -69.6875 141.25 -89.84375 C 141.25 -115.769531 140.53125 -135.570312 139.09375 -149.25 C 137.65625 -162.925781 134.488281 -173.144531 129.59375 -179.90625 C 124.695312 -186.675781 117.207031 -190.0625 107.125 -190.0625 C 94.457031 -190.0625 85.890625 -183.222656 81.421875 -169.546875 C 76.960938 -155.867188 74.734375 -135.640625 74.734375 -108.859375 Z M 74.734375 -108.859375 "/></g></g></g><g fill="#ffffff" fill-opacity="1"><g transform="translate(3342.521216, 1831.255234)"><g/></g></g><g fill="#ffffff" fill-opacity="1"><g transform="translate(3450.51507, 1831.255234)"><g><path d="M 257.890625 -212.09375 L 250.109375 -212.09375 C 246.078125 -234.5625 238.015625 -251.625 225.921875 -263.28125 C 213.828125 -274.945312 197.988281 -280.78125 178.40625 -280.78125 L 120.09375 -280.78125 L 120.09375 -159.390625 L 129.15625 -159.390625 C 140.101562 -159.390625 149.101562 -161.117188 156.15625 -164.578125 C 163.207031 -168.035156 169.179688 -174.726562 174.078125 -184.65625 C 178.972656 -194.59375 182.570312 -208.78125 184.875 -227.21875 L 192.65625 -227.21875 L 192.65625 -76.453125 L 184.875 -76.453125 C 181.707031 -102.660156 175.585938 -120.367188 166.515625 -129.578125 C 157.453125 -138.796875 145.578125 -143.40625 130.890625 -143.40625 L 120.09375 -143.40625 L 120.09375 -47.953125 C 120.09375 -35.566406 121.960938 -27.140625 125.703125 -22.671875 C 129.441406 -18.210938 136.640625 -15.984375 147.296875 -15.984375 L 178.40625 -15.984375 C 203.75 -15.984375 223.617188 -22.820312 238.015625 -36.5 C 252.410156 -50.175781 263.351562 -68.535156 270.84375 -91.578125 L 278.625 -91.578125 L 265.234375 0 L 7.78125 0 L 7.78125 -7.78125 L 17.703125 -7.78125 C 27.785156 -7.78125 35.203125 -9.289062 39.953125 -12.3125 C 44.703125 -15.332031 47.722656 -19.289062 49.015625 -24.1875 C 50.316406 -29.082031 50.96875 -35.707031 50.96875 -44.0625 L 50.96875 -253.5625 C 50.96875 -267.675781 47.726562 -277.035156 41.25 -281.640625 C 34.769531 -286.253906 23.613281 -288.703125 7.78125 -288.984375 L 7.78125 -296.765625 L 257.890625 -296.765625 Z M 257.890625 -212.09375 "/></g></g></g><g fill="#ffffff" fill-opacity="1"><g transform="translate(3738.6423, 1831.255234)"><g><path d="M 90.71875 -28.9375 C 90.71875 -21.738281 92.441406 -16.410156 95.890625 -12.953125 C 99.347656 -9.503906 104.820312 -7.78125 112.3125 -7.78125 L 112.3125 0 L 5.1875 0 L 5.1875 -7.78125 C 14.113281 -7.78125 20.734375 -9.722656 25.046875 -13.609375 C 29.367188 -17.492188 31.53125 -23.46875 31.53125 -31.53125 L 31.53125 -262.640625 C 31.53125 -272.429688 29.585938 -279.195312 25.703125 -282.9375 C 21.816406 -286.6875 14.976562 -288.703125 5.1875 -288.984375 L 5.1875 -296.765625 L 90.71875 -296.765625 Z M 90.71875 -28.9375 "/></g></g></g><g fill="#ffffff" fill-opacity="1"><g transform="translate(3855.707361, 1831.255234)"><g><path d="M 100.21875 -205.1875 C 117.78125 -205.1875 132.535156 -200.722656 144.484375 -191.796875 C 156.441406 -182.867188 165.441406 -171.421875 171.484375 -157.453125 C 177.535156 -143.484375 180.707031 -129.015625 181 -114.046875 L 181 -106.703125 L 67.390625 -106.703125 C 69.117188 -82.796875 75.378906 -63.5 86.171875 -48.8125 C 96.972656 -34.125 110.4375 -26.78125 126.5625 -26.78125 C 136.9375 -26.78125 145.789062 -29.585938 153.125 -35.203125 C 160.46875 -40.816406 167.164062 -48.953125 173.21875 -59.609375 L 181 -54.859375 C 171.207031 -34.128906 159.539062 -18.796875 146 -8.859375 C 132.46875 1.078125 116.488281 6.046875 98.0625 6.046875 C 79.625 6.046875 63.851562 1.507812 50.75 -7.5625 C 37.65625 -16.632812 27.648438 -28.941406 20.734375 -44.484375 C 13.828125 -60.035156 10.375 -77.460938 10.375 -96.765625 C 10.375 -116.054688 14.40625 -133.976562 22.46875 -150.53125 C 30.53125 -167.09375 41.472656 -180.34375 55.296875 -190.28125 C 69.117188 -200.21875 84.09375 -205.1875 100.21875 -205.1875 Z M 128.296875 -131.75 C 128.296875 -152.195312 126.0625 -167.316406 121.59375 -177.109375 C 117.132812 -186.898438 110.007812 -191.796875 100.21875 -191.796875 C 89.851562 -191.796875 81.789062 -185.382812 76.03125 -172.5625 C 70.269531 -159.75 67.390625 -144.992188 67.390625 -128.296875 L 67.390625 -120.953125 L 128.296875 -120.953125 Z M 128.296875 -131.75 "/></g></g></g><g fill="#ffffff" fill-opacity="1"><g transform="translate(4044.912315, 1831.255234)"><g><path d="M 108.859375 -205.1875 C 121.523438 -205.1875 133.1875 -202.878906 143.84375 -198.265625 C 154.5 -193.660156 162.921875 -187.539062 169.109375 -179.90625 C 175.304688 -172.28125 178.40625 -163.859375 178.40625 -154.640625 C 178.40625 -147.148438 175.882812 -140.957031 170.84375 -136.0625 C 165.800781 -131.175781 159.535156 -128.734375 152.046875 -128.734375 C 141.109375 -128.734375 132.613281 -133.484375 126.5625 -142.984375 C 124.257812 -146.441406 122.675781 -149.894531 121.8125 -153.34375 C 120.945312 -156.800781 120.226562 -160.976562 119.65625 -165.875 C 119.082031 -170.769531 118.429688 -174.582031 117.703125 -177.3125 C 116.984375 -180.050781 115.617188 -182.429688 113.609375 -184.453125 C 109.859375 -188.191406 105.25 -190.0625 99.78125 -190.0625 C 88.257812 -190.0625 79.90625 -183.941406 74.71875 -171.703125 C 69.539062 -159.460938 66.953125 -144.707031 66.953125 -127.4375 C 66.953125 -113.613281 69.039062 -98.992188 73.21875 -83.578125 C 77.394531 -68.171875 84.234375 -54.925781 93.734375 -43.84375 C 103.234375 -32.757812 115.328125 -27.21875 130.015625 -27.21875 C 139.234375 -27.21875 147.15625 -28.726562 153.78125 -31.75 C 160.40625 -34.769531 168.179688 -41.035156 177.109375 -50.546875 L 184.015625 -45.78125 C 174.804688 -29.082031 163.21875 -16.269531 149.25 -7.34375 C 135.28125 1.582031 119.65625 6.046875 102.375 6.046875 C 84.8125 6.046875 69.046875 1.726562 55.078125 -6.90625 C 41.109375 -15.550781 30.164062 -27.578125 22.25 -42.984375 C 14.332031 -58.390625 10.375 -75.882812 10.375 -95.46875 C 10.375 -115.914062 14.691406 -134.5625 23.328125 -151.40625 C 31.960938 -168.25 43.765625 -181.421875 58.734375 -190.921875 C 73.710938 -200.429688 90.421875 -205.1875 108.859375 -205.1875 Z M 108.859375 -205.1875 "/></g></g></g><g fill="#ffffff" fill-opacity="1"><g transform="translate(4234.117269, 1831.255234)"><g><path d="M 83.796875 -272.578125 L 91.140625 -272.578125 L 91.140625 -200.4375 L 136.9375 -200.4375 L 136.9375 -178.828125 L 91.140625 -178.828125 L 91.140625 -40.609375 C 91.140625 -35.128906 92.289062 -30.085938 94.59375 -25.484375 C 96.90625 -20.878906 100.941406 -18.578125 106.703125 -18.578125 C 116.492188 -18.578125 124.84375 -25.34375 131.75 -38.875 L 136.9375 -31.96875 C 125.414062 -6.625 107.128906 6.046875 82.078125 6.046875 C 65.953125 6.046875 53.566406 1.007812 44.921875 -9.0625 C 36.285156 -19.144531 31.96875 -31.382812 31.96875 -45.78125 L 31.96875 -178.828125 L 7.34375 -178.828125 L 7.34375 -186.609375 C 21.164062 -196.398438 36.140625 -210.363281 52.265625 -228.5 C 68.390625 -246.644531 78.898438 -261.335938 83.796875 -272.578125 Z M 83.796875 -272.578125 "/></g></g></g><g fill="#ffffff" fill-opacity="1"><g transform="translate(4377.965084, 1831.255234)"><g><path d="M 107.125 -205.1875 C 124.695312 -205.1875 140.753906 -201.007812 155.296875 -192.65625 C 169.835938 -184.300781 181.5 -172.132812 190.28125 -156.15625 C 199.0625 -140.175781 203.453125 -121.097656 203.453125 -98.921875 C 203.453125 -75.304688 198.554688 -55.648438 188.765625 -39.953125 C 178.972656 -24.265625 166.804688 -12.675781 152.265625 -5.1875 C 137.722656 2.300781 123.253906 6.046875 108.859375 6.046875 C 93.015625 6.046875 77.675781 1.941406 62.84375 -6.265625 C 48.019531 -14.472656 35.925781 -26.566406 26.5625 -42.546875 C 17.207031 -58.523438 12.53125 -77.75 12.53125 -100.21875 C 12.53125 -120.375 16.5625 -138.367188 24.625 -154.203125 C 32.6875 -170.046875 43.914062 -182.503906 58.3125 -191.578125 C 72.71875 -200.648438 88.988281 -205.1875 107.125 -205.1875 Z M 74.734375 -108.859375 C 74.734375 -82.941406 75.597656 -63 77.328125 -49.03125 C 79.054688 -35.0625 82.296875 -24.910156 87.046875 -18.578125 C 91.796875 -12.242188 98.773438 -9.078125 107.984375 -9.078125 C 116.335938 -9.078125 122.960938 -11.664062 127.859375 -16.84375 C 132.753906 -22.03125 136.207031 -30.453125 138.21875 -42.109375 C 140.238281 -53.773438 141.25 -69.6875 141.25 -89.84375 C 141.25 -115.769531 140.53125 -135.570312 139.09375 -149.25 C 137.65625 -162.925781 134.488281 -173.144531 129.59375 -179.90625 C 124.695312 -186.675781 117.207031 -190.0625 107.125 -190.0625 C 94.457031 -190.0625 85.890625 -183.222656 81.421875 -169.546875 C 76.960938 -155.867188 74.734375 -135.640625 74.734375 -108.859375 Z M 74.734375 -108.859375 "/></g></g></g><g fill="#ffffff" fill-opacity="1"><g transform="translate(4593.952426, 1831.255234)"><g><path d="M 133.90625 -205.1875 C 140.820312 -205.1875 146.4375 -202.519531 150.75 -197.1875 C 155.070312 -191.863281 157.234375 -185.023438 157.234375 -176.671875 C 157.234375 -167.742188 155.070312 -160.546875 150.75 -155.078125 C 146.4375 -149.609375 140.535156 -146.875 133.046875 -146.875 C 129.585938 -146.875 126.5625 -147.59375 123.96875 -149.03125 C 121.382812 -150.46875 118.21875 -152.484375 114.46875 -155.078125 C 109 -158.816406 104.96875 -160.6875 102.375 -160.6875 C 97.769531 -160.6875 93.882812 -156.941406 90.71875 -149.453125 C 87.550781 -141.972656 85.96875 -133.476562 85.96875 -123.96875 L 85.96875 -34.125 C 85.96875 -24.625 87.835938 -17.859375 91.578125 -13.828125 C 95.316406 -9.796875 102.082031 -7.78125 111.875 -7.78125 L 111.875 0 L 4.75 0 L 4.75 -7.78125 C 19.4375 -7.78125 26.78125 -16.414062 26.78125 -33.6875 L 26.78125 -166.734375 C 26.78125 -183.722656 19.4375 -192.363281 4.75 -192.65625 L 4.75 -200.4375 L 85.96875 -200.4375 L 85.96875 -164.578125 L 86.828125 -164.578125 C 100.359375 -191.648438 116.050781 -205.1875 133.90625 -205.1875 Z M 133.90625 -205.1875 "/></g></g></g><g fill="#ffffff" fill-opacity="1"><g transform="translate(4760.262646, 1831.255234)"><g><path d="M 109.71875 -205.1875 C 134.488281 -205.1875 152.628906 -200.144531 164.140625 -190.0625 C 175.660156 -179.988281 181.421875 -167.175781 181.421875 -151.625 L 181.421875 -44.921875 C 181.421875 -29.085938 185.453125 -21.171875 193.515625 -21.171875 C 195.828125 -21.171875 197.773438 -21.816406 199.359375 -23.109375 C 200.941406 -24.398438 202.738281 -26.632812 204.75 -29.8125 L 208.640625 -25.921875 C 204.609375 -16.128906 198.269531 -8.351562 189.625 -2.59375 C 180.988281 3.164062 171.34375 6.046875 160.6875 6.046875 C 149.75 6.046875 140.894531 3.3125 134.125 -2.15625 C 127.351562 -7.632812 123.394531 -15.695312 122.25 -26.34375 C 120.519531 -25.195312 117.925781 -23.179688 114.46875 -20.296875 C 104.394531 -11.953125 95.035156 -5.472656 86.390625 -0.859375 C 77.753906 3.742188 67.820312 6.046875 56.59375 6.046875 C 45.351562 6.046875 35.914062 2.015625 28.28125 -6.046875 C 20.65625 -14.109375 16.84375 -23.898438 16.84375 -35.421875 C 16.84375 -50.398438 23.394531 -63.789062 36.5 -75.59375 C 49.601562 -87.40625 63.929688 -96.910156 79.484375 -104.109375 L 122.25 -124.84375 L 122.25 -164.140625 C 122.25 -171.347656 120.015625 -177.46875 115.546875 -182.5 C 111.085938 -187.539062 104.101562 -190.0625 94.59375 -190.0625 C 86.25 -190.0625 79.269531 -188.332031 73.65625 -184.875 C 68.039062 -181.425781 65.234375 -177.253906 65.234375 -172.359375 C 65.234375 -170.628906 65.734375 -168.898438 66.734375 -167.171875 C 67.742188 -165.441406 68.96875 -163.710938 70.40625 -161.984375 C 73 -158.816406 75.015625 -155.789062 76.453125 -152.90625 C 77.898438 -150.03125 78.625 -146.722656 78.625 -142.984375 C 78.625 -136.066406 76.03125 -130.445312 70.84375 -126.125 C 65.65625 -121.8125 58.890625 -119.65625 50.546875 -119.65625 C 41.328125 -119.65625 33.835938 -122.101562 28.078125 -127 C 22.316406 -131.894531 19.4375 -138.375 19.4375 -146.4375 C 19.4375 -156.800781 23.539062 -166.519531 31.75 -175.59375 C 39.957031 -184.664062 50.972656 -191.863281 64.796875 -197.1875 C 78.617188 -202.519531 93.59375 -205.1875 109.71875 -205.1875 Z M 75.59375 -54 C 75.59375 -47.082031 77.535156 -41.460938 81.421875 -37.140625 C 85.304688 -32.828125 90.273438 -30.671875 96.328125 -30.671875 C 101.222656 -30.671875 105.613281 -31.535156 109.5 -33.265625 C 113.382812 -34.992188 117.632812 -37.726562 122.25 -41.46875 L 122.25 -109.71875 C 91.144531 -93.882812 75.59375 -75.3125 75.59375 -54 Z M 75.59375 -54 "/></g></g></g><g fill="#ffffff" fill-opacity="1"><g transform="translate(4976.249989, 1831.255234)"><g><path d="M 90.71875 -28.9375 C 90.71875 -21.738281 92.441406 -16.410156 95.890625 -12.953125 C 99.347656 -9.503906 104.820312 -7.78125 112.3125 -7.78125 L 112.3125 0 L 5.1875 0 L 5.1875 -7.78125 C 14.113281 -7.78125 20.734375 -9.722656 25.046875 -13.609375 C 29.367188 -17.492188 31.53125 -23.46875 31.53125 -31.53125 L 31.53125 -262.640625 C 31.53125 -272.429688 29.585938 -279.195312 25.703125 -282.9375 C 21.816406 -286.6875 14.976562 -288.703125 5.1875 -288.984375 L 5.1875 -296.765625 L 90.71875 -296.765625 Z M 90.71875 -28.9375 "/></g></g></g><g fill="#ffffff" fill-opacity="1"><g transform="translate(1117.198621, 2435.522081)"><g><path d="M 175.375 -303.234375 C 190.351562 -303.234375 203.171875 -301.863281 213.828125 -299.125 C 224.484375 -296.394531 235.28125 -292.726562 246.21875 -288.125 C 254.570312 -284.664062 260.476562 -282.9375 263.9375 -282.9375 C 269.40625 -282.9375 273.503906 -284.519531 276.234375 -287.6875 C 278.972656 -290.851562 281.492188 -295.75 283.796875 -302.375 L 292.4375 -302.375 L 292.4375 -201.734375 L 283.796875 -201.734375 C 274.585938 -228.515625 260.910156 -249.316406 242.765625 -264.140625 C 224.617188 -278.972656 204.316406 -286.390625 181.859375 -286.390625 C 154.785156 -286.390625 133.6875 -273.570312 118.5625 -247.9375 C 103.445312 -222.3125 95.890625 -187.039062 95.890625 -142.125 C 95.890625 -87.113281 106.40625 -50.109375 127.4375 -31.109375 C 135.5 -23.617188 144.351562 -18.070312 154 -14.46875 C 163.644531 -10.875 172.929688 -9.078125 181.859375 -9.078125 C 195.390625 -9.078125 209.210938 -12.242188 223.328125 -18.578125 L 223.328125 -91.140625 C 223.328125 -108.992188 211.953125 -117.921875 189.203125 -117.921875 L 186.171875 -117.921875 L 186.171875 -125.703125 L 327 -125.703125 L 327 -117.921875 C 303.957031 -117.921875 292.4375 -109.140625 292.4375 -91.578125 L 292.4375 -18.578125 C 278.039062 -10.796875 260.832031 -4.742188 240.8125 -0.421875 C 220.800781 3.890625 200.570312 6.046875 180.125 6.046875 C 147.007812 6.046875 118.285156 -0.429688 93.953125 -13.390625 C 69.617188 -26.347656 51.039062 -44.054688 38.21875 -66.515625 C 25.40625 -88.984375 19 -114.039062 19 -141.6875 C 19 -170.769531 25.984375 -197.691406 39.953125 -222.453125 C 53.921875 -247.222656 72.851562 -266.878906 96.75 -281.421875 C 120.65625 -295.960938 146.863281 -303.234375 175.375 -303.234375 Z M 175.375 -303.234375 "/></g></g></g><g fill="#ffffff" fill-opacity="1"><g transform="translate(1450.251434, 2435.522081)"><g><path d="M 82.078125 -59.1875 C 82.078125 -46.507812 83.585938 -37.363281 86.609375 -31.75 C 89.628906 -26.132812 94.453125 -23.328125 101.078125 -23.328125 C 107.128906 -23.328125 113.175781 -25.628906 119.21875 -30.234375 C 125.269531 -34.847656 130.597656 -41.1875 135.203125 -49.25 L 135.203125 -168.46875 C 135.203125 -176.820312 133.1875 -182.722656 129.15625 -186.171875 C 125.125 -189.628906 118.789062 -191.789062 110.15625 -192.65625 L 110.15625 -200.4375 L 194.390625 -200.4375 L 194.390625 -23.765625 C 194.390625 -14.253906 199.285156 -8.925781 209.078125 -7.78125 L 209.078125 0 L 135.203125 0 L 135.203125 -25.921875 C 127.140625 -16.410156 118.210938 -8.703125 108.421875 -2.796875 C 98.628906 3.097656 88.550781 6.046875 78.1875 6.046875 C 61.195312 6.046875 47.734375 0.503906 37.796875 -10.578125 C 27.859375 -21.671875 22.890625 -36.429688 22.890625 -54.859375 L 22.890625 -165.4375 C 22.890625 -174.363281 21.738281 -180.84375 19.4375 -184.875 C 17.132812 -188.914062 12.816406 -191.507812 6.484375 -192.65625 L 6.484375 -200.4375 L 82.078125 -200.4375 Z M 82.078125 -59.1875 "/></g></g></g><g fill="#ffffff" fill-opacity="1"><g transform="translate(1666.238912, 2435.522081)"><g><path d="M 109.71875 -205.1875 C 134.488281 -205.1875 152.628906 -200.144531 164.140625 -190.0625 C 175.660156 -179.988281 181.421875 -167.175781 181.421875 -151.625 L 181.421875 -44.921875 C 181.421875 -29.085938 185.453125 -21.171875 193.515625 -21.171875 C 195.828125 -21.171875 197.773438 -21.816406 199.359375 -23.109375 C 200.941406 -24.398438 202.738281 -26.632812 204.75 -29.8125 L 208.640625 -25.921875 C 204.609375 -16.128906 198.269531 -8.351562 189.625 -2.59375 C 180.988281 3.164062 171.34375 6.046875 160.6875 6.046875 C 149.75 6.046875 140.894531 3.3125 134.125 -2.15625 C 127.351562 -7.632812 123.394531 -15.695312 122.25 -26.34375 C 120.519531 -25.195312 117.925781 -23.179688 114.46875 -20.296875 C 104.394531 -11.953125 95.035156 -5.472656 86.390625 -0.859375 C 77.753906 3.742188 67.820312 6.046875 56.59375 6.046875 C 45.351562 6.046875 35.914062 2.015625 28.28125 -6.046875 C 20.65625 -14.109375 16.84375 -23.898438 16.84375 -35.421875 C 16.84375 -50.398438 23.394531 -63.789062 36.5 -75.59375 C 49.601562 -87.40625 63.929688 -96.910156 79.484375 -104.109375 L 122.25 -124.84375 L 122.25 -164.140625 C 122.25 -171.347656 120.015625 -177.46875 115.546875 -182.5 C 111.085938 -187.539062 104.101562 -190.0625 94.59375 -190.0625 C 86.25 -190.0625 79.269531 -188.332031 73.65625 -184.875 C 68.039062 -181.425781 65.234375 -177.253906 65.234375 -172.359375 C 65.234375 -170.628906 65.734375 -168.898438 66.734375 -167.171875 C 67.742188 -165.441406 68.96875 -163.710938 70.40625 -161.984375 C 73 -158.816406 75.015625 -155.789062 76.453125 -152.90625 C 77.898438 -150.03125 78.625 -146.722656 78.625 -142.984375 C 78.625 -136.066406 76.03125 -130.445312 70.84375 -126.125 C 65.65625 -121.8125 58.890625 -119.65625 50.546875 -119.65625 C 41.328125 -119.65625 33.835938 -122.101562 28.078125 -127 C 22.316406 -131.894531 19.4375 -138.375 19.4375 -146.4375 C 19.4375 -156.800781 23.539062 -166.519531 31.75 -175.59375 C 39.957031 -184.664062 50.972656 -191.863281 64.796875 -197.1875 C 78.617188 -202.519531 93.59375 -205.1875 109.71875 -205.1875 Z M 75.59375 -54 C 75.59375 -47.082031 77.535156 -41.460938 81.421875 -37.140625 C 85.304688 -32.828125 90.273438 -30.671875 96.328125 -30.671875 C 101.222656 -30.671875 105.613281 -31.535156 109.5 -33.265625 C 113.382812 -34.992188 117.632812 -37.726562 122.25 -41.46875 L 122.25 -109.71875 C 91.144531 -93.882812 75.59375 -75.3125 75.59375 -54 Z M 75.59375 -54 "/></g></g></g><g fill="#ffffff" fill-opacity="1"><g transform="translate(1882.226434, 2435.522081)"><g><path d="M 83.796875 -272.578125 L 91.140625 -272.578125 L 91.140625 -200.4375 L 136.9375 -200.4375 L 136.9375 -178.828125 L 91.140625 -178.828125 L 91.140625 -40.609375 C 91.140625 -35.128906 92.289062 -30.085938 94.59375 -25.484375 C 96.90625 -20.878906 100.941406 -18.578125 106.703125 -18.578125 C 116.492188 -18.578125 124.84375 -25.34375 131.75 -38.875 L 136.9375 -31.96875 C 125.414062 -6.625 107.128906 6.046875 82.078125 6.046875 C 65.953125 6.046875 53.566406 1.007812 44.921875 -9.0625 C 36.285156 -19.144531 31.96875 -31.382812 31.96875 -45.78125 L 31.96875 -178.828125 L 7.34375 -178.828125 L 7.34375 -186.609375 C 21.164062 -196.398438 36.140625 -210.363281 52.265625 -228.5 C 68.390625 -246.644531 78.898438 -261.335938 83.796875 -272.578125 Z M 83.796875 -272.578125 "/></g></g></g><g fill="#ffffff" fill-opacity="1"><g transform="translate(2026.074159, 2435.522081)"><g><path d="M 100.21875 -205.1875 C 117.78125 -205.1875 132.535156 -200.722656 144.484375 -191.796875 C 156.441406 -182.867188 165.441406 -171.421875 171.484375 -157.453125 C 177.535156 -143.484375 180.707031 -129.015625 181 -114.046875 L 181 -106.703125 L 67.390625 -106.703125 C 69.117188 -82.796875 75.378906 -63.5 86.171875 -48.8125 C 96.972656 -34.125 110.4375 -26.78125 126.5625 -26.78125 C 136.9375 -26.78125 145.789062 -29.585938 153.125 -35.203125 C 160.46875 -40.816406 167.164062 -48.953125 173.21875 -59.609375 L 181 -54.859375 C 171.207031 -34.128906 159.539062 -18.796875 146 -8.859375 C 132.46875 1.078125 116.488281 6.046875 98.0625 6.046875 C 79.625 6.046875 63.851562 1.507812 50.75 -7.5625 C 37.65625 -16.632812 27.648438 -28.941406 20.734375 -44.484375 C 13.828125 -60.035156 10.375 -77.460938 10.375 -96.765625 C 10.375 -116.054688 14.40625 -133.976562 22.46875 -150.53125 C 30.53125 -167.09375 41.472656 -180.34375 55.296875 -190.28125 C 69.117188 -200.21875 84.09375 -205.1875 100.21875 -205.1875 Z M 128.296875 -131.75 C 128.296875 -152.195312 126.0625 -167.316406 121.59375 -177.109375 C 117.132812 -186.898438 110.007812 -191.796875 100.21875 -191.796875 C 89.851562 -191.796875 81.789062 -185.382812 76.03125 -172.5625 C 70.269531 -159.75 67.390625 -144.992188 67.390625 -128.296875 L 67.390625 -120.953125 L 128.296875 -120.953125 Z M 128.296875 -131.75 "/></g></g></g><g fill="#ffffff" fill-opacity="1"><g transform="translate(2215.279203, 2435.522081)"><g><path d="M 142.984375 -205.1875 C 156.234375 -205.1875 167.25 -201.945312 176.03125 -195.46875 C 184.8125 -188.988281 190.5 -179.988281 193.09375 -168.46875 C 201.15625 -180.269531 210.65625 -189.335938 221.59375 -195.671875 C 232.539062 -202.015625 243.914062 -205.1875 255.71875 -205.1875 C 272.71875 -205.1875 285.679688 -199.859375 294.609375 -189.203125 C 303.535156 -178.546875 308 -165.585938 308 -150.328125 L 308 -30.671875 C 308 -24.046875 309.507812 -18.644531 312.53125 -14.46875 C 315.550781 -10.289062 320.375 -8.0625 327 -7.78125 L 327 0 L 230.234375 0 L 230.234375 -7.78125 C 237.722656 -8.0625 242.691406 -10 245.140625 -13.59375 C 247.585938 -17.195312 248.8125 -23.609375 248.8125 -32.828125 L 248.8125 -155.078125 C 248.8125 -159.679688 247.515625 -164.503906 244.921875 -169.546875 C 242.328125 -174.585938 237.863281 -177.109375 231.53125 -177.109375 C 225.488281 -177.109375 219.875 -175.160156 214.6875 -171.265625 C 209.5 -167.378906 203.453125 -160.539062 196.546875 -150.75 L 196.546875 -33.6875 C 196.546875 -18.144531 202.738281 -9.507812 215.125 -7.78125 L 215.125 0 L 119.21875 0 L 119.21875 -7.78125 C 131.3125 -9.21875 137.359375 -18.285156 137.359375 -34.984375 L 137.359375 -152.921875 C 137.359375 -159.546875 135.921875 -165.160156 133.046875 -169.765625 C 130.171875 -174.367188 125.421875 -176.671875 118.796875 -176.671875 C 107.554688 -176.671875 96.320312 -168.03125 85.09375 -150.75 L 85.09375 -34.125 C 85.09375 -18.289062 91.429688 -9.507812 104.109375 -7.78125 L 104.109375 0 L 6.046875 0 L 6.046875 -7.78125 C 12.960938 -8.644531 18.003906 -11.019531 21.171875 -14.90625 C 24.335938 -18.789062 25.921875 -25.628906 25.921875 -35.421875 L 25.921875 -163.71875 C 25.921875 -174.082031 24.191406 -181.351562 20.734375 -185.53125 C 17.273438 -189.707031 12.378906 -192.082031 6.046875 -192.65625 L 6.046875 -200.4375 L 85.09375 -200.4375 L 85.09375 -172.359375 L 85.96875 -172.359375 C 94.894531 -183.878906 103.960938 -192.226562 113.171875 -197.40625 C 122.390625 -202.59375 132.328125 -205.1875 142.984375 -205.1875 Z M 142.984375 -205.1875 "/></g></g></g><g fill="#ffffff" fill-opacity="1"><g transform="translate(2548.331972, 2435.522081)"><g><path d="M 109.71875 -205.1875 C 134.488281 -205.1875 152.628906 -200.144531 164.140625 -190.0625 C 175.660156 -179.988281 181.421875 -167.175781 181.421875 -151.625 L 181.421875 -44.921875 C 181.421875 -29.085938 185.453125 -21.171875 193.515625 -21.171875 C 195.828125 -21.171875 197.773438 -21.816406 199.359375 -23.109375 C 200.941406 -24.398438 202.738281 -26.632812 204.75 -29.8125 L 208.640625 -25.921875 C 204.609375 -16.128906 198.269531 -8.351562 189.625 -2.59375 C 180.988281 3.164062 171.34375 6.046875 160.6875 6.046875 C 149.75 6.046875 140.894531 3.3125 134.125 -2.15625 C 127.351562 -7.632812 123.394531 -15.695312 122.25 -26.34375 C 120.519531 -25.195312 117.925781 -23.179688 114.46875 -20.296875 C 104.394531 -11.953125 95.035156 -5.472656 86.390625 -0.859375 C 77.753906 3.742188 67.820312 6.046875 56.59375 6.046875 C 45.351562 6.046875 35.914062 2.015625 28.28125 -6.046875 C 20.65625 -14.109375 16.84375 -23.898438 16.84375 -35.421875 C 16.84375 -50.398438 23.394531 -63.789062 36.5 -75.59375 C 49.601562 -87.40625 63.929688 -96.910156 79.484375 -104.109375 L 122.25 -124.84375 L 122.25 -164.140625 C 122.25 -171.347656 120.015625 -177.46875 115.546875 -182.5 C 111.085938 -187.539062 104.101562 -190.0625 94.59375 -190.0625 C 86.25 -190.0625 79.269531 -188.332031 73.65625 -184.875 C 68.039062 -181.425781 65.234375 -177.253906 65.234375 -172.359375 C 65.234375 -170.628906 65.734375 -168.898438 66.734375 -167.171875 C 67.742188 -165.441406 68.96875 -163.710938 70.40625 -161.984375 C 73 -158.816406 75.015625 -155.789062 76.453125 -152.90625 C 77.898438 -150.03125 78.625 -146.722656 78.625 -142.984375 C 78.625 -136.066406 76.03125 -130.445312 70.84375 -126.125 C 65.65625 -121.8125 58.890625 -119.65625 50.546875 -119.65625 C 41.328125 -119.65625 33.835938 -122.101562 28.078125 -127 C 22.316406 -131.894531 19.4375 -138.375 19.4375 -146.4375 C 19.4375 -156.800781 23.539062 -166.519531 31.75 -175.59375 C 39.957031 -184.664062 50.972656 -191.863281 64.796875 -197.1875 C 78.617188 -202.519531 93.59375 -205.1875 109.71875 -205.1875 Z M 75.59375 -54 C 75.59375 -47.082031 77.535156 -41.460938 81.421875 -37.140625 C 85.304688 -32.828125 90.273438 -30.671875 96.328125 -30.671875 C 101.222656 -30.671875 105.613281 -31.535156 109.5 -33.265625 C 113.382812 -34.992188 117.632812 -37.726562 122.25 -41.46875 L 122.25 -109.71875 C 91.144531 -93.882812 75.59375 -75.3125 75.59375 -54 Z M 75.59375 -54 "/></g></g></g><g fill="#ffffff" fill-opacity="1"><g transform="translate(2764.319494, 2435.522081)"><g><path d="M 90.71875 -28.9375 C 90.71875 -21.738281 92.441406 -16.410156 95.890625 -12.953125 C 99.347656 -9.503906 104.820312 -7.78125 112.3125 -7.78125 L 112.3125 0 L 5.1875 0 L 5.1875 -7.78125 C 14.113281 -7.78125 20.734375 -9.722656 25.046875 -13.609375 C 29.367188 -17.492188 31.53125 -23.46875 31.53125 -31.53125 L 31.53125 -262.640625 C 31.53125 -272.429688 29.585938 -279.195312 25.703125 -282.9375 C 21.816406 -286.6875 14.976562 -288.703125 5.1875 -288.984375 L 5.1875 -296.765625 L 90.71875 -296.765625 Z M 90.71875 -28.9375 "/></g></g></g><g fill="#ffffff" fill-opacity="1"><g transform="translate(2881.384738, 2435.522081)"><g><path d="M 109.71875 -205.1875 C 134.488281 -205.1875 152.628906 -200.144531 164.140625 -190.0625 C 175.660156 -179.988281 181.421875 -167.175781 181.421875 -151.625 L 181.421875 -44.921875 C 181.421875 -29.085938 185.453125 -21.171875 193.515625 -21.171875 C 195.828125 -21.171875 197.773438 -21.816406 199.359375 -23.109375 C 200.941406 -24.398438 202.738281 -26.632812 204.75 -29.8125 L 208.640625 -25.921875 C 204.609375 -16.128906 198.269531 -8.351562 189.625 -2.59375 C 180.988281 3.164062 171.34375 6.046875 160.6875 6.046875 C 149.75 6.046875 140.894531 3.3125 134.125 -2.15625 C 127.351562 -7.632812 123.394531 -15.695312 122.25 -26.34375 C 120.519531 -25.195312 117.925781 -23.179688 114.46875 -20.296875 C 104.394531 -11.953125 95.035156 -5.472656 86.390625 -0.859375 C 77.753906 3.742188 67.820312 6.046875 56.59375 6.046875 C 45.351562 6.046875 35.914062 2.015625 28.28125 -6.046875 C 20.65625 -14.109375 16.84375 -23.898438 16.84375 -35.421875 C 16.84375 -50.398438 23.394531 -63.789062 36.5 -75.59375 C 49.601562 -87.40625 63.929688 -96.910156 79.484375 -104.109375 L 122.25 -124.84375 L 122.25 -164.140625 C 122.25 -171.347656 120.015625 -177.46875 115.546875 -182.5 C 111.085938 -187.539062 104.101562 -190.0625 94.59375 -190.0625 C 86.25 -190.0625 79.269531 -188.332031 73.65625 -184.875 C 68.039062 -181.425781 65.234375 -177.253906 65.234375 -172.359375 C 65.234375 -170.628906 65.734375 -168.898438 66.734375 -167.171875 C 67.742188 -165.441406 68.96875 -163.710938 70.40625 -161.984375 C 73 -158.816406 75.015625 -155.789062 76.453125 -152.90625 C 77.898438 -150.03125 78.625 -146.722656 78.625 -142.984375 C 78.625 -136.066406 76.03125 -130.445312 70.84375 -126.125 C 65.65625 -121.8125 58.890625 -119.65625 50.546875 -119.65625 C 41.328125 -119.65625 33.835938 -122.101562 28.078125 -127 C 22.316406 -131.894531 19.4375 -138.375 19.4375 -146.4375 C 19.4375 -156.800781 23.539062 -166.519531 31.75 -175.59375 C 39.957031 -184.664062 50.972656 -191.863281 64.796875 -197.1875 C 78.617188 -202.519531 93.59375 -205.1875 109.71875 -205.1875 Z M 75.59375 -54 C 75.59375 -47.082031 77.535156 -41.460938 81.421875 -37.140625 C 85.304688 -32.828125 90.273438 -30.671875 96.328125 -30.671875 C 101.222656 -30.671875 105.613281 -31.535156 109.5 -33.265625 C 113.382812 -34.992188 117.632812 -37.726562 122.25 -41.46875 L 122.25 -109.71875 C 91.144531 -93.882812 75.59375 -75.3125 75.59375 -54 Z M 75.59375 -54 "/></g></g></g><g fill="#ffffff" fill-opacity="1"><g transform="translate(3097.372261, 2435.522081)"><g/></g></g><g fill="#ffffff" fill-opacity="1"><g transform="translate(3205.365931, 2435.522081)"><g><path d="M 174.078125 -303.234375 C 189.054688 -303.234375 201.441406 -301.9375 211.234375 -299.34375 C 221.023438 -296.757812 231.535156 -293.164062 242.765625 -288.5625 C 243.921875 -287.976562 246.875 -286.75 251.625 -284.875 C 256.375 -283.007812 260.617188 -282.078125 264.359375 -282.078125 C 275.304688 -282.078125 282.078125 -288.988281 284.671875 -302.8125 L 293.3125 -302.8125 L 293.3125 -203.453125 L 284.671875 -203.453125 C 282.367188 -219.867188 276.535156 -234.195312 267.171875 -246.4375 C 257.816406 -258.675781 246.515625 -268.035156 233.265625 -274.515625 C 220.015625 -280.992188 206.476562 -284.234375 192.65625 -284.234375 C 173.070312 -284.234375 156.007812 -278.398438 141.46875 -266.734375 C 126.925781 -255.078125 115.835938 -238.878906 108.203125 -218.140625 C 100.578125 -197.410156 96.765625 -173.941406 96.765625 -147.734375 C 96.765625 -105.398438 105.113281 -72.207031 121.8125 -48.15625 C 138.519531 -24.113281 161.5625 -12.09375 190.9375 -12.09375 C 209.65625 -12.09375 226.5 -16.554688 241.46875 -25.484375 C 256.445312 -34.410156 271.710938 -47.945312 287.265625 -66.09375 L 287.265625 -42.328125 C 271.128906 -25.335938 254.347656 -13.023438 236.921875 -5.390625 C 219.503906 2.234375 199.566406 6.046875 177.109375 6.046875 C 145.429688 6.046875 117.710938 -0.570312 93.953125 -13.8125 C 70.191406 -27.0625 51.90625 -45.0625 39.09375 -67.8125 C 26.28125 -90.5625 19.875 -115.757812 19.875 -143.40625 C 19.875 -171.914062 26.851562 -198.410156 40.8125 -222.890625 C 54.78125 -247.367188 73.570312 -266.878906 97.1875 -281.421875 C 120.800781 -295.960938 146.429688 -303.234375 174.078125 -303.234375 Z M 174.078125 -303.234375 "/></g></g></g><g fill="#ffffff" fill-opacity="1"><g transform="translate(3515.955934, 2435.522081)"><g><path d="M 58.75 -63.5 C 68.25 -63.5 76.382812 -60.113281 83.15625 -53.34375 C 89.925781 -46.582031 93.3125 -38.445312 93.3125 -28.9375 C 93.3125 -19.4375 89.925781 -11.226562 83.15625 -4.3125 C 76.382812 2.59375 68.25 6.046875 58.75 6.046875 C 49.25 6.046875 41.039062 2.59375 34.125 -4.3125 C 27.21875 -11.226562 23.765625 -19.4375 23.765625 -28.9375 C 23.765625 -38.445312 27.21875 -46.582031 34.125 -53.34375 C 41.039062 -60.113281 49.25 -63.5 58.75 -63.5 Z M 58.75 -63.5 "/></g></g></g><g fill="#ffffff" fill-opacity="1"><g transform="translate(3633.021178, 2435.522081)"><g><path d="M 54.859375 -59.1875 L 155.078125 -301.515625 L 159.390625 -301.515625 L 259.1875 -58.3125 C 265.800781 -41.894531 272.347656 -29.367188 278.828125 -20.734375 C 285.316406 -12.097656 293.742188 -7.78125 304.109375 -7.78125 L 304.109375 0 L 165.4375 0 L 165.4375 -7.78125 C 179.257812 -8.0625 188.472656 -9.140625 193.078125 -11.015625 C 197.691406 -12.890625 200 -17.140625 200 -23.765625 C 200 -25.773438 199.492188 -28.078125 198.484375 -30.671875 C 197.484375 -33.265625 196.691406 -35.425781 196.109375 -37.15625 L 177.546875 -83.796875 L 82.5 -83.796875 L 69.109375 -51.40625 C 65.078125 -43.34375 63.0625 -36.285156 63.0625 -30.234375 C 63.0625 -21.304688 66.375 -15.332031 73 -12.3125 C 79.625 -9.289062 88.984375 -7.78125 101.078125 -7.78125 L 101.078125 0 L 6.046875 0 L 6.046875 -7.78125 C 15.835938 -8.644531 24.617188 -13.109375 32.390625 -21.171875 C 40.171875 -29.234375 47.660156 -41.90625 54.859375 -59.1875 Z M 171.0625 -99.78125 L 130.015625 -199.140625 L 88.984375 -99.78125 Z M 171.0625 -99.78125 "/></g></g></g><g fill="#ffffff" fill-opacity="1"><g transform="translate(3943.611182, 2435.522081)"><g><path d="M 58.75 -63.5 C 68.25 -63.5 76.382812 -60.113281 83.15625 -53.34375 C 89.925781 -46.582031 93.3125 -38.445312 93.3125 -28.9375 C 93.3125 -19.4375 89.925781 -11.226562 83.15625 -4.3125 C 76.382812 2.59375 68.25 6.046875 58.75 6.046875 C 49.25 6.046875 41.039062 2.59375 34.125 -4.3125 C 27.21875 -11.226562 23.765625 -19.4375 23.765625 -28.9375 C 23.765625 -38.445312 27.21875 -46.582031 34.125 -53.34375 C 41.039062 -60.113281 49.25 -63.5 58.75 -63.5 Z M 58.75 -63.5 "/></g></g></g></svg>