<?xml version="1.0" encoding="utf-8"?>
<!-- Generator: Adobe Illustrator 16.0.3, SVG Export Plug-In . SVG Version: 6.00 Build 0)  -->
<!DOCTYPE svg PUBLIC "-//W3C//DTD SVG 1.1//EN" "http://www.w3.org/Graphics/SVG/1.1/DTD/svg11.dtd">
<svg version="1.1" id="Capa_1" xmlns="http://www.w3.org/2000/svg" xmlns:xlink="http://www.w3.org/1999/xlink" x="0px" y="0px"
	 width="503px" height="502px" viewBox="0 0 503 502" enable-background="new 0 0 503 502" xml:space="preserve">
<g>
	<path display="none" fill-rule="evenodd" clip-rule="evenodd" fill="#FEFEFE" d="M506.84,505.827c-169.091,0-338.182,0-507.317,0
		c0-169.059,0-338.13,0-507.274c169.077,0,338.197,0,507.317,0C506.84,167.614,506.84,336.714,506.84,505.827z M251.108,494.885
		c132.322,0.642,244.538-106.604,244.529-244.328C495.628,114.681,386.315,7.799,254.468,6.146
		C118.677,4.444,7.878,113.142,6.805,248.41C5.705,387.156,118.401,495.45,251.108,494.885z"/>
	<path fill-rule="evenodd" clip-rule="evenodd" fill="#257DBA" stroke="#257DBA" stroke-width="9" stroke-miterlimit="10" d="
		M251.108,494.885C118.401,495.45,5.705,387.156,6.805,248.41C7.878,113.142,118.677,4.444,254.468,6.146
		c131.848,1.653,241.16,108.535,241.169,244.411C495.646,388.28,383.43,495.526,251.108,494.885z M251.292,491.027
		c129.729,0.428,240.317-104.438,240.455-240.29C491.883,117.179,384.523,11.59,254.262,10.035
		C120.307,8.436,11.464,115.777,10.689,248.954C9.895,385.271,120.616,491.532,251.292,491.027z"/>
	<path display="none" fill-rule="evenodd" clip-rule="evenodd" fill="#FDFDFE" d="M251.292,491.027
		C120.616,491.532,9.895,385.271,10.689,248.954C11.464,115.777,120.307,8.436,254.262,10.035
		c130.262,1.555,237.621,107.144,237.485,240.703C491.609,386.59,381.021,491.455,251.292,491.027z M251.894,470.327
		c121.215,0.006,220.373-97.62,220.599-219.979c0.226-122.527-97.876-218.841-216.22-220.945
		C132.09,27.196,33.928,126.277,31.587,245.242C29.155,368.903,128.503,470.2,251.894,470.327z"/>
	<path fill-rule="evenodd" clip-rule="evenodd" fill="#267DBB" stroke="#257DBA" stroke-width="9" stroke-miterlimit="10" d="
		M251.894,470.327C128.503,470.2,29.155,368.903,31.587,245.242c2.34-118.965,100.503-218.046,224.686-215.84
		c118.344,2.104,216.445,98.418,216.22,220.945C472.267,372.707,373.109,470.333,251.894,470.327z M34.812,249.915
		c0,119.768,97.153,217.099,216.706,217.25c119.612,0.15,217.381-96.145,217.808-216.443
		c0.429-120.726-96.279-215.952-212.917-218.151C132.792,30.237,34.325,130.311,34.812,249.915z"/>
	<path display="none" fill-rule="evenodd" clip-rule="evenodd" fill="#FDFEFE" d="M34.812,249.915
		C34.325,130.311,132.792,30.237,256.408,32.569c116.638,2.2,213.346,97.426,212.917,218.151
		c-0.427,120.299-98.195,216.594-217.808,216.443C131.965,467.014,34.812,369.683,34.812,249.915z M380.187,410.875
		c2.104-1.632,4.209-3.263,6.245-4.841c-1.91-0.7-3.637-1.167-5.211-1.942c-4.433-2.183-8.8-4.499-13.201-6.745
		c-0.505-0.258-1.066-0.403-1.955-0.73c1.333,5.004,2.628,9.594,3.761,14.224c0.6,2.451,0.918,4.972,1.371,7.501
		c1.271-1.054,2.851-2.361,4.04-3.347c-1.13-0.409-2.545-0.483-3.093-1.212c-1.131-1.503-0.933-3.046,0.984-4.146
		c1.225-0.702,2.254-1.746,3.365-2.633c0.975,0.502,1.964,0.793,2.622,1.428c0.454,0.438,0.45,1.354,0.652,2.056
		c-0.136,0.273-0.271,0.548-0.408,0.822C379.636,411.165,379.911,411.02,380.187,410.875z M251.034,145.838
		c-31.597,0-63.194,0.129-94.789-0.108c-6.318-0.047-12.485,3.83-12.589,12.218c-0.108,8.638-0.135,17.28,0.007,25.917
		c0.131,7.96,4.771,12.365,12.655,12.366c19.918,0,39.836-0.002,59.754,0.001c5.944,0.001,9.496,3.559,9.497,9.507
		c0.001,35.356,0.001,70.712,0,106.068c0,5.973-3.66,9.655-9.703,9.705c-8.958,0.073-17.925,0.386-26.869,0.057
		c-5.697-0.209-9.086,2.228-11.627,6.981c-6.085,11.387-12.357,22.672-18.531,34.011c-3.112,5.716-0.974,9.349,5.464,9.35
		c42.076,0.001,84.151,0.001,126.226,0.001c15.999-0.001,31.997,0.016,47.995-0.01c4.841-0.008,7.327-3.971,5.047-8.186
		c-6.561-12.127-13.213-24.203-19.836-36.295c-2.184-3.987-5.398-5.979-10.11-5.902c-9.196,0.152-18.397,0.029-27.596-0.007
		c-6.142-0.023-9.733-3.554-9.734-9.596c-0.011-35.436-0.01-70.872,0-106.307c0.002-5.952,3.435-9.376,9.336-9.377
		c20.157-0.004,40.315,0.001,60.474-0.004c7.076-0.001,11.898-4.764,11.92-11.82c0.026-8.958-0.038-17.918,0.021-26.876
		c0.046-7.067-5.732-11.813-11.741-11.779C314.548,145.934,282.791,145.838,251.034,145.838z M207.356,276.552
		c-1.073,0-2.022,0-2.972,0c-15.998-0.001-31.996-0.012-47.994,0.003c-7.242,0.006-11.792,3.527-12.391,10.751
		c-0.551,6.646-0.353,13.402,0.114,20.068c0.338,4.833,5.53,8.845,10.41,8.85c18.318,0.019,36.635,0.02,54.953,0.001
		c5.535-0.005,10.667-4.656,10.733-10.189c0.153-12.636,0.12-25.276-0.012-37.913c-0.051-4.868-3.582-8.839-7.989-9.408
		c-2.207-0.285-4.452-0.375-6.681-0.389c-11.117-0.068-22.234-0.075-33.352-0.122c-2.979-0.013-4.711-1.055-5.112-3.95
		c-0.563-4.063-0.56-8.203-0.814-12.563c1.344,0,2.203,0,3.062,0c12.878,0,25.758-0.099,38.635,0.038
		c7.556,0.08,12.275-6.071,11.923-11.813c-0.318-5.18-0.061-10.395-0.069-15.594c-0.009-6.251-4.682-11.253-10.898-11.282
		c-17.997-0.084-35.995-0.073-53.993-0.005c-5.788,0.021-10.509,4.27-10.898,10c-0.378,5.568-0.519,11.179-0.308,16.754
		c0.227,5.982,3.012,10.279,9.292,11.703c0.517,0.117,1.125,1.25,1.141,1.924c0.103,4.397,0.081,8.798,0.045,13.197
		c-0.031,3.797,1.533,6.749,4.509,9.044c3.41,2.629,7.269,3.855,11.548,3.874c9.837,0.043,19.675,0.034,29.511,0.167
		C205.018,269.77,207.821,272.485,207.356,276.552z M282.829,259.657c0,14.798,0.021,29.594-0.007,44.391
		c-0.015,7.889,5.945,12.377,12.269,12.279c17.672-0.274,35.351-0.091,53.027-0.098c6.328-0.003,11.258-4.785,11.332-11.139
		c0.075-6.397,0.063-12.798-0.041-19.195c-0.09-5.487-4.015-9.771-9.019-9.953c-4.704-0.173-9.412-0.302-14.119-0.337
		c-7.358-0.056-14.717-0.035-22.075-0.008c-4.378,0.017-7.518,2.617-7.466,6.1c0.052,3.474,2.973,5.709,7.396,5.752
		c8.784,0.086,17.568,0.192,26.352,0.332c3.432,0.054,6.17,2.369,6.499,5.472c0.126,1.187-0.078,2.408,0.051,3.595
		c0.392,3.59-2.732,7.106-6.937,7.036c-12.474-0.209-24.954-0.071-37.431-0.076c-4.606-0.002-7.05-2.433-7.063-7.076
		c-0.021-7.278-0.015-14.557-0.003-21.836c0.006-4.004,1.259-5.212,5.348-5.213c7.039-0.002,14.077,0.028,21.116-0.012
		c3.994-0.023,7.064-3.657,6.103-7.109c-0.696-2.5-3.474-4.323-6.783-4.343c-5.679-0.033-11.362-0.153-17.035,0.025
		c-7.648,0.241-8.962-0.48-8.797-8.746c0.193-9.674,0.021-19.355,0.06-29.033c0.017-4.048,2.556-6.534,6.554-6.616
		c4.868-0.101,9.734-0.277,14.604-0.313c7.197-0.054,14.399,0.115,21.594-0.058c5.201-0.124,9.139,2.203,8.739,8.865
		c-0.274,4.58-2.527,7.055-7.146,7.062c-8.718,0.014-17.437-0.017-26.154,0.015c-3.957,0.014-7.054,2.699-7.063,6.005
		c-0.011,3.369,3.01,5.92,7.075,5.923c11.358,0.011,22.716,0.019,34.073-0.001c6.212-0.011,11.082-4.864,11.116-11.061
		c0.027-5.039,0.008-10.078,0.005-15.117c-0.003-7.522-4.674-12.157-12.262-12.159c-16.876-0.003-33.756,0.191-50.628-0.088
		c-7.601-0.126-13.455,4.608-13.336,13.306C282.975,230.702,282.829,245.181,282.829,259.657z M271.846,74.25
		c-0.069,0.225-0.139,0.449-0.209,0.674c2.957,0.64,5.915,1.28,8.872,1.921c0.214-0.228,0.428-0.455,0.642-0.683
		c-3.518-0.728-3.965-2.722-3.271-5.57c1.285-5.268,2.293-10.603,3.441-15.904c0.066-0.308,0.362-0.565,0.686-1.044
		c1.677,8.361,3.297,16.443,5.069,25.28c2.763-3.964,5.069-7.28,7.383-10.591c2.346-3.356,4.698-6.708,7.342-10.482
		c0.086,0.888,0.166,1.13,0.122,1.347c-1.014,4.923-2.021,9.848-3.077,14.762c-0.301,1.396-0.41,3.037-1.236,4.055
		c-0.707,0.872-2.314,1.013-3.938,1.636c4.81,1.014,9.299,1.96,13.789,2.906c-3.034-2.548-3.069-2.555-2.223-6.656
		c1.049-5.079,2.161-10.146,3.25-15.217c0.823-3.836,0.825-3.833,4.475-3.959c0.067-0.002,0.125-0.259,0.272-0.582
		c-2.363-0.513-4.675-1.032-6.995-1.515c-3.833-0.798-3.826-0.782-6.018,2.421c-2.726,3.984-5.468,7.957-8.547,12.436
		c-1.166-5.978-2.257-11.344-3.233-16.73c-0.261-1.443-0.771-2.228-2.34-2.465c-2.599-0.392-5.155-1.056-7.737-1.565
		c-0.43-0.085-0.899,0.033-1.996,0.09c4.009,1.716,4.114,1.905,3.358,5.461c-1.162,5.463-2.402,10.911-3.473,16.392
		C275.766,73.17,274.632,74.604,271.846,74.25z M53.016,305.62c0.963-3.614,0.962-3.619,4.79-4.369
		c4.931-0.967,9.875-1.866,14.789-2.909c2.783-0.59,5.557-1.524,6.486,2.887c0.184-0.188,0.369-0.378,0.553-0.566
		c-0.873-4.478-1.746-8.955-2.646-13.571c-0.735,1.555-1.049,3.564-1.953,3.88c-2.943,1.024-6.101,1.429-9.176,2.072
		c-0.177-0.226-0.353-0.451-0.53-0.678c0.42-0.719,0.726-1.543,1.279-2.139c2.499-2.691,5.086-5.301,7.597-7.981
		c0.578-0.617,1.456-1.46,1.377-2.099c-0.325-2.635-0.965-5.231-1.386-7.327c-3.445,3.817-6.935,7.684-10.525,11.663
		c-0.455-0.647-0.639-0.905-0.818-1.167c-2.079-3.035-4.594-4.057-7.778-3.157c-3.131,0.885-5.111,3.473-5.14,6.969
		c-0.013,1.586,0.165,3.193,0.446,4.757C51.208,296.472,52.131,301.043,53.016,305.62z M208.533,52.219
		c-0.12,0.225-0.239,0.45-0.358,0.676c3.947-0.746,4.368,1.637,4.707,4.295c0.749,5.858,1.628,11.7,2.45,17.549
		c0.219,1.561-0.308,2.64-1.936,3.065c-0.437,0.114-0.823,0.42-1.232,0.639c0.058,0.163,0.115,0.327,0.173,0.491
		c4.495-0.647,8.989-1.294,13.414-1.931c-1.439-0.88-3.373-1.384-3.657-2.365c-0.852-2.938-1.059-6.063-1.518-9.116
		c0.205-0.164,0.409-0.327,0.613-0.49c0.696,0.446,1.507,0.779,2.068,1.356c2.73,2.805,5.385,5.683,8.089,8.514
		c0.425,0.444,1.004,1.144,1.449,1.099c2.697-0.276,5.375-0.733,8.652-1.218c-3.118-1.464-9.788-7.905-11.821-11.117
		c0.252-0.168,0.505-0.341,0.762-0.506c3.203-2.062,4.412-4.691,3.604-7.837c-0.835-3.251-3.566-5.293-7.321-5.4
		c-1.113-0.031-2.241,0.023-3.345,0.167c-3.879,0.504-7.751,1.058-11.624,1.606C210.642,51.846,209.589,52.043,208.533,52.219z
		 M443.191,272.402c1.789,5.04,3.879,6.683,7.81,6.408c3.439-0.239,5.93-2.633,6.5-7.11c0.704-5.531,0.946-11.122,1.365-16.688
		c0.011-0.145-0.249-0.31-0.51-0.612c-0.545,1.784-0.728,3.676-3.22,3.494c-6.527-0.478-13.064-0.833-19.594-1.296
		c-1.595-0.112-2.718-0.877-2.705-2.72c0.002-0.388-0.22-0.776-0.338-1.165c-0.164,0.018-0.328,0.035-0.492,0.053
		c-0.326,4.554-0.65,9.105-0.976,13.658c0.197,0.062,0.395,0.122,0.592,0.182c0.564-1.851,0.907-3.863,3.539-3.583
		c2.69,0.287,5.398,0.417,8.863,0.671c-0.867,1.06-1.291,1.924-1.984,2.365c-3.297,2.1-6.679,4.066-10.003,6.126
		c-0.572,0.354-1.385,0.884-1.447,1.409c-0.313,2.629-0.413,5.282-0.561,7.512C434.367,278.238,438.674,275.391,443.191,272.402z
		 M46.446,251.271c1.259-0.984,2.431-2.681,3.549-2.646c6.769,0.212,13.531,0.748,20.275,1.39c0.807,0.077,1.547,1.407,2.203,2.246
		c0.271,0.347,0.24,0.93,0.346,1.405c0.269-0.011,0.537-0.021,0.806-0.031c0.18-6.148,0.468-12.297,0.457-18.445
		c-0.003-1.391-0.822-2.938-1.658-4.141c-2.778-3.995-8.294-3.624-10.663,0.619c-0.493,0.884-0.918,1.805-1.44,2.838
		c-1.644-4.531-3.407-6.129-6.319-5.862c-3.392,0.31-5.662,2.775-6.387,7.006c-0.188,1.098-0.275,2.217-0.352,3.33
		C46.968,243.224,46.696,247.47,46.446,251.271z M330.537,92.085c7.527,0.002,14.006-6.708,13.985-14.487
		c-0.019-7.563-7.155-14.238-15.225-14.24c-7.46-0.002-13.864,6.715-13.903,14.58C315.356,85.63,322.264,92.083,330.537,92.085z
		 M430.034,232.486c0.002,8.702,5.894,14.954,14.058,14.919c8.134-0.035,14.262-5.937,14.201-13.678
		c-0.07-8.884-5.854-15.269-13.779-15.21C436.149,218.579,430.032,224.48,430.034,232.486z M373.475,89.084
		c4.554,2.989,8.715,5.875,5.107,12.344c0.315-0.016,0.629-0.031,0.943-0.046c1.58-2.087,3.16-4.174,4.86-6.419
		c-6.187-4.661-12.141-9.147-18.096-13.632c-0.121,0.167-0.242,0.333-0.364,0.5c2.386,2.94,2.39,2.943-0.066,6.215
		c-3.168,4.22-6.328,8.444-9.519,12.646c-2.438,3.211-2.458,3.196-6.224,2.388c6.155,4.653,12.311,9.306,17.618,13.319
		c2.277-2.271,4.28-4.269,6.283-6.266c0.127,0.388-0.114,0.392-0.282,0.505c-5.246,3.55-8.767,1.819-12.542-1.391
		c-0.592-0.504-1.079-2.047-0.753-2.562c1.685-2.648,3.65-5.118,5.521-7.654c3.817,2.573,1.767,5.534,1.028,8.344
		c0.192,0.083,0.385,0.166,0.577,0.248c2.802-3.724,5.603-7.447,8.404-11.171c-0.17-0.125-0.34-0.25-0.51-0.374
		c-5.262,3.501-5.716,3.578-8.256,1.288C369.264,94.647,371.327,91.92,373.475,89.084z M253.491,49.946
		c5.525-0.548,10.293-0.255,11.515,6.72c0.188-0.191,0.374-0.383,0.562-0.573c0-2.502,0-5.004,0-7.847c-7.413,0-14.875,0-22.726,0
		c3.9,1.373,3.919,1.373,3.896,5.471c-0.029,4.956-0.096,9.911-0.143,14.866c-0.026,2.708,0.351,5.658-4.048,5.687
		c0.135,0.211,0.27,0.423,0.405,0.635c7.656,0,15.312,0,23.184,0c0.398-2.566,0.826-5.32,1.253-8.073
		c-0.726,0.115-0.959,0.38-1.111,0.685c-2.501,5.015-5.515,6.682-10.989,5.844c-0.736-0.112-1.898-0.984-1.934-1.561
		c-0.191-3.136-0.091-6.291-0.091-9.48c4.724-0.147,4.72,3.58,6.344,6.117c0-4.678,0-9.355,0-14.585
		c-3.222,6.804-3.222,6.804-6.115,6.302C253.491,56.821,253.491,53.488,253.491,49.946z M419.13,134.67
		c1.303,2.386,3.159,4.443,3.452,6.702c0.285,2.194-1.034,4.596-1.68,7.027c2.109-1.472,4.275-2.983,6.511-4.542
		c-4.476-6.367-8.724-12.412-12.973-18.458c-0.24,0.103-0.48,0.205-0.721,0.307c0.89,1.602,1.91,3.227-0.053,4.608
		c-5.484,3.861-10.979,7.708-16.471,11.56c-1.244,0.872-2.372,0.733-3.416-0.367c-0.326-0.342-0.726-0.613-1.09-0.917
		c-0.138,0.129-0.274,0.259-0.411,0.388c4.405,6.296,8.81,12.592,13.315,19.033c2.693-1.385,5.197-2.673,7.701-3.961
		c-0.04-0.279-0.081-0.559-0.121-0.839c-5.652,2.119-9.41-0.192-12.263-4.761c-0.818-1.31-0.854-2.355,0.467-3.291
		c2.405-1.703,4.808-3.411,7.944-5.637c0.099,2.083,0.525,3.648,0.138,4.977c-0.407,1.396-1.594,2.564-2.44,3.833
		c0.134,0.145,0.269,0.289,0.402,0.434c3.842-2.688,7.683-5.376,11.524-8.063c-0.09-0.217-0.18-0.433-0.27-0.65
		c-2.938,0.915-6.046,2.98-8.43-1.132C413.085,138.926,415.872,136.963,419.13,134.67z M70.064,159.215
		c-0.279-0.027-0.559-0.053-0.839-0.08c-1.175,2.663-2.351,5.325-3.525,7.988c3.08-2.559,3.307-2.609,7.012-0.996
		c2.121,0.924,4.231,1.873,6.339,2.827c0.871,0.394,1.723,0.829,3.101,1.496c-6.57,1.691-12.438,3.188-18.295,4.727
		c-0.742,0.195-1.8,0.419-2.075,0.955c-1.389,2.716-2.566,5.54-3.838,8.368c0.417,0.11,0.509,0.167,0.558,0.142
		c0.197-0.102,0.435-0.188,0.561-0.353c1.484-1.939,3.189-2.25,5.44-1.183c4.537,2.152,9.167,4.107,13.758,6.144
		c2.597,1.152,5.525,2.082,3.535,6.322c0.312-0.045,0.623-0.09,0.934-0.134c1.278-2.859,2.555-5.717,3.833-8.576
		c-3.76,2.639-3.76,2.639-8.211,0.651c-1.092-0.487-2.191-0.961-3.282-1.452c-3.092-1.392-6.183-2.789-9.777-4.412
		c9.655-2.622,18.724-5.084,27.792-7.547c0.001-0.218,0.003-0.437,0.004-0.655c-0.828-0.392-1.648-0.8-2.484-1.173
		c-5.825-2.593-11.641-5.208-17.487-7.753C70.816,163.521,68.944,162.36,70.064,159.215z M200.411,82.722
		c-0.041-0.191-0.082-0.384-0.123-0.576c-0.482,0.03-1.021,0.211-1.438,0.06c-0.937-0.34-2.326-0.625-2.626-1.322
		c-1.18-2.746-2.01-5.642-2.905-8.293c2.551-1.304,4.989-2.2,7.019-3.663c3.596-2.592,3.915-7.57,0.912-10.461
		c-2.322-2.235-5.218-2.399-8.07-1.64c-4.307,1.146-8.533,2.603-12.785,3.951c-0.442,0.14-0.833,0.443-1.661,0.896
		c4.343,0.102,4.347,0.101,5.629,4.041c1.627,5,3.253,9.999,4.868,15.002c1.138,3.526,1.128,3.526-1.892,5.529
		c-0.051,0.034,0.032,0.271,0.094,0.712C191.796,85.534,196.104,84.128,200.411,82.722z M53.597,200.605
		c0.19,0.21,0.381,0.42,0.571,0.63c1.172-4.382,3.966-3.375,6.728-2.642c3.24,0.859,6.513,1.598,9.748,2.475
		c1.379,0.374,2.77,0.829,4.031,1.485c2.865,1.489,3.875,4.598,2.699,7.831c-1.042,2.863-2.808,3.892-6.296,3.13
		c-5.38-1.174-10.711-2.572-16.053-3.916c-1.646-0.414-2.426-1.438-1.937-3.214c0.103-0.375,0.015-0.802,0.015-1.205
		c-0.216-0.025-0.432-0.051-0.647-0.076c-1.109,4.474-2.218,8.948-3.328,13.422c2.373-2.917,2.374-2.921,6.013-2.043
		c4.733,1.143,9.45,2.357,14.203,3.414c2.663,0.592,5.067-0.132,7.051-2.073c6.184-6.053,3.939-15.837-4.264-18.242
		c-4.288-1.256-8.658-2.231-12.987-3.347c-1.852-0.477-2.979-1.49-2.627-3.605c0.049-0.299-0.145-0.639-0.226-0.96
		c-0.167-0.004-0.333-0.008-0.5-0.012C55.059,194.641,54.328,197.623,53.597,200.605z M148.189,75.739
		c-0.023,0.264-0.047,0.528-0.07,0.792c3.548-1.651,4.4,0.817,5.446,2.988c1.804,3.74,3.575,7.496,5.418,11.216
		c2.666,5.381,6.74,6.881,12.31,4.557c0.953-0.398,1.884-0.883,2.757-1.435c4.339-2.744,5.681-6.591,3.68-11.346
		c-1.639-3.895-3.602-7.653-5.401-11.482c-1.851-3.938-1.841-3.942,0.55-7.359c-2.791,1.368-5.582,2.734-8.373,4.101
		c4.168,0.05,4.218,0.082,6.104,3.958c0.454,0.934,0.945,1.85,1.379,2.792c1.502,3.26,3.195,6.452,4.418,9.815
		c1.264,3.475-0.434,6.522-3.913,7.876c-3.047,1.186-5.074,0.295-6.889-3.251c-2.146-4.193-4.199-8.435-6.24-12.68
		c-1.66-3.451-1.625-3.465,1.253-5.844c0.042-0.035-0.067-0.252-0.191-0.68C156.314,71.768,152.251,73.753,148.189,75.739z
		 M138.915,81.346c-0.233,0.032-0.467,0.065-0.702,0.098c0.917,2.15-0.193,2.735-1.855,2.992c-0.862,0.134-1.723,0.373-2.54,0.683
		c-3.991,1.514-6.354,5.522-5.648,9.507c0.652,3.685,3.921,6.104,8.319,6.086c1.192-0.004,2.386-0.162,3.575-0.29
		c2.062-0.222,4.114-0.588,6.181-0.682c1.889-0.086,3.485,0.647,4.136,2.604c0.646,1.942-0.254,3.419-1.664,4.646
		c-2.584,2.248-6.624,2.313-10.059,0.178c-0.89-0.553-1.742-1.168-2.611-1.754c-0.16,0.174-0.32,0.349-0.481,0.523
		c1.979,2.737,3.958,5.473,5.936,8.209c0.426-2.424,1.688-3.391,3.651-3.76c0.777-0.146,1.55-0.405,2.275-0.723
		c4.37-1.919,6.957-6.584,5.933-10.634c-1.081-4.276-4.49-6.325-9.878-5.92c-0.636,0.048-1.265,0.173-1.898,0.252
		c-2.218,0.276-4.429,0.654-6.655,0.786c-1.678,0.099-3.263-0.433-3.81-2.263c-0.552-1.847,0.338-3.261,1.771-4.361
		c2.302-1.768,5.982-1.742,8.801,0.037c0.686,0.434,1.364,0.88,2.045,1.321c0.161-0.173,0.321-0.347,0.482-0.521
		C142.452,86.021,140.683,83.684,138.915,81.346z M454.168,209.407c-2.116-7.884-4.187-15.603-6.316-23.54
		c-2.584,0.711-4.842,1.333-7.101,1.955c5.896,1.448,6.93,2.342,7.481,7.123c-7.102,1.868-14.234,3.799-21.413,5.543
		c-0.666,0.162-1.686-0.779-2.414-1.365c-0.401-0.322-0.54-0.973-0.797-1.475c-0.195,0.077-0.391,0.154-0.586,0.232
		c1.219,4.521,2.437,9.041,3.655,13.561c0.5-4.004,0.5-4.008,4.553-5.097c5.387-1.447,10.773-2.896,16.164-4.327
		c0.889-0.236,1.798-0.391,3.247-0.7c0,2.103,0.482,4.063-0.133,5.577c-0.638,1.568-2.341,2.704-4.062,4.547
		C449.383,210.667,451.657,210.068,454.168,209.407z M435.86,179.963c0.128,0.209,0.255,0.419,0.383,0.628
		c2.797-1.307,5.595-2.612,8.392-3.918c-0.004-0.215-0.007-0.432-0.01-0.647c-2.519,0.197-2.899-1.344-3.029-3.188
		c-0.089-1.267-0.242-2.548-0.554-3.776c-1.71-6.733-7.696-11.014-15.042-10.824c-6.298,0.163-11.676,4.625-12.965,10.758
		c-1.3,6.183,2.417,13.878,8.077,16.428c1.009,0.455,2.29,0.305,3.444,0.434c0.032-0.251,0.063-0.504,0.095-0.756
		c-1.272-0.597-2.604-1.096-3.808-1.81c-5.344-3.166-6.418-9.49-2.243-13.536c3.111-3.016,6.881-4.909,11.177-5.579
		c3.94-0.615,7.404,1.118,9.062,4.356c1.71,3.342,1.128,6.951-1.601,9.928C436.779,178.963,436.32,179.463,435.86,179.963z
		 M59.758,321.711c-0.251-2.154-0.963-4.065-0.522-5.656c0.453-1.636,2.032-2.959,3.119-4.418c-0.076-0.122-0.151-0.243-0.227-0.365
		c-2.224,0.861-4.447,1.724-6.757,2.619c2.985,7.756,5.834,15.155,8.749,22.729c2.468-0.975,4.666-1.843,6.864-2.711
		c-6.724-1.507-7.28-1.903-8.146-6.274c6.79-2.595,13.601-5.251,20.475-7.735c0.683-0.247,1.82,0.436,2.604,0.918
		c0.494,0.305,0.722,1.04,1.07,1.582c0.191-0.094,0.382-0.188,0.573-0.282c-1.677-4.379-3.353-8.756-5.03-13.135
		c-0.16,3.848-0.164,3.999-2.311,4.839C73.622,316.401,67.001,318.924,59.758,321.711z M249.141,439.616
		c0,3.97-0.065,7.961,0.027,11.948c0.047,2.03-0.203,3.644-2.697,4.09c3.289,0,6.577,0,9.866,0
		c-2.211-0.306-2.496-1.772-2.389-3.658c0.208-3.667,0.33-7.341,0.407-11.014c0.043-1.999-0.089-4.007,2.831-4.4
		c-2.122-0.327-4.093-0.236-6.05-0.358c-1.38-0.085-2.123,0.29-2.689,1.65c-1.452,3.486-3.111,6.888-4.859,10.697
		c-1.556-4.033-2.884-7.625-4.354-11.158c-0.275-0.663-1.078-1.505-1.698-1.558c-2.203-0.189-4.432-0.074-6.65-0.074
		c2.407,0.533,2.467,2.257,2.344,4.213c-0.214,3.426-0.354,6.86-0.422,10.293c-0.04,2.034,0.067,4.045-2.564,4.781
		c2.057,0.099,4.114,0.198,6.171,0.297c0.099-0.181,0.198-0.361,0.296-0.542c-2.8-0.425-2.836-2.244-2.628-4.301
		c0.16-1.586,0.111-3.194,0.125-4.793c0.018-2.036,0.004-4.073,0.004-6.109c0.271-0.028,0.542-0.056,0.813-0.084
		c2.085,5.294,4.17,10.587,6.486,16.468C244.244,450.132,246.712,444.831,249.141,439.616z M422.74,310.41
		c2.056-0.821,3.761-1.803,5.59-2.177c4.849-0.991,9.752-1.716,14.632-2.557c3.252-0.561,6.502-1.14,10.224-1.793
		c-1.015-0.898-1.573-1.444-2.185-1.925c-4.774-3.759-9.598-7.455-14.324-11.272c-2.652-2.143-5.958-3.75-7.117-7.61
		c-0.687,2.82-1.374,5.643-2.216,9.097c0.791-0.608,1.028-0.704,1.125-0.879c1.576-2.84,2.017-2.85,4.698-1.178
		c1.844,1.15,2.229,2.452,1.442,4.359c-0.331,0.805-0.463,1.692-0.674,2.545c-0.993,4.021-0.992,4.021-5.01,4.499
		c-2.21,0.263-2.667-0.204-2.436-2.43c0.032-0.309-0.105-0.635-0.164-0.953c-0.172-0.008-0.344-0.016-0.516-0.023
		C424.764,302.304,423.718,306.495,422.74,310.41z M411.84,335.125c2.907,1.676,5.599,3.227,8.29,4.778
		c0.123-0.838-0.053-1.257-0.347-1.562c-4.611-4.781-4.836-6.445-2.071-12.251c0.983-2.064,2.146-2.396,4.15-1.465
		c4.988,2.315,10.048,4.479,15.066,6.731c3.795,1.704,3.784,1.724,3.037,5.588c-0.013,0.068,0.212,0.183,0.561,0.465
		c1.962-4.445,3.891-8.813,5.819-13.182c-2.894,2.733-2.896,2.739-6.571,1.107c-4.66-2.07-9.311-4.165-13.975-6.225
		c-4.041-1.785-4.047-1.771-4.17-5.875C418.41,320.436,415.191,327.635,411.84,335.125z M79.289,140.116
		c4.193,6.503,8.021,12.38,11.782,18.299c1.749,2.752,4.125,5.268,3.468,9.044c0.195,0.02,0.39,0.039,0.584,0.059
		c1.597-2.461,3.193-4.922,4.79-7.382c-0.285-0.227-0.569-0.454-0.854-0.681c-0.354,0.507-0.612,1.3-1.083,1.46
		c-0.84,0.285-2.059,0.577-2.682,0.179c-2.454-1.566-2.763-3.673-1.181-6.095c0.873-1.337,1.854-2.617,2.6-4.02
		c0.658-1.237,1.469-1.375,2.736-1.111c4.127,0.856,4.137,0.81,4.096,4.697c2.337-3.61,4.674-7.221,7.01-10.831
		c-3.162,0.96-3.824,0.917-9.214-0.011C94.201,142.495,87.043,141.378,79.289,140.116z M122.61,116.945
		c-0.203,0.141-0.405,0.282-0.608,0.423c0.148,0.409,0.26,0.836,0.45,1.225c2.85,5.817,2.636,7.251-1.793,11.851
		c-2.131,2.213-2.523,2.25-4.869,0.101c-3.531-3.236-7.061-6.476-10.514-9.794c-2.188-2.101-6.028-3.767-1.912-7.966
		c-0.304-0.021-0.607-0.042-0.911-0.063c-3.249,3.496-6.498,6.991-9.748,10.487c3.771-1.518,3.768-1.514,6.854,1.372
		c3.85,3.598,7.709,7.186,11.557,10.786c2.765,2.588,2.758,2.593,0.938,5.747c-0.03,0.052,0.149,0.225,0.417,0.608
		c5.457-5.846,10.865-11.638,16.401-17.569C126.706,121.657,124.658,119.301,122.61,116.945z M396.574,131.75
		c-0.117-0.208-0.234-0.417-0.352-0.625c-0.347,0.094-0.708,0.149-1.036,0.286c-6.351,2.63-8.245,2.154-12.644-3.031
		c-0.997-1.175-1.201-2.207-0.039-3.33c4.707-4.549,9.4-9.113,14.137-13.632c1.152-1.1,2.418-1.06,3.631,0.042
		c0.358,0.326,0.809,0.551,1.217,0.822c0.055-0.079,0.109-0.158,0.164-0.237c-3.482-3.214-6.964-6.428-10.446-9.642
		c0.979,1.047,2.656,2.32,0.864,4.041c-4.894,4.701-9.765,9.425-14.644,14.143c-1.12,1.084-2.245,0.994-3.413,0.068
		c-0.376-0.297-0.812-0.518-1.221-0.774c-0.123,0.148-0.246,0.295-0.37,0.442c5.503,5.706,11.005,11.412,16.677,17.293
		C391.652,135.611,394.113,133.681,396.574,131.75z M73.545,256.75c-1.192,3.626-1.19,3.652-4.947,3.955
		c-5.249,0.423-10.503,0.785-15.752,1.205c-4.269,0.341-4.267,0.361-6.296-3.209c0.328,4.589,0.656,9.179,0.984,13.769
		c1.628-3.511,1.622-3.587,5.729-3.952c5.245-0.465,10.509-0.719,15.75-1.215c2.551-0.24,4.427,0.178,4.825,3.109
		c0.004,0.035,0.271,0.035,0.66,0.079C74.179,265.877,73.862,261.313,73.545,256.75z M144.588,402.213
		c-1.15-0.98-2.102-1.751-3.008-2.571c-1.751-1.584-3.259-3.583-5.26-4.719c-4.462-2.533-9.908-1.055-13.005,3.106
		c-2.9,3.897-2.606,9.355,1.106,12.889c1.927,1.833,4.413,3.092,6.695,4.532c1.44,0.91,2.605,0.601,3.583-0.907
		c0.988-1.522,2.018-3.204,4.451-2.764c-2.281-1.843-4.563-3.686-6.844-5.528c0.656,2.147-0.55,5.518-2.471,6.395
		c-0.311,0.142-0.776,0.091-1.125-0.018c-2.75-0.855-4.801-4.346-3.477-6.877c1.443-2.757,3.461-5.29,5.587-7.589
		c1.65-1.784,4.017-2.396,6.379-1.145c2.481,1.315,3.669,3.492,3.572,6.305c-0.04,1.139-0.229,2.272-0.35,3.409
		c0.135,0.056,0.27,0.112,0.405,0.169C142.227,405.156,143.626,403.412,144.588,402.213z M225.439,434.469
		c-5.512-1.065-10.713-2.07-15.913-3.075c2.61,1.018,2.101,2.874,1.672,4.854c-0.776,3.59-1.447,7.205-2.063,10.826
		c-0.315,1.851-0.951,3.246-3.127,3.562c5.369,1.034,10.737,2.069,16.231,3.129c0.717-2.107,1.346-3.958,1.976-5.808
		c-0.243-0.187-0.485-0.373-0.727-0.56c-0.133,0.382-0.179,0.831-0.413,1.136c-2.205,2.878-4.585,3.7-7.952,2.514
		c-0.652-0.23-1.47-1.34-1.416-1.977c0.173-2.024,0.721-4.017,1.137-6.091c3.2,0.462,2.796,3.065,3.728,5.002
		c0.615-3.199,1.229-6.398,1.844-9.598c-1.64,1.37-2.106,4.238-5.272,2.891c0.485-2.411,0.951-4.725,1.419-7.046
		c3.977,0.298,7.217,1.136,7.198,6.19c0.205-0.145,0.409-0.289,0.613-0.434C224.715,438.221,225.056,436.457,225.439,434.469z
		 M149.277,404.992c1.386,1.549,1.079,2.876,0.109,4.44c-1.681,2.712-3.252,5.494-4.783,8.295c-2.096,3.837-1.258,6.777,2.508,9.162
		c4.085,2.586,7.61,2.167,10.051-1.384c1.489-2.165,2.767-4.482,4.058-6.777c1.142-2.029,1.962-4.398,5.107-3.903
		c-1.88-1.07-3.761-2.141-5.667-3.226c0.387,1.321,1.266,2.67,0.9,3.345c-2.042,3.775-4.203,7.52-6.7,11.003
		c-1.304,1.819-3.963,1.599-5.84,0.077c-1.735-1.408-1.726-3.114-0.704-4.926c1.646-2.92,3.355-5.805,4.952-8.75
		c0.98-1.81,1.959-3.386,4.531-2.409C154.96,408.291,152.119,406.642,149.277,404.992z M356.364,423.4
		c-0.271-0.007-0.543-0.014-0.814-0.021c-0.336,0.884-0.604,1.801-1.02,2.645c-1.691,3.428-5.796,4.959-8.568,3.038
		c-3.229-2.237-5.165-5.419-5.686-9.332c-0.334-2.521,0.642-4.602,2.869-5.875c2.297-1.313,4.595-1.05,6.747,0.477
		c0.51,0.362,1.014,0.732,1.521,1.099c0.121-0.135,0.242-0.27,0.363-0.405c-1.063-1.892-2.128-3.785-3.599-6.401
		c-0.031,3.09-1.808,2.895-3.31,3.183c-5.104,0.982-8.825,5.43-8.832,10.506c-0.006,4.568,3.354,9,7.553,9.962
		c4.627,1.061,10.402-1.69,12.239-5.933C356.213,425.45,356.196,424.385,356.364,423.4z M195.607,428.877
		c-1.245,4.421-2.551,8.849-3.722,13.312c-0.504,1.925-1.21,3.363-3.627,3.314c3.206,0.921,6.412,1.843,9.365,2.692
		c-0.542-1.082-1.657-2.24-1.454-3.08c1.209-5.014,2.722-9.954,4.114-14.855c3.78-0.02,4.421,2.505,5.066,5.325
		c0.49-1.623,0.981-3.245,1.537-5.086c-5.725-1.636-11.269-3.219-16.876-4.821c-0.344,1.068-0.639,1.89-0.87,2.729
		c-0.213,0.774-0.358,1.568-0.63,2.789C192.051,427.558,192.489,427.426,195.607,428.877z M165.656,436.554
		c-0.216-1.229-0.857-2.492-0.484-3.263c0.771-1.59,2.173-2.52,4.061-1.218c0.516,0.355,1.126,0.64,1.734,0.784
		c2.174,0.516,2.397,1.925,2.35,3.924c-0.053,2.175-1.66,1.363-3.223,1.746c3.317,1.464,6.085,2.685,8.701,3.838
		c-0.299-1.645-0.761-3.067-0.779-4.496c-0.068-5.269,0.018-10.538,0.025-15.807c0.001-0.578-0.125-1.155-0.238-2.115
		c-4.354,3.886-8.347,7.544-12.456,11.066c-1.43,1.226-3.148,2.115-4.846,3.231C162.176,434.995,164.068,435.843,165.656,436.554z
		 M281.403,454.07c-1.083-1.461-2.223-2.741-3.069-4.192c-1.968-3.375-3.788-6.835-5.681-10.253
		c-0.826-1.492-1.683-2.968-2.73-4.813c-0.506,1.344-0.811,2.243-1.178,3.116c-2.484,5.907-3.309,12.49-7.337,17.969
		c2.148-0.234,4.177-0.456,5.776-0.63c-0.747-0.896-1.998-1.716-1.997-2.535c0-1.838,0.82-3.416,3.238-3.065
		c0.695,0.102,1.467,0.055,2.141-0.142c2.358-0.687,2.992,1.075,3.434,2.615c0.207,0.726-0.536,1.724-0.885,2.695
		C275.708,454.597,278.64,454.325,281.403,454.07z M312.525,425.508c-0.405,4.689-0.576,8.61-1.131,12.478
		c-0.48,3.355,0.338,7.015-1.977,10.204c1.945-0.699,3.89-1.398,5.844-2.101c-1.149-0.487-2.527-0.668-2.714-1.239
		c-0.338-1.033-0.385-2.989,0.188-3.338c1.725-1.048,3.789-1.949,5.757-2.029c1.166-0.047,2.397,1.567,3.72,2.521
		c-1.326,1.202-1.861,1.688-2.396,2.173c0.062,0.122,0.124,0.244,0.186,0.366c2.885-1.011,5.769-2.021,8.232-2.885
		c-1.761-1.603-3.516-3.023-5.063-4.644C319.726,433.4,316.382,429.688,312.525,425.508z M286.76,453.219
		c5.542-1.183,11.084-2.366,16.769-3.579c-0.274-2.438-0.511-4.534-0.748-6.63c-0.251-0.084-0.503-0.169-0.755-0.254
		c-0.042,4.104-1.612,6.724-5.836,7.224c-1.771,0.21-2.681-0.011-3.036-1.915c-0.657-3.522-1.518-7.007-2.255-10.516
		c-0.229-1.084-0.662-2.285-0.395-3.266c0.223-0.814,1.338-1.384,2.408-2.392c-3.692,0.808-6.942,1.518-10.191,2.228
		c2.656,0.695,2.675,0.707,3.234,3.308c0.787,3.66,1.561,7.324,2.352,10.983C288.706,450.257,289.152,452.104,286.76,453.219z
		 M393.823,398.513c0.068-1.775-1.445-3.393-3.264-3.485c-1.917-0.098-3.578,1.468-3.598,3.39c-0.018,1.765,1.56,3.325,3.379,3.343
		C392.211,401.779,393.752,400.342,393.823,398.513z M364.107,418.062c-0.38-0.031-0.76-0.063-1.14-0.094
		c-0.683,0.855-1.722,1.621-1.966,2.587c-0.392,1.551,0.677,2.805,2.197,2.59c0.927-0.131,2.191-1.324,2.375-2.229
		C365.74,420.098,364.646,419.022,364.107,418.062z"/>
	<path fill-rule="evenodd" clip-rule="evenodd" fill="#207AB9" d="M251.034,145.838c31.757,0,63.514,0.096,95.27-0.084
		c6.009-0.034,11.787,4.712,11.741,11.779c-0.059,8.958,0.006,17.918-0.021,26.876c-0.021,7.056-4.844,11.819-11.92,11.82
		c-20.158,0.005-40.316,0-60.474,0.004c-5.901,0.001-9.334,3.425-9.336,9.377c-0.01,35.436-0.011,70.872,0,106.307
		c0.001,6.042,3.593,9.572,9.734,9.596c9.198,0.036,18.399,0.159,27.596,0.007c4.712-0.077,7.927,1.915,10.11,5.902
		c6.623,12.092,13.275,24.168,19.836,36.295c2.28,4.215-0.206,8.178-5.047,8.186c-15.998,0.025-31.996,0.009-47.995,0.01
		c-42.075,0-84.15,0-126.226-0.001c-6.438-0.001-8.576-3.634-5.464-9.35c6.174-11.339,12.446-22.624,18.531-34.011
		c2.541-4.754,5.931-7.19,11.627-6.981c8.944,0.329,17.911,0.017,26.869-0.057c6.043-0.05,9.703-3.732,9.703-9.705
		c0.001-35.356,0.001-70.712,0-106.068c0-5.948-3.553-9.506-9.497-9.507c-19.918-0.003-39.836-0.001-59.754-0.001
		c-7.884,0-12.524-4.405-12.655-12.366c-0.142-8.637-0.115-17.279-0.007-25.917c0.104-8.388,6.271-12.265,12.589-12.218
		C187.84,145.967,219.438,145.838,251.034,145.838z M251.077,155.443c-19.598,0-39.195,0-58.793,0
		c-8.879,0-17.758,0.009-26.637-0.003c-5.999-0.008-9.758,3.735-9.863,8.3c-0.099,4.306-0.495,8.639-0.151,12.911
		c0.413,5.136,3.031,8.169,7.218,8.879c1.916,0.325,3.958-0.167,5.943-0.169c18.878-0.019,37.756-0.023,56.634-0.004
		c6.565,0.007,10.204,3.695,10.204,10.241c0,41.355-0.096,82.711,0.086,124.066c0.034,7.757-4.752,13.013-12.864,12.879
		c-9.916-0.163-19.838,0.051-29.75-0.195c-4.758-0.118-7.939,1.154-9.786,5.978c-2.014,5.259-4.866,10.193-7.254,15.315
		c-2.168,4.646-0.999,6.752,3.691,6.753c47.594,0.013,95.188,0.013,142.784,0.002c4.196-0.002,5.42-1.765,4.075-5.744
		c-0.229-0.676-0.558-1.32-0.872-1.966c-2.644-5.442-5.446-10.815-7.882-16.35c-1.227-2.788-3.128-3.823-5.933-3.822
		c-10.715,0.003-21.431,0.002-32.146-0.001c-8.914-0.002-13.27-4.323-13.27-13.157c-0.001-41.035-0.001-82.07,0-123.105
		c0-7.305,3.565-10.897,10.831-10.898c18.479-0.003,36.956-0.005,55.434,0.011c1.028,0.001,2.063,0.126,3.085,0.267
		c6.072,0.834,10.652-3.137,10.665-9.274c0.006-2.959,0.019-5.919-0.004-8.879c-0.014-1.675,0.16-3.403-0.188-5.013
		c-0.974-4.519-4.672-7.015-10.067-7.017C307.871,155.439,279.475,155.443,251.077,155.443z"/>
	<path fill-rule="evenodd" clip-rule="evenodd" fill="#217AB9" d="M207.356,276.552c0.464-4.066-2.338-6.782-7.606-6.854
		c-9.836-0.133-19.674-0.124-29.511-0.167c-4.28-0.019-8.139-1.245-11.548-3.874c-2.977-2.295-4.54-5.247-4.509-9.044
		c0.036-4.398,0.058-8.8-0.045-13.197c-0.016-0.674-0.624-1.807-1.141-1.924c-6.28-1.423-9.065-5.72-9.292-11.703
		c-0.211-5.575-0.07-11.186,0.308-16.754c0.389-5.73,5.11-9.979,10.898-10c17.998-0.068,35.996-0.079,53.993,0.005
		c6.216,0.029,10.889,5.031,10.898,11.282c0.008,5.199-0.249,10.414,0.069,15.594c0.352,5.742-4.367,11.893-11.923,11.813
		c-12.876-0.137-25.756-0.038-38.635-0.038c-0.858,0-1.717,0-3.062,0c0.254,4.36,0.251,8.5,0.814,12.563
		c0.401,2.896,2.133,3.938,5.112,3.95c11.117,0.047,22.235,0.054,33.352,0.122c2.229,0.014,4.474,0.104,6.681,0.389
		c4.408,0.569,7.938,4.54,7.989,9.408c0.132,12.637,0.165,25.277,0.012,37.913c-0.066,5.533-5.198,10.185-10.733,10.189
		c-18.317,0.019-36.635,0.018-54.953-0.001c-4.88-0.005-10.072-4.017-10.41-8.85c-0.467-6.666-0.665-13.423-0.114-20.068
		c0.599-7.224,5.149-10.745,12.391-10.751c15.998-0.015,31.996-0.004,47.994-0.003C205.334,276.552,206.284,276.552,207.356,276.552
		z M182.516,287.912c-6.557,0-13.115-0.022-19.672,0.01c-3.511,0.017-6.213,2.624-6.399,6.112c-0.06,1.117,0.094,2.251-0.031,3.356
		c-0.516,4.585,3.026,7.909,7.779,7.851c11.193-0.138,22.395-0.241,33.584,0.024c7.597,0.181,11.111-1.676,10.542-10.658
		c-0.25-3.96-2.854-6.687-6.85-6.693C195.151,287.903,188.833,287.911,182.516,287.912z M182.361,230.848
		c6.395,0,12.789,0.018,19.183-0.006c4.05-0.016,6.678-2.671,6.742-6.744c0.015-0.959,0.004-1.918,0.002-2.877
		c-0.009-4.957-2.372-7.365-7.256-7.367c-11.509-0.006-23.026,0.254-34.525-0.086c-8.536-0.253-10.487,2.398-10.099,10.379
		c0.196,4.048,2.699,6.683,6.772,6.697C169.573,230.865,175.968,230.848,182.361,230.848z"/>
	<path fill-rule="evenodd" clip-rule="evenodd" fill="#217AB9" d="M282.829,259.657c0-14.477,0.146-28.956-0.054-43.43
		c-0.119-8.698,5.735-13.432,13.336-13.306c16.872,0.279,33.752,0.085,50.628,0.088c7.588,0.001,12.259,4.636,12.262,12.159
		c0.003,5.039,0.022,10.078-0.005,15.117c-0.034,6.196-4.904,11.05-11.116,11.061c-11.357,0.02-22.715,0.012-34.073,0.001
		c-4.065-0.003-7.086-2.554-7.075-5.923c0.01-3.306,3.106-5.991,7.063-6.005c8.718-0.032,17.437,0,26.154-0.015
		c4.619-0.007,6.872-2.481,7.146-7.062c0.399-6.662-3.538-8.989-8.739-8.865c-7.194,0.172-14.396,0.003-21.594,0.058
		c-4.869,0.036-9.735,0.212-14.604,0.313c-3.998,0.082-6.537,2.568-6.554,6.616c-0.039,9.678,0.134,19.359-0.06,29.033
		c-0.165,8.265,1.148,8.987,8.797,8.746c5.673-0.179,11.356-0.059,17.035-0.025c3.31,0.02,6.087,1.843,6.783,4.343
		c0.962,3.452-2.108,7.086-6.103,7.109c-7.039,0.04-14.077,0.01-21.116,0.012c-4.089,0.001-5.342,1.209-5.348,5.213
		c-0.012,7.279-0.019,14.558,0.003,21.836c0.014,4.644,2.457,7.074,7.063,7.076c12.477,0.005,24.957-0.133,37.431,0.076
		c4.204,0.07,7.328-3.446,6.937-7.036c-0.129-1.187,0.075-2.408-0.051-3.595c-0.329-3.103-3.067-5.418-6.499-5.472
		c-8.783-0.14-17.567-0.246-26.352-0.332c-4.424-0.043-7.345-2.278-7.396-5.752c-0.052-3.482,3.088-6.083,7.466-6.1
		c7.358-0.027,14.717-0.048,22.075,0.008c4.707,0.035,9.415,0.164,14.119,0.337c5.004,0.183,8.929,4.466,9.019,9.953
		c0.104,6.397,0.116,12.798,0.041,19.195c-0.074,6.354-5.004,11.136-11.332,11.139c-17.677,0.007-35.355-0.177-53.027,0.098
		c-6.323,0.098-12.283-4.391-12.269-12.279C282.85,289.251,282.829,274.455,282.829,259.657z"/>
	<path fill-rule="evenodd" clip-rule="evenodd" fill="#257DBA" d="M271.846,74.25c2.786,0.354,3.92-1.08,4.409-3.584
		c1.07-5.481,2.311-10.929,3.473-16.392c0.756-3.556,0.65-3.745-3.358-5.461c1.097-0.058,1.566-0.175,1.996-0.09
		c2.582,0.509,5.139,1.173,7.737,1.565c1.569,0.237,2.079,1.021,2.34,2.465c0.977,5.386,2.067,10.752,3.233,16.73
		c3.079-4.479,5.821-8.452,8.547-12.436c2.191-3.203,2.185-3.219,6.018-2.421c2.32,0.483,4.632,1.002,6.995,1.515
		c-0.147,0.323-0.205,0.58-0.272,0.582c-3.649,0.126-3.651,0.124-4.475,3.959c-1.089,5.071-2.201,10.138-3.25,15.217
		c-0.847,4.102-0.812,4.108,2.223,6.656c-4.49-0.946-8.979-1.893-13.789-2.906c1.623-0.623,3.23-0.764,3.938-1.636
		c0.826-1.018,0.936-2.659,1.236-4.055c1.057-4.914,2.063-9.838,3.077-14.762c0.044-0.217-0.036-0.458-0.122-1.347
		c-2.644,3.773-4.996,7.125-7.342,10.482c-2.313,3.312-4.62,6.627-7.383,10.591c-1.772-8.837-3.393-16.919-5.069-25.28
		c-0.323,0.479-0.619,0.737-0.686,1.044c-1.148,5.301-2.156,10.637-3.441,15.904c-0.694,2.848-0.247,4.842,3.271,5.57
		c-0.214,0.228-0.428,0.456-0.642,0.683c-2.957-0.641-5.915-1.281-8.872-1.921C271.707,74.699,271.776,74.475,271.846,74.25z
		 M302.246,57.773c-0.045-0.059-0.09-0.118-0.134-0.177c-0.051,0.054-0.139,0.105-0.142,0.162c-0.004,0.056,0.078,0.117,0.123,0.176
		C302.144,57.88,302.195,57.827,302.246,57.773z"/>
	<path fill-rule="evenodd" clip-rule="evenodd" fill="#247CBA" d="M53.016,305.62c-0.885-4.577-1.807-9.148-2.634-13.736
		c-0.282-1.563-0.459-3.171-0.446-4.757c0.028-3.496,2.008-6.084,5.14-6.969c3.184-0.899,5.699,0.122,7.778,3.157
		c0.179,0.262,0.364,0.52,0.818,1.167c3.591-3.979,7.081-7.846,10.525-11.663c0.42,2.096,1.061,4.692,1.386,7.327
		c0.079,0.639-0.799,1.481-1.377,2.099c-2.511,2.681-5.098,5.29-7.597,7.981c-0.553,0.596-0.859,1.42-1.279,2.139
		c0.177,0.227,0.353,0.452,0.53,0.678c3.075-0.644,6.233-1.048,9.176-2.072c0.904-0.315,1.217-2.325,1.953-3.88
		c0.9,4.616,1.772,9.094,2.646,13.571c-0.184,0.188-0.369,0.378-0.553,0.566c-0.929-4.411-3.703-3.477-6.486-2.887
		c-4.914,1.043-9.858,1.942-14.789,2.909C53.978,302.001,53.979,302.006,53.016,305.62z M63.998,293.396
		c-0.387-2.932-0.648-5.724-3.632-6.698c-2.547-0.831-5.188-0.304-7.061,1.683c-2.011,2.133-1.166,4.678-0.477,7.206
		C56.616,294.843,60.18,294.145,63.998,293.396z"/>
	<path fill-rule="evenodd" clip-rule="evenodd" fill="#247CBA" d="M208.533,52.219c1.056-0.176,2.109-0.374,3.169-0.524
		c3.873-0.548,7.745-1.103,11.624-1.606c1.104-0.144,2.232-0.198,3.345-0.167c3.754,0.107,6.486,2.149,7.321,5.4
		c0.809,3.146-0.4,5.775-3.604,7.837c-0.257,0.166-0.51,0.338-0.762,0.506c2.033,3.211,8.703,9.652,11.821,11.117
		c-3.277,0.485-5.956,0.942-8.652,1.218c-0.444,0.045-1.024-0.655-1.449-1.099c-2.704-2.831-5.359-5.709-8.089-8.514
		c-0.561-0.577-1.372-0.91-2.068-1.356c-0.205,0.164-0.409,0.327-0.613,0.49c0.459,3.052,0.666,6.178,1.518,9.116
		c0.284,0.981,2.218,1.485,3.657,2.365c-4.425,0.637-8.919,1.284-13.414,1.931c-0.058-0.164-0.115-0.328-0.173-0.491
		c0.409-0.218,0.795-0.524,1.232-0.639c1.627-0.425,2.154-1.505,1.936-3.065c-0.822-5.849-1.702-11.69-2.45-17.549
		c-0.339-2.658-0.76-5.042-4.707-4.295C208.294,52.669,208.413,52.444,208.533,52.219z M220.343,63.843
		c2.782-0.52,5.713-0.376,6.831-3.403c0.898-2.433,0.596-4.958-1.139-6.984c-1.982-2.315-4.562-1.639-7.294-1.022
		C219.266,56.173,219.781,59.845,220.343,63.843z"/>
	<path fill-rule="evenodd" clip-rule="evenodd" fill="#247CBA" d="M443.191,272.402c-4.518,2.988-8.824,5.836-13.16,8.703
		c0.147-2.229,0.248-4.883,0.561-7.512c0.063-0.525,0.875-1.055,1.447-1.409c3.324-2.06,6.706-4.026,10.003-6.126
		c0.693-0.441,1.117-1.306,1.984-2.365c-3.465-0.254-6.173-0.384-8.863-0.671c-2.632-0.28-2.975,1.732-3.539,3.583
		c-0.197-0.06-0.395-0.12-0.592-0.182c0.325-4.553,0.649-9.104,0.976-13.658c0.164-0.018,0.328-0.035,0.492-0.053
		c0.118,0.389,0.34,0.777,0.338,1.165c-0.013,1.843,1.11,2.607,2.705,2.72c6.529,0.463,13.066,0.818,19.594,1.296
		c2.492,0.182,2.675-1.71,3.22-3.494c0.261,0.303,0.521,0.468,0.51,0.612c-0.419,5.566-0.661,11.157-1.365,16.688
		c-0.57,4.478-3.061,6.871-6.5,7.11C447.07,279.085,444.98,277.442,443.191,272.402z M445.102,263.775
		c-0.207,2.969-0.754,5.65,1.949,7.458c1.858,1.241,5.716,1.34,7.322,0.122c2.261-1.712,2.279-4.149,2.08-6.803
		C452.68,264.295,449.039,264.045,445.102,263.775z"/>
	<path fill-rule="evenodd" clip-rule="evenodd" fill="#247CBA" d="M46.446,251.271c0.25-3.801,0.522-8.048,0.816-12.292
		c0.077-1.113,0.164-2.232,0.352-3.33c0.725-4.231,2.995-6.696,6.387-7.006c2.912-0.267,4.675,1.331,6.319,5.862
		c0.522-1.033,0.947-1.954,1.44-2.838c2.369-4.242,7.885-4.613,10.663-0.619c0.836,1.203,1.655,2.75,1.658,4.141
		c0.012,6.148-0.277,12.297-0.457,18.445c-0.269,0.01-0.537,0.021-0.806,0.031c-0.106-0.476-0.075-1.059-0.346-1.405
		c-0.656-0.838-1.396-2.169-2.203-2.246c-6.744-0.642-13.507-1.178-20.275-1.39C48.877,248.591,47.705,250.287,46.446,251.271z
		 M61.097,242.707c2.665,0.191,5.348,0.423,8.037,0.567c3.249,0.174,4.392-1.332,3.066-4.34c-0.5-1.133-1.564-2.284-2.667-2.84
		C64.951,233.786,60.749,237.077,61.097,242.707z M59.201,242.618c0.096-2.564,0.065-4.8-2.074-6.232
		c-1.856-1.243-3.973-1.345-5.898-0.231c-2.105,1.218-2.459,3.31-2.31,5.721C52.323,242.121,55.564,242.355,59.201,242.618z"/>
	<path fill-rule="evenodd" clip-rule="evenodd" fill="#247CBA" d="M330.537,92.085c-8.273-0.002-15.181-6.455-15.143-14.147
		c0.039-7.865,6.443-14.582,13.903-14.58c8.069,0.001,15.206,6.676,15.225,14.24C344.543,85.377,338.064,92.087,330.537,92.085z
		 M338.578,73.488c0.095-3.974-1.08-6.052-3.495-7.14c-2.723-1.225-5.081-0.403-6.978,1.574c-4.004,4.171-6.256,9.217-6.713,14.986
		c-0.22,2.765,0.756,5.021,3.471,6.249c2.724,1.233,5.057,0.434,6.971-1.557C335.853,83.421,337.782,78.248,338.578,73.488z"/>
	<path fill-rule="evenodd" clip-rule="evenodd" fill="#247CBA" d="M430.034,232.486c-0.002-8.006,6.115-13.907,14.479-13.969
		c7.925-0.059,13.709,6.326,13.779,15.21c0.061,7.741-6.067,13.643-14.201,13.678C435.928,247.44,430.036,241.188,430.034,232.486z
		 M446.342,225.436c-4.174,0.562-8.202,1.024-11.757,3.344c-2.059,1.343-3.02,3.188-2.753,5.688
		c0.269,2.524,1.658,4.221,3.966,4.911c6.282,1.877,12.427,1.024,18.021-2.143c4.328-2.45,3.802-8.385-0.784-10.341
		C450.972,226.014,448.583,225.898,446.342,225.436z"/>
	<path fill-rule="evenodd" clip-rule="evenodd" fill="#267EBB" d="M373.475,89.084c-2.147,2.836-4.211,5.563-6.269,8.28
		c2.54,2.29,2.994,2.213,8.256-1.288c0.17,0.125,0.34,0.25,0.51,0.374c-2.802,3.724-5.603,7.448-8.404,11.171
		c-0.192-0.082-0.385-0.165-0.577-0.248c0.738-2.81,2.789-5.771-1.028-8.344c-1.87,2.536-3.836,5.006-5.521,7.654
		c-0.326,0.515,0.161,2.058,0.753,2.562c3.775,3.209,7.296,4.94,12.542,1.391c0.168-0.113,0.409-0.118,0.282-0.505
		c-2.003,1.998-4.006,3.995-6.283,6.266c-5.308-4.013-11.463-8.666-17.618-13.319c3.766,0.808,3.785,0.823,6.224-2.388
		c3.19-4.202,6.351-8.426,9.519-12.646c2.456-3.272,2.452-3.274,0.066-6.215c0.122-0.167,0.243-0.333,0.364-0.5
		c5.955,4.485,11.909,8.972,18.096,13.632c-1.7,2.246-3.28,4.333-4.86,6.419c-0.314,0.015-0.628,0.03-0.943,0.046
		C382.189,94.958,378.028,92.073,373.475,89.084z"/>
	<path fill-rule="evenodd" clip-rule="evenodd" fill="#287FBB" d="M253.491,49.946c0,3.542,0,6.875,0,10.209
		c2.894,0.502,2.894,0.502,6.115-6.302c0,5.229,0,9.907,0,14.585c-1.624-2.537-1.62-6.264-6.344-6.117
		c0,3.189-0.101,6.344,0.091,9.48c0.035,0.577,1.197,1.448,1.934,1.561c5.475,0.837,8.488-0.829,10.989-5.844
		c0.152-0.305,0.386-0.57,1.111-0.685c-0.427,2.753-0.854,5.507-1.253,8.073c-7.872,0-15.528,0-23.184,0
		c-0.135-0.212-0.27-0.424-0.405-0.635c4.399-0.029,4.022-2.979,4.048-5.687c0.047-4.956,0.114-9.911,0.143-14.866
		c0.024-4.098,0.004-4.098-3.896-5.471c7.852,0,15.313,0,22.726,0c0,2.842,0,5.344,0,7.847c-0.188,0.19-0.374,0.382-0.562,0.573
		C263.784,49.691,259.017,49.397,253.491,49.946z"/>
	<path fill-rule="evenodd" clip-rule="evenodd" fill="#257DBB" d="M419.13,134.67c-3.258,2.293-6.045,4.256-8.882,6.253
		c2.384,4.112,5.492,2.046,8.43,1.132c0.09,0.217,0.18,0.434,0.27,0.65c-3.842,2.688-7.683,5.375-11.524,8.063
		c-0.134-0.145-0.269-0.289-0.402-0.434c0.847-1.268,2.033-2.437,2.44-3.833c0.388-1.329-0.039-2.895-0.138-4.977
		c-3.137,2.226-5.539,3.934-7.944,5.637c-1.321,0.936-1.285,1.98-0.467,3.291c2.853,4.569,6.61,6.879,12.263,4.761
		c0.04,0.28,0.081,0.56,0.121,0.839c-2.504,1.288-5.008,2.576-7.701,3.961c-4.506-6.441-8.91-12.737-13.315-19.033
		c0.137-0.129,0.273-0.259,0.411-0.388c0.364,0.304,0.764,0.575,1.09,0.917c1.044,1.1,2.172,1.239,3.416,0.367
		c5.491-3.852,10.986-7.699,16.471-11.56c1.963-1.381,0.942-3.007,0.053-4.608c0.24-0.102,0.48-0.204,0.721-0.307
		c4.249,6.045,8.497,12.091,12.973,18.458c-2.235,1.559-4.401,3.07-6.511,4.542c0.646-2.431,1.965-4.833,1.68-7.027
		C422.289,139.113,420.433,137.056,419.13,134.67z"/>
	<path fill-rule="evenodd" clip-rule="evenodd" fill="#267DBB" d="M70.064,159.215c-1.12,3.145,0.752,4.307,3.053,5.308
		c5.846,2.545,11.662,5.16,17.487,7.753c0.836,0.373,1.656,0.781,2.484,1.173c-0.001,0.218-0.002,0.437-0.004,0.655
		c-9.068,2.462-18.136,4.925-27.792,7.547c3.594,1.623,6.685,3.02,9.777,4.412c1.091,0.491,2.189,0.965,3.282,1.452
		c4.451,1.987,4.451,1.988,8.211-0.651c-1.278,2.859-2.555,5.717-3.833,8.576c-0.312,0.044-0.623,0.089-0.934,0.134
		c1.99-4.24-0.938-5.17-3.535-6.322c-4.591-2.037-9.221-3.992-13.758-6.144c-2.25-1.067-3.956-0.756-5.44,1.183
		c-0.126,0.166-0.364,0.251-0.561,0.353c-0.049,0.025-0.141-0.031-0.558-0.142c1.271-2.829,2.449-5.652,3.838-8.368
		c0.274-0.536,1.333-0.76,2.075-0.955c5.857-1.539,11.725-3.036,18.295-4.727c-1.377-0.667-2.229-1.103-3.101-1.496
		c-2.108-0.954-4.218-1.903-6.339-2.827c-3.705-1.614-3.932-1.563-7.012,0.996c1.175-2.663,2.351-5.325,3.525-7.988
		C69.505,159.162,69.785,159.188,70.064,159.215z"/>
	<path fill-rule="evenodd" clip-rule="evenodd" fill="#247CBA" d="M200.411,82.722c-4.308,1.406-8.615,2.812-12.978,4.236
		c-0.063-0.441-0.146-0.678-0.094-0.712c3.02-2.002,3.03-2.003,1.892-5.529c-1.615-5.003-3.241-10.002-4.868-15.002
		c-1.282-3.94-1.286-3.939-5.629-4.041c0.828-0.454,1.219-0.756,1.661-0.896c4.252-1.349,8.478-2.805,12.785-3.951
		c2.852-0.759,5.748-0.595,8.07,1.64c3.002,2.891,2.684,7.869-0.912,10.461c-2.03,1.463-4.468,2.359-7.019,3.663
		c0.896,2.651,1.726,5.547,2.905,8.293c0.3,0.697,1.689,0.982,2.626,1.322c0.417,0.151,0.955-0.029,1.438-0.06
		C200.33,82.338,200.37,82.531,200.411,82.722z M192.664,70.564c2.218-0.495,3.844-1.393,4.184-3.575
		c0.415-2.667-0.414-5.07-2.342-6.916c-1.57-1.502-3.424-1.184-5.323-0.205C190.34,63.425,191.464,66.877,192.664,70.564z"/>
	<path fill-rule="evenodd" clip-rule="evenodd" fill="#267DBB" d="M53.597,200.605c0.73-2.982,1.461-5.965,2.192-8.947
		c0.167,0.004,0.333,0.008,0.5,0.012c0.081,0.321,0.275,0.661,0.226,0.96c-0.352,2.116,0.776,3.129,2.627,3.605
		c4.329,1.115,8.699,2.09,12.987,3.347c8.203,2.405,10.448,12.189,4.264,18.242c-1.983,1.941-4.388,2.666-7.051,2.073
		c-4.752-1.057-9.469-2.271-14.203-3.414c-3.639-0.878-3.64-0.873-6.013,2.043c1.11-4.475,2.219-8.949,3.328-13.422
		c0.216,0.025,0.432,0.051,0.647,0.076c0,0.403,0.088,0.831-0.015,1.205c-0.489,1.775,0.291,2.8,1.937,3.214
		c5.342,1.343,10.673,2.741,16.053,3.916c3.488,0.761,5.254-0.267,6.296-3.13c1.176-3.233,0.166-6.342-2.699-7.831
		c-1.261-0.656-2.652-1.111-4.031-1.485c-3.235-0.877-6.507-1.616-9.748-2.475c-2.761-0.732-5.556-1.74-6.728,2.642
		C53.978,201.026,53.788,200.816,53.597,200.605z"/>
	<path fill-rule="evenodd" clip-rule="evenodd" fill="#267DBB" d="M148.189,75.739c4.063-1.985,8.125-3.971,12.238-5.981
		c0.124,0.427,0.233,0.645,0.191,0.68c-2.878,2.379-2.913,2.394-1.253,5.844c2.041,4.246,4.093,8.487,6.24,12.68
		c1.815,3.546,3.842,4.438,6.889,3.251c3.479-1.354,5.177-4.401,3.913-7.876c-1.223-3.363-2.916-6.555-4.418-9.815
		c-0.434-0.942-0.925-1.859-1.379-2.792c-1.886-3.877-1.936-3.908-6.104-3.958c2.791-1.367,5.582-2.733,8.373-4.101
		c-2.391,3.417-2.401,3.422-0.55,7.359c1.8,3.829,3.763,7.587,5.401,11.482c2,4.755,0.659,8.603-3.68,11.346
		c-0.873,0.552-1.804,1.037-2.757,1.435c-5.57,2.325-9.644,0.825-12.31-4.557c-1.843-3.721-3.614-7.477-5.418-11.216
		c-1.046-2.171-1.898-4.64-5.446-2.988C148.142,76.267,148.166,76.003,148.189,75.739z"/>
	<path fill-rule="evenodd" clip-rule="evenodd" fill="#257DBA" d="M138.915,81.346c1.769,2.338,3.537,4.676,5.305,7.014
		c-0.161,0.174-0.321,0.348-0.482,0.521c-0.682-0.441-1.359-0.887-2.045-1.321c-2.819-1.779-6.499-1.805-8.801-0.037
		c-1.434,1.101-2.323,2.514-1.771,4.361c0.547,1.83,2.132,2.362,3.81,2.263c2.226-0.132,4.437-0.51,6.655-0.786
		c0.633-0.079,1.263-0.205,1.898-0.252c5.388-0.405,8.797,1.644,9.878,5.92c1.023,4.05-1.563,8.715-5.933,10.634
		c-0.726,0.318-1.498,0.577-2.275,0.723c-1.962,0.37-3.225,1.336-3.651,3.76c-1.979-2.737-3.957-5.473-5.936-8.209
		c0.161-0.174,0.321-0.349,0.481-0.523c0.87,0.586,1.721,1.201,2.611,1.754c3.435,2.136,7.475,2.07,10.059-0.178
		c1.41-1.227,2.31-2.704,1.664-4.646c-0.651-1.957-2.247-2.69-4.136-2.604c-2.066,0.094-4.119,0.46-6.181,0.682
		c-1.188,0.128-2.382,0.286-3.575,0.29c-4.398,0.017-7.667-2.402-8.319-6.086c-0.706-3.984,1.658-7.993,5.648-9.507
		c0.817-0.31,1.678-0.549,2.54-0.683c1.662-0.257,2.771-0.842,1.855-2.992C138.447,81.411,138.681,81.378,138.915,81.346z"/>
	<path fill-rule="evenodd" clip-rule="evenodd" fill="#257DBB" d="M454.168,209.407c-2.511,0.661-4.785,1.26-7.721,2.033
		c1.721-1.843,3.424-2.979,4.062-4.547c0.615-1.514,0.133-3.474,0.133-5.577c-1.449,0.31-2.358,0.464-3.247,0.7
		c-5.391,1.432-10.777,2.88-16.164,4.327c-4.053,1.089-4.053,1.092-4.553,5.097c-1.219-4.52-2.437-9.04-3.655-13.561
		c0.195-0.078,0.391-0.155,0.586-0.232c0.257,0.502,0.396,1.153,0.797,1.475c0.729,0.586,1.748,1.527,2.414,1.365
		c7.179-1.744,14.312-3.675,21.413-5.543c-0.552-4.781-1.585-5.675-7.481-7.123c2.259-0.622,4.517-1.244,7.101-1.955
		C449.981,193.805,452.052,201.523,454.168,209.407z"/>
	<path fill-rule="evenodd" clip-rule="evenodd" fill="#257DBB" d="M435.86,179.963c0.46-0.5,0.919-1,1.378-1.501
		c2.729-2.977,3.311-6.586,1.601-9.928c-1.657-3.238-5.121-4.971-9.062-4.356c-4.296,0.67-8.065,2.563-11.177,5.579
		c-4.175,4.046-3.101,10.37,2.243,13.536c1.204,0.714,2.535,1.213,3.808,1.81c-0.031,0.252-0.063,0.504-0.095,0.756
		c-1.154-0.129-2.436,0.021-3.444-0.434c-5.66-2.55-9.377-10.245-8.077-16.428c1.289-6.133,6.667-10.595,12.965-10.758
		c7.346-0.189,13.332,4.091,15.042,10.824c0.312,1.228,0.465,2.509,0.554,3.776c0.13,1.844,0.511,3.385,3.029,3.188
		c0.003,0.216,0.006,0.432,0.01,0.647c-2.797,1.306-5.595,2.612-8.392,3.918C436.115,180.382,435.988,180.173,435.86,179.963z"/>
	<path fill-rule="evenodd" clip-rule="evenodd" fill="#257DBA" d="M59.758,321.711c7.243-2.787,13.863-5.31,20.461-7.891
		c2.147-0.84,2.15-0.991,2.311-4.839c1.677,4.379,3.353,8.756,5.03,13.135c-0.191,0.094-0.382,0.188-0.573,0.282
		c-0.348-0.542-0.576-1.277-1.07-1.582c-0.784-0.482-1.921-1.165-2.604-0.918c-6.874,2.484-13.685,5.141-20.475,7.735
		c0.865,4.371,1.422,4.768,8.146,6.274c-2.198,0.868-4.396,1.736-6.864,2.711c-2.915-7.573-5.764-14.973-8.749-22.729
		c2.31-0.896,4.533-1.758,6.757-2.619c0.076,0.122,0.151,0.243,0.227,0.365c-1.086,1.459-2.666,2.782-3.119,4.418
		C58.795,317.646,59.507,319.557,59.758,321.711z"/>
	<path fill-rule="evenodd" clip-rule="evenodd" fill="#297FBC" d="M249.141,439.616c-2.428,5.215-4.896,10.516-7.63,16.388
		c-2.316-5.881-4.401-11.174-6.486-16.468c-0.271,0.028-0.542,0.056-0.813,0.084c0,2.036,0.013,4.073-0.004,6.109
		c-0.014,1.599,0.035,3.207-0.125,4.793c-0.208,2.057-0.172,3.876,2.628,4.301c-0.099,0.181-0.198,0.361-0.296,0.542
		c-2.057-0.099-4.114-0.198-6.171-0.297c2.631-0.736,2.524-2.747,2.564-4.781c0.068-3.433,0.208-6.867,0.422-10.293
		c0.123-1.956,0.063-3.68-2.344-4.213c2.219,0,4.448-0.115,6.65,0.074c0.62,0.053,1.422,0.895,1.698,1.558
		c1.47,3.533,2.798,7.125,4.354,11.158c1.748-3.81,3.407-7.211,4.859-10.697c0.567-1.36,1.309-1.735,2.689-1.65
		c1.958,0.122,3.928,0.031,6.05,0.358c-2.92,0.394-2.788,2.401-2.831,4.4c-0.077,3.673-0.199,7.347-0.407,11.014
		c-0.107,1.886,0.178,3.353,2.389,3.658c-3.289,0-6.577,0-9.866,0c2.495-0.446,2.744-2.06,2.697-4.09
		C249.075,447.577,249.141,443.586,249.141,439.616z"/>
	<path fill-rule="evenodd" clip-rule="evenodd" fill="#267DBB" d="M422.74,310.41c0.978-3.915,2.023-8.106,3.07-12.297
		c0.172,0.008,0.344,0.016,0.516,0.023c0.059,0.318,0.196,0.645,0.164,0.953c-0.231,2.226,0.226,2.692,2.436,2.43
		c4.018-0.479,4.017-0.479,5.01-4.499c0.211-0.853,0.343-1.74,0.674-2.545c0.786-1.907,0.401-3.209-1.442-4.359
		c-2.682-1.672-3.122-1.662-4.698,1.178c-0.097,0.175-0.334,0.271-1.125,0.879c0.842-3.454,1.529-6.276,2.216-9.097
		c1.159,3.86,4.465,5.468,7.117,7.61c4.727,3.817,9.55,7.514,14.324,11.272c0.611,0.48,1.17,1.026,2.185,1.925
		c-3.722,0.653-6.972,1.232-10.224,1.793c-4.88,0.841-9.783,1.565-14.632,2.557C426.501,308.607,424.796,309.589,422.74,310.41z
		 M436.688,292.929c-0.677,2.724-1.242,4.998-1.894,7.623c3.235-0.529,6.155-1.008,9.642-1.578
		C441.641,296.793,439.333,294.992,436.688,292.929z"/>
	<path fill-rule="evenodd" clip-rule="evenodd" fill="#257DBA" d="M411.84,335.125c3.352-7.49,6.57-14.689,9.79-21.889
		c0.123,4.104,0.129,4.09,4.17,5.875c4.664,2.06,9.314,4.154,13.975,6.225c3.675,1.632,3.678,1.626,6.571-1.107
		c-1.929,4.368-3.857,8.736-5.819,13.182c-0.349-0.282-0.573-0.396-0.561-0.465c0.747-3.864,0.758-3.884-3.037-5.588
		c-5.019-2.253-10.078-4.416-15.066-6.731c-2.005-0.931-3.167-0.6-4.15,1.465c-2.765,5.806-2.54,7.47,2.071,12.251
		c0.294,0.305,0.47,0.724,0.347,1.562C417.438,338.352,414.747,336.801,411.84,335.125z"/>
	<path fill-rule="evenodd" clip-rule="evenodd" fill="#267DBB" d="M79.289,140.116c7.755,1.263,14.913,2.379,22.051,3.606
		c5.391,0.927,6.053,0.971,9.214,0.011c-2.336,3.61-4.673,7.221-7.01,10.831c0.041-3.887,0.031-3.84-4.096-4.697
		c-1.267-0.263-2.078-0.126-2.736,1.111c-0.747,1.403-1.727,2.683-2.6,4.02c-1.582,2.422-1.272,4.528,1.181,6.095
		c0.623,0.397,1.841,0.105,2.682-0.179c0.472-0.16,0.729-0.953,1.083-1.46c0.285,0.227,0.569,0.454,0.854,0.681
		c-1.596,2.46-3.193,4.921-4.79,7.382c-0.194-0.02-0.389-0.039-0.584-0.059c0.657-3.776-1.72-6.292-3.468-9.044
		C87.31,152.496,83.482,146.619,79.289,140.116z M95.833,149.316c-3.388-0.58-6.279-1.075-9.647-1.65
		c1.888,2.892,3.54,5.42,5.374,8.229C93.075,153.561,94.356,151.59,95.833,149.316z"/>
	<path fill-rule="evenodd" clip-rule="evenodd" fill="#247CBA" d="M122.61,116.945c2.048,2.356,4.095,4.712,6.264,7.208
		c-5.537,5.931-10.944,11.723-16.401,17.569c-0.269-0.384-0.448-0.557-0.417-0.608c1.819-3.154,1.827-3.159-0.938-5.747
		c-3.848-3.601-7.708-7.188-11.557-10.786c-3.086-2.886-3.083-2.89-6.854-1.372c3.25-3.496,6.499-6.991,9.748-10.487
		c0.304,0.021,0.607,0.042,0.911,0.063c-4.117,4.199-0.276,5.865,1.912,7.966c3.453,3.318,6.983,6.558,10.514,9.794
		c2.346,2.149,2.738,2.112,4.869-0.101c4.429-4.599,4.644-6.034,1.793-11.851c-0.19-0.389-0.302-0.815-0.45-1.225
		C122.205,117.227,122.408,117.086,122.61,116.945z"/>
	<path fill-rule="evenodd" clip-rule="evenodd" fill="#247CBA" d="M396.574,131.75c-2.461,1.931-4.922,3.862-7.475,5.866
		c-5.672-5.881-11.174-11.587-16.677-17.293c0.124-0.147,0.247-0.294,0.37-0.442c0.409,0.256,0.845,0.477,1.221,0.774
		c1.168,0.926,2.293,1.016,3.413-0.068c4.879-4.717,9.75-9.442,14.644-14.143c1.792-1.721,0.114-2.994-0.864-4.041
		c3.482,3.214,6.964,6.428,10.446,9.642c-0.055,0.079-0.109,0.158-0.164,0.237c-0.408-0.271-0.858-0.497-1.217-0.822
		c-1.213-1.103-2.479-1.142-3.631-0.042c-4.736,4.519-9.43,9.083-14.137,13.632c-1.162,1.123-0.958,2.155,0.039,3.33
		c4.398,5.186,6.293,5.662,12.644,3.031c0.328-0.137,0.689-0.192,1.036-0.286C396.34,131.333,396.457,131.541,396.574,131.75z"/>
	<path fill-rule="evenodd" clip-rule="evenodd" fill="#247CBA" d="M73.545,256.75c0.317,4.563,0.634,9.127,0.954,13.741
		c-0.389-0.044-0.655-0.044-0.66-0.079c-0.398-2.932-2.274-3.35-4.825-3.109c-5.242,0.496-10.506,0.75-15.75,1.215
		c-4.108,0.365-4.101,0.441-5.729,3.952c-0.328-4.59-0.656-9.18-0.984-13.769c2.029,3.57,2.027,3.55,6.296,3.209
		c5.249-0.42,10.503-0.782,15.752-1.205C72.355,260.402,72.354,260.376,73.545,256.75z"/>
	<path fill-rule="evenodd" clip-rule="evenodd" fill="#277EBB" d="M144.588,402.213c-0.962,1.199-2.361,2.943-3.76,4.688
		c-0.135-0.057-0.27-0.113-0.405-0.169c0.121-1.137,0.311-2.271,0.35-3.409c0.097-2.813-1.091-4.989-3.572-6.305
		c-2.362-1.252-4.729-0.64-6.379,1.145c-2.125,2.299-4.144,4.832-5.587,7.589c-1.324,2.531,0.727,6.021,3.477,6.877
		c0.349,0.108,0.814,0.159,1.125,0.018c1.92-0.877,3.127-4.247,2.471-6.395c2.281,1.843,4.563,3.686,6.844,5.528
		c-2.433-0.44-3.463,1.241-4.451,2.764c-0.978,1.508-2.143,1.817-3.583,0.907c-2.282-1.44-4.768-2.699-6.695-4.532
		c-3.712-3.533-4.006-8.991-1.106-12.889c3.097-4.161,8.543-5.64,13.005-3.106c2.001,1.136,3.508,3.135,5.26,4.719
		C142.486,400.462,143.438,401.232,144.588,402.213z"/>
	<path fill-rule="evenodd" clip-rule="evenodd" fill="#287FBC" d="M225.439,434.469c-0.384,1.988-0.724,3.752-1.064,5.516
		c-0.205,0.145-0.409,0.289-0.613,0.434c0.019-5.055-3.222-5.893-7.198-6.19c-0.468,2.321-0.934,4.635-1.419,7.046
		c3.167,1.348,3.632-1.521,5.272-2.891c-0.615,3.199-1.229,6.398-1.844,9.598c-0.932-1.937-0.528-4.54-3.728-5.002
		c-0.417,2.074-0.964,4.066-1.137,6.091c-0.054,0.637,0.763,1.746,1.416,1.977c3.367,1.187,5.747,0.364,7.952-2.514
		c0.233-0.305,0.279-0.754,0.413-1.136c0.242,0.187,0.484,0.373,0.727,0.56c-0.63,1.85-1.259,3.7-1.976,5.808
		c-5.495-1.06-10.863-2.095-16.231-3.129c2.176-0.315,2.812-1.711,3.127-3.562c0.616-3.621,1.287-7.236,2.063-10.826
		c0.429-1.979,0.938-3.836-1.672-4.854C214.727,432.398,219.928,433.403,225.439,434.469z"/>
	<path fill-rule="evenodd" clip-rule="evenodd" fill="#2A80BC" d="M149.277,404.992c2.842,1.649,5.683,3.299,8.525,4.947
		c-2.572-0.977-3.551,0.6-4.531,2.409c-1.597,2.945-3.306,5.83-4.952,8.75c-1.022,1.812-1.032,3.518,0.704,4.926
		c1.876,1.521,4.536,1.742,5.84-0.077c2.498-3.483,4.658-7.228,6.7-11.003c0.366-0.675-0.513-2.023-0.9-3.345
		c1.906,1.085,3.787,2.155,5.667,3.226c-3.145-0.495-3.965,1.874-5.107,3.903c-1.291,2.295-2.569,4.612-4.058,6.777
		c-2.441,3.551-5.966,3.97-10.051,1.384c-3.766-2.385-4.604-5.325-2.508-9.162c1.53-2.801,3.102-5.583,4.783-8.295
		C150.356,407.868,150.663,406.541,149.277,404.992z"/>
	<path fill-rule="evenodd" clip-rule="evenodd" fill="#287FBC" d="M356.364,423.4c-0.168,0.984-0.151,2.05-0.536,2.941
		c-1.837,4.242-7.612,6.993-12.239,5.933c-4.199-0.962-7.559-5.394-7.553-9.962c0.007-5.076,3.728-9.523,8.832-10.506
		c1.502-0.288,3.278-0.093,3.31-3.183c1.471,2.616,2.535,4.51,3.599,6.401c-0.121,0.136-0.242,0.271-0.363,0.405
		c-0.507-0.366-1.011-0.736-1.521-1.099c-2.152-1.526-4.45-1.79-6.747-0.477c-2.228,1.273-3.203,3.354-2.869,5.875
		c0.521,3.913,2.456,7.095,5.686,9.332c2.772,1.921,6.877,0.39,8.568-3.038c0.416-0.844,0.684-1.761,1.02-2.645
		C355.821,423.387,356.093,423.394,356.364,423.4z"/>
	<path fill-rule="evenodd" clip-rule="evenodd" fill="#287FBC" d="M195.607,428.877c-3.118-1.451-3.557-1.319-7.098,2.318
		c0.271-1.221,0.417-2.015,0.63-2.789c0.231-0.839,0.526-1.66,0.87-2.729c5.607,1.603,11.152,3.186,16.876,4.821
		c-0.556,1.841-1.047,3.463-1.537,5.086c-0.645-2.82-1.287-5.345-5.066-5.325c-1.392,4.901-2.905,9.842-4.114,14.855
		c-0.203,0.84,0.912,1.998,1.454,3.08c-2.953-0.85-6.159-1.771-9.365-2.692c2.417,0.049,3.123-1.39,3.627-3.314
		C193.057,437.726,194.362,433.298,195.607,428.877z"/>
	<path fill-rule="evenodd" clip-rule="evenodd" fill="#287FBC" d="M165.656,436.554c-1.587-0.711-3.479-1.559-5.154-2.309
		c1.698-1.116,3.416-2.006,4.846-3.231c4.109-3.522,8.103-7.181,12.456-11.066c0.112,0.96,0.239,1.537,0.238,2.115
		c-0.008,5.269-0.093,10.538-0.025,15.807c0.018,1.429,0.48,2.852,0.779,4.496c-2.616-1.153-5.384-2.374-8.701-3.838
		c1.563-0.383,3.17,0.429,3.223-1.746c0.048-1.999-0.176-3.408-2.35-3.924c-0.608-0.145-1.219-0.429-1.734-0.784
		c-1.888-1.302-3.29-0.372-4.061,1.218C164.798,434.062,165.44,435.324,165.656,436.554z M173.154,432.47c0-2.327,0-4.252,0-6.669
		c-1.803,1.65-3.274,2.996-4.905,4.487C169.997,431.065,171.489,431.729,173.154,432.47z"/>
	<path fill-rule="evenodd" clip-rule="evenodd" fill="#297FBC" d="M281.403,454.07c-2.764,0.255-5.695,0.526-8.288,0.766
		c0.349-0.972,1.092-1.97,0.885-2.695c-0.441-1.54-1.075-3.302-3.434-2.615c-0.674,0.196-1.445,0.243-2.141,0.142
		c-2.418-0.351-3.238,1.228-3.238,3.065c-0.001,0.819,1.25,1.64,1.997,2.535c-1.6,0.174-3.628,0.396-5.776,0.63
		c4.028-5.479,4.853-12.062,7.337-17.969c0.367-0.873,0.672-1.772,1.178-3.116c1.048,1.845,1.904,3.32,2.73,4.813
		c1.893,3.418,3.713,6.878,5.681,10.253C279.181,451.329,280.32,452.609,281.403,454.07z M271.983,448.128
		c-1.166-2.124-2.128-3.877-3.342-6.09c-0.815,2.494-1.44,4.409-2.17,6.641C268.441,448.481,270.006,448.325,271.983,448.128z"/>
	<path fill-rule="evenodd" clip-rule="evenodd" fill="#297FBC" d="M312.525,425.508c3.856,4.181,7.2,7.893,10.647,11.506
		c1.547,1.62,3.302,3.041,5.063,4.644c-2.464,0.863-5.348,1.874-8.232,2.885c-0.062-0.122-0.124-0.244-0.186-0.366
		c0.534-0.485,1.069-0.971,2.396-2.173c-1.322-0.953-2.554-2.567-3.72-2.521c-1.968,0.08-4.032,0.981-5.757,2.029
		c-0.573,0.349-0.526,2.305-0.188,3.338c0.187,0.571,1.564,0.752,2.714,1.239c-1.954,0.702-3.898,1.401-5.844,2.101
		c2.314-3.189,1.496-6.849,1.977-10.204C311.949,434.118,312.12,430.197,312.525,425.508z M317.878,438.172
		c-1.693-1.806-3.071-3.275-4.768-5.083c-0.216,2.479-0.389,4.467-0.596,6.84C314.399,439.312,315.949,438.804,317.878,438.172z"/>
	<path fill-rule="evenodd" clip-rule="evenodd" fill="#287FBB" d="M286.76,453.219c2.393-1.114,1.946-2.962,1.547-4.809
		c-0.791-3.659-1.564-7.323-2.352-10.983c-0.56-2.601-0.578-2.612-3.234-3.308c3.249-0.71,6.499-1.42,10.191-2.228
		c-1.07,1.008-2.186,1.577-2.408,2.392c-0.268,0.98,0.166,2.182,0.395,3.266c0.737,3.509,1.598,6.993,2.255,10.516
		c0.355,1.904,1.265,2.125,3.036,1.915c4.224-0.5,5.794-3.12,5.836-7.224c0.252,0.085,0.504,0.17,0.755,0.254
		c0.237,2.096,0.474,4.192,0.748,6.63C297.844,450.853,292.302,452.036,286.76,453.219z"/>
	<path fill-rule="evenodd" clip-rule="evenodd" fill="#287FBC" d="M379.766,410.487c-0.2-0.702-0.196-1.617-0.65-2.056
		c-0.658-0.635-1.647-0.926-2.622-1.428c-1.111,0.887-2.141,1.931-3.365,2.633c-1.917,1.1-2.115,2.643-0.984,4.146
		c0.548,0.729,1.963,0.803,3.093,1.212c-1.189,0.985-2.769,2.293-4.04,3.347c-0.453-2.529-0.771-5.05-1.371-7.501
		c-1.133-4.63-2.428-9.22-3.761-14.224c0.889,0.327,1.45,0.473,1.955,0.73c4.401,2.246,8.769,4.563,13.201,6.745
		c1.574,0.775,3.301,1.242,5.211,1.942c-2.036,1.578-4.141,3.209-6.245,4.841C380.047,410.745,379.906,410.616,379.766,410.487z
		 M375.267,406.324c-2.055-1.063-3.786-1.959-6.133-3.173c0.691,2.596,1.186,4.451,1.781,6.688
		C372.471,408.582,373.722,407.571,375.267,406.324z"/>
	<path fill-rule="evenodd" clip-rule="evenodd" fill="#287FBB" d="M393.823,398.513c-0.071,1.829-1.612,3.267-3.482,3.247
		c-1.819-0.018-3.396-1.578-3.379-3.343c0.02-1.922,1.681-3.487,3.598-3.39C392.378,395.12,393.892,396.737,393.823,398.513z"/>
	<path fill-rule="evenodd" clip-rule="evenodd" fill="#287FBB" d="M364.107,418.062c0.538,0.961,1.633,2.036,1.467,2.854
		c-0.184,0.904-1.448,2.098-2.375,2.229c-1.521,0.215-2.589-1.039-2.197-2.59c0.244-0.966,1.283-1.731,1.966-2.587
		C363.348,417.999,363.728,418.03,364.107,418.062z"/>
	<path fill-rule="evenodd" clip-rule="evenodd" fill="#287FBC" d="M380.187,410.875c-0.275,0.145-0.551,0.29-0.827,0.435
		c0.137-0.274,0.272-0.549,0.407-0.822C379.906,410.616,380.047,410.745,380.187,410.875z"/>
	<path display="none" fill-rule="evenodd" clip-rule="evenodd" fill="#FEFEFE" d="M251.077,155.443
		c28.397,0,56.794-0.003,85.19,0.002c5.396,0.001,9.094,2.498,10.067,7.017c0.348,1.61,0.174,3.338,0.188,5.013
		c0.022,2.959,0.01,5.919,0.004,8.879c-0.013,6.138-4.593,10.109-10.665,9.274c-1.021-0.141-2.057-0.266-3.085-0.267
		c-18.478-0.016-36.955-0.014-55.434-0.011c-7.266,0.001-10.831,3.593-10.831,10.898c-0.001,41.035-0.001,82.07,0,123.105
		c0,8.834,4.355,13.155,13.27,13.157c10.716,0.003,21.432,0.004,32.146,0.001c2.805-0.001,4.706,1.034,5.933,3.822
		c2.436,5.534,5.238,10.907,7.882,16.35c0.314,0.646,0.644,1.29,0.872,1.966c1.345,3.979,0.121,5.742-4.075,5.744
		c-47.596,0.011-95.19,0.011-142.784-0.002c-4.69-0.001-5.859-2.106-3.691-6.753c2.389-5.122,5.241-10.057,7.254-15.315
		c1.846-4.823,5.027-6.096,9.786-5.978c9.912,0.246,19.835,0.032,29.75,0.195c8.112,0.134,12.897-5.122,12.864-12.879
		c-0.182-41.354-0.086-82.71-0.086-124.066c0-6.546-3.639-10.234-10.204-10.241c-18.878-0.019-37.756-0.014-56.634,0.004
		c-1.985,0.002-4.027,0.494-5.943,0.169c-4.187-0.71-6.805-3.743-7.218-8.879c-0.343-4.272,0.052-8.605,0.151-12.911
		c0.105-4.564,3.864-8.308,9.863-8.3c8.879,0.013,17.758,0.003,26.637,0.003C211.882,155.443,231.479,155.443,251.077,155.443z"/>
	<path display="none" fill-rule="evenodd" clip-rule="evenodd" fill="#FEFEFE" d="M182.516,287.912
		c6.317-0.001,12.635-0.009,18.952,0.002c3.997,0.007,6.6,2.733,6.85,6.693c0.569,8.982-2.945,10.839-10.542,10.658
		c-11.189-0.266-22.391-0.162-33.584-0.024c-4.753,0.059-8.295-3.266-7.779-7.851c0.125-1.105-0.028-2.239,0.031-3.356
		c0.187-3.488,2.889-6.096,6.399-6.112C169.401,287.89,175.959,287.912,182.516,287.912z"/>
	<path display="none" fill-rule="evenodd" clip-rule="evenodd" fill="#FEFEFE" d="M182.361,230.848
		c-6.394,0-12.788,0.017-19.182-0.006c-4.073-0.014-6.576-2.649-6.772-6.697c-0.388-7.98,1.563-10.632,10.099-10.379
		c11.5,0.34,23.016,0.081,34.525,0.086c4.885,0.002,7.247,2.41,7.256,7.367c0.002,0.959,0.013,1.918-0.002,2.877
		c-0.063,4.073-2.691,6.729-6.742,6.744C195.15,230.866,188.756,230.848,182.361,230.848z"/>
	<path fill-rule="evenodd" clip-rule="evenodd" fill="#FDFEFE" d="M302.246,57.773c-0.051,0.054-0.103,0.107-0.152,0.161
		c-0.045-0.059-0.127-0.12-0.123-0.176c0.003-0.057,0.091-0.108,0.142-0.162C302.156,57.655,302.201,57.714,302.246,57.773z"/>
	<path fill-rule="evenodd" clip-rule="evenodd" fill="#F8FBFC" d="M63.998,293.396c-3.818,0.749-7.382,1.447-11.169,2.19
		c-0.688-2.528-1.534-5.073,0.477-7.206c1.873-1.986,4.513-2.514,7.061-1.683C63.35,287.672,63.611,290.464,63.998,293.396z"/>
	<path fill-rule="evenodd" clip-rule="evenodd" fill="#F9FBFC" d="M220.343,63.843c-0.562-3.999-1.078-7.67-1.603-11.409
		c2.732-0.617,5.312-1.293,7.294,1.022c1.735,2.026,2.038,4.551,1.139,6.984C226.056,63.467,223.125,63.323,220.343,63.843z"/>
	<path fill-rule="evenodd" clip-rule="evenodd" fill="#F9FBFC" d="M445.102,263.775c3.938,0.27,7.578,0.52,11.352,0.777
		c0.199,2.653,0.181,5.091-2.08,6.803c-1.606,1.218-5.464,1.119-7.322-0.122C444.348,269.426,444.895,266.744,445.102,263.775z"/>
	<path fill-rule="evenodd" clip-rule="evenodd" fill="#F8FBFC" d="M61.097,242.707c-0.348-5.63,3.854-8.921,8.436-6.612
		c1.103,0.556,2.167,1.707,2.667,2.84c1.326,3.008,0.183,4.514-3.066,4.34C66.445,243.13,63.762,242.898,61.097,242.707z"/>
	<path fill-rule="evenodd" clip-rule="evenodd" fill="#F6F9FB" d="M59.201,242.618c-3.637-0.263-6.878-0.497-10.282-0.742
		c-0.149-2.411,0.204-4.502,2.31-5.721c1.925-1.114,4.042-1.012,5.898,0.231C59.267,237.818,59.297,240.053,59.201,242.618z"/>
	<path fill-rule="evenodd" clip-rule="evenodd" fill="#FBFCFD" d="M338.578,73.488c-0.796,4.76-2.726,9.933-6.744,14.112
		c-1.914,1.991-4.247,2.791-6.971,1.557c-2.715-1.229-3.69-3.484-3.471-6.249c0.457-5.769,2.709-10.815,6.713-14.986
		c1.896-1.977,4.255-2.798,6.978-1.574C337.498,67.436,338.673,69.515,338.578,73.488z"/>
	<path fill-rule="evenodd" clip-rule="evenodd" fill="#FBFCFD" d="M446.342,225.436c2.241,0.463,4.63,0.579,6.692,1.459
		c4.586,1.956,5.112,7.891,0.784,10.341c-5.594,3.167-11.738,4.021-18.021,2.143c-2.308-0.69-3.697-2.386-3.966-4.911
		c-0.267-2.5,0.694-4.346,2.753-5.688C438.14,226.46,442.168,225.997,446.342,225.436z"/>
	<path fill-rule="evenodd" clip-rule="evenodd" fill="#F6F9FB" d="M192.664,70.564c-1.2-3.687-2.323-7.139-3.481-10.696
		c1.899-0.979,3.753-1.297,5.323,0.205c1.928,1.845,2.757,4.248,2.342,6.916C196.508,69.171,194.881,70.069,192.664,70.564z"/>
	<path fill-rule="evenodd" clip-rule="evenodd" fill="#F3F8FA" d="M436.688,292.929c2.645,2.063,4.952,3.864,7.748,6.045
		c-3.486,0.57-6.406,1.049-9.642,1.578C435.446,297.927,436.012,295.652,436.688,292.929z"/>
	<path fill-rule="evenodd" clip-rule="evenodd" fill="#F3F8FA" d="M95.833,149.316c-1.477,2.274-2.758,4.245-4.273,6.579
		c-1.834-2.809-3.485-5.337-5.374-8.229C89.554,148.241,92.445,148.736,95.833,149.316z"/>
	<path fill-rule="evenodd" clip-rule="evenodd" fill="#F6F9FB" d="M173.154,432.47c-1.665-0.74-3.157-1.404-4.905-2.182
		c1.63-1.491,3.102-2.837,4.905-4.487C173.154,428.218,173.154,430.143,173.154,432.47z"/>
	<path fill-rule="evenodd" clip-rule="evenodd" fill="#EEF5F9" d="M271.983,448.128c-1.978,0.197-3.542,0.354-5.512,0.551
		c0.729-2.231,1.354-4.146,2.17-6.641C269.855,444.251,270.817,446.004,271.983,448.128z"/>
	<path fill-rule="evenodd" clip-rule="evenodd" fill="#EEF5F9" d="M317.878,438.172c-1.929,0.632-3.479,1.14-5.363,1.757
		c0.207-2.373,0.38-4.361,0.596-6.84C314.807,434.896,316.185,436.366,317.878,438.172z"/>
	<path fill-rule="evenodd" clip-rule="evenodd" fill="#EEF5F9" d="M375.267,406.324c-1.545,1.247-2.796,2.258-4.352,3.515
		c-0.596-2.236-1.09-4.092-1.781-6.688C371.48,404.365,373.212,405.261,375.267,406.324z"/>
</g>
</svg>
