<?xml version="1.0" encoding="iso-8859-1"?>
<!-- Generator: Adobe Illustrator 19.0.0, SVG Export Plug-In . SVG Version: 6.00 Build 0)  -->
<svg version="1.1" id="Capa_1" xmlns="http://www.w3.org/2000/svg" xmlns:xlink="http://www.w3.org/1999/xlink" x="0px" y="0px"
	 viewBox="0 0 512 512" style="enable-background:new 0 0 512 512;" xml:space="preserve">
<g transform="translate(-1)">
	<g transform="translate(2 1)">
		<path style="fill:#A4C2F7;" d="M374.516,75.8V383L255.049,502.467H67.316c-9.414-0.028-17.039-7.652-17.067-17.067V92.867
			c0.028-9.414,7.652-17.039,17.067-17.067H374.516z"/>
		<path style="fill:#D4E1F4;" d="M348.916,75.8V383l-93.867,119.467H67.316c-9.414-0.028-17.039-7.652-17.067-17.067V92.867
			c0.028-9.414,7.652-17.039,17.067-17.067H348.916z"/>
		<g>
			<path style="fill:#A4C2F7;" d="M255.049,502.467v-102.4c0-9.426,7.641-17.067,17.067-17.067h102.4L255.049,502.467z"/>
			<path style="fill:#A4C2F7;" d="M459.849,92.867h-42.667v179.2c-0.028,9.414-7.653,17.039-17.067,17.067h-85.333
				c-9.414-0.028-17.039-7.652-17.067-17.067v-179.2h-42.667l102.4-85.333L459.849,92.867z"/>
		</g>
		<path style="fill:#E3E7F2;" d="M425.716,92.867h-34.133v179.2c-0.028,9.414-7.652,17.039-17.067,17.067h-59.733
			c-9.414-0.028-17.039-7.652-17.067-17.067v-179.2h-42.667l84.267-69.333L425.716,92.867z"/>
	</g>
	<path style="fill:#FFFFFF;" d="M94.916,76.8h-25.6c-9.414,0.028-17.039,7.652-17.067,17.067V486.4
		c0.028,9.414,7.653,17.039,17.067,17.067h25.6c-9.414-0.028-17.039-7.652-17.067-17.067V93.867
		C77.876,84.452,85.501,76.827,94.916,76.8z"/>
	<g>
		<polygon style="fill:#FFFFFF;" points="60.782,93.867 60.782,204.8 60.782,486.4 43.716,486.4 43.716,204.8 43.716,93.867 		"/>
		<g>
			<path style="fill:#428DFF;" d="M43.716,486.4c0.015,14.132,11.468,25.585,25.6,25.6h187.733c2.264-0.01,4.433-0.91,6.039-2.506
				l119.454-119.454l0.029-0.037c0.68-0.705,1.231-1.523,1.63-2.418c0.11-0.264,0.205-0.533,0.287-0.807
				c0.254-0.727,0.407-1.485,0.455-2.253c0.012-0.184,0.106-0.34,0.106-0.527v-85.333h17.067c14.132-0.015,25.585-11.468,25.6-25.6
				V102.4h34.133c3.594,0.001,6.804-2.25,8.027-5.629c1.223-3.379,0.198-7.163-2.564-9.463l-102.4-85.333
				c-3.166-2.633-7.759-2.633-10.925,0l-79.55,66.292H69.316c-14.132,0.015-25.585,11.468-25.6,25.6V128
				c0,4.713,3.821,8.533,8.533,8.533s8.533-3.821,8.533-8.533V93.867c0.005-4.711,3.822-8.529,8.533-8.533h184.641l-2.37,1.975
				c-2.762,2.299-3.788,6.083-2.564,9.463c1.223,3.379,4.433,5.63,8.027,5.629h34.133v170.667c0.015,14.132,11.468,25.585,25.6,25.6
				h51.2v76.8h-93.867c-14.132,0.015-25.585,11.468-25.6,25.6v93.867h-179.2c-4.711-0.005-8.529-3.822-8.533-8.533V196.267
				c0-4.713-3.821-8.533-8.533-8.533s-8.533,3.821-8.533,8.533V486.4z M308.249,273.067v-179.2c0.001-2.263-0.898-4.434-2.499-6.035
				c-1.6-1.6-3.771-2.499-6.035-2.499H280.62l78.829-65.692l78.829,65.692h-19.096c-2.263-0.001-4.434,0.898-6.035,2.499
				c-1.6,1.6-2.499,3.771-2.499,6.035v179.2c-0.005,4.711-3.822,8.529-8.533,8.533h-85.333
				C312.071,281.595,308.254,277.777,308.249,273.067z M265.582,401.067c0.005-4.711,3.822-8.529,8.533-8.533h81.8l-90.333,90.333
				V401.067z"/>
			<path style="fill:#428DFF;" d="M52.249,170.667c3.45-0.014,6.556-2.096,7.879-5.282c1.323-3.187,0.606-6.856-1.82-9.31
				l-1.279-1.025c-0.476-0.324-0.993-0.583-1.538-0.771c-0.484-0.246-1.002-0.417-1.537-0.508c-0.564-0.096-1.133-0.153-1.705-0.17
				c-2.259,0.031-4.423,0.915-6.059,2.475c-2.07,1.994-2.979,4.908-2.409,7.726c0.57,2.818,2.539,5.149,5.222,6.183
				C50.03,170.421,51.133,170.653,52.249,170.667z"/>
			<path style="fill:#428DFF;" d="M103.449,256h162.133c4.713,0,8.533-3.821,8.533-8.533s-3.82-8.533-8.533-8.533H103.449
				c-4.713,0-8.533,3.821-8.533,8.533S98.736,256,103.449,256z"/>
			<path style="fill:#428DFF;" d="M103.449,298.667h162.133c4.713,0,8.533-3.82,8.533-8.533s-3.82-8.533-8.533-8.533H103.449
				c-4.713,0-8.533,3.82-8.533,8.533S98.736,298.667,103.449,298.667z"/>
			<path style="fill:#428DFF;" d="M103.449,341.333h162.133c4.713,0,8.533-3.821,8.533-8.533s-3.82-8.533-8.533-8.533H103.449
				c-4.713,0-8.533,3.82-8.533,8.533S98.736,341.333,103.449,341.333z"/>
			<path style="fill:#428DFF;" d="M103.449,384h110.933c4.713,0,8.533-3.82,8.533-8.533s-3.821-8.533-8.533-8.533H103.449
				c-4.713,0-8.533,3.821-8.533,8.533S98.736,384,103.449,384z"/>
			<path style="fill:#428DFF;" d="M103.449,426.667h110.933c4.713,0,8.533-3.82,8.533-8.533s-3.821-8.533-8.533-8.533H103.449
				c-4.713,0-8.533,3.82-8.533,8.533S98.736,426.667,103.449,426.667z"/>
		</g>
	</g>
</g>
<g>
</g>
<g>
</g>
<g>
</g>
<g>
</g>
<g>
</g>
<g>
</g>
<g>
</g>
<g>
</g>
<g>
</g>
<g>
</g>
<g>
</g>
<g>
</g>
<g>
</g>
<g>
</g>
<g>
</g>
</svg>
