<?xml version="1.0"?>
<svg xmlns="http://www.w3.org/2000/svg" xmlns:xlink="http://www.w3.org/1999/xlink" xmlns:svgjs="http://svgjs.com/svgjs" version="1.1" width="512" height="512" x="0" y="0" viewBox="0 0 497 497" style="enable-background:new 0 0 512 512" xml:space="preserve" class=""><g><g xmlns="http://www.w3.org/2000/svg"><path d="m453 431.243-418.777-2.965c-16.569 0-30-13.431-30-30l8.085-305.589c0-13.061-3.962-28.14 7.689-32.259 3.129-1.106 6.495-1.708 10.003-1.708h437c16.569 0 30 13.431 30 30v319.552c0 3.509-.603 6.878-1.71 10.008-4.12 11.647-29.231 12.961-42.29 12.961z" fill="#62abe8" data-original="#ffbf54" style="" class=""/><path d="m495.28 418.278c-4.11 11.65-15.22 20-28.28 20h-437c-16.57 0-30-13.44-30-30v-319.56c0-13.05 8.34-24.17 20-28.28v347.84c0 5.51 4.49 10 10 10z" fill="#68a6d9" data-original="#ffa442" style="" class=""/><path d="m43.415 383.711 2.085-271.873c0-5.523 4.477-10 10-10l4.5-3.116h387c5.523 0 10 4.477 10 10v269.556l-5.5 5.943c0 5.523-4.477 10-10 10l-388.085-.511c-5.523.001-10-4.477-10-9.999z" fill="#faf8f8" data-original="#faf8f8" style="" class=""/><path d="m200.422 286.314 26.185 34.801-22.817 27.232-30.669 23.961c-2.66 2.078-6.573.538-7.104-2.795l-3.103-19.484c-.244-1.535-1.276-2.83-2.717-3.412l-6.798-2.744-4.36-3.924c-3.164-1.277-3.758-5.5-1.069-7.6z" fill="#aad8de" data-original="#aad8de" style="" class=""/><path d="m290.266 293.2-25.059 33.268 55.527 38.732c2.66 2.078 6.573.538 7.104-2.795l4.74-2.898 1.509-9.478c.245-1.535 1.276-2.83 2.717-3.412l17.25-6.963c3.164-1.277 3.758-5.5 1.069-7.6l-30.102-23.518z" fill="#aad8de" data-original="#aad8de" style="" class=""/><path d="m457 378.278v10c0 5.523-4.477 10-10 10h-397c-5.523 0-10-4.477-10-10v-279.56c0-5.523 4.477-10 10-10h10v273.56c0 3.314 2.686 6 6 6z" fill="#f0e9e6" data-original="#f0e9e6" style="" class=""/><g fill="#94ccd4"><path d="m301.26 331.129 2.919-6.341 18.97-14.61c.67-.51 1.29-1.06 1.87-1.64l-28.44-22.22-31.37 40.15 28 21.88c0-.001.001-.001.001-.002l30.669 23.962c2.66 2.08 6.57.54 7.1-2.79l1.6-10.01-30.149-23.554c-1.461-1.143-1.946-3.14-1.17-4.825z" fill="#94ccd4" data-original="#94ccd4" style="" class=""/><path d="m171.98 308.538-30.1 23.52c-2.69 2.1-2.1 6.32 1.07 7.6l10.45 4.21 29.421-22.987c1.439-1.124 3.457-1.131 4.903-.017l5.095 3.924 10.01 21.74c.29.63.61 1.23.96 1.82l27.899-21.801.001.001.1-.08-31.37-40.15z" fill="#94ccd4" data-original="#94ccd4" style="" class=""/></g><g><path d="m370.266 267.328c0-12.592 3.546-22.572 14.983-26.094 2.608-.803 5.379-1.236 8.251-1.236 15.464 0 28 12.536 28 28 0 3.826-.767 7.473-2.157 10.796-4.226 10.105-12.929 9.726-24.566 9.726-15.464-.001-24.511-5.728-24.511-21.192z" fill="#6dafe5" data-original="#dc4955" style="" class=""/><path d="m419.75 277.758c-3.96 10.65-14.22 18.24-26.25 18.24-15.46 0-28-12.54-28-28 0-12.59 8.31-23.24 19.75-26.76-1.13 3.04-1.75 6.33-1.75 9.76 0 15.46 12.54 28 28 28 2.87 0 5.64-.43 8.25-1.24z" fill="#68a6d9" data-original="#d82f3c" style="" class=""/></g><g><path d="m79.766 267.328c0-12.592 3.546-22.572 14.983-26.094 2.608-.803 5.379-1.236 8.251-1.236 15.464 0 28 12.536 28 28 0 3.826-.767 7.473-2.157 10.796-4.226 10.105-12.929 9.726-24.566 9.726-15.464-.001-24.511-5.728-24.511-21.192z" fill="#6dafe5" data-original="#dc4955" style="" class=""/><path d="m129.25 277.758c-3.96 10.65-14.22 18.24-26.25 18.24-15.46 0-28-12.54-28-28 0-12.59 8.31-23.24 19.75-26.76-1.13 3.04-1.75 6.33-1.75 9.76 0 15.46 12.54 28 28 28 2.87 0 5.64-.43 8.25-1.24z" fill="#68a6d9" data-original="#d82f3c" style="" class=""/></g><g><g><path d="m289.5 141.498h-82c-4.143 0-7.5-3.358-7.5-7.5s3.357-7.5 7.5-7.5h82c4.143 0 7.5 3.358 7.5 7.5s-3.357 7.5-7.5 7.5z" fill="#f0e9e6" data-original="#f0e9e6" style="" class=""/></g><g><path d="m274.5 166.498h-137c-4.143 0-7.5-3.358-7.5-7.5s3.357-7.5 7.5-7.5h137c4.143 0 7.5 3.358 7.5 7.5s-3.357 7.5-7.5 7.5z" fill="#f0e9e6" data-original="#f0e9e6" style="" class=""/></g><g><path d="m359.5 166.498h-50c-4.143 0-7.5-3.358-7.5-7.5s3.357-7.5 7.5-7.5h50c4.143 0 7.5 3.358 7.5 7.5s-3.357 7.5-7.5 7.5z" fill="#f0e9e6" data-original="#f0e9e6" style="" class=""/></g><g><path d="m214.5 191.498h-57c-4.143 0-7.5-3.358-7.5-7.5s3.357-7.5 7.5-7.5h57c4.143 0 7.5 3.358 7.5 7.5s-3.357 7.5-7.5 7.5z" fill="#f0e9e6" data-original="#f0e9e6" style="" class=""/></g><g><path d="m339.5 191.498h-90c-4.143 0-7.5-3.358-7.5-7.5s3.357-7.5 7.5-7.5h90c4.143 0 7.5 3.358 7.5 7.5s-3.357 7.5-7.5 7.5z" fill="#f0e9e6" data-original="#f0e9e6" style="" class=""/></g></g><path d="m252.026 211.765 20.069 16.568c.69.57 1.509.964 2.385 1.149l25.466 5.361c2.597.547 4.442 2.86 4.397 5.513l-.44 26.021c-.015.895.187 1.781.589 2.581l11.686 23.253c1.192 2.372.534 5.256-1.569 6.875l-20.618 15.88c-.709.546-1.276 1.256-1.65 2.07l-3.942 8.552-8.722 10.425c-1.111 2.411-3.776 3.694-6.354 3.06l-23.5-4.596c-.869-.214-1.778-.214-2.647 0l-25.176 7.404c-2.577.634-5.243-.649-6.354-3.06l-7.763-24.004c-.375-.813-.941-1.523-1.65-2.07l-19.17-15.037c-2.103-1.62-2.761-4.504-1.569-6.875l7.014-21.878c.402-.8.604-1.686.589-2.581l-.44-26.021c-.045-2.654 1.799-4.967 4.397-5.513l25.466-5.361c.876-.184 1.695-.579 2.385-1.149l20.069-16.568c2.047-1.689 5.005-1.689 7.052.001z" fill="#6dafe5" data-original="#dc4955" style="" class=""/><g><path d="m225.266 279.828c0-12.592 3.546-22.572 14.983-26.094 2.608-.803 5.379-1.236 8.251-1.236 15.464 0 28 12.536 28 28 0 3.826-.767 7.473-2.157 10.796-4.226 10.105-12.929 9.726-24.566 9.726-15.464-.001-24.511-5.728-24.511-21.192z" fill="#62abe8" data-original="#ffbf54" style="" class=""/><path d="m274.75 290.258c-3.96 10.65-14.22 18.24-26.25 18.24-15.46 0-28-12.54-28-28 0-12.59 8.31-23.24 19.75-26.76-1.13 3.04-1.75 6.33-1.75 9.76 0 15.46 12.54 28 28 28 2.87 0 5.64-.43 8.25-1.24z" fill="#68a6d9" data-original="#ffa442" style="" class=""/></g><g><path d="m288.4 325.588-6.95 15.08c-1.11 2.41-3.78 3.7-6.36 3.06l-25.27-6.22c-.87-.21-1.77-.21-2.64 0l-25.27 6.22c-2.58.64-5.25-.65-6.36-3.06l-10.89-23.63c-.38-.82-.94-1.53-1.65-2.07l-20.62-15.88c-2.1-1.62-2.76-4.51-1.57-6.88l11.69-23.25c.13-.27.25-.55.33-.84 8.73 34.31 39.83 59.69 76.86 59.69 6.44 0 12.71-.77 18.7-2.22z" fill="#68a6d9" data-original="#d82f3c" style="" class=""/></g></g></g></svg>
