<svg width="512" height="512" viewBox="0 0 512 512" fill="none" xmlns="http://www.w3.org/2000/svg">
<circle cx="257.5" cy="256.5" r="250.5" fill="#52AEFF"/>
<path d="M429 77H86.5L84.5 437.5C84.5 437.5 96.1684 449.26 105.5 456C114.5 462.5 121.171 467.236 132 473.5C138.582 477.307 149.267 482.5 149.267 482.5H366C366 482.5 375.872 477.537 382 474C397.06 465.308 405.259 459.77 418.5 448.5C422.711 444.916 429 439 429 439V77Z" fill="white"/>
<path fill-rule="evenodd" clip-rule="evenodd" d="M256.961 98.5882C271.186 98.5882 285.411 98.6307 299.635 98.5509C302.327 98.5358 304.915 100.637 304.895 103.764C304.868 107.729 304.897 111.695 304.885 115.66C304.876 118.783 302.716 120.891 299.546 120.892C290.517 120.894 281.487 120.891 272.458 120.893C269.815 120.893 268.277 122.409 268.276 125.044C268.272 140.727 268.272 156.411 268.276 172.095C268.276 174.77 269.885 176.332 272.637 176.342C276.757 176.358 280.878 176.413 284.997 176.345C287.108 176.311 288.548 177.193 289.526 178.958C292.493 184.31 295.473 189.655 298.411 195.022C299.433 196.888 298.319 198.641 296.151 198.645C288.985 198.656 281.819 198.649 274.652 198.649C255.805 198.649 236.958 198.649 218.111 198.649C215.227 198.648 214.27 197.04 215.663 194.511C218.429 189.492 221.238 184.497 223.964 179.457C225.102 177.353 226.621 176.275 229.172 176.367C233.179 176.513 237.195 176.375 241.208 176.342C243.915 176.32 245.554 174.69 245.554 172.047C245.555 156.398 245.555 140.75 245.554 125.101C245.554 122.468 243.963 120.893 241.3 120.893C232.378 120.891 223.456 120.893 214.534 120.892C211.003 120.892 208.924 118.942 208.866 115.419C208.802 111.596 208.814 107.772 208.862 103.948C208.909 100.235 211.671 98.5195 214.501 98.5403C228.654 98.6452 242.807 98.5882 256.961 98.5882ZM256.98 102.839C248.201 102.839 239.423 102.839 230.645 102.839C226.667 102.839 222.69 102.843 218.713 102.838C216.026 102.834 214.342 104.491 214.295 106.511C214.25 108.417 214.073 110.335 214.227 112.226C214.412 114.499 215.585 115.841 217.46 116.156C218.318 116.3 219.233 116.082 220.122 116.081C228.578 116.072 237.034 116.071 245.49 116.079C248.431 116.082 250.061 117.714 250.061 120.612C250.061 138.916 250.019 157.22 250.1 175.523C250.115 178.956 247.971 181.283 244.338 181.224C239.896 181.151 235.452 181.246 231.012 181.137C228.88 181.085 227.455 181.648 226.628 183.783C225.726 186.11 224.449 188.294 223.379 190.561C222.408 192.618 222.931 193.55 225.032 193.55C246.351 193.556 267.67 193.556 288.99 193.551C290.87 193.55 291.418 192.77 290.816 191.009C290.713 190.709 290.566 190.424 290.425 190.139C289.241 187.73 287.985 185.352 286.894 182.902C286.345 181.668 285.493 181.21 284.237 181.211C279.437 181.212 274.637 181.212 269.837 181.21C265.844 181.209 263.894 179.297 263.894 175.387C263.893 157.224 263.893 139.062 263.894 120.9C263.894 117.667 265.491 116.077 268.745 116.076C277.022 116.075 285.299 116.074 293.576 116.081C294.036 116.082 294.5 116.137 294.958 116.199C297.678 116.569 299.729 114.811 299.735 112.094C299.737 110.785 299.743 109.475 299.733 108.165C299.727 107.423 299.805 106.658 299.649 105.946C299.213 103.946 297.556 102.841 295.139 102.84C282.42 102.838 269.7 102.839 256.98 102.839Z" fill="#237AB0"/>
<path fill-rule="evenodd" clip-rule="evenodd" d="M237.396 156.442C237.604 154.643 236.348 153.44 233.989 153.408C229.583 153.349 225.176 153.354 220.769 153.335C218.852 153.326 217.124 152.784 215.597 151.62C214.263 150.604 213.563 149.297 213.577 147.617C213.593 145.67 213.603 143.722 213.557 141.776C213.55 141.478 213.277 140.976 213.046 140.924C210.233 140.294 208.985 138.393 208.884 135.745C208.789 133.277 208.852 130.794 209.022 128.329C209.196 125.793 211.311 123.913 213.903 123.903C221.965 123.873 230.027 123.868 238.088 123.905C240.873 123.918 242.966 126.132 242.97 128.899C242.974 131.2 242.859 133.508 243.001 135.801C243.159 138.342 241.045 141.065 237.66 141.029C231.892 140.969 226.123 141.012 220.354 141.012C219.97 141.012 219.585 141.012 218.983 141.012C219.097 142.942 219.096 144.775 219.348 146.573C219.527 147.854 220.303 148.315 221.637 148.321C226.617 148.342 231.597 148.345 236.576 148.375C237.575 148.382 238.58 148.421 239.569 148.547C241.544 148.799 243.125 150.557 243.148 152.711C243.207 158.305 243.222 163.899 243.153 169.492C243.124 171.941 240.825 173.999 238.345 174.002C230.14 174.01 221.935 174.009 213.73 174.001C211.544 173.999 209.218 172.223 209.067 170.085C208.858 167.134 208.769 164.143 209.016 161.202C209.285 158.005 211.323 156.446 214.566 156.444C221.733 156.437 228.899 156.442 236.065 156.442C236.49 156.442 236.915 156.442 237.396 156.442ZM226.269 161.47C223.332 161.47 220.394 161.46 217.457 161.475C215.884 161.482 214.674 162.636 214.59 164.18C214.564 164.674 214.632 165.176 214.577 165.665C214.345 167.695 215.932 169.166 218.061 169.14C223.075 169.079 228.092 169.033 233.104 169.151C236.507 169.231 238.081 168.409 237.827 164.434C237.714 162.681 236.548 161.474 234.758 161.471C231.929 161.467 229.099 161.47 226.269 161.47ZM226.2 136.214C229.064 136.214 231.928 136.222 234.792 136.211C236.606 136.204 237.783 135.028 237.812 133.226C237.819 132.802 237.814 132.377 237.813 131.952C237.809 129.758 236.751 128.693 234.563 128.692C229.407 128.689 224.248 128.804 219.097 128.654C215.274 128.542 214.4 129.715 214.574 133.247C214.662 135.039 215.783 136.205 217.607 136.211C220.471 136.221 223.336 136.214 226.2 136.214Z" fill="#247AB1"/>
<path fill-rule="evenodd" clip-rule="evenodd" d="M271.203 148.965C271.203 142.557 271.268 136.149 271.179 129.743C271.125 125.893 273.748 123.798 277.152 123.854C284.71 123.977 292.271 123.891 299.83 123.893C303.229 123.893 305.321 125.945 305.323 129.274C305.324 131.504 305.333 133.735 305.321 135.965C305.305 138.707 303.124 140.855 300.341 140.86C295.254 140.869 290.166 140.866 285.078 140.861C283.258 140.859 281.905 139.73 281.91 138.239C281.914 136.776 283.301 135.587 285.073 135.581C288.979 135.567 292.884 135.581 296.789 135.575C298.858 135.572 299.867 134.476 299.99 132.449C300.169 129.501 298.405 128.471 296.076 128.526C292.853 128.602 289.627 128.527 286.403 128.551C284.222 128.567 282.042 128.645 279.862 128.69C278.07 128.726 276.933 129.826 276.926 131.618C276.908 135.902 276.986 140.187 276.899 144.468C276.825 148.126 277.414 148.446 280.84 148.339C283.38 148.26 285.926 148.313 288.47 148.328C289.953 148.336 291.196 149.143 291.508 150.25C291.939 151.778 290.564 153.386 288.775 153.397C285.622 153.414 282.469 153.401 279.316 153.402C277.485 153.402 276.924 153.936 276.921 155.709C276.916 158.931 276.913 162.152 276.922 165.374C276.929 167.429 278.023 168.504 280.086 168.505C285.675 168.508 291.265 168.447 296.853 168.539C298.736 168.57 300.135 167.014 299.96 165.425C299.902 164.9 299.994 164.359 299.937 163.834C299.79 162.461 298.563 161.436 297.026 161.412C293.092 161.35 289.157 161.303 285.222 161.265C283.241 161.246 281.932 160.257 281.909 158.72C281.886 157.178 283.292 156.027 285.254 156.02C288.549 156.008 291.846 155.998 295.142 156.023C297.25 156.039 299.359 156.096 301.466 156.172C303.708 156.253 305.466 158.149 305.506 160.577C305.552 163.409 305.558 166.242 305.524 169.074C305.491 171.885 303.283 174.002 300.448 174.003C292.53 174.007 284.611 173.925 276.695 174.047C273.863 174.09 271.193 172.103 271.2 168.612C271.212 162.063 271.203 155.514 271.203 148.965Z" fill="#247AB1"/>
<path d="M204.698 225.596H309.036" stroke="black" stroke-width="2"/>
<path d="M114.66 309.773C114.66 309.773 205.757 238.087 205.757 284.882C205.757 331.678 133.727 409.91 133.727 409.91C133.727 409.91 155.971 324.412 264.547 304.87C279.443 302.189 293.096 298.437 299.503 309.773C308.507 325.704 290.203 336.729 305.329 334.241C326.515 330.756 376.116 299.331 394.308 304.87" stroke="black" stroke-width="5"/>
<path d="M334.459 212.885H175.038" stroke="black" stroke-width="2"/>
<path d="M399 356H305V450H399V356Z" fill="white"/>
<path d="M313.93 361.64H310.64V364.93H313.93V361.64Z" fill="black"/>
<path d="M317.22 361.64H313.93V364.93H317.22V361.64Z" fill="black"/>
<path d="M320.51 361.64H317.22V364.93H320.51V361.64Z" fill="black"/>
<path d="M323.8 361.64H320.51V364.93H323.8V361.64Z" fill="black"/>
<path d="M327.09 361.64H323.8V364.93H327.09V361.64Z" fill="black"/>
<path d="M330.38 361.64H327.09V364.93H330.38V361.64Z" fill="black"/>
<path d="M333.67 361.64H330.38V364.93H333.67V361.64Z" fill="black"/>
<path d="M346.83 361.64H343.54V364.93H346.83V361.64Z" fill="black"/>
<path d="M353.41 361.64H350.12V364.93H353.41V361.64Z" fill="black"/>
<path d="M359.99 361.64H356.7V364.93H359.99V361.64Z" fill="black"/>
<path d="M366.57 361.64H363.28V364.93H366.57V361.64Z" fill="black"/>
<path d="M373.15 361.64H369.86V364.93H373.15V361.64Z" fill="black"/>
<path d="M376.44 361.64H373.15V364.93H376.44V361.64Z" fill="black"/>
<path d="M379.73 361.64H376.44V364.93H379.73V361.64Z" fill="black"/>
<path d="M383.02 361.64H379.73V364.93H383.02V361.64Z" fill="black"/>
<path d="M386.31 361.64H383.02V364.93H386.31V361.64Z" fill="black"/>
<path d="M389.6 361.64H386.31V364.93H389.6V361.64Z" fill="black"/>
<path d="M392.89 361.64H389.6V364.93H392.89V361.64Z" fill="black"/>
<path d="M313.93 364.93H310.64V368.22H313.93V364.93Z" fill="black"/>
<path d="M333.67 364.93H330.38V368.22H333.67V364.93Z" fill="black"/>
<path d="M340.25 364.93H336.96V368.22H340.25V364.93Z" fill="black"/>
<path d="M346.83 364.93H343.54V368.22H346.83V364.93Z" fill="black"/>
<path d="M359.99 364.93H356.7V368.22H359.99V364.93Z" fill="black"/>
<path d="M363.28 364.93H359.99V368.22H363.28V364.93Z" fill="black"/>
<path d="M373.15 364.93H369.86V368.22H373.15V364.93Z" fill="black"/>
<path d="M392.89 364.93H389.6V368.22H392.89V364.93Z" fill="black"/>
<path d="M313.93 368.22H310.64V371.51H313.93V368.22Z" fill="black"/>
<path d="M320.51 368.22H317.22V371.51H320.51V368.22Z" fill="black"/>
<path d="M323.8 368.22H320.51V371.51H323.8V368.22Z" fill="black"/>
<path d="M327.09 368.22H323.8V371.51H327.09V368.22Z" fill="black"/>
<path d="M333.67 368.22H330.38V371.51H333.67V368.22Z" fill="black"/>
<path d="M353.41 368.22H350.12V371.51H353.41V368.22Z" fill="black"/>
<path d="M366.57 368.22H363.28V371.51H366.57V368.22Z" fill="black"/>
<path d="M373.15 368.22H369.86V371.51H373.15V368.22Z" fill="black"/>
<path d="M379.73 368.22H376.44V371.51H379.73V368.22Z" fill="black"/>
<path d="M383.02 368.22H379.73V371.51H383.02V368.22Z" fill="black"/>
<path d="M386.31 368.22H383.02V371.51H386.31V368.22Z" fill="black"/>
<path d="M392.89 368.22H389.6V371.51H392.89V368.22Z" fill="black"/>
<path d="M313.93 371.51H310.64V374.8H313.93V371.51Z" fill="black"/>
<path d="M320.51 371.51H317.22V374.8H320.51V371.51Z" fill="black"/>
<path d="M323.8 371.51H320.51V374.8H323.8V371.51Z" fill="black"/>
<path d="M327.09 371.51H323.8V374.8H327.09V371.51Z" fill="black"/>
<path d="M333.67 371.51H330.38V374.8H333.67V371.51Z" fill="black"/>
<path d="M340.25 371.51H336.96V374.8H340.25V371.51Z" fill="black"/>
<path d="M343.54 371.51H340.25V374.8H343.54V371.51Z" fill="black"/>
<path d="M346.83 371.51H343.54V374.8H346.83V371.51Z" fill="black"/>
<path d="M353.41 371.51H350.12V374.8H353.41V371.51Z" fill="black"/>
<path d="M356.7 371.51H353.41V374.8H356.7V371.51Z" fill="black"/>
<path d="M359.99 371.51H356.7V374.8H359.99V371.51Z" fill="black"/>
<path d="M373.15 371.51H369.86V374.8H373.15V371.51Z" fill="black"/>
<path d="M379.73 371.51H376.44V374.8H379.73V371.51Z" fill="black"/>
<path d="M383.02 371.51H379.73V374.8H383.02V371.51Z" fill="black"/>
<path d="M386.31 371.51H383.02V374.8H386.31V371.51Z" fill="black"/>
<path d="M392.89 371.51H389.6V374.8H392.89V371.51Z" fill="black"/>
<path d="M313.93 374.8H310.64V378.09H313.93V374.8Z" fill="black"/>
<path d="M320.51 374.8H317.22V378.09H320.51V374.8Z" fill="black"/>
<path d="M323.8 374.8H320.51V378.09H323.8V374.8Z" fill="black"/>
<path d="M327.09 374.8H323.8V378.09H327.09V374.8Z" fill="black"/>
<path d="M333.67 374.8H330.38V378.09H333.67V374.8Z" fill="black"/>
<path d="M343.54 374.8H340.25V378.09H343.54V374.8Z" fill="black"/>
<path d="M359.99 374.8H356.7V378.09H359.99V374.8Z" fill="black"/>
<path d="M373.15 374.8H369.86V378.09H373.15V374.8Z" fill="black"/>
<path d="M379.73 374.8H376.44V378.09H379.73V374.8Z" fill="black"/>
<path d="M383.02 374.8H379.73V378.09H383.02V374.8Z" fill="black"/>
<path d="M386.31 374.8H383.02V378.09H386.31V374.8Z" fill="black"/>
<path d="M392.89 374.8H389.6V378.09H392.89V374.8Z" fill="black"/>
<path d="M313.93 378.09H310.64V381.38H313.93V378.09Z" fill="black"/>
<path d="M333.67 378.09H330.38V381.38H333.67V378.09Z" fill="black"/>
<path d="M340.25 378.09H336.96V381.38H340.25V378.09Z" fill="black"/>
<path d="M343.54 378.09H340.25V381.38H343.54V378.09Z" fill="black"/>
<path d="M350.12 378.09H346.83V381.38H350.12V378.09Z" fill="black"/>
<path d="M353.41 378.09H350.12V381.38H353.41V378.09Z" fill="black"/>
<path d="M356.7 378.09H353.41V381.38H356.7V378.09Z" fill="black"/>
<path d="M363.28 378.09H359.99V381.38H363.28V378.09Z" fill="black"/>
<path d="M373.15 378.09H369.86V381.38H373.15V378.09Z" fill="black"/>
<path d="M392.89 378.09H389.6V381.38H392.89V378.09Z" fill="black"/>
<path d="M313.93 381.38H310.64V384.67H313.93V381.38Z" fill="black"/>
<path d="M317.22 381.38H313.93V384.67H317.22V381.38Z" fill="black"/>
<path d="M320.51 381.38H317.22V384.67H320.51V381.38Z" fill="black"/>
<path d="M323.8 381.38H320.51V384.67H323.8V381.38Z" fill="black"/>
<path d="M327.09 381.38H323.8V384.67H327.09V381.38Z" fill="black"/>
<path d="M330.38 381.38H327.09V384.67H330.38V381.38Z" fill="black"/>
<path d="M333.67 381.38H330.38V384.67H333.67V381.38Z" fill="black"/>
<path d="M340.25 381.38H336.96V384.67H340.25V381.38Z" fill="black"/>
<path d="M346.83 381.38H343.54V384.67H346.83V381.38Z" fill="black"/>
<path d="M353.41 381.38H350.12V384.67H353.41V381.38Z" fill="black"/>
<path d="M359.99 381.38H356.7V384.67H359.99V381.38Z" fill="black"/>
<path d="M366.57 381.38H363.28V384.67H366.57V381.38Z" fill="black"/>
<path d="M373.15 381.38H369.86V384.67H373.15V381.38Z" fill="black"/>
<path d="M376.44 381.38H373.15V384.67H376.44V381.38Z" fill="black"/>
<path d="M379.73 381.38H376.44V384.67H379.73V381.38Z" fill="black"/>
<path d="M383.02 381.38H379.73V384.67H383.02V381.38Z" fill="black"/>
<path d="M386.31 381.38H383.02V384.67H386.31V381.38Z" fill="black"/>
<path d="M389.6 381.38H386.31V384.67H389.6V381.38Z" fill="black"/>
<path d="M392.89 381.38H389.6V384.67H392.89V381.38Z" fill="black"/>
<path d="M343.54 384.67H340.25V387.96H343.54V384.67Z" fill="black"/>
<path d="M346.83 384.67H343.54V387.96H346.83V384.67Z" fill="black"/>
<path d="M350.12 384.67H346.83V387.96H350.12V384.67Z" fill="black"/>
<path d="M359.99 384.67H356.7V387.96H359.99V384.67Z" fill="black"/>
<path d="M313.93 387.96H310.64V391.25H313.93V387.96Z" fill="black"/>
<path d="M317.22 387.96H313.93V391.25H317.22V387.96Z" fill="black"/>
<path d="M320.51 387.96H317.22V391.25H320.51V387.96Z" fill="black"/>
<path d="M323.8 387.96H320.51V391.25H323.8V387.96Z" fill="black"/>
<path d="M327.09 387.96H323.8V391.25H327.09V387.96Z" fill="black"/>
<path d="M333.67 387.96H330.38V391.25H333.67V387.96Z" fill="black"/>
<path d="M336.96 387.96H333.67V391.25H336.96V387.96Z" fill="black"/>
<path d="M340.25 387.96H336.96V391.25H340.25V387.96Z" fill="black"/>
<path d="M343.54 387.96H340.25V391.25H343.54V387.96Z" fill="black"/>
<path d="M350.12 387.96H346.83V391.25H350.12V387.96Z" fill="black"/>
<path d="M353.41 387.96H350.12V391.25H353.41V387.96Z" fill="black"/>
<path d="M356.7 387.96H353.41V391.25H356.7V387.96Z" fill="black"/>
<path d="M359.99 387.96H356.7V391.25H359.99V387.96Z" fill="black"/>
<path d="M363.28 387.96H359.99V391.25H363.28V387.96Z" fill="black"/>
<path d="M369.86 387.96H366.57V391.25H369.86V387.96Z" fill="black"/>
<path d="M376.44 387.96H373.15V391.25H376.44V387.96Z" fill="black"/>
<path d="M383.02 387.96H379.73V391.25H383.02V387.96Z" fill="black"/>
<path d="M389.6 387.96H386.31V391.25H389.6V387.96Z" fill="black"/>
<path d="M313.93 391.25H310.64V394.54H313.93V391.25Z" fill="black"/>
<path d="M317.22 391.25H313.93V394.54H317.22V391.25Z" fill="black"/>
<path d="M320.51 391.25H317.22V394.54H320.51V391.25Z" fill="black"/>
<path d="M323.8 391.25H320.51V394.54H323.8V391.25Z" fill="black"/>
<path d="M327.09 391.25H323.8V394.54H327.09V391.25Z" fill="black"/>
<path d="M346.83 391.25H343.54V394.54H346.83V391.25Z" fill="black"/>
<path d="M353.41 391.25H350.12V394.54H353.41V391.25Z" fill="black"/>
<path d="M366.57 391.25H363.28V394.54H366.57V391.25Z" fill="black"/>
<path d="M369.86 391.25H366.57V394.54H369.86V391.25Z" fill="black"/>
<path d="M376.44 391.25H373.15V394.54H376.44V391.25Z" fill="black"/>
<path d="M389.6 391.25H386.31V394.54H389.6V391.25Z" fill="black"/>
<path d="M313.93 394.54H310.64V397.83H313.93V394.54Z" fill="black"/>
<path d="M330.38 394.54H327.09V397.83H330.38V394.54Z" fill="black"/>
<path d="M333.67 394.54H330.38V397.83H333.67V394.54Z" fill="black"/>
<path d="M336.96 394.54H333.67V397.83H336.96V394.54Z" fill="black"/>
<path d="M346.83 394.54H343.54V397.83H346.83V394.54Z" fill="black"/>
<path d="M353.41 394.54H350.12V397.83H353.41V394.54Z" fill="black"/>
<path d="M359.99 394.54H356.7V397.83H359.99V394.54Z" fill="black"/>
<path d="M363.28 394.54H359.99V397.83H363.28V394.54Z" fill="black"/>
<path d="M366.57 394.54H363.28V397.83H366.57V394.54Z" fill="black"/>
<path d="M373.15 394.54H369.86V397.83H373.15V394.54Z" fill="black"/>
<path d="M376.44 394.54H373.15V397.83H376.44V394.54Z" fill="black"/>
<path d="M379.73 394.54H376.44V397.83H379.73V394.54Z" fill="black"/>
<path d="M383.02 394.54H379.73V397.83H383.02V394.54Z" fill="black"/>
<path d="M389.6 394.54H386.31V397.83H389.6V394.54Z" fill="black"/>
<path d="M392.89 394.54H389.6V397.83H392.89V394.54Z" fill="black"/>
<path d="M317.22 397.83H313.93V401.12H317.22V397.83Z" fill="black"/>
<path d="M320.51 397.83H317.22V401.12H320.51V397.83Z" fill="black"/>
<path d="M330.38 397.83H327.09V401.12H330.38V397.83Z" fill="black"/>
<path d="M359.99 397.83H356.7V401.12H359.99V397.83Z" fill="black"/>
<path d="M363.28 397.83H359.99V401.12H363.28V397.83Z" fill="black"/>
<path d="M366.57 397.83H363.28V401.12H366.57V397.83Z" fill="black"/>
<path d="M376.44 397.83H373.15V401.12H376.44V397.83Z" fill="black"/>
<path d="M379.73 397.83H376.44V401.12H379.73V397.83Z" fill="black"/>
<path d="M392.89 397.83H389.6V401.12H392.89V397.83Z" fill="black"/>
<path d="M317.22 401.12H313.93V404.41H317.22V401.12Z" fill="black"/>
<path d="M320.51 401.12H317.22V404.41H320.51V401.12Z" fill="black"/>
<path d="M323.8 401.12H320.51V404.41H323.8V401.12Z" fill="black"/>
<path d="M330.38 401.12H327.09V404.41H330.38V401.12Z" fill="black"/>
<path d="M333.67 401.12H330.38V404.41H333.67V401.12Z" fill="black"/>
<path d="M336.96 401.12H333.67V404.41H336.96V401.12Z" fill="black"/>
<path d="M340.25 401.12H336.96V404.41H340.25V401.12Z" fill="black"/>
<path d="M343.54 401.12H340.25V404.41H343.54V401.12Z" fill="black"/>
<path d="M346.83 401.12H343.54V404.41H346.83V401.12Z" fill="black"/>
<path d="M356.7 401.12H353.41V404.41H356.7V401.12Z" fill="black"/>
<path d="M363.28 401.12H359.99V404.41H363.28V401.12Z" fill="black"/>
<path d="M369.86 401.12H366.57V404.41H369.86V401.12Z" fill="black"/>
<path d="M373.15 401.12H369.86V404.41H373.15V401.12Z" fill="black"/>
<path d="M379.73 401.12H376.44V404.41H379.73V401.12Z" fill="black"/>
<path d="M386.31 401.12H383.02V404.41H386.31V401.12Z" fill="black"/>
<path d="M389.6 401.12H386.31V404.41H389.6V401.12Z" fill="black"/>
<path d="M392.89 401.12H389.6V404.41H392.89V401.12Z" fill="black"/>
<path d="M313.93 404.41H310.64V407.7H313.93V404.41Z" fill="black"/>
<path d="M317.22 404.41H313.93V407.7H317.22V404.41Z" fill="black"/>
<path d="M320.51 404.41H317.22V407.7H320.51V404.41Z" fill="black"/>
<path d="M340.25 404.41H336.96V407.7H340.25V404.41Z" fill="black"/>
<path d="M343.54 404.41H340.25V407.7H343.54V404.41Z" fill="black"/>
<path d="M350.12 404.41H346.83V407.7H350.12V404.41Z" fill="black"/>
<path d="M356.7 404.41H353.41V407.7H356.7V404.41Z" fill="black"/>
<path d="M366.57 404.41H363.28V407.7H366.57V404.41Z" fill="black"/>
<path d="M369.86 404.41H366.57V407.7H369.86V404.41Z" fill="black"/>
<path d="M376.44 404.41H373.15V407.7H376.44V404.41Z" fill="black"/>
<path d="M383.02 404.41H379.73V407.7H383.02V404.41Z" fill="black"/>
<path d="M389.6 404.41H386.31V407.7H389.6V404.41Z" fill="black"/>
<path d="M313.93 407.7H310.64V410.99H313.93V407.7Z" fill="black"/>
<path d="M323.8 407.7H320.51V410.99H323.8V407.7Z" fill="black"/>
<path d="M333.67 407.7H330.38V410.99H333.67V407.7Z" fill="black"/>
<path d="M336.96 407.7H333.67V410.99H336.96V407.7Z" fill="black"/>
<path d="M340.25 407.7H336.96V410.99H340.25V407.7Z" fill="black"/>
<path d="M343.54 407.7H340.25V410.99H343.54V407.7Z" fill="black"/>
<path d="M383.02 407.7H379.73V410.99H383.02V407.7Z" fill="black"/>
<path d="M389.6 407.7H386.31V410.99H389.6V407.7Z" fill="black"/>
<path d="M392.89 407.7H389.6V410.99H392.89V407.7Z" fill="black"/>
<path d="M313.93 410.99H310.64V414.28H313.93V410.99Z" fill="black"/>
<path d="M323.8 410.99H320.51V414.28H323.8V410.99Z" fill="black"/>
<path d="M330.38 410.99H327.09V414.28H330.38V410.99Z" fill="black"/>
<path d="M340.25 410.99H336.96V414.28H340.25V410.99Z" fill="black"/>
<path d="M383.02 410.99H379.73V414.28H383.02V410.99Z" fill="black"/>
<path d="M392.89 410.99H389.6V414.28H392.89V410.99Z" fill="black"/>
<path d="M313.93 414.28H310.64V417.57H313.93V414.28Z" fill="black"/>
<path d="M320.51 414.28H317.22V417.57H320.51V414.28Z" fill="black"/>
<path d="M327.09 414.28H323.8V417.57H327.09V414.28Z" fill="black"/>
<path d="M333.67 414.28H330.38V417.57H333.67V414.28Z" fill="black"/>
<path d="M336.96 414.28H333.67V417.57H336.96V414.28Z" fill="black"/>
<path d="M343.54 414.28H340.25V417.57H343.54V414.28Z" fill="black"/>
<path d="M386.31 414.28H383.02V417.57H386.31V414.28Z" fill="black"/>
<path d="M340.25 417.57H336.96V420.86H340.25V417.57Z" fill="black"/>
<path d="M383.02 417.57H379.73V420.86H383.02V417.57Z" fill="black"/>
<path d="M386.31 417.57H383.02V420.86H386.31V417.57Z" fill="black"/>
<path d="M313.93 420.86H310.64V424.15H313.93V420.86Z" fill="black"/>
<path d="M317.22 420.86H313.93V424.15H317.22V420.86Z" fill="black"/>
<path d="M320.51 420.86H317.22V424.15H320.51V420.86Z" fill="black"/>
<path d="M323.8 420.86H320.51V424.15H323.8V420.86Z" fill="black"/>
<path d="M327.09 420.86H323.8V424.15H327.09V420.86Z" fill="black"/>
<path d="M330.38 420.86H327.09V424.15H330.38V420.86Z" fill="black"/>
<path d="M333.67 420.86H330.38V424.15H333.67V420.86Z" fill="black"/>
<path d="M340.25 420.86H336.96V424.15H340.25V420.86Z" fill="black"/>
<path d="M343.54 420.86H340.25V424.15H343.54V420.86Z" fill="black"/>
<path d="M353.41 420.86H350.12V424.15H353.41V420.86Z" fill="black"/>
<path d="M356.7 420.86H353.41V424.15H356.7V420.86Z" fill="black"/>
<path d="M359.99 420.86H356.7V424.15H359.99V420.86Z" fill="black"/>
<path d="M366.57 420.86H363.28V424.15H366.57V420.86Z" fill="black"/>
<path d="M373.15 420.86H369.86V424.15H373.15V420.86Z" fill="black"/>
<path d="M379.73 420.86H376.44V424.15H379.73V420.86Z" fill="black"/>
<path d="M383.02 420.86H379.73V424.15H383.02V420.86Z" fill="black"/>
<path d="M386.31 420.86H383.02V424.15H386.31V420.86Z" fill="black"/>
<path d="M389.6 420.86H386.31V424.15H389.6V420.86Z" fill="black"/>
<path d="M392.89 420.86H389.6V424.15H392.89V420.86Z" fill="black"/>
<path d="M313.93 424.15H310.64V427.44H313.93V424.15Z" fill="black"/>
<path d="M333.67 424.15H330.38V427.44H333.67V424.15Z" fill="black"/>
<path d="M346.83 424.15H343.54V427.44H346.83V424.15Z" fill="black"/>
<path d="M350.12 424.15H346.83V427.44H350.12V424.15Z" fill="black"/>
<path d="M359.99 424.15H356.7V427.44H359.99V424.15Z" fill="black"/>
<path d="M366.57 424.15H363.28V427.44H366.57V424.15Z" fill="black"/>
<path d="M379.73 424.15H376.44V427.44H379.73V424.15Z" fill="black"/>
<path d="M383.02 424.15H379.73V427.44H383.02V424.15Z" fill="black"/>
<path d="M389.6 424.15H386.31V427.44H389.6V424.15Z" fill="black"/>
<path d="M313.93 427.44H310.64V430.73H313.93V427.44Z" fill="black"/>
<path d="M320.51 427.44H317.22V430.73H320.51V427.44Z" fill="black"/>
<path d="M323.8 427.44H320.51V430.73H323.8V427.44Z" fill="black"/>
<path d="M327.09 427.44H323.8V430.73H327.09V427.44Z" fill="black"/>
<path d="M333.67 427.44H330.38V430.73H333.67V427.44Z" fill="black"/>
<path d="M340.25 427.44H336.96V430.73H340.25V427.44Z" fill="black"/>
<path d="M343.54 427.44H340.25V430.73H343.54V427.44Z" fill="black"/>
<path d="M346.83 427.44H343.54V430.73H346.83V427.44Z" fill="black"/>
<path d="M350.12 427.44H346.83V430.73H350.12V427.44Z" fill="black"/>
<path d="M353.41 427.44H350.12V430.73H353.41V427.44Z" fill="black"/>
<path d="M356.7 427.44H353.41V430.73H356.7V427.44Z" fill="black"/>
<path d="M359.99 427.44H356.7V430.73H359.99V427.44Z" fill="black"/>
<path d="M363.28 427.44H359.99V430.73H363.28V427.44Z" fill="black"/>
<path d="M366.57 427.44H363.28V430.73H366.57V427.44Z" fill="black"/>
<path d="M369.86 427.44H366.57V430.73H369.86V427.44Z" fill="black"/>
<path d="M373.15 427.44H369.86V430.73H373.15V427.44Z" fill="black"/>
<path d="M376.44 427.44H373.15V430.73H376.44V427.44Z" fill="black"/>
<path d="M379.73 427.44H376.44V430.73H379.73V427.44Z" fill="black"/>
<path d="M383.02 427.44H379.73V430.73H383.02V427.44Z" fill="black"/>
<path d="M386.31 427.44H383.02V430.73H386.31V427.44Z" fill="black"/>
<path d="M313.93 430.73H310.64V434.02H313.93V430.73Z" fill="black"/>
<path d="M320.51 430.73H317.22V434.02H320.51V430.73Z" fill="black"/>
<path d="M323.8 430.73H320.51V434.02H323.8V430.73Z" fill="black"/>
<path d="M327.09 430.73H323.8V434.02H327.09V430.73Z" fill="black"/>
<path d="M333.67 430.73H330.38V434.02H333.67V430.73Z" fill="black"/>
<path d="M340.25 430.73H336.96V434.02H340.25V430.73Z" fill="black"/>
<path d="M343.54 430.73H340.25V434.02H343.54V430.73Z" fill="black"/>
<path d="M346.83 430.73H343.54V434.02H346.83V430.73Z" fill="black"/>
<path d="M350.12 430.73H346.83V434.02H350.12V430.73Z" fill="black"/>
<path d="M353.41 430.73H350.12V434.02H353.41V430.73Z" fill="black"/>
<path d="M359.99 430.73H356.7V434.02H359.99V430.73Z" fill="black"/>
<path d="M363.28 430.73H359.99V434.02H363.28V430.73Z" fill="black"/>
<path d="M369.86 430.73H366.57V434.02H369.86V430.73Z" fill="black"/>
<path d="M373.15 430.73H369.86V434.02H373.15V430.73Z" fill="black"/>
<path d="M376.44 430.73H373.15V434.02H376.44V430.73Z" fill="black"/>
<path d="M379.73 430.73H376.44V434.02H379.73V430.73Z" fill="black"/>
<path d="M386.31 430.73H383.02V434.02H386.31V430.73Z" fill="black"/>
<path d="M389.6 430.73H386.31V434.02H389.6V430.73Z" fill="black"/>
<path d="M392.89 430.73H389.6V434.02H392.89V430.73Z" fill="black"/>
<path d="M313.93 434.02H310.64V437.31H313.93V434.02Z" fill="black"/>
<path d="M320.51 434.02H317.22V437.31H320.51V434.02Z" fill="black"/>
<path d="M323.8 434.02H320.51V437.31H323.8V434.02Z" fill="black"/>
<path d="M327.09 434.02H323.8V437.31H327.09V434.02Z" fill="black"/>
<path d="M333.67 434.02H330.38V437.31H333.67V434.02Z" fill="black"/>
<path d="M340.25 434.02H336.96V437.31H340.25V434.02Z" fill="black"/>
<path d="M343.54 434.02H340.25V437.31H343.54V434.02Z" fill="black"/>
<path d="M356.7 434.02H353.41V437.31H356.7V434.02Z" fill="black"/>
<path d="M366.57 434.02H363.28V437.31H366.57V434.02Z" fill="black"/>
<path d="M376.44 434.02H373.15V437.31H376.44V434.02Z" fill="black"/>
<path d="M386.31 434.02H383.02V437.31H386.31V434.02Z" fill="black"/>
<path d="M392.89 434.02H389.6V437.31H392.89V434.02Z" fill="black"/>
<path d="M313.93 437.31H310.64V440.6H313.93V437.31Z" fill="black"/>
<path d="M333.67 437.31H330.38V440.6H333.67V437.31Z" fill="black"/>
<path d="M340.25 437.31H336.96V440.6H340.25V437.31Z" fill="black"/>
<path d="M343.54 437.31H340.25V440.6H343.54V437.31Z" fill="black"/>
<path d="M350.12 437.31H346.83V440.6H350.12V437.31Z" fill="black"/>
<path d="M363.28 437.31H359.99V440.6H363.28V437.31Z" fill="black"/>
<path d="M366.57 437.31H363.28V440.6H366.57V437.31Z" fill="black"/>
<path d="M373.15 437.31H369.86V440.6H373.15V437.31Z" fill="black"/>
<path d="M376.44 437.31H373.15V440.6H376.44V437.31Z" fill="black"/>
<path d="M379.73 437.31H376.44V440.6H379.73V437.31Z" fill="black"/>
<path d="M383.02 437.31H379.73V440.6H383.02V437.31Z" fill="black"/>
<path d="M392.89 437.31H389.6V440.6H392.89V437.31Z" fill="black"/>
<path d="M313.93 440.6H310.64V443.89H313.93V440.6Z" fill="black"/>
<path d="M317.22 440.6H313.93V443.89H317.22V440.6Z" fill="black"/>
<path d="M320.51 440.6H317.22V443.89H320.51V440.6Z" fill="black"/>
<path d="M323.8 440.6H320.51V443.89H323.8V440.6Z" fill="black"/>
<path d="M327.09 440.6H323.8V443.89H327.09V440.6Z" fill="black"/>
<path d="M330.38 440.6H327.09V443.89H330.38V440.6Z" fill="black"/>
<path d="M333.67 440.6H330.38V443.89H333.67V440.6Z" fill="black"/>
<path d="M340.25 440.6H336.96V443.89H340.25V440.6Z" fill="black"/>
<path d="M353.41 440.6H350.12V443.89H353.41V440.6Z" fill="black"/>
<path d="M356.7 440.6H353.41V443.89H356.7V440.6Z" fill="black"/>
<path d="M359.99 440.6H356.7V443.89H359.99V440.6Z" fill="black"/>
<path d="M369.86 440.6H366.57V443.89H369.86V440.6Z" fill="black"/>
<path d="M373.15 440.6H369.86V443.89H373.15V440.6Z" fill="black"/>
<path d="M376.44 440.6H373.15V443.89H376.44V440.6Z" fill="black"/>
<path d="M379.73 440.6H376.44V443.89H379.73V440.6Z" fill="black"/>
<path d="M383.02 440.6H379.73V443.89H383.02V440.6Z" fill="black"/>
<path d="M386.31 440.6H383.02V443.89H386.31V440.6Z" fill="black"/>
<path d="M389.6 440.6H386.31V443.89H389.6V440.6Z" fill="black"/>
<path d="M392.89 440.6H389.6V443.89H392.89V440.6Z" fill="black"/>
<path d="M346.83 407.7H343.54V410.99H346.83V407.7Z" fill="black"/>
<path d="M356.7 407.7H353.41V410.99H356.7V407.7Z" fill="black"/>
<path d="M359.99 407.7H356.7V410.99H359.99V407.7Z" fill="black"/>
<path d="M363.28 407.7H359.99V410.99H363.28V407.7Z" fill="black"/>
<path d="M366.57 407.7H363.28V410.99H366.57V407.7Z" fill="black"/>
<path d="M369.86 407.7H366.57V410.99H369.86V407.7Z" fill="black"/>
<path d="M373.15 407.7H369.86V410.99H373.15V407.7Z" fill="black"/>
<path d="M350.12 410.99H346.83V414.28H350.12V410.99Z" fill="black"/>
<path d="M366.57 410.99H363.28V414.28H366.57V410.99Z" fill="black"/>
<path d="M373.15 410.99H369.86V414.28H373.15V410.99Z" fill="black"/>
<path d="M346.83 414.28H343.54V417.57H346.83V414.28Z" fill="black"/>
<path d="M353.41 414.28H350.12V417.57H353.41V414.28Z" fill="black"/>
<path d="M356.7 414.28H353.41V417.57H356.7V414.28Z" fill="black"/>
<path d="M359.99 414.28H356.7V417.57H359.99V414.28Z" fill="black"/>
<path d="M363.28 414.28H359.99V417.57H363.28V414.28Z" fill="black"/>
<path d="M366.57 414.28H363.28V417.57H366.57V414.28Z" fill="black"/>
<path d="M369.86 414.28H366.57V417.57H369.86V414.28Z" fill="black"/>
<path d="M373.15 414.28H369.86V417.57H373.15V414.28Z" fill="black"/>
<path d="M376.44 414.28H373.15V417.57H376.44V414.28Z" fill="black"/>
<path d="M379.73 414.28H376.44V417.57H379.73V414.28Z" fill="black"/>
<path d="M350.12 417.57H346.83V420.86H350.12V417.57Z" fill="black"/>
<path d="M356.7 417.57H353.41V420.86H356.7V417.57Z" fill="black"/>
<path d="M366.57 417.57H363.28V420.86H366.57V417.57Z" fill="black"/>
<path d="M379.73 417.57H376.44V420.86H379.73V417.57Z" fill="black"/>
</svg>
