<?xml version="1.0" encoding="utf-8"?>
<!-- Generator: Adobe Illustrator 16.0.3, SVG Export Plug-In . SVG Version: 6.00 Build 0)  -->
<!DOCTYPE svg PUBLIC "-//W3C//DTD SVG 1.1//EN" "http://www.w3.org/Graphics/SVG/1.1/DTD/svg11.dtd">
<svg version="1.1" id="Capa_1" xmlns="http://www.w3.org/2000/svg" xmlns:xlink="http://www.w3.org/1999/xlink" x="0px" y="0px"
	 width="512px" height="512px" viewBox="0 0 512 512" enable-background="new 0 0 512 512" xml:space="preserve">
<g>
	<path fill="#52AEFF" d="M512,256c0,37.867-8.223,73.813-22.977,106.152c-25.223,55.285-69.539,100.016-124.512,125.785
		c-9.957,4.66-20.27,8.703-30.887,12.066c-11.941,3.816-24.262,6.75-36.906,8.766c-0.051,0.012-0.113,0.023-0.168,0.023
		c-6.203,0.992-12.465,1.754-18.805,2.289c-1.352,0.113-2.707,0.219-4.066,0.313c-1.914,0.125-3.836,0.238-5.77,0.324
		C263.961,511.906,259.992,512,256,512c-4.098,0-8.16-0.094-12.203-0.293c-1.828-0.082-3.66-0.188-5.488-0.324
		c-1.367-0.094-2.727-0.188-4.086-0.301c-6.488-0.543-12.914-1.34-19.254-2.363c-3.031-0.492-6.051-1.023-9.039-1.621
		c-12.969-2.57-25.57-6.109-37.742-10.563c-7.055-2.57-13.961-5.445-20.711-8.609c-2.297-1.078-4.586-2.195-6.855-3.355
		c-5.828-2.945-11.523-6.113-17.082-9.488c-27.848-16.863-52.215-38.891-71.797-64.75c-11.754-15.527-21.773-32.434-29.777-50.449
		C7.848,328.141,0,292.988,0,256C0,114.613,114.613,0,256,0S512,114.613,512,256z"/>
	<path fill="#808B91" d="M205.93,332.215v174.883c-12.969-2.57-25.57-6.109-37.742-10.563c-7.055-2.57-13.961-5.445-20.711-8.609
		c-2.297-1.078-4.586-2.195-6.855-3.355c-5.828-2.945-11.523-6.113-17.082-9.488c-27.848-16.863-52.215-38.891-71.797-64.75
		c-11.754-15.527-21.773-32.434-29.777-50.449v-27.668c0-32.098,21.797-59.109,51.398-67.02c1.086-0.293,2.172-0.566,3.281-0.793
		c2.934-0.648,5.953-1.09,9.027-1.34c1.871-0.145,3.762-0.23,5.672-0.23h45.191c5.047,0,9.969,0.535,14.715,1.57
		c0.27,0.051,0.543,0.113,0.813,0.176c0.797,0.18,1.602,0.375,2.383,0.586c0.023,0.012,0.043,0.012,0.063,0.02
		c7.816,2.09,15.078,5.508,21.547,10C194.109,287.711,205.93,308.578,205.93,332.215z"/>
	<path fill="#A3A6A8" d="M205.93,332.215v174.883c-12.969-2.57-25.57-6.109-37.742-10.563c-7.055-2.57-13.961-5.445-20.711-8.609
		c-2.297-1.078-4.586-2.195-6.855-3.355c-5.828-2.945-11.523-6.113-17.082-9.488c-27.848-16.863-52.215-38.891-71.797-64.75v-78.117
		c0-32.098,21.797-59.109,51.398-67.02c1.09-0.293,2.176-0.566,3.281-0.793c2.938-0.648,5.957-1.09,9.027-1.34
		c1.871-0.145,3.762-0.23,5.676-0.23h15.41c5.047,0,9.969,0.535,14.715,1.57c0.27,0.051,0.543,0.113,0.813,0.176
		c0.797,0.18,1.602,0.375,2.383,0.586c0.023,0.012,0.043,0.012,0.063,0.02c7.816,2.09,15.078,5.508,21.547,10
		C194.109,287.711,205.93,308.578,205.93,332.215z"/>
	<path fill="#F2F0EC" d="M154.68,264.398l-0.164,0.785l-20.758,96.543c-1.992,9.277-10.156,16.004-19.641,16.012
		c-0.059,0-0.113,0-0.168,0c-0.063,0-0.121,0-0.184,0c-9.488-0.008-17.648-6.734-19.641-16.012l-20.758-96.535l-0.164-0.793H154.68z
		"/>
	<path fill="#D8D5D0" d="M113.941,291.238l-31.238,17.359l-9.5-44.199l19.41-11.43"/>
	<path fill="#D8D5D0" d="M113.941,291.238l31.238,17.359l9.5-44.199l-19.41-11.43"/>
	<path fill="#CC7A3B" d="M20.676,246.109V141.469c0-10.633,1.773-21.051,5.273-30.965c13.098-37.266,48.461-62.313,87.996-62.313
		c4.898,0,9.785,0.379,14.535,1.129c21.719,3.395,41.648,14.48,56.098,31.219c14.602,16.918,22.645,38.555,22.645,60.93v104.641"/>
	<path fill="#A35418" d="M59.043,145.555c0,37.012,21.676,79.832,33.578,100.555H20.672V141.469c0-10.629,1.777-21.047,5.273-30.965
		c13.02-37.051,48.059-62.023,87.32-62.305C84.59,48.914,59.043,94.922,59.043,145.555z"/>
	<path fill="#EAB599" d="M138.703,236.105v30.383c0,11.121-7.332,20.523-17.434,23.645c-2.313,0.719-4.777,1.105-7.324,1.105
		c-13.672,0-24.75-11.078-24.75-24.75v-30.383H138.703z"/>
	<path fill="#F6CAAE" d="M138.703,264.563v1.926c0,11.121-7.332,20.523-17.434,23.645c-9.113-2.801-15.965-10.727-17.23-20.422
		c1.652,0.102,3.316,0.152,4.984,0.152c4.684,0,9.277-0.371,13.746-1.105C128.281,267.871,133.609,266.453,138.703,264.563z"/>
	<path fill="#F6CAAE" d="M46.043,186.316c0,11.461-8.371,20.965-19.336,22.727c-1.195,0.195-2.43,0.297-3.688,0.297
		C10.305,209.34,0,199.035,0,186.316c0-12.715,10.305-23.02,23.02-23.02c1.258,0,2.492,0.102,3.688,0.297
		C37.672,165.355,46.043,174.855,46.043,186.316z"/>
	<path fill="#EAB599" d="M46.043,186.316c0,11.461-8.371,20.965-19.336,22.727c-1.988-7.238-3.055-14.859-3.055-22.727
		c0-7.863,1.066-15.484,3.055-22.723C37.672,165.355,46.043,174.855,46.043,186.316z"/>
	<path fill="#EAB599" d="M31.25,186.316c0,4.547-3.684,8.23-8.23,8.23c-4.543,0-8.227-3.684-8.227-8.23
		c0-4.543,3.684-8.227,8.227-8.227C27.566,178.09,31.25,181.773,31.25,186.316z"/>
	<path fill="#EAB599" d="M173.059,156.922v79.133c-12.23,11.676-27.914,19.762-45.363,22.574c-0.137,0.023-0.285,0.047-0.422,0.07
		c-4.336,0.691-8.785,1.035-13.328,1.035c-47.301,0-85.648-38.348-85.648-85.648v-32.617c0-4.176,0.297-8.285,0.875-12.301
		c20.379,14.656,49.598,13.207,68.215-4.387c6.164-5.824,10.449-12.758,12.871-20.113c1.348,12.879,7.238,25.414,17.68,35.285
		C140.367,151.688,156.789,157.348,173.059,156.922z"/>
	<path fill="#F6CAAE" d="M173.059,156.922v79.133c-12.23,11.676-27.914,19.762-45.363,22.574c-0.137,0.023-0.285,0.047-0.422,0.07
		c-40.969-6.402-72.305-41.855-72.305-84.613v-32.617c0-0.867,0.016-1.73,0.047-2.59c15.102,1.547,30.789-3.148,42.371-14.102
		c6.164-5.82,10.449-12.758,12.871-20.109c1.348,12.879,7.238,25.414,17.68,35.285C140.367,151.688,156.789,157.348,173.059,156.922
		z"/>
	<path fill="#EAB599" d="M159.949,166.852c0-7.859-6.371-14.227-14.227-14.227s-14.227,6.367-14.227,14.227"/>
	<path fill="#EAB599" d="M96.41,166.852c0-7.859-6.371-14.227-14.227-14.227s-14.223,6.367-14.223,14.227"/>
	<path fill="#3D4159" d="M91.902,172.906c0,5.367-4.352,9.719-9.719,9.719s-9.715-4.352-9.715-9.719s4.348-9.715,9.715-9.715
		S91.902,167.539,91.902,172.906z"/>
	<path fill="#3D4159" d="M155.438,172.906c0,5.367-4.348,9.719-9.715,9.719s-9.715-4.352-9.715-9.719s4.348-9.715,9.715-9.715
		S155.438,167.539,155.438,172.906z"/>
	<path fill="#EAB599" d="M123.672,197.371h-19.434c-2.316,0-4.191-1.879-4.191-4.191s1.875-4.191,4.191-4.191h19.434
		c2.313,0,4.188,1.879,4.188,4.191S125.984,197.371,123.672,197.371z"/>
	<path fill="#EAB599" d="M113.953,223.891c-7.172,0-14.344-1.797-20.883-5.395c-1.844-1.012-2.516-3.328-1.504-5.172
		c1.016-1.844,3.332-2.516,5.176-1.504c10.777,5.926,23.645,5.926,34.422,0c1.844-1.016,4.16-0.34,5.176,1.504
		c1.012,1.844,0.34,4.16-1.504,5.172C128.297,222.094,121.125,223.891,113.953,223.891z"/>
	<path fill="#FFFFFF" d="M89.922,171.191c0,2.301-1.867,4.164-4.164,4.164c-2.301,0-4.164-1.863-4.164-4.164
		s1.863-4.164,4.164-4.164C88.055,167.027,89.922,168.891,89.922,171.191z"/>
	<path fill="#FFFFFF" d="M153.934,171.191c0,2.301-1.863,4.164-4.16,4.164c-2.301,0-4.164-1.863-4.164-4.164
		s1.863-4.164,4.164-4.164C152.07,167.027,153.934,168.891,153.934,171.191z"/>
	<path fill="#EAB599" d="M172.25,196.574c0,5.891-4.777,10.668-10.672,10.668c-5.891,0-10.668-4.777-10.668-10.668
		c0-5.895,4.777-10.672,10.668-10.672C167.473,185.902,172.25,190.68,172.25,196.574z"/>
	<path fill="#EAB599" d="M76.988,196.574c0,5.891-4.773,10.668-10.668,10.668c-5.891,0-10.668-4.777-10.668-10.668
		c0-5.895,4.777-10.672,10.668-10.672C72.215,185.902,76.988,190.68,76.988,196.574z"/>
	<path fill="#BFD5DE" d="M489.023,330.105v32.047c-25.223,55.285-69.539,100.016-124.512,125.785
		c-9.957,4.66-20.27,8.703-30.887,12.066c-11.941,3.816-24.262,6.75-36.906,8.766c-0.051,0.012-0.113,0.023-0.168,0.023V330.105
		c0-38.086,29.332-69.332,66.656-72.34c1.965-0.168,3.938-0.238,5.934-0.238h47.273c5.59,0,11.031,0.613,16.258,1.816
		C464.938,266.719,489.023,295.613,489.023,330.105z"/>
	<path fill="#DDE8ED" d="M489.023,330.105v32.047c-25.223,55.285-69.539,100.016-124.512,125.785
		c-9.957,4.66-20.27,8.703-30.887,12.066V330.105c0-40.082,32.508-72.578,72.602-72.578h10.195
		C456.527,257.527,489.023,290.023,489.023,330.105z"/>
	<path fill="#D3A489" d="M321.734,177.465c0,11.992-8.758,21.934-20.227,23.777c-1.254,0.203-2.543,0.309-3.859,0.309
		c-13.305,0-24.086-10.781-24.086-24.086s10.781-24.086,24.086-24.086c1.316,0,2.605,0.105,3.859,0.309
		C312.977,155.535,321.734,165.477,321.734,177.465z"/>
	<path fill="#4C4C4C" d="M412.273,283.711l-19.488,31.258l-19.488-31.258"/>
	<path fill="#4C4C4C" d="M419.004,403.266l-26.219,33.086l-26.223-33.086l26.227-96.43L419.004,403.266z"/>
	<path fill="#BF8E75" d="M321.734,177.465c0,11.992-8.758,21.934-20.227,23.777c-2.082-7.574-3.195-15.547-3.195-23.777
		c0-8.227,1.113-16.199,3.195-23.777C312.977,155.535,321.734,165.477,321.734,177.465z"/>
	<path fill="#BF8E75" d="M306.258,177.465c0,4.754-3.855,8.609-8.609,8.609s-8.605-3.855-8.605-8.609s3.852-8.605,8.605-8.605
		S306.258,172.711,306.258,177.465z"/>
	<path fill="#BFD5DE" d="M392.777,287.238l-32.68,18.164l-9.941-46.246l20.305-11.961"/>
	<path fill="#BFD5DE" d="M392.777,287.238l32.684,18.164l9.941-46.246l-20.309-11.961"/>
	<path fill="#D3A489" d="M463.828,177.465c0,11.992,8.758,21.934,20.227,23.777c1.254,0.203,2.543,0.309,3.859,0.309
		c13.305,0,24.086-10.781,24.086-24.086s-10.781-24.086-24.086-24.086c-1.316,0-2.605,0.105-3.859,0.309
		C472.586,155.535,463.828,165.477,463.828,177.465z"/>
	<g>
		<path fill="#BF8E75" d="M463.828,177.465c0,11.992,8.758,21.934,20.227,23.777c2.086-7.574,3.195-15.547,3.195-23.777
			c0-8.227-1.109-16.199-3.195-23.777C472.586,155.535,463.828,165.477,463.828,177.465z"/>
		<path fill="#BF8E75" d="M496.523,177.465c0,4.754-3.855,8.609-8.609,8.609s-8.609-3.855-8.609-8.609s3.855-8.605,8.609-8.605
			S496.523,172.711,496.523,177.465z"/>
		<path fill="#BF8E75" d="M482.398,164.664c0,44.594-32.578,81.59-75.234,88.457c-4.676,0.77-9.48,1.156-14.383,1.156
			c-49.496,0-89.613-40.117-89.613-89.613c0-23.418,8.133-58.574,22.84-74.539c16.375-17.777,40.695-15.078,66.773-15.078
			c4.902,0,9.703,0.391,14.383,1.16C449.82,83.074,482.398,120.066,482.398,164.664z"/>
		<path fill="#BF8E75" d="M418.684,229.559v31.785c0,11.637-7.672,21.473-18.242,24.738c-2.418,0.75-4.996,1.156-7.664,1.156
			c-14.301,0-25.895-11.594-25.895-25.895v-31.785H418.684z"/>
	</g>
	<path fill="#D3A489" d="M418.684,259.328v2.016c0,11.637-7.672,21.473-18.242,24.738c-9.535-2.93-16.703-11.223-18.027-21.367
		c1.73,0.105,3.469,0.16,5.219,0.16c4.898,0,9.703-0.391,14.383-1.156C407.781,262.789,413.352,261.309,418.684,259.328z"/>
	<path fill="#D3A489" d="M482.398,164.664c0,44.594-32.578,81.59-75.234,88.457c-42.652-6.867-75.23-43.863-75.23-88.457
		c0-27.461,12.352-52.039,31.809-68.48c12.133-10.258,27.035-17.34,43.422-19.98c39.766,6.402,70.785,39,74.793,79.523
		C482.25,158.668,482.398,161.652,482.398,164.664z"/>
	<path fill="#BF8E75" d="M392.785,208.801c-7.508,0-15.008-1.879-21.848-5.641c-1.934-1.059-2.637-3.484-1.574-5.414
		c1.059-1.93,3.484-2.633,5.414-1.57c11.273,6.195,24.738,6.195,36.016,0c1.926-1.063,4.352-0.359,5.41,1.57
		c1.063,1.93,0.359,4.355-1.57,5.414C407.793,206.922,400.285,208.801,392.785,208.801z"/>
	<path fill="#3D4159" d="M373.699,159.449c0,5.613-4.551,10.164-10.168,10.164c-5.613,0-10.164-4.551-10.164-10.164
		c0-5.617,4.551-10.168,10.164-10.168C369.148,149.281,373.699,153.832,373.699,159.449z"/>
	<path fill="#3D4159" d="M432.199,159.449c0,5.613-4.551,10.164-10.164,10.164c-5.617,0-10.168-4.551-10.168-10.164
		c0-5.617,4.551-10.168,10.168-10.168C427.648,149.281,432.199,153.832,432.199,159.449z"/>
	<path fill="#FFFFFF" d="M371.625,157.652c0,2.406-1.949,4.359-4.355,4.359s-4.355-1.953-4.355-4.359
		c0-2.402,1.949-4.355,4.355-4.355S371.625,155.25,371.625,157.652z"/>
	<path fill="#FFFFFF" d="M430.625,157.652c0,2.406-1.949,4.359-4.355,4.359s-4.355-1.953-4.355-4.359
		c0-2.402,1.949-4.355,4.355-4.355S430.625,155.25,430.625,157.652z"/>
	<path fill="#BF8E75" d="M402.949,185.043h-20.332c-2.422,0-4.387-1.965-4.387-4.387s1.965-4.383,4.387-4.383h20.332
		c2.422,0,4.387,1.961,4.387,4.383C407.332,183.078,405.371,185.043,402.949,185.043z"/>
	<path fill="#BFD5DE" d="M422.289,327.727h39.066v11.957h-39.066V327.727z"/>
	<path fill="#2A2F4F" d="M387.539,49.449c27.148,1.938,48.945,23.867,50.324,51.473l0.258,5.184h15.617l8.41,55.93l20.371-6.305
		l-2.734-54.805c-1.445-29-25.43-51.727-54.453-51.617L387.539,49.449z"/>
	<path fill="#3D4159" d="M478.059,27.816c21.617,21.617,21.617,56.668,0,78.285s-56.668,21.617-78.285,0L478.059,27.816z"/>
	<path fill="#3D4159" d="M399.773,106.102h-67.938l-8.414,55.934l-20.371-6.305l2.73-54.809
		c1.445-28.992,25.43-51.727,54.457-51.617l98.121,0.371l12.973,23.348"/>
	<path fill="#2A2F4F" d="M398.027,49.449c-27.148,1.938-48.945,23.867-50.324,51.473l-0.258,5.184h-15.613l-8.414,55.93
		l-20.371-6.305l2.734-54.805c1.445-29,25.43-51.727,54.453-51.617L398.027,49.449z"/>
	<path fill="#020235" d="M364.512,468.742v19.195C331.566,503.371,294.797,512,256,512s-75.578-8.629-108.523-24.074v-19.184
		c0-37.879,25.715-69.738,60.645-79.078c1.277-0.344,2.563-0.66,3.867-0.941c3.469-0.754,7.031-1.273,10.648-1.566
		c2.215-0.18,4.441-0.273,6.699-0.273h53.309c5.965,0,11.766,0.629,17.367,1.84c0.324,0.063,0.648,0.137,0.961,0.211
		c0.941,0.219,1.879,0.449,2.809,0.699c0.035,0.008,0.043,0.008,0.074,0.02c9.219,2.465,17.797,6.5,25.414,11.797
		C350.574,416.227,364.512,440.852,364.512,468.742z"/>
	<path fill="#D2D9F7" d="M304.055,388.723l-0.199,0.93l-26.109,121.43c-1.352,0.113-2.707,0.219-4.066,0.313
		c-1.914,0.125-3.836,0.238-5.77,0.324C263.961,511.906,259.992,512,256,512c-4.098,0-8.16-0.094-12.203-0.293
		c-1.828-0.082-3.66-0.188-5.488-0.324c-1.367-0.094-2.727-0.188-4.086-0.301l-26.102-121.418l-0.195-0.941H304.055z"/>
	<path fill="#80A1FF" d="M277.969,416.422l-21.977,35.242l-21.973-35.242"/>
	<path fill="#80A1FF" d="M273.68,511.395c-1.914,0.125-3.836,0.238-5.77,0.324C263.961,511.906,259.992,512,256,512
		c-4.098,0-8.16-0.094-12.203-0.293c-1.828-0.082-3.66-0.188-5.488-0.324L256,442.492L273.68,511.395z"/>
	<path fill="#B5C4E8" d="M255.988,420.395l-36.855,20.48l-11.211-52.145l22.898-13.488"/>
	<path fill="#B5C4E8" d="M255.988,420.395l36.852,20.48l11.211-52.145l-22.898-13.488"/>
	<path fill="#2A2F4F" d="M305.445,459.098h11.691l-20.418,49.672c-9.445,1.516-19.059,2.508-28.809,2.949l35.871-122.086l0.273-0.91
		l25.215,8.234L305.445,459.098z"/>
	<path fill="#2A2F4F" d="M243.797,511.707c-9.762-0.449-19.383-1.461-28.828-2.988l-20.398-49.621h11.691l-23.832-62.141
		l25.223-8.234l0.273,0.91L243.797,511.707z"/>
	<path fill="#EAB599" d="M285.199,355.352v35.84c0,13.125-8.652,24.215-20.57,27.898c-2.73,0.848-5.637,1.305-8.645,1.305
		c-16.129,0-29.199-13.074-29.199-29.203v-35.84H285.199z"/>
	<path fill="#F6CAAE" d="M285.199,388.922v2.273c0,13.121-8.652,24.211-20.57,27.898c-10.754-3.309-18.84-12.656-20.332-24.098
		c1.953,0.121,3.914,0.18,5.883,0.18c5.527,0,10.945-0.438,16.219-1.301C272.902,392.828,279.184,391.152,285.199,388.922z"/>
	<path fill="#F6CAAE" d="M175.875,296.609c0,13.52-9.879,24.73-22.813,26.813c-1.414,0.227-2.867,0.348-4.348,0.348
		c-15.004,0-27.164-12.156-27.164-27.16s12.156-27.164,27.164-27.164c1.48,0,2.934,0.121,4.348,0.352
		C165.996,271.879,175.875,283.09,175.875,296.609z"/>
	<path fill="#EAB599" d="M175.875,296.609c0,13.52-9.879,24.73-22.813,26.813c-2.348-8.543-3.602-17.535-3.602-26.813
		c0-9.281,1.254-18.27,3.602-26.813C165.996,271.879,175.875,283.09,175.875,296.609z"/>
	<path fill="#EAB599" d="M158.422,296.609c0,5.359-4.348,9.707-9.707,9.707c-5.363,0-9.707-4.348-9.707-9.707
		c0-5.363,4.344-9.707,9.707-9.707C154.074,286.902,158.422,291.246,158.422,296.609z"/>
	<path fill="#F6CAAE" d="M336.105,296.609c0,13.52,9.879,24.73,22.813,26.813c1.41,0.227,2.867,0.348,4.348,0.348
		c15.004,0,27.164-12.156,27.164-27.16s-12.156-27.164-27.164-27.164c-1.48,0-2.938,0.121-4.348,0.352
		C345.984,271.879,336.105,283.09,336.105,296.609z"/>
	<path fill="#EAB599" d="M336.105,296.609c0,13.52,9.879,24.73,22.813,26.813c2.348-8.543,3.602-17.535,3.602-26.813
		c0-9.281-1.254-18.27-3.602-26.813C345.984,271.879,336.105,283.09,336.105,296.609z"/>
	<path fill="#EAB599" d="M357.047,243.695v38.48c0,50.289-36.738,92.004-84.84,99.746c-0.16,0.027-0.332,0.055-0.492,0.082
		c-5.117,0.82-10.367,1.223-15.727,1.223c-55.809,0-101.047-45.242-101.047-101.047v-38.484c0-11.75,2.004-23.043,5.707-33.535
		c13.82-39.328,51.293-67.523,95.34-67.523h0.008c5.352,0,10.609,0.414,15.734,1.223
		C320.066,151.41,357.047,193.238,357.047,243.695z"/>
	<path fill="#EAB599" d="M372.973,296.609c0,5.359-4.344,9.707-9.707,9.707c-5.359,0-9.707-4.348-9.707-9.707
		c0-5.363,4.348-9.707,9.707-9.707C368.629,286.902,372.973,291.246,372.973,296.609z"/>
	<path fill="#F6CAAE" d="M357.043,243.695v38.48c0,50.285-36.734,92.004-84.836,99.746c-0.164,0.027-0.332,0.055-0.496,0.082
		c-48.332-7.555-85.305-49.379-85.305-99.828v-38.48c0-50.457,36.98-92.285,85.324-99.836
		C320.066,151.41,357.043,193.238,357.043,243.695z"/>
	<path fill="#3D4159" d="M234.469,276.289c0,6.332-5.133,11.465-11.461,11.465c-6.332,0-11.465-5.133-11.465-11.465
		c0-6.328,5.133-11.461,11.465-11.461C229.336,264.828,234.469,269.961,234.469,276.289z"/>
	<path fill="#3D4159" d="M300.441,276.289c0,6.332-5.133,11.465-11.465,11.465s-11.465-5.133-11.465-11.465
		c0-6.328,5.133-11.461,11.465-11.461S300.441,269.961,300.441,276.289z"/>
	<path fill="#FFFFFF" d="M232.133,274.27c0,2.711-2.199,4.91-4.914,4.91c-2.711,0-4.91-2.199-4.91-4.91
		c0-2.715,2.199-4.914,4.91-4.914C229.934,269.355,232.133,271.555,232.133,274.27z"/>
	<path fill="#FFFFFF" d="M298.664,274.27c0,2.711-2.199,4.91-4.91,4.91c-2.715,0-4.914-2.199-4.914-4.91
		c0-2.715,2.199-4.914,4.914-4.914C296.465,269.355,298.664,271.555,298.664,274.27z"/>
	<path fill="#EAB599" d="M267.457,300.66h-22.93c-2.73,0-4.945-2.215-4.945-4.945c0-2.734,2.215-4.945,4.945-4.945h22.93
		c2.73,0,4.945,2.211,4.945,4.945C272.398,298.445,270.184,300.66,267.457,300.66z"/>
	<path fill="#EAB599" d="M255.992,331.945c-8.461,0-16.926-2.121-24.637-6.363c-2.176-1.195-2.973-3.93-1.773-6.102
		c1.195-2.176,3.93-2.969,6.105-1.777c12.715,6.992,27.895,6.992,40.609,0c2.176-1.195,4.91-0.402,6.105,1.777
		c1.199,2.172,0.402,4.906-1.773,6.102C272.914,329.824,264.453,331.945,255.992,331.945z"/>
	<path fill="#2A2F4F" d="M357.047,208.773v39.418h-18.809V217.32l-135.766-25.227l-28.727-5.34v61.438h-18.809V208.77
		c0-44.938,36.422-81.359,81.352-81.359h39.406c1.07,0,2.141,0.02,3.211,0.074C322.34,129.156,357.047,164.906,357.047,208.773z"/>
	<path fill="#3D4159" d="M357.047,208.773v39.418h-18.809V217.32l-135.766-25.227c7.48-35.93,38.652-63.152,76.434-64.609
		C322.34,129.156,357.047,164.906,357.047,208.773z"/>
</g>
</svg>
